<svg xmlns="http://www.w3.org/2000/svg" width="29" height="25.375" viewBox="0 0 29 25.375">
  <path id="Massage" d="M5.389,25.375a.846.846,0,0,1-.845-.834v-3.4a.6.6,0,0,0-.6-.6H3.625A3.629,3.629,0,0,1,0,16.916V3.625A3.629,3.629,0,0,1,3.625,0H25.375A3.629,3.629,0,0,1,29,3.625V16.9a3.629,3.629,0,0,1-3.625,3.625h-13.8a2.4,2.4,0,0,0-1.7.713L5.981,25.133A.843.843,0,0,1,5.389,25.375ZM7.25,10.754a1.208,1.208,0,1,0,0,2.417h8.458a1.208,1.208,0,0,0,0-2.417Zm0-4.833a1.208,1.208,0,1,0,0,2.416H20.542a1.208,1.208,0,1,0,0-2.416Z" transform="translate(0 0)" fill="#f5c835"/>
</svg>
