<?xml version="1.0" encoding="utf-8"?>
<svg width="24px" height="24px" viewBox="0 0 24 24" version="1.1" xmlns:xlink="http://www.w3.org/1999/xlink" xmlns="http://www.w3.org/2000/svg">
  <g id="Group">
    <path d="M0 0L24 0L24 24L0 24L0 0Z" id="Shape" fill="none" fill-rule="evenodd" stroke="none" />
    <path d="M13 11C11.3431 11 10 9.65685 10 8C10 6.34315 11.3431 5 13 5C14.6569 5 16 6.34315 16 8C16 9.65685 14.6569 11 13 11ZM4 8C1.79086 8 0 6.20914 0 4C0 1.79086 1.79086 0 4 0C6.20914 0 8 1.79086 8 4C8 6.20914 6.20914 8 4 8Z" transform="translate(5 3)" id="Combined-Shape" fill="#7034FF" fill-opacity="0.3495396" stroke="none" />
    <path d="M17.6012 2.00062C21.0077 2.03785 23.7892 3.76014 23.9985 7.4C24.0069 7.54661 23.9985 8 23.4559 8L19.6 8C19.6 5.74907 18.8563 3.67183 17.6012 2.00062ZM0.000651684 7.19921C0.388259 2.42652 4.26191 0 8.98334 0C13.7712 0 17.7049 2.29319 17.9979 7.2C18.0096 7.39547 17.9979 8 17.2467 8C13.5411 8 8.03472 8 0.727502 8C0.476712 8 -0.0204618 7.45918 0.000651684 7.19921Z" transform="translate(-2.3874236E-12 13)" id="Combined-Shape" fill="#7034FF" stroke="none" />
  </g>
</svg>