<svg width="58" height="58" viewBox="0 0 58 58" fill="none" xmlns="http://www.w3.org/2000/svg">
<path d="M48.2188 20.6172H29.6973C28.8482 20.6172 28.1296 21.2439 28.0139 22.085C27.3651 26.8036 24.699 30.8904 20.918 33.4453V58H48.2188C49.1572 58 49.918 57.2392 49.918 56.3008V22.3164C49.918 21.378 49.1572 20.6172 48.2188 20.6172Z" fill="#FDA3FF"/>
<path d="M19.8242 39.6484C8.89314 39.6484 0 30.7553 0 19.8242C0 8.89314 8.89314 0 19.8242 0C30.7553 0 39.6484 8.89314 39.6484 19.8242C39.6484 20.7366 39.5859 21.6531 39.4625 22.5483C39.3468 23.3892 38.6281 24.0156 37.7793 24.0156H24.0156V37.7793C24.0156 38.6281 23.3892 39.3468 22.5483 39.4625C21.6531 39.5859 20.7366 39.6484 19.8242 39.6484Z" fill="#75FFE6"/>
<path d="M39.6312 20.6172C38.5538 20.6172 23.1146 20.6172 22.3164 20.6172C21.378 20.6172 20.6172 21.378 20.6172 22.3164C20.6172 23.0156 20.6172 38.8723 20.6172 39.6312C30.9499 39.2228 39.2249 30.9043 39.6312 20.6172Z" fill="#FF8989"/>
<path d="M39.6312 20.6172C39.0099 20.6172 33.6117 20.6172 29 20.6172V37.3955C35.1124 34.1939 39.3436 27.8992 39.6312 20.6172Z" fill="#FF8989"/>
</svg>
