<?xml version="1.0" encoding="utf-8"?>
<svg width="70px" height="65px" viewBox="0 0 70 65" version="1.1" xmlns:xlink="http://www.w3.org/1999/xlink" xmlns="http://www.w3.org/2000/svg">
  <g id="plus-sign">
    <g id="effect">
      <g id="Group">
        <path d="M0 0L2.43116 0.0211159L2.47339 4.92415L0.0422319 4.90303L0 0Z" transform="matrix(0.53188485 -0.84681666 0.84681666 0.53188485 0.10299194 4.6101246)" id="Path" fill="#6F55FF" stroke="none" />
        <path d="M0 0L4.86232 0.0422319L4.88344 2.49375L0.0211159 2.45152L0 0Z" transform="matrix(0.53188485 -0.84681666 0.84681666 0.53188485 2.2917333 15.970615)" id="Path" fill="#6F55FF" stroke="none" />
        <path d="M0 2.21489e-15L4.86232 0.0422319L4.88344 2.49375L0.0211159 2.45152L0 2.21489e-15Z" transform="matrix(0.53188485 -0.84681666 0.84681666 0.53188485 9.8365755 4.1989765)" id="Path" fill="#6F55FF" stroke="none" />
      </g>
      <path d="M3.69637 7.25212C1.65844 7.25212 0 5.62523 0 3.62606C0 1.62689 1.65844 0 3.69637 0C5.7343 0 7.39274 1.62689 7.39274 3.62606C7.39274 5.62523 5.7343 7.25212 3.69637 7.25212ZM3.69637 2.41737C3.01624 2.41737 2.46425 2.96128 2.46425 3.62606C2.46425 4.29084 3.01624 4.83475 3.69637 4.83475C4.3765 4.83475 4.92849 4.29084 4.92849 3.62606C4.92849 2.96128 4.3765 2.41737 3.69637 2.41737Z" transform="translate(27.603102 52.737602)" id="Shape" fill="#6F55FF" stroke="none" />
    </g>
    <g id="shadow" transform="translate(13 9)">
      <g id="Group">
        <path d="M2.77165 7.32007L6.42777 3.71287C8.24105 1.92487 10.4633 0.804069 12.794 0.300069C8.63524 -0.599931 4.11929 0.520869 0.884465 3.71287L0 4.58407L2.77165 7.32007Z" transform="translate(28.62456 0.06128072)" id="Path" fill="#D5DBE1" stroke="none" />
        <path d="M9.32939 21.7513C4.28128 16.7689 4.28128 8.69287 9.32939 3.71287C11.1427 1.92487 13.3649 0.804069 15.6956 0.300069C11.5369 -0.599931 7.02091 0.520869 3.78608 3.71287C-1.26203 8.69527 -1.26203 16.7713 3.78608 21.7513L25.7179 43.3993L28.4895 40.6633L9.32939 21.7513Z" transform="translate(0.13504112 0.06128072)" id="Path" fill="#D5DBE1" stroke="none" />
      </g>
    </g>
    <g id="_x31_.5" transform="translate(11 7)">
      <path d="M0 0L3.68031 0L3.68031 13.2658L0 13.2658L0 0Z" transform="translate(41.096817 35.576347)" id="Path" fill="#FFBE5A" stroke="none" />
      <path d="M0 0L13.4945 0L13.4945 3.61793L0 3.61793L0 0Z" transform="translate(36.189735 40.40026)" id="Path" fill="#FFBE5A" stroke="none" />
      <path d="M15.948 31.3554C7.15453 31.3554 0 24.3222 0 15.6777C0 7.03326 7.15453 0 15.948 0C24.7415 0 31.896 7.03326 31.896 15.6777C31.896 24.3222 24.7415 31.3554 15.948 31.3554ZM15.948 3.61793C9.18361 3.61793 3.68031 9.02795 3.68031 15.6777C3.68031 22.3275 9.18361 27.7375 15.948 27.7375C22.7124 27.7375 28.2157 22.3275 28.2157 15.6777C28.2157 9.02795 22.7124 3.61793 15.948 3.61793Z" transform="translate(26.988955 26.531513)" id="Shape" fill="#FFBE5A" stroke="none" />
      <path d="M20.1724 40.4702L4.32253 24.8552C-1.44084 19.1775 -1.44084 9.94208 4.32253 4.26434C7.11466 1.51471 10.8269 2.14225e-15 14.7771 2.14225e-15C18.7273 2.14225e-15 22.4419 1.51471 25.2365 4.26916L27.5944 6.59188L29.9547 4.26675C32.7468 1.51471 36.4615 0 40.4117 0C44.3619 0 48.0765 1.51471 50.8687 4.26916C56.0947 9.41628 56.6467 17.6459 52.1568 23.4153L49.2346 21.2156C52.6107 16.8813 52.1936 10.6946 48.2654 6.82583C46.1677 4.75879 43.378 3.62035 40.4141 3.62035C37.4502 3.62035 34.6606 4.75879 32.5628 6.82342L28.8996 10.4317C28.5537 10.7718 28.0851 10.9623 27.5968 10.9623C27.1086 10.9623 26.6399 10.7718 26.294 10.4317L22.6333 6.82583C20.5331 4.75638 17.7434 3.61793 14.7771 3.61793C11.8107 3.61793 9.02351 4.75638 6.92573 6.82101C2.59278 11.0902 2.59278 18.0342 6.92573 22.3009L22.7756 37.9184L20.1724 40.4702Z" transform="translate(0.007974009 -4.2844942E-15)" id="Path" fill="#6F55FF" stroke="none" />
    </g>
  </g>
</svg>