<svg width="30" height="30" viewBox="0 0 30 30" fill="none" xmlns="http://www.w3.org/2000/svg">
<path d="M28.3926 14.375C28.3969 16.0249 28.0114 17.6524 27.2676 19.125C26.3856 20.8897 25.0298 22.374 23.3519 23.4116C21.674 24.4493 19.7404 24.9993 17.7676 25C16.1177 25.0043 14.4902 24.6189 13.0176 23.875L5.89258 26.25L8.26758 19.125C7.52374 17.6524 7.13828 16.0249 7.14258 14.375C7.14334 12.4022 7.69334 10.4686 8.73098 8.79072C9.76861 7.11285 11.2529 5.75699 13.0176 4.87504C14.4902 4.1312 16.1177 3.74573 17.7676 3.75004H18.3926C20.998 3.89378 23.4589 4.99349 25.304 6.83861C27.1491 8.68373 28.2488 11.1446 28.3926 13.75V14.375Z" stroke="white" stroke-width="2.5" stroke-linecap="round" stroke-linejoin="round"/>
</svg>
