<svg width="28" height="28" viewBox="0 0 28 28" fill="none" xmlns="http://www.w3.org/2000/svg">
<path d="M22.3628 4.28612L4.25586 22.3623L5.57465 23.6833L23.6815 5.60714L22.3628 4.28612Z" fill="white"/>
<path d="M5.57465 4.2864L4.25586 5.60742L22.3628 23.6836L23.6815 22.3626L5.57465 4.2864Z" fill="white"/>
<path d="M16.8873 17.1046C14.3156 19.6759 13.0842 23.2222 13.5092 26.8336L15.3628 26.6155C15.005 23.5754 16.042 20.5896 18.207 18.4243C20.4516 16.1796 23.6524 15.138 26.7634 15.637L27.0593 13.794C23.3574 13.1998 19.5541 14.4377 16.8873 17.1046Z" fill="white"/>
<path d="M13.5307 1.14612L11.669 1.28054C11.8756 4.14496 10.8178 6.96421 8.76201 9.02008C6.74044 11.0687 4.00048 12.0973 1.05266 11.9171L0.938477 13.7804C1.20043 13.7966 1.4602 13.8044 1.71903 13.8044C4.91634 13.8044 7.86503 12.5873 10.0864 10.3355C12.5212 7.90063 13.7765 4.55124 13.5307 1.14612Z" fill="white"/>
<path d="M14 0C6.28042 0 0 6.28042 0 14C0 21.7196 6.28042 28 14 28C21.7196 28 28 21.7196 28 14C28 6.28042 21.7196 0 14 0ZM14 26.1334C7.30953 26.1334 1.86665 20.6905 1.86665 14C1.86665 7.30953 7.30953 1.86665 14 1.86665C20.6905 1.86665 26.1334 7.30953 26.1334 14C26.1334 20.6905 20.6905 26.1334 14 26.1334Z" fill="white"/>
</svg>
