<svg width="24" height="24" viewBox="0 0 24 24" fill="none" xmlns="http://www.w3.org/2000/svg">
<g clip-path="url(#clip0)">
<path d="M14.0005 24C13.7841 24 13.5736 23.9298 13.4005 23.8L9.40047 20.8C9.27627 20.7069 9.17547 20.5861 9.10604 20.4472C9.03661 20.3084 9.00047 20.1552 9.00047 20V14.38L1.98447 6.487C1.48619 5.92488 1.16085 5.23082 1.04755 4.48823C0.934249 3.74565 1.03781 2.98615 1.34579 2.30101C1.65377 1.61588 2.15306 1.03426 2.78365 0.626066C3.41424 0.217873 4.14929 0.000474419 4.90047 0L19.1005 0C19.8516 0.000881051 20.5865 0.218639 21.2168 0.627107C21.8471 1.03557 22.3461 1.61737 22.6537 2.30259C22.9614 2.9878 23.0646 3.74727 22.951 4.48975C22.8375 5.23222 22.5119 5.9261 22.0135 6.488L15.0005 14.38V23C15.0005 23.2652 14.8951 23.5196 14.7076 23.7071C14.52 23.8946 14.2657 24 14.0005 24Z" fill="#FF5A0F"/>
</g>
<defs>
<clipPath id="clip0">
<rect width="24" height="24" fill="white"/>
</clipPath>
</defs>
</svg>
