<svg width="38" height="38" viewBox="0 0 38 38" fill="none" xmlns="http://www.w3.org/2000/svg">
<g clip-path="url(#clip0)">
<path d="M26.9167 38L31.6667 38C35.1645 38 38 35.1645 38 31.6667L38 26.9167C38 23.4189 35.1645 20.5833 31.6667 20.5833L26.9167 20.5833C23.4189 20.5833 20.5833 23.4189 20.5833 26.9167L20.5833 31.6667C20.5833 35.1645 23.4189 38 26.9167 38Z" fill="#00DDC1"/>
<path d="M6.33366 38L11.0837 38C14.5815 38 17.417 35.1645 17.417 31.6667L17.417 26.9167C17.417 23.4189 14.5815 20.5833 11.0837 20.5833L6.33366 20.5833C2.83586 20.5833 0.000325524 23.4189 0.000325218 26.9167L0.000324803 31.6667C0.000324497 35.1645 2.83585 38 6.33366 38Z" fill="#00DDC1"/>
<path d="M26.9167 17.4166L31.6667 17.4166C35.1645 17.4166 38 14.5811 38 11.0833L38 6.33329C38 2.83549 35.1645 -3.83949e-05 31.6667 -3.87007e-05L26.9167 -3.91159e-05C23.4189 -3.94217e-05 20.5833 2.83549 20.5833 6.33329L20.5833 11.0833C20.5833 14.5811 23.4189 17.4166 26.9167 17.4166Z" fill="#00DDC1"/>
</g>
<defs>
<clipPath id="clip0">
<rect width="38" height="38" fill="white" transform="translate(38 38) rotate(-180)"/>
</clipPath>
</defs>
</svg>
