<svg width="46" height="46" viewBox="0 0 46 46" fill="none" xmlns="http://www.w3.org/2000/svg">
<path fill-rule="evenodd" clip-rule="evenodd" d="M25.9696 38.5114C27.0014 39.4509 27.5133 40.8234 27.3452 42.2001C27.1771 43.5767 26.3496 44.7895 25.1212 45.4593C23.4771 46.36 21.4342 46.1187 20.0512 44.8603L13.7693 39.1503C12.5017 38.0309 10.6608 37.8154 9.16385 38.6113C8.22644 39.1253 7.12075 39.2501 6.09026 38.958C5.05976 38.6659 4.18898 37.9809 3.66967 37.054L0.760983 31.863C-0.0191827 30.4732 -0.208477 28.8339 0.234787 27.3061C0.67805 25.7782 1.71752 24.4872 3.12429 23.7172L16.4356 16.4499C17.4451 15.8925 18.2721 15.0611 18.8191 14.0541L25.8686 1.53595C26.4037 0.587696 27.4162 0 28.5147 0C29.6132 0 30.6257 0.587696 31.1608 1.53595L45.6234 27.3908C46.1771 28.3835 46.1164 29.6 45.4665 30.534C44.8167 31.4679 43.689 31.9591 42.5531 31.8031L27.7673 29.8066C26.4649 29.6283 25.1391 29.8736 23.9901 30.5054L22.1721 31.5037C21.6133 31.8169 21.2385 32.3743 21.1627 33.0049C21.087 33.6355 21.3192 34.2642 21.7883 34.6981L25.9696 38.5114Z" fill="#9C5EFF"/>
</svg>
