<?xml version="1.0" encoding="utf-8"?>
<svg width="58px" height="58px" viewBox="0 0 58 58" version="1.1" xmlns:xlink="http://www.w3.org/1999/xlink" xmlns="http://www.w3.org/2000/svg">
  <g id="Icon">
    <path d="M20.8398 13.2281L18.6048 10.5716L26.7145 4.40633C26.9888 4.1978 26.9697 3.95074 26.9053 3.77848C26.8457 3.60621 26.6978 3.39995 26.3543 3.39995L4.17197 3.39995C3.8285 3.39995 3.68061 3.60621 3.6186 3.77848C3.5542 3.95074 3.53512 4.20007 3.80942 4.40407L11.9215 10.5716L9.68655 13.2281L1.57687 7.06283C0.171982 5.99751 -0.352763 4.27034 0.241153 2.65649C0.835068 1.04265 2.37829 0 4.17197 0L26.3543 0C28.148 0 29.6912 1.04265 30.2852 2.65649C30.8791 4.26807 30.3543 5.99978 28.9494 7.06283L20.8398 13.2281Z" transform="translate(6.105263 0)" id="Path" fill="#6F55FF" stroke="none" />
    <path d="M0 0L25.4386 0L25.4386 3.05263L0 3.05263L0 0Z" transform="translate(9.157895 11.192983)" id="Path" fill="#6F55FF" stroke="none" />
    <path d="M0 0L3.05263 0L3.05263 15.2632L0 15.2632L0 0Z" transform="translate(26.45614 35.614037)" id="Path" fill="#FF5CF0" stroke="none" />
    <path d="M15.7719 15.2632C7.93449 15.2632 0 12.6229 0 7.57294C0 -2.52431 31.5439 -2.52431 31.5439 7.57294C31.5439 12.6229 23.6094 15.2632 15.7719 15.2632ZM15.7719 3.72783C7.76707 3.72783 3.63968 6.42454 3.63968 7.57294C3.63968 8.72135 7.76707 11.418 15.7719 11.418C23.7768 11.418 27.9042 8.72135 27.9042 7.57294C27.9042 6.42454 23.7768 3.72783 15.7719 3.72783Z" transform="translate(26.45614 28.491228)" id="Shape" fill="#FF5CF0" stroke="none" />
    <path d="M15.7719 7.12281C7.93449 7.12281 0 4.67731 0 0L3.63968 0C3.63968 1.06367 7.76707 3.5614 15.7719 3.5614C23.7768 3.5614 27.9042 1.06367 27.9042 0L31.5439 0C31.5439 4.67731 23.6094 7.12281 15.7719 7.12281Z" transform="translate(26.45614 50.877193)" id="Path" fill="#FF5CF0" stroke="none" />
    <path d="M15.7719 7.12281C7.93449 7.12281 0 4.67731 0 0L3.63968 0C3.63968 1.06367 7.76707 3.5614 15.7719 3.5614C23.7768 3.5614 27.9042 1.06367 27.9042 0L31.5439 0C31.5439 4.67731 23.6094 7.12281 15.7719 7.12281Z" transform="translate(26.45614 43.754387)" id="Path" fill="#FF5CF0" stroke="none" />
    <path d="M0 0L3.05263 0L3.05263 15.2632L0 15.2632L0 0Z" transform="translate(54.94737 35.614037)" id="Path" fill="#FF5CF0" stroke="none" />
    <path d="M9.22446 13.2281C6.54365 8.54011 3.26838 4.8998 0 2.97718L1.74207 0C5.51769 2.22195 9.23593 6.30895 12.2105 11.5104L9.22446 13.2281Z" transform="translate(25.438597 12.210526)" id="Path" fill="#6F55FF" stroke="none" />
    <path d="M22.386 46.807L13.9156 46.807C4.30295 46.807 0 38.6238 0 30.5177C0 19.2528 7.4878 4.99297 16.0235 0L17.8604 3.12031C10.4113 7.47619 3.63016 20.5366 3.63016 30.5177C3.63016 36.3626 6.32373 43.1872 13.9156 43.1872L22.386 43.1872L22.386 46.807Z" transform="translate(0 11.192983)" id="Path" fill="#6F55FF" stroke="none" />
  </g>
</svg>