<svg width="26" height="26" viewBox="0 0 26 26" fill="none" xmlns="http://www.w3.org/2000/svg">
<path fill-rule="evenodd" clip-rule="evenodd" d="M25.6228 10.8729L24.3545 2.22153C24.2806 1.73008 23.8948 1.34431 23.4033 1.27033L14.7406 0.0360332C13.6764 -0.120132 12.6012 0.236892 11.8417 0.998557L0.993506 11.8468C-0.331169 13.1731 -0.331169 15.3217 0.993506 16.6481L8.99944 24.654C10.3258 25.9787 12.4744 25.9787 13.8007 24.654L24.649 13.8058C25.4252 13.0409 25.7874 11.9502 25.6228 10.8729ZM17.8207 7.79285C16.937 6.90814 16.9375 5.47463 17.8219 4.59058C18.7063 3.70653 20.1398 3.70653 21.0241 4.59058C21.9085 5.47463 21.9091 6.90814 21.0253 7.79285C20.6012 8.22659 20.0207 8.47203 19.4141 8.47416C18.8074 8.47628 18.2252 8.23493 17.798 7.80417L17.8207 7.79285Z" fill="#FFC100"/>
</svg>
