<svg width="25" height="26" viewBox="0 0 25 26" fill="none" xmlns="http://www.w3.org/2000/svg">
<path fill-rule="evenodd" clip-rule="evenodd" d="M14.1139 20.9703C14.6747 21.4809 14.9529 22.2268 14.8615 22.975C14.7702 23.7232 14.3204 24.3823 13.6528 24.7463C12.7593 25.2358 11.649 25.1047 10.8974 24.4208L7.4833 21.3175C6.79442 20.7091 5.79394 20.592 4.98035 21.0245C4.47089 21.3039 3.86997 21.3717 3.30992 21.213C2.74987 21.0542 2.27662 20.682 1.99438 20.1782L0.413578 17.357C-0.0104254 16.6017 -0.113303 15.7108 0.127602 14.8804C0.368506 14.0501 0.933435 13.3484 1.69798 12.93L8.93237 8.98034C9.48101 8.67737 9.93049 8.22556 10.2278 7.67826L14.059 0.874917C14.3498 0.359561 14.9001 0.0401611 15.4971 0.0401611C16.0941 0.0401611 16.6444 0.359561 16.9352 0.874917L24.7953 14.9265C25.0963 15.466 25.0633 16.1271 24.7101 16.6347C24.3569 17.1423 23.744 17.4093 23.1267 17.3245L15.0909 16.2394C14.3831 16.1425 13.6625 16.2758 13.0381 16.6192L12.0501 17.1617C11.7463 17.332 11.5427 17.6349 11.5015 17.9776C11.4603 18.3203 11.5865 18.662 11.8415 18.8978L14.1139 20.9703Z" fill="#00DDC1"/>
</svg>
