<svg width="30" height="38" viewBox="0 0 30 38" fill="none" xmlns="http://www.w3.org/2000/svg">
<g clip-path="url(#clip0_521:1078)">
<path d="M20.9997 18.75V11.8328C21.0036 10.8361 20.8097 9.84856 20.4292 8.92735C20.0487 8.00613 19.4891 7.16958 18.783 6.46616L17.5288 5.21666C16.8254 4.51052 15.9889 3.95099 15.0677 3.57049C14.1464 3.18999 13.1589 2.99608 12.1622 3H8.74967C7.04844 3.00185 5.41741 3.67849 4.21445 4.88144C3.0115 6.0844 2.33486 7.71543 2.33301 9.41667V18.75C2.33486 20.4512 3.0115 22.0823 4.21445 23.2852C5.41741 24.4882 7.04844 25.1648 8.74967 25.1667H14.583C16.2842 25.1648 17.9153 24.4882 19.1182 23.2852C20.3212 22.0823 20.9978 20.4512 20.9997 18.75ZM5.83301 18.75V9.41667C5.83301 8.64312 6.1403 7.90125 6.68728 7.35427C7.23426 6.80729 7.97613 6.5 8.74967 6.5H12.1668C12.3903 6.50351 12.6131 6.52536 12.833 6.56533V8.83333C12.833 9.45217 13.0788 10.0457 13.5164 10.4832C13.954 10.9208 14.5475 11.1667 15.1663 11.1667H17.4343C17.4743 11.3866 17.4962 11.6094 17.4997 11.8328V18.75C17.4997 19.5235 17.1924 20.2654 16.6454 20.8124C16.0984 21.3594 15.3566 21.6667 14.583 21.6667H8.74967C7.97613 21.6667 7.23426 21.3594 6.68728 20.8124C6.1403 20.2654 5.83301 19.5235 5.83301 18.75ZM26.833 12.9167V24.5833C26.8312 26.2846 26.1545 27.9156 24.9516 29.1186C23.7486 30.3215 22.1176 30.9981 20.4163 31H11.083C10.6189 31 10.1738 30.8156 9.84557 30.4874C9.51738 30.1592 9.33301 29.7141 9.33301 29.25C9.33301 28.7859 9.51738 28.3408 9.84557 28.0126C10.1738 27.6844 10.6189 27.5 11.083 27.5H20.4163C21.1899 27.5 21.9318 27.1927 22.4787 26.6457C23.0257 26.0987 23.333 25.3569 23.333 24.5833V12.9167C23.333 12.4525 23.5174 12.0074 23.8456 11.6792C24.1738 11.351 24.6189 11.1667 25.083 11.1667C25.5471 11.1667 25.9922 11.351 26.3204 11.6792C26.6486 12.0074 26.833 12.4525 26.833 12.9167Z" fill="black"/>
<path d="M25.2001 12.3333V24.1333C25.2001 26.8947 22.9615 29.1333 20.2001 29.1333H10.7334" stroke="#FFC65A" stroke-width="4" stroke-linecap="round"/>
</g>
<defs>
<clipPath id="clip0_521:1078">
<rect width="28" height="28" fill="white" transform="translate(0 3)"/>
</clipPath>
</defs>
</svg>
