<svg width="25" height="18" viewBox="0 0 25 18" fill="none" xmlns="http://www.w3.org/2000/svg">
<path d="M25 4.11499V2.79663C25 1.28647 23.7758 0.0622559 22.2656 0.0622559H2.73438C1.22422 0.0622559 0 1.28647 0 2.79663V4.11499C0 4.2498 0.109326 4.35913 0.244141 4.35913H24.7559C24.8907 4.35913 25 4.2498 25 4.11499Z" fill="#2CD4FE"/>
<path d="M0 6.40015V14.7498C0 16.2599 1.22422 17.4841 2.73438 17.4841H22.2656C23.7758 17.4841 25 16.2599 25 14.7498V6.40015C25 6.26533 24.8907 6.15601 24.7559 6.15601H0.244141C0.109326 6.15601 0 6.26533 0 6.40015ZM6.25 12.7966C6.25 13.2281 5.9002 13.5779 5.46875 13.5779H4.6875C4.25605 13.5779 3.90625 13.2281 3.90625 12.7966V12.0154C3.90625 11.5839 4.25605 11.2341 4.6875 11.2341H5.46875C5.9002 11.2341 6.25 11.5839 6.25 12.0154V12.7966Z" fill="#2CD4FE"/>
</svg>
