<svg width="24" height="24" viewBox="0 0 24 24" fill="none" xmlns="http://www.w3.org/2000/svg">
<path d="M12 0C5.38293 0 0 5.38293 0 12C0 18.6171 5.38293 24 12 24C18.6171 24 24 18.6171 24 12C24 5.38293 18.6171 0 12 0ZM17.707 18.2069C17.512 18.4019 17.256 18.5001 17.0001 18.5001C16.7441 18.5001 16.4879 18.4019 16.2931 18.2069L11.293 13.207C11.105 13.0201 11.0001 12.7659 11.0001 12.5001V6C11.0001 5.44702 11.4479 5.00006 12 5.00006C12.5521 5.00006 12.9999 5.44702 12.9999 6V12.0861L17.707 16.793C18.098 17.1841 18.098 17.816 17.707 18.2069Z" fill="#FC6443"/>
</svg>
