<svg width="34" height="35" viewBox="0 0 34 35" fill="none" xmlns="http://www.w3.org/2000/svg">
<path d="M15.851 1.06543H9.49913C4.2753 1.06543 1 4.76373 1 9.99945V24.1233C1 29.3591 4.26001 33.0574 9.49913 33.0574H24.4894C29.7302 33.0574 32.9902 29.3591 32.9902 24.1233V17.2805" stroke="#2A2A2A" stroke-width="2" stroke-linecap="round" stroke-linejoin="round"/>
<path fill-rule="evenodd" clip-rule="evenodd" d="M11.3245 14.8801L24.0197 2.18492C25.6013 0.605027 28.1648 0.605027 29.7464 2.18492L31.8138 4.25237C33.3954 5.83395 33.3954 8.39915 31.8138 9.97904L19.0575 22.7354C18.366 23.4268 17.4283 23.8158 16.4498 23.8158H10.0861L10.2457 17.3943C10.2695 16.4498 10.6552 15.5494 11.3245 14.8801Z" stroke="#2A2A2A" stroke-width="2" stroke-linecap="round" stroke-linejoin="round"/>
<path d="M22.0905 4.14624L29.8473 11.903" stroke="#2A2A2A" stroke-width="2" stroke-linecap="round" stroke-linejoin="round"/>
</svg>
