<svg width="74" height="70" viewBox="0 0 74 70" fill="none" xmlns="http://www.w3.org/2000/svg">
<path d="M69.2759 1H4.72414C2.66733 1 1 2.67199 1 4.73455V51.5721C1 53.6346 2.66733 55.3066 4.72414 55.3066H32.3603L29.8621 69H44.1379L41.6397 55.3066H69.2759C71.3322 55.3066 73 53.6323 73 51.5721V4.73455C73 2.67199 71.3327 1 69.2759 1Z" fill="#D6F4FC"/>
<path d="M73 5.71347V6.02292C73 8.07384 71.3327 9.73639 69.2759 9.73639H52.9828C29.4155 9.73639 10.3103 28.7868 10.3103 52.2865C10.3103 54.3375 8.64302 56 6.58621 56H4.72414C2.66733 56 1 54.3375 1 52.2865V5.71347C1 3.66255 2.66733 2 4.72414 2H69.2759C71.3327 2 73 3.66255 73 5.71347Z" fill="#E8F8FC"/>
<path d="M43 60H32L32.9128 55H42.0872L43 60Z" fill="#BDEFFC"/>
<path d="M56 15.4314V41.5686C56 42.912 54.8962 44 53.5333 44H21.4667C20.1038 44 19 42.912 19 41.5686V15.4314C19 14.088 20.1038 13 21.4667 13H53.5333C54.8962 13 56 14.088 56 15.4314Z" fill="white"/>
<path d="M56 14.5169V19C54.2405 19 20.752 19 19 19V14.5169C19 13.1263 20.1038 12 21.4667 12H53.5333C54.8962 12 56 13.1263 56 14.5169Z" fill="#585966"/>
<path d="M27 20V44H20.3415C19.0478 44 18 42.9226 18 41.5925V20H27Z" fill="#BDEFFC"/>
<path fill-rule="evenodd" clip-rule="evenodd" d="M74 4.94481V51.457C74 52.1396 73.4478 52.6932 72.7667 52.6932C72.0856 52.6932 71.5333 52.1396 71.5333 51.457V4.94481C71.5333 3.58159 70.4267 2.47241 69.0667 2.47241H4.93333C3.57328 2.47241 2.46667 3.58159 2.46667 4.94481V51.457C2.46667 52.8202 3.57328 53.9294 4.93333 53.9294H64.4417C65.1228 53.9294 65.675 54.4829 65.675 55.1656C65.675 55.8483 65.1228 56.4018 64.4417 56.4018H4.93333C2.21306 56.4018 0 54.1836 0 51.457V4.94481C0 2.21821 2.21306 0 4.93333 0H69.0667C71.7869 0 74 2.21821 74 4.94481ZM51.0292 67.5276H45.1198L43.7067 59.7863C43.5841 59.1148 42.9425 58.6697 42.2716 58.7929C41.6016 58.9157 41.1577 59.5598 41.2804 60.2314L42.6123 67.5276H31.3879L32.7197 60.2314C32.8423 59.5598 32.3986 58.9157 31.7286 58.7929C31.059 58.67 30.416 59.1148 30.2934 59.7863L28.8803 67.5276H22.9708C22.2897 67.5276 21.7375 68.0811 21.7375 68.7638C21.7375 69.4465 22.2897 70 22.9708 70H51.0292C51.7103 70 52.2625 69.4465 52.2625 68.7638C52.2625 68.0811 51.7103 67.5276 51.0292 67.5276ZM56.7333 14.8344V19.2384C56.7333 19.9211 56.1811 20.4746 55.5 20.4746H29.2146V37.7042C29.2146 38.3869 28.6624 38.9404 27.9813 38.9404C27.3001 38.9404 26.7479 38.3869 26.7479 37.7042V20.4746H24.8208C24.1397 20.4746 23.5875 19.9211 23.5875 19.2384C23.5875 18.5557 24.1397 18.0022 24.8208 18.0022H54.2667V14.8344C54.2667 14.1528 53.7134 13.5982 53.0333 13.5982H20.9667C20.2866 13.5982 19.7333 14.1528 19.7333 14.8344V41.4128C19.7333 42.0944 20.2866 42.649 20.9667 42.649H53.0333C53.7134 42.649 54.2667 42.0944 54.2667 41.4128V25.6512C54.2667 24.9685 54.8189 24.415 55.5 24.415C56.1811 24.415 56.7333 24.9685 56.7333 25.6512V41.4128C56.7333 43.4578 55.0736 45.1214 53.0333 45.1214H20.9667C18.9264 45.1214 17.2667 43.4578 17.2667 41.4128V14.8344C17.2667 12.7894 18.9264 11.1258 20.9667 11.1258H53.0333C55.0736 11.1258 56.7333 12.7894 56.7333 14.8344ZM33.3 35.6954C32.6189 35.6954 32.0667 36.2489 32.0667 36.9316C32.0667 37.6143 32.6189 38.1678 33.3 38.1678H41.3167C41.9978 38.1678 42.55 37.6143 42.55 36.9316C42.55 36.2489 41.9978 35.6954 41.3167 35.6954H33.3ZM43.3208 30.287C43.3208 29.6043 43.8731 29.0508 44.5542 29.0508H50.2583C50.9394 29.0508 51.4917 29.6043 51.4917 30.287C51.4917 30.9697 50.9394 31.5232 50.2583 31.5232H44.5542C43.8731 31.5232 43.3208 30.9697 43.3208 30.287Z" fill="black"/>
<rect x="42.5" y="29" width="10" height="2.63" rx="1.315" fill="#FFB840"/>
</svg>
