<svg width="25" height="25" viewBox="0 0 25 25" fill="none" xmlns="http://www.w3.org/2000/svg">
<path d="M24.2942 0.727478C23.669 0.0857476 22.7436 -0.153329 21.8807 0.0983306L1.76 5.9494C0.849623 6.20232 0.204359 6.92836 0.0305377 7.85069C-0.147035 8.78938 0.473219 9.98098 1.28355 10.4793L7.57488 14.346C8.22014 14.7424 9.05298 14.643 9.58695 14.1044L16.7911 6.85538C17.1538 6.47789 17.754 6.47789 18.1167 6.85538C18.4793 7.22028 18.4793 7.81168 18.1167 8.18917L10.9 15.4395C10.3648 15.9768 10.2647 16.8135 10.6586 17.4628L14.5027 23.8172C14.9529 24.5722 15.7282 25 16.5786 25C16.6786 25 16.7911 25 16.8912 24.9874C17.8666 24.8616 18.6419 24.1947 18.9295 23.251L24.8945 3.15599C25.1571 2.30035 24.9195 1.36921 24.2942 0.727478Z" fill="#F7BD4C"/>
</svg>
