<?xml version="1.0" encoding="utf-8"?>
<svg width="55px" height="72px" viewBox="0 0 55 72" version="1.1" xmlns:xlink="http://www.w3.org/1999/xlink" xmlns="http://www.w3.org/2000/svg">
  <g id="invoice">
    <path d="M39 0L3.54545 0C1.58807 0 0 1.5986 0 3.56897L0 65.431C0 67.4014 1.58807 69 3.54545 69L48.4545 69C50.4119 69 52 67.4014 52 65.431L52 13.0862L39 0Z" transform="translate(1 2)" id="Path" fill="#BDEFFC" stroke="none" />
    <path d="M50 10.3415C24.3231 18.3113 8.70409 39.7198 3.31372 65.6813C2.9133 67.6102 0.0277986 67.3491 0.000374644 65.3802C-0.000224786 65.3392 7.49287e-05 3.52263 7.49287e-05 3.56346C7.49287e-05 1.59539 1.61029 0 3.59665 0L39.5624 0L50 10.3415Z" transform="translate(1 1)" id="Path" fill="#D6F4FC" stroke="none" />
    <path d="M36 2.43902L36 22.561C36 23.9085 34.9078 25 33.5593 25L2.44068 25C1.0922 25 0 23.9085 0 22.561L0 2.43902C0 1.09146 1.0922 0 2.44068 0L33.5593 0C34.9078 0 36 1.09146 36 2.43902Z" transform="translate(10 32)" id="Path" fill="#FFFFFF" stroke="none" />
    <path d="M14 13L3.81818 13C1.71023 13 0 11.4119 0 9.45455L0 0L14 13Z" transform="translate(40 1)" id="Path" fill="#BDEFFC" stroke="none" />
    <path d="M14 13L3.81818 13C1.71023 13 0 11.4119 0 9.45455L0 0L14 13Z" transform="translate(40 1)" id="Path" fill="#E8F8FC" stroke="none" />
    <path d="M55 21.0813L55 67.2006C55 69.847 52.8546 72 50.2174 72L4.78261 72C2.14545 72 0 69.847 0 67.2006L0 4.80828C0 2.16185 2.14545 0.00886892 4.78261 0.00886892C43.1683 0.00886892 40.8353 -0.0529235 41.2143 0.149702C41.4622 0.282885 54.6724 13.5642 54.7772 13.7113C55.1708 14.2649 55.0242 15.0289 54.4712 15.4025C54.0523 15.6855 54.6004 15.6068 44.2391 15.6068C41.602 15.6068 39.4565 13.4538 39.4565 10.8074C39.4565 10.1448 39.9919 9.60754 40.6522 9.60754C41.3125 9.60754 41.8478 10.1448 41.8478 10.8074C41.8478 12.1305 42.9206 13.2071 44.2391 13.2071L50.9177 13.2071C49.1652 11.4484 41.2439 3.49924 40.1569 2.40842L4.78261 2.40842C3.4641 2.40842 2.3913 3.48499 2.3913 4.80813L2.3913 67.2004C2.3913 68.5236 3.4641 69.6001 4.78261 69.6001L50.2174 69.6001C51.5359 69.6001 52.6087 68.5236 52.6087 67.2004L52.6087 21.0811C52.6087 20.4185 53.144 19.8813 53.8043 19.8813C54.4646 19.8813 55 20.4187 55 21.0813L55 21.0813ZM8.66848 32.4049C8.66848 31.7423 9.20383 31.205 9.86413 31.205L29.2935 31.205C29.9538 31.205 30.4891 31.7423 30.4891 32.4049C30.4891 33.0675 29.9538 33.6047 29.2935 33.6047L11.0598 33.6047L11.0598 39.3579L34.0761 39.3579L34.0761 32.4049C34.0761 31.7423 34.6114 31.205 35.2717 31.205L45.1359 31.205C45.7962 31.205 46.3315 31.7423 46.3315 32.4049L46.3315 57.0018C46.3315 57.6645 45.7962 58.2017 45.1359 58.2017L9.86413 58.2017C9.20383 58.2017 8.66848 57.6645 8.66848 57.0018L8.66848 32.4049ZM36.4674 39.358L39.606 39.358C40.2663 39.358 40.8016 39.8953 40.8016 40.5579C40.8016 41.2205 40.2663 41.7577 39.606 41.7577L36.4674 41.7577L36.4674 47.6491L39.606 47.6491C40.2663 47.6491 40.8016 48.1864 40.8016 48.849C40.8016 49.5116 40.2663 50.0489 39.606 50.0489L36.4674 50.0489L36.4674 52.5024C36.4674 53.165 35.932 53.7023 35.2717 53.7023C34.6114 53.7023 34.0761 53.165 34.0761 52.5024L34.0761 50.0489L11.0598 50.0489L11.0598 55.802L43.9402 55.802L43.9402 33.6047L36.4674 33.6047L36.4674 39.358ZM11.0598 41.7577L11.0598 47.6491L34.0761 47.6491L34.0761 41.7577L11.0598 41.7577ZM9.86413 16.5068L20.4755 16.5068C21.1358 16.5068 21.6712 15.9696 21.6712 15.307C21.6712 14.6444 21.1358 14.1071 20.4755 14.1071L9.86413 14.1071C9.20383 14.1071 8.66848 14.6444 8.66848 15.307C8.66848 15.9696 9.20383 16.5068 9.86413 16.5068ZM9.86413 24.0059L26.4538 24.0059C27.1141 24.0059 27.6495 23.4687 27.6495 22.8061C27.6495 22.1434 27.1141 21.6062 26.4538 21.6062L9.86413 21.6062C9.20383 21.6062 8.66848 22.1434 8.66848 22.8061C8.66848 23.4687 9.20383 24.0059 9.86413 24.0059Z" id="Shape" fill="#000000" stroke="none" />
    <path d="M0 0L29.501 0Q29.5746 0 29.6479 0.00721809Q29.7212 0.0144362 29.7934 0.0288029Q29.8657 0.0431695 29.9361 0.0645464Q30.0066 0.0859233 30.0746 0.114105Q30.1427 0.142286 30.2076 0.177Q30.2726 0.211714 30.3338 0.252627Q30.395 0.29354 30.452 0.340257Q30.5089 0.386975 30.5609 0.439047Q30.613 0.491119 30.6597 0.548044Q30.7065 0.60497 30.7474 0.6662Q30.7883 0.727431 30.823 0.792376Q30.8577 0.857322 30.8859 0.925357Q30.9141 0.993393 30.9355 1.06386Q30.9568 1.13433 30.9712 1.20656Q30.9856 1.27879 30.9928 1.35207Q31 1.42536 31 1.499L31 1.501Q31 1.57464 30.9928 1.64793Q30.9856 1.72121 30.9712 1.79344Q30.9568 1.86567 30.9355 1.93614Q30.9141 2.00661 30.8859 2.07464Q30.8577 2.14268 30.823 2.20762Q30.7883 2.27257 30.7474 2.3338Q30.7065 2.39503 30.6597 2.45196Q30.613 2.50888 30.561 2.56095Q30.5089 2.61303 30.452 2.65974Q30.395 2.70646 30.3338 2.74737Q30.2726 2.78829 30.2076 2.823Q30.1427 2.85771 30.0746 2.8859Q30.0066 2.91408 29.9361 2.93545Q29.8657 2.95683 29.7934 2.9712Q29.7212 2.98556 29.6479 2.99278Q29.5746 3 29.501 3L0 3L0 0Z" transform="translate(11 39)" id="Rectangle" fill="#FFB840" fill-rule="evenodd" stroke="none" />
  </g>
</svg>