<?xml version="1.0" encoding="utf-8"?>
<svg width="63px" height="62px" viewBox="0 0 63 62" version="1.1" xmlns:xlink="http://www.w3.org/1999/xlink" xmlns="http://www.w3.org/2000/svg">
  <g id="paper-airplane-toy">
    <path d="M62.2389 2.75704C62.1626 2.49226 62.0218 2.30865 61.8594 2.15963C61.5934 1.62243 60.9628 1.21862 60.3139 1.33071C60.3401 0.57963 59.6909 -0.17877 58.7701 0.0374405C49.3052 2.25609 39.5883 4.54394 30.3121 7.46644C23.576 9.58863 16.8634 11.93 10.1923 14.2531C7.32048 15.253 3.27512 16.1215 0.827057 18.0804C0.335252 18.4739 0.306361 19.064 0.521215 19.5702C0.0476738 19.8001 -0.219648 20.461 0.23264 21.0075C3.35117 24.7749 7.975 31.8197 13.4705 32.8699C12.8343 41.189 12.2007 50.2452 15.4507 58.0584C15.8339 58.9795 16.8265 59.3284 17.6228 58.6329C17.9243 58.3694 18.191 58.079 18.4769 57.8036C20.661 58.0028 23.3166 55.9415 25.0092 54.8848C27.3693 53.4102 29.6317 51.779 31.8549 50.1078C32.8641 49.3491 34.3439 48.5052 35.2969 47.4757C37.8014 49.1143 40.4424 50.4787 43.3551 51.13C48.2539 52.225 48.9177 50.3527 51.0094 46.2965C54.8077 38.9314 57.3172 30.6096 59.9732 22.7665C62.1151 16.4402 64.149 9.37475 62.2389 2.75704ZM16.5685 44.7548C16.4493 46.3657 16.1159 48.6097 16.1358 50.7618C15.1591 44.9491 15.5118 38.8782 15.2528 32.9886C16.0863 32.9494 16.9162 32.785 17.7404 32.5372C17.32 36.607 16.8707 40.6764 16.5685 44.7548ZM2.24967 20.463C12.5653 16.8829 22.8092 13.0733 33.2274 9.78522C39.7564 7.72456 47.5588 7.16374 54.2744 4.83333C52.2079 6.4569 50.2291 8.29968 47.9832 9.71104C43.1143 12.7709 38.0299 15.4736 33.0149 18.2806C28.6195 20.7408 25.0285 24.403 20.9416 27.3349C12.8489 33.1403 7.80033 25.7961 2.24967 20.463ZM47.0023 16.0507C46.9614 15.728 46.9219 15.405 46.9017 15.0797C46.8764 14.6669 46.8844 14.2481 46.8904 13.8307C48.3555 13.03 49.7987 12.2128 51.1669 11.3359C51.3903 11.1929 51.6464 11.0356 51.916 10.8713C50.9836 11.8725 50.0391 12.8664 49.0731 13.858C48.3711 14.5791 47.693 15.3199 47.0023 16.0507ZM45.662 17.4697C45.3236 17.8329 44.9753 18.1875 44.6392 18.5527C44.4612 17.4999 44.1889 16.4535 43.9658 15.4007C44.4443 15.1496 44.9112 14.8908 45.3871 14.638C45.3223 15.6282 45.3831 16.6155 45.662 17.4697ZM39.9174 23.796C39.3429 24.4509 38.7499 25.0906 38.1823 25.7515C38.0312 25.4452 37.5614 25.3198 37.2937 25.5759C36.8477 23.5924 36.5143 21.6136 36.3519 19.5483C37.05 19.1282 37.7769 18.7377 38.4942 18.3372C38.4042 20.2957 38.4776 23.6693 39.9174 23.796ZM39.7916 20.5894C39.6694 19.6358 39.6577 18.6745 39.5913 17.7178C40.6443 17.1457 41.7083 16.5862 42.7723 16.029C42.8082 17.3509 43.0154 18.6951 43.5055 19.8084C42.5933 20.8116 41.6778 21.8125 40.7785 22.827C40.6952 22.7489 40.5915 22.692 40.4654 22.685C40.0064 22.6584 39.8314 20.9024 39.7916 20.5894ZM36.3486 27.9053C35.2428 29.2285 34.1446 30.5587 33.0727 31.9109C33.0657 31.9102 33.0594 31.9082 33.0521 31.9076C32.9837 31.538 32.8937 31.1804 32.8459 30.8049C32.7193 29.8053 32.6878 28.7928 32.6533 27.7869C32.5948 26.0955 32.6101 24.4017 32.5513 22.7103C32.5433 22.4771 32.3976 22.3617 32.2315 22.3065C33.2128 21.5577 34.2535 20.8665 35.3152 20.1963C35.3185 22.7905 35.6655 25.4069 36.3486 27.9053ZM31.3499 30.8049C31.3688 31.3491 31.6514 32.5256 32.1103 33.1406C31.4591 33.9772 30.7873 34.7958 30.1507 35.6447C30.156 34.1209 29.9143 32.5399 29.7881 31.1099C29.6094 29.0895 29.4291 27.0115 28.9406 25.0257C29.8147 24.264 30.6548 23.5329 31.4365 22.8989C31.4897 22.8556 31.5488 22.8181 31.6022 22.7752C31.4824 25.4518 31.2565 28.1235 31.3499 30.8049ZM26.9296 41.2841C27.0415 41.3663 27.1534 41.4548 27.2653 41.5379C26.9166 41.8556 26.6045 42.2058 26.3083 42.5694C25.6455 37.7991 25.9559 33.0831 25.5548 28.3111C25.5438 28.1817 25.4844 28.0929 25.4157 28.0191C26.3063 27.3023 27.1627 26.5672 27.9952 25.8457C28.312 27.8232 28.4007 29.8506 28.4452 31.835C28.488 33.7457 28.1706 35.8266 28.6238 37.6993C28.2094 38.2718 27.7661 38.8186 27.3596 39.3981C27.3417 39.4237 27.342 39.4503 27.3268 39.4759C26.553 39.5481 26.1303 40.6967 26.9296 41.2841ZM18.8156 53.5629C18.7017 46.3884 19.5047 39.1343 19.2284 31.9891C21.0771 31.1924 22.8763 29.9899 24.5921 28.6667C24.5728 28.868 24.5549 29.0712 24.536 29.2738C24.5041 29.503 24.4885 29.5146 24.4765 29.9168C24.096 34.23 23.8928 38.7944 24.8033 42.9859C24.9039 43.4485 25.2612 43.5922 25.6036 43.529C24.9408 44.4993 24.3533 45.5365 23.7284 46.541C23.4707 46.9548 23.1941 47.356 22.9317 47.7678C23.1665 45.424 22.8613 42.8279 22.8876 40.6438C22.9261 37.4588 22.5445 34.2337 22.5216 31.1112C22.5196 30.8155 22.0839 30.8202 22.067 31.1112C21.884 34.239 21.3391 37.4509 21.2162 40.6438C21.1063 43.5051 20.3336 47.1717 21.1591 49.9638C21.1926 50.0769 21.268 50.1411 21.3354 50.2156C20.5401 51.3665 19.7096 52.4908 18.8156 53.5629ZM31.301 47.2196C29.4643 48.6805 27.5861 50.0922 25.6856 51.4686C24.4244 52.382 23.1223 53.2296 21.7997 54.0459C22.688 52.8787 23.5351 51.6759 24.3587 50.4411C25.9131 48.1101 27.9833 45.5381 29.0217 42.8651C30.3081 43.8554 31.6079 44.8639 32.9339 45.8342C32.364 46.2879 31.8267 46.8011 31.301 47.2196ZM52.4676 34.9844C50.2925 40.6006 49.6599 49.6325 42.4329 48.0665C37.8038 47.0633 33.4496 43.2463 29.3747 40.538C39.2759 28.4731 50.1394 17.2824 60.0765 5.32629C61.5701 14.9856 55.8099 26.3543 52.4676 34.9844Z" id="Shape" fill="#000000" stroke="none" />
    <path d="M2.69387 4.72182C2.16091 3.42942 1.81573 2.08534 1.64625 0.71436C1.53054 -0.22016 0.0777484 -0.255912 0.0169717 0.71436C-0.0679597 2.07756 0.175147 3.36252 0.539027 4.68395C0.897064 5.98307 1.30029 7.52326 2.17766 8.6107C2.67361 9.22486 4.12874 9.13849 3.99083 8.16432C3.81824 6.9406 3.16917 5.8751 2.69387 4.72182Z" transform="translate(3 44)" id="Path" fill="#000000" stroke="none" />
    <path d="M3.8983 8.73902C3.26666 7.61115 2.46804 6.71221 2.01177 5.47034C1.46017 3.96794 1.45478 2.3567 1.7009 0.795931C1.82861 -0.0121189 0.754188 -0.337406 0.481687 0.455139C-0.540869 3.42589 -0.00815678 8.00363 2.78281 9.86992C3.4873 10.3411 4.28652 9.43215 3.8983 8.73902Z" transform="translate(0 43)" id="Path" fill="#000000" stroke="none" />
    <path d="M6.94666 0.577668C6.79967 0.073814 6.16274 -0.145734 5.68032 0.102561C5.11431 0.393816 4.99336 0.806692 4.70076 1.31149C4.42153 1.79387 4.05252 2.21274 3.64617 2.60761C2.74919 3.47949 1.57091 4.04873 0.408388 4.56048C-0.44063 4.93356 0.162385 6.24452 1.04841 5.9599C2.42746 5.51638 3.66639 4.89628 4.7967 4.04147C5.76392 3.30922 7.30641 1.8144 6.94666 0.577668Z" transform="translate(26 54)" id="Path" fill="#000000" stroke="none" />
    <path d="M5.28338 0.304698C4.46499 1.08344 3.79476 2.1189 2.9875 2.94008C2.09726 3.84582 1.04613 4.62935 0.219157 5.59738C-0.385256 6.30492 0.370498 7.32395 1.15296 6.90018C2.29438 6.28198 3.33692 5.24549 4.32064 4.37536C5.16415 3.62948 6.38856 2.70835 6.87914 1.63078C7.39135 0.506999 6.16409 -0.533943 5.28338 0.304698Z" transform="translate(31 55)" id="Path" fill="#000000" stroke="none" />
  </g>
</svg>