<?xml version="1.0" encoding="utf-8"?>
<svg width="55px" height="52px" viewBox="0 0 55 52" version="1.1" xmlns:xlink="http://www.w3.org/1999/xlink" xmlns="http://www.w3.org/2000/svg">
  <defs>
    <path d="M11 22C17.0751 22 22 17.0751 22 11C22 4.92487 17.0751 0 11 0C4.92487 0 0 4.92487 0 11C0 17.0751 4.92487 22 11 22Z" transform="translate(27 0)" id="path_1" />
    <clipPath id="clip_1">
      <use xlink:href="#path_1" />
    </clipPath>
  </defs>
  <g id="Icon" transform="translate(1.5 1.5)">
    <g id="Group-117">
      <path d="M4.999 0L34.001 0Q34.1237 0 34.2463 0.00602151Q34.3689 0.012043 34.491 0.0240715Q34.6131 0.0361001 34.7345 0.0541066Q34.8559 0.0721132 34.9763 0.0960544Q35.0966 0.119996 35.2157 0.149814Q35.3347 0.179632 35.4521 0.215255Q35.5696 0.250879 35.6851 0.292221Q35.8007 0.333564 35.914 0.380526Q36.0274 0.427489 36.1383 0.479957Q36.2493 0.532426 36.3575 0.590276Q36.4657 0.648125 36.571 0.711215Q36.6763 0.774305 36.7783 0.842483Q36.8803 0.910662 36.9789 0.983765Q37.0775 1.05687 37.1723 1.13472Q37.2672 1.21257 37.3581 1.29499Q37.4491 1.3774 37.5358 1.46417Q37.6226 1.55095 37.705 1.64188Q37.7874 1.73281 37.8653 1.82767Q37.9431 1.92253 38.0162 2.0211Q38.0893 2.11967 38.1575 2.2217Q38.2257 2.32374 38.2888 2.429Q38.3519 2.53426 38.4097 2.64249Q38.4676 2.75072 38.52 2.86165Q38.5725 2.97259 38.6195 3.08597Q38.6664 3.19934 38.7078 3.31489Q38.7491 3.43043 38.7847 3.54787Q38.8204 3.6653 38.8502 3.78434Q38.88 3.90338 38.9039 4.02374Q38.9279 4.1441 38.9459 4.26549Q38.9639 4.38688 38.9759 4.50901Q38.9879 4.63114 38.994 4.75371Q39 4.87628 39 4.999L39 34.001Q39 34.1237 38.994 34.2463Q38.9879 34.3689 38.9759 34.491Q38.9639 34.6131 38.9459 34.7345Q38.9279 34.8559 38.9039 34.9763Q38.88 35.0966 38.8502 35.2157Q38.8204 35.3347 38.7847 35.4521Q38.7491 35.5696 38.7078 35.6851Q38.6664 35.8007 38.6195 35.914Q38.5725 36.0274 38.52 36.1383Q38.4676 36.2493 38.4097 36.3575Q38.3519 36.4657 38.2888 36.571Q38.2257 36.6763 38.1575 36.7783Q38.0893 36.8803 38.0162 36.9789Q37.9431 37.0775 37.8653 37.1723Q37.7874 37.2672 37.705 37.3581Q37.6226 37.4491 37.5358 37.5358Q37.4491 37.6226 37.3581 37.705Q37.2672 37.7874 37.1723 37.8653Q37.0775 37.9431 36.9789 38.0162Q36.8803 38.0893 36.7783 38.1575Q36.6763 38.2257 36.571 38.2888Q36.4657 38.3519 36.3575 38.4097Q36.2493 38.4676 36.1383 38.52Q36.0274 38.5725 35.914 38.6195Q35.8007 38.6664 35.6851 38.7078Q35.5696 38.7491 35.4521 38.7847Q35.3347 38.8204 35.2157 38.8502Q35.0966 38.88 34.9763 38.9039Q34.8559 38.9279 34.7345 38.9459Q34.6131 38.9639 34.491 38.9759Q34.3689 38.9879 34.2463 38.994Q34.1237 39 34.001 39L4.999 39Q4.87628 39 4.75371 38.994Q4.63114 38.9879 4.50901 38.9759Q4.38688 38.9639 4.26549 38.9459Q4.1441 38.9279 4.02374 38.9039Q3.90338 38.88 3.78434 38.8502Q3.6653 38.8204 3.54787 38.7847Q3.43043 38.7491 3.31489 38.7078Q3.19934 38.6664 3.08597 38.6195Q2.97259 38.5725 2.86165 38.52Q2.75072 38.4676 2.64249 38.4097Q2.53426 38.3519 2.429 38.2888Q2.32374 38.2257 2.2217 38.1575Q2.11967 38.0893 2.0211 38.0162Q1.92253 37.9431 1.82767 37.8653Q1.73281 37.7874 1.64188 37.705Q1.55095 37.6226 1.46417 37.5358Q1.3774 37.4491 1.29499 37.3581Q1.21257 37.2672 1.13472 37.1723Q1.05687 37.0775 0.983765 36.9789Q0.910662 36.8803 0.842483 36.7783Q0.774305 36.6763 0.711215 36.571Q0.648125 36.4657 0.590276 36.3575Q0.532426 36.2493 0.479957 36.1383Q0.427489 36.0274 0.380526 35.914Q0.333564 35.8007 0.292221 35.6851Q0.250879 35.5696 0.215255 35.4521Q0.179632 35.3347 0.149814 35.2157Q0.119996 35.0966 0.0960544 34.9763Q0.0721132 34.8559 0.0541066 34.7345Q0.0361001 34.6131 0.0240715 34.491Q0.012043 34.3689 0.00602151 34.2463Q0 34.1237 0 34.001L0 4.999Q0 4.87628 0.00602151 4.75371Q0.012043 4.63114 0.0240715 4.50901Q0.0361001 4.38688 0.0541066 4.26549Q0.0721132 4.1441 0.0960544 4.02374Q0.119996 3.90338 0.149814 3.78434Q0.179632 3.6653 0.215255 3.54787Q0.250879 3.43043 0.292221 3.31489Q0.333564 3.19934 0.380526 3.08597Q0.427489 2.97259 0.479957 2.86165Q0.532426 2.75072 0.590276 2.64249Q0.648125 2.53426 0.711215 2.429Q0.774305 2.32374 0.842483 2.2217Q0.910662 2.11967 0.983765 2.0211Q1.05687 1.92253 1.13472 1.82767Q1.21257 1.73281 1.29499 1.64188Q1.3774 1.55095 1.46417 1.46417Q1.55095 1.3774 1.64188 1.29499Q1.73281 1.21257 1.82767 1.13472Q1.92253 1.05687 2.0211 0.983765Q2.11967 0.910662 2.2217 0.842483Q2.32374 0.774305 2.429 0.711215Q2.53426 0.648125 2.64249 0.590276Q2.75072 0.532426 2.86165 0.479957Q2.97259 0.427489 3.08597 0.380526Q3.19934 0.333564 3.31489 0.292221Q3.43043 0.250879 3.54787 0.215255Q3.6653 0.179632 3.78434 0.149814Q3.90338 0.119996 4.02374 0.0960544Q4.1441 0.0721132 4.26549 0.0541066Q4.38688 0.0361001 4.50901 0.0240715Q4.63114 0.012043 4.75371 0.00602151Q4.87628 0 4.999 0Z" transform="translate(0 10)" id="Rectangle" fill="none" fill-rule="evenodd" stroke="#080808" stroke-width="3" />
      <g id="Oval">
        <use xlink:href="#path_1" fill="none" stroke="#FFFFFF" stroke-width="8" />
        <use stroke="none" fill="#FFFFFF" xlink:href="#path_1" fill-rule="evenodd" />
        <g clip-path="url(#clip_1)">
          <use xlink:href="#path_1" fill="none" stroke="#FF5B32" stroke-width="6" />
        </g>
      </g>
    </g>
  </g>
</svg>