<?xml version="1.0" encoding="utf-8"?>
<svg width="72px" height="50px" viewBox="0 0 72 50" version="1.1" xmlns:xlink="http://www.w3.org/1999/xlink" xmlns="http://www.w3.org/2000/svg">
  <g id="Icon">
    <path d="M69.3889 0.0830271C49.116 0.393793 22.5323 1.13012 2.26513 0.461485C1.43543 0.433638 0.959382 0.948815 0.819955 1.56368C0.802191 1.61597 0.778605 1.66529 0.768454 1.72054C0.636491 2.41184 0.583049 3.09766 0.583049 3.79873C0.0599738 11.1715 0.17253 25.4911 0.000859147 32.875C-0.00526131 33.145 0.0498228 33.3745 0.145212 33.5707C0.310465 34.1718 0.777858 34.7095 1.55336 34.8006C22.2087 37.2293 49.1881 35.4113 69.862 34.2231C70.2304 34.2013 70.5298 34.0779 70.7624 33.8922C71.45 33.8057 72.0504 33.3206 71.9967 32.4262C71.5091 24.431 71.4797 9.49472 71.4788 1.48829C71.4788 0.260629 70.2947 -0.206408 69.3889 0.0830271ZM3.12438 31.8846C3.26575 24.8301 3.18797 10.8418 3.68791 3.79888C3.68791 3.72482 3.69104 3.65105 3.69164 3.57699C23.152 4.15616 48.9142 3.49241 68.3777 3.18135C68.3853 10.2149 68.4451 24.1776 68.8333 31.2024C49.022 32.3601 22.919 34.0089 3.12438 31.8846Z" transform="matrix(1 0 0 1 0 3.5527137E-15)" id="Shape" fill="#FF5C6E" stroke="none" />
    <path d="M14.3478 12.2757C12.8105 10.9965 10.9093 10.4294 8.96897 10.0157C8.90427 8.32433 8.83885 6.63251 8.76639 4.94099C9.6114 5.1346 10.421 5.41738 11.1085 5.74879C12.7905 6.55735 13.6974 3.71946 12.0377 2.92127C11.0527 2.44793 9.87327 2.07947 8.63714 1.8813C8.63202 1.76376 8.62646 1.64638 8.62265 1.52991C8.54346 -0.37487 5.67894 -0.575334 5.75886 1.34912C5.76398 1.48738 5.76998 1.62519 5.77554 1.76285C3.93812 1.91697 2.20257 2.55479 1.01519 3.91093C-1.17236 6.40903 0.449166 10.7227 3.27886 11.7898C4.21579 12.1432 5.20542 12.3557 6.20632 12.5396C6.28258 14.8232 6.32971 17.108 6.3584 19.3936C5.04661 18.751 3.85278 17.8024 3.11097 16.9598C1.85977 15.5409 -0.289873 17.5184 0.962937 18.9408C2.21794 20.3652 4.23262 21.7856 6.38065 22.5505C6.37919 22.8556 6.38724 23.1589 6.38592 23.4631C6.37582 25.3822 9.23932 25.5733 9.25045 23.6436C9.25118 23.4687 9.24532 23.2937 9.24737 23.1187C10.7212 23.1505 12.1284 22.7347 13.2656 21.6403C15.696 19.3038 17.4272 14.8392 14.3478 12.2757ZM4.8452 9.15713C3.0208 8.68135 2.01931 6.32503 4.05141 5.26189C4.61363 4.96767 5.24465 4.80639 5.90245 4.73398C5.96861 6.3046 6.03023 7.87447 6.09127 9.4451C5.66869 9.35759 5.25182 9.26369 4.8452 9.15713ZM11.1589 19.5507C10.5807 19.9588 9.91908 20.1299 9.22717 20.1369C9.20332 17.7889 9.15618 15.441 9.0808 13.0948C10.2797 13.3823 11.437 13.7899 12.4731 14.5268C14.2012 15.7549 12.358 18.7012 11.1589 19.5507Z" transform="translate(28 6)" id="Shape" fill="#FF5C6E" stroke="none" />
    <path d="M68.5232 0.00667135C46.2251 1.87727 23.814 2.84007 1.47755 1.01C-0.500571 0.848324 -0.484448 3.8596 1.47755 4.02055C23.814 5.8499 46.2251 4.88695 68.5232 3.01723C70.4844 2.85251 70.5001 -0.160067 68.5232 0.00667135Z" transform="translate(1 35)" id="Path" fill="#FF5C6E" stroke="none" />
    <path d="M68.5232 0.00667135C46.2251 1.87727 23.814 2.83992 1.47755 1.01C-0.500571 0.848324 -0.484448 3.8596 1.47755 4.02055C23.814 5.8499 46.2251 4.88695 68.5232 3.01723C70.4844 2.85251 70.5001 -0.160067 68.5232 0.00667135Z" transform="translate(1 41)" id="Path" fill="#FF5C6E" stroke="none" />
    <path d="M68.5232 0.00668245C46.2251 1.87729 23.814 2.83995 1.47755 1.01001C-0.500571 0.848339 -0.484448 3.85963 1.47755 4.02044C23.814 5.84994 46.2251 4.88699 68.5232 3.01725C70.4844 2.85254 70.5001 -0.160202 68.5232 0.00668245Z" transform="translate(1 45)" id="Path" fill="#FF5C6E" stroke="none" />
    <path d="M7.98021 3.43283C7.98021 3.40815 7.98652 3.38533 7.98406 3.36079C7.90389 2.39591 7.59459 1.44914 6.77087 0.802221C5.91176 0.126773 4.78336 -0.0736501 3.68328 0.0227814C3.59618 0.0300565 3.51062 0.0458907 3.42815 0.0658617C2.41593 0.16429 1.48911 0.515352 0.73479 1.18353C0.632306 1.27411 0.560598 1.37111 0.502739 1.46925C0.434725 1.56126 0.373019 1.65969 0.32624 1.76725C-0.00583273 2.52101 -0.0844652 3.32142 0.0906498 4.11356C0.0707993 4.3331 0.11804 4.55791 0.246992 4.75719C0.752486 5.54348 1.46633 6.13177 2.27789 6.63975C2.33452 6.67527 2.39623 6.70209 2.4587 6.72534C2.54903 6.77355 2.64813 6.81592 2.76508 6.84488C4.05013 7.16285 5.34641 6.98724 6.48958 6.36172C6.6193 6.29068 6.71855 6.20595 6.80257 6.11608C6.81319 6.1088 6.82335 6.10296 6.83304 6.0954C7.64183 5.44049 8.09147 4.44921 7.98437 3.45394C7.98344 3.44624 7.98098 3.44011 7.98021 3.43283ZM5.52352 4.09202C5.52199 4.05792 5.38365 4.30785 5.35703 4.34379C5.4492 4.21912 5.25223 4.41198 5.17068 4.4883C4.62918 4.75819 4.08336 4.84293 3.47939 4.70998C3.11608 4.48074 2.7383 4.1739 2.45732 3.81385C2.45178 3.78061 2.45024 3.74723 2.44055 3.71385C2.34252 3.35566 2.38315 3.04782 2.50148 2.7066C2.88633 2.39448 3.34505 2.25725 3.88409 2.24812C3.95134 2.24655 4.01073 2.23614 4.07213 2.22744C4.46822 2.22059 4.82922 2.26724 5.10359 2.41217C5.23638 2.48178 5.31102 2.57593 5.39503 2.70261C5.49813 2.85938 5.56384 3.11444 5.58385 3.36079C5.58461 3.3665 5.58615 3.37192 5.58708 3.37706C5.58708 3.40316 5.58077 3.42741 5.58385 3.45337C5.59908 3.58846 5.59985 3.72041 5.59354 3.85536C5.58446 3.83425 5.54614 4.00186 5.52352 4.09202Z" transform="translate(5 6)" id="Shape" fill="#FF5C6E" stroke="none" />
    <path d="M7.98053 3.43281C7.98053 3.40813 7.98669 3.3853 7.98438 3.36077C7.9039 2.39588 7.59445 1.4491 6.77088 0.802179C5.91207 0.126727 4.78367 -0.0735553 3.68358 0.0227341C3.59617 0.0300093 3.51092 0.0459863 3.42814 0.0658147C2.41622 0.164387 1.4894 0.515308 0.734613 1.18349C0.632282 1.27407 0.560266 1.37107 0.502407 1.46922C0.434546 1.56123 0.372686 1.6598 0.325907 1.76736C-0.00616726 2.52112 -0.0843385 3.32154 0.0907774 4.11354C0.0704652 4.33308 0.118168 4.5579 0.24712 4.75718C0.752617 5.54361 1.46616 6.13176 2.27788 6.63989C2.3342 6.67541 2.39606 6.70223 2.45853 6.72534C2.54917 6.77355 2.64827 6.81592 2.76476 6.84488C4.05027 7.16285 5.34641 6.98724 6.48974 6.36172C6.61946 6.29068 6.71856 6.20594 6.80227 6.11607C6.81304 6.1088 6.82335 6.10309 6.83258 6.09539C7.64138 5.44062 8.09148 4.4492 7.98438 3.45392C7.98376 3.44622 7.9813 3.44008 7.98053 3.43281ZM5.52383 4.092C5.52214 4.05805 5.38396 4.30797 5.35733 4.34378C5.44966 4.21924 5.25254 4.41196 5.17052 4.48828C4.62902 4.75818 4.08367 4.84291 3.47969 4.70996C3.11637 4.48072 2.73814 4.17388 2.45746 3.81383C2.45207 3.78045 2.45053 3.74721 2.44038 3.71383C2.34266 3.35563 2.38329 3.04779 2.50131 2.70657C2.88648 2.39445 3.34519 2.25708 3.88424 2.24809C3.95148 2.24666 4.01088 2.23611 4.07182 2.22741C4.46806 2.22056 4.82906 2.26721 5.10328 2.41214C5.23608 2.48161 5.31117 2.57576 5.39488 2.70258C5.49798 2.85949 5.56369 3.11441 5.584 3.36063C5.58477 3.36647 5.58646 3.3719 5.58723 3.37689C5.58723 3.40299 5.58092 3.42724 5.584 3.45335C5.59893 3.58844 5.5997 3.72039 5.59339 3.85534C5.58477 3.83408 5.54645 4.00184 5.52383 4.092Z" transform="translate(59 5)" id="Shape" fill="#FF5C6E" stroke="none" />
  </g>
</svg>