<?xml version="1.0" encoding="utf-8"?>
<svg width="65px" height="82px" viewBox="0 0 65 82" version="1.1" xmlns:xlink="http://www.w3.org/1999/xlink" xmlns="http://www.w3.org/2000/svg">
  <g id="invoice">
    <path d="M46.5 0L4.22727 0C1.89347 0 0 1.83028 0 4.08621L0 74.9138C0 77.1697 1.89347 79 4.22727 79L57.7727 79C60.1065 79 62 77.1697 62 74.9138L62 14.9828L46.5 0Z" transform="translate(1 2)" id="Path" fill="#BDEFFC" stroke="none" />
    <path d="M59 11.7306C28.7013 20.771 10.2708 45.0553 3.91019 74.5042C3.4377 76.6921 0.0328023 76.396 0.000442079 74.1626C-0.000265248 74.1161 8.84159e-05 3.99582 8.84159e-05 4.04214C8.84159e-05 1.8097 1.90015 0 4.24405 0L46.6837 0L59 11.7306Z" transform="translate(1 1)" id="Path" fill="#D6F4FC" stroke="none" />
    <path d="M42 2.82927L42 26.1707C42 27.7339 40.7258 29 39.1525 29L2.84746 29C1.27424 29 0 27.7339 0 26.1707L0 2.82927C0 1.2661 1.27424 0 2.84746 0L39.1525 0C40.7258 0 42 1.2661 42 2.82927Z" transform="translate(12 37)" id="Path" fill="#FFFFFF" stroke="none" />
    <path d="M16 14L4.36364 14C1.95455 14 0 12.2898 0 10.1818L0 0L16 14Z" transform="translate(48 2)" id="Path" fill="#BDEFFC" stroke="none" />
    <path d="M16 14L4.36364 14C1.95455 14 0 12.2898 0 10.1818L0 0L16 14Z" transform="translate(48 2)" id="Path" fill="#E8F8FC" stroke="none" />
    <path d="M65 24.0092L65 76.534C65 79.548 62.4645 82 59.3478 82L5.65217 82C2.53553 82 0 79.548 0 76.534L0 5.47609C0 2.46211 2.53553 0.0101007 5.65217 0.0101007C51.0171 0.0101007 48.2598 -0.0602739 48.7078 0.170493C49.0008 0.322175 64.6128 15.4481 64.7366 15.6157C65.2019 16.2462 65.0286 17.1163 64.3751 17.5418C63.88 17.8641 64.5277 17.7744 52.2826 17.7744C49.166 17.7744 46.6304 15.3224 46.6304 12.3084C46.6304 11.5538 47.2631 10.9419 48.0435 10.9419C48.8238 10.9419 49.4565 11.5538 49.4565 12.3084C49.4565 13.8153 50.7244 15.0414 52.2826 15.0414L60.1755 15.0414C58.1043 13.0385 48.7428 3.98524 47.4581 2.74293L5.65217 2.74293C4.09394 2.74293 2.82609 3.96902 2.82609 5.47592L2.82609 76.5338C2.82609 78.0407 4.09394 79.2668 5.65217 79.2668L59.3478 79.2668C60.9061 79.2668 62.1739 78.0407 62.1739 76.5338L62.1739 24.0091C62.1739 23.2544 62.8066 22.6426 63.587 22.6426C64.3673 22.6426 65 23.2546 65 24.0092L65 24.0092ZM10.2446 36.9056C10.2446 36.1509 10.8773 35.5391 11.6577 35.5391L34.6196 35.5391C35.4 35.5391 36.0327 36.1509 36.0327 36.9056C36.0327 37.6602 35.4 38.2721 34.6196 38.2721L13.0707 38.2721L13.0707 44.8242L40.2718 44.8242L40.2718 36.9056C40.2718 36.1509 40.9045 35.5391 41.6848 35.5391L53.3425 35.5391C54.1228 35.5391 54.7555 36.1509 54.7555 36.9056L54.7555 64.9188C54.7555 65.6734 54.1228 66.2853 53.3425 66.2853L11.6577 66.2853C10.8773 66.2853 10.2446 65.6734 10.2446 64.9188L10.2446 36.9056ZM43.098 44.8243L46.8072 44.8243C47.5876 44.8243 48.2203 45.4362 48.2203 46.1908C48.2203 46.9455 47.5876 47.5573 46.8072 47.5573L43.098 47.5573L43.098 54.267L46.8072 54.267C47.5876 54.267 48.2203 54.8789 48.2203 55.6335C48.2203 56.3882 47.5876 57 46.8072 57L43.098 57L43.098 59.7943C43.098 60.549 42.4653 61.1608 41.6849 61.1608C40.9046 61.1608 40.2719 60.549 40.2719 59.7943L40.2719 57L13.0708 57L13.0708 63.5522L51.9295 63.5522L51.9295 38.272L43.098 38.272L43.098 44.8243ZM13.0708 47.5574L13.0708 54.2671L40.2719 54.2671L40.2719 47.5574L13.0708 47.5574ZM11.6577 18.7994L24.1984 18.7994C24.9788 18.7994 25.6115 18.1876 25.6115 17.4329C25.6115 16.6783 24.9788 16.0664 24.1984 16.0664L11.6577 16.0664C10.8773 16.0664 10.2446 16.6783 10.2446 17.4329C10.2446 18.1876 10.8773 18.7994 11.6577 18.7994ZM11.6577 27.3402L31.2637 27.3402C32.044 27.3402 32.6767 26.7283 32.6767 25.9737C32.6767 25.219 32.044 24.6072 31.2637 24.6072L11.6577 24.6072C10.8773 24.6072 10.2446 25.219 10.2446 25.9737C10.2446 26.7283 10.8773 27.3402 11.6577 27.3402Z" id="Shape" fill="#000000" stroke="none" />
  </g>
</svg>