<?xml version="1.0" encoding="utf-8"?>
<svg width="77px" height="66px" viewBox="0 0 77 66" version="1.1" xmlns:xlink="http://www.w3.org/1999/xlink" xmlns="http://www.w3.org/2000/svg">
  <g id="computer">
    <path d="M63.5347 0L3.4655 0C1.5515 0 0 1.54901 0 3.45992L0 46.8536C0 48.7646 1.5515 50.3136 3.4655 50.3136L29.1826 50.3136L26.8577 63L40.1423 63L37.8174 50.3136L63.5345 50.3136C65.448 50.3136 67 48.7625 67 46.8536L67 3.45992C67.0003 1.54901 65.4487 6.83908e-15 63.5347 0Z" transform="translate(2 2)" id="Path" fill="#D6F4FC" stroke="none" />
    <path d="M67 3.43837L67 3.72485C67 5.62386 65.4485 7.16322 63.5345 7.16322L48.3729 7.16322C26.4423 7.16322 8.66386 24.8024 8.66386 46.5616C8.66386 48.4606 7.11236 50 5.19838 50L3.46548 50C1.5515 50.0002 0 48.4606 0 46.5618L0 3.43837C0 1.53936 1.5515 0 3.46548 0L63.5344 0C65.4483 0 67 1.53936 67 3.43837L67 3.43837Z" transform="translate(2 1)" id="Path" fill="#E8F8FC" stroke="none" />
    <path d="M10 6L0 6L0.829829 0L9.17017 0L10 6Z" transform="translate(29 51)" id="Path" fill="#BDEFFC" stroke="none" />
    <path d="M40 11.3639L40 21.6198C40 24.5912 37.7349 27 34.9407 27L5.05929 27C2.26514 27 0 24.5912 0 21.6198L0 11.3639C0 8.39251 2.26514 5.98371 5.05929 5.98371C5.80016 5.98371 6.40648 5.33775 6.38609 4.55023C6.36348 3.67629 6.14024 2.84051 5.75194 2.09973C5.22134 1.08776 5.99209 -0.123792 7.07431 0.010208C10.2922 0.408172 13.2256 2.3141 15.0153 5.33859C15.2558 5.74513 15.6828 5.98371 16.1345 5.98371L34.9407 5.98371C37.7349 5.98371 40 8.39251 40 11.3639Z" transform="translate(36 33)" id="Path" fill="#FFB840" stroke="none" />
    <path d="M26.7486 3L1.2514 3C0.560313 3 0 2.32838 0 1.5C0 0.671625 0.560313 0 1.2514 0L26.7486 0C27.4397 0 28 0.671625 28 1.5C28 2.32838 27.4397 3 26.7486 3Z" transform="translate(20 63)" id="Path" fill="#BDEFFC" stroke="none" />
    <path d="M36.5249 10.4683C32.2764 10.4682 24.4985 10.4691 10.2269 10.4691C7.31188 10.4691 4.94826 12.7567 4.94826 15.5775C4.94826 17.6608 4.9481 19.3043 4.94793 20.6023C4.9476 23.7095 0 23.9142 0 20.5247L0 10.7884C0 7.96802 2.36362 5.68078 5.27815 5.68078C6.00092 5.68078 6.66201 5.13778 6.66201 4.31929C6.63892 3.4909 6.40635 2.69763 6.00059 1.99374C5.44639 1.03287 6.2513 -0.117934 7.37951 0.009756C10.7377 0.388037 13.7974 2.19644 15.6645 5.06787C15.9153 5.45413 16.3606 5.68078 16.8323 5.68078C37.8634 5.68078 36.5122 5.67839 36.6849 5.68573C39.8749 5.81964 39.7179 10.4685 36.5249 10.4683Z" transform="translate(35 33)" id="Path" fill="#FFCF7E" stroke="none" />
    <path d="M49.0876 64.709C49.0876 65.4219 48.513 66 47.8043 66C45.6598 66 25.4629 66 21.6564 66C20.9477 66 20.373 65.4219 20.373 64.709C20.373 63.9961 20.9477 63.4181 21.6564 63.4181L27.0287 63.4181L28.3308 56.26C28.4584 55.5589 29.1257 55.0938 29.8243 55.2226C30.5215 55.3509 30.9833 56.0235 30.8556 56.7248L29.6381 63.4181L47.8043 63.4181C48.513 63.4181 49.0876 63.9961 49.0876 64.709L49.0876 64.709ZM1.28333 9.68215L61.4396 9.68215C62.1483 9.68215 62.7229 9.10413 62.7229 8.3912C62.7229 7.67827 62.1483 7.10024 61.4396 7.10024L2.56667 7.10024L2.56667 4.77153C2.56667 3.56416 3.54312 2.58191 4.74336 2.58191L64.7169 2.58191C65.9171 2.58191 66.8936 3.56416 66.8936 4.77153L66.8936 31.5209C66.8936 32.2338 67.4682 32.8118 68.1769 32.8118C68.8856 32.8118 69.4603 32.2338 69.4603 31.5209L69.4603 4.77153C69.4603 2.14056 67.3323 0 64.7169 0L4.74336 0C2.12793 0 0 2.14056 0 4.77153L0 8.3912C0 9.10413 0.574612 9.68215 1.28333 9.68215ZM70.5833 37.2762L58.151 37.2762C57.4423 37.2762 56.8677 37.8543 56.8677 38.5672C56.8677 39.2801 57.4423 39.8582 58.151 39.8582L70.5833 39.8582C72.7061 39.8582 74.4333 41.5956 74.4333 43.731L74.4333 53.5745C74.4333 55.7099 72.7061 57.4474 70.5833 57.4474L40.2646 57.4474C38.1418 57.4474 36.4146 55.7099 36.4146 53.5745L36.4146 43.731C36.4146 41.5956 38.1418 39.8582 40.2646 39.8582L41.4661 39.8582C42.0596 39.8582 42.5759 39.4486 42.7141 38.868C43.091 37.2846 42.8851 35.5782 42.0308 34.1053C45.3594 34.4445 48.1109 36.4324 49.5996 39.1843C49.9383 39.8104 50.7177 40.0418 51.3404 39.7011C51.963 39.3603 52.1928 38.5764 51.8542 37.9501C49.2798 33.1925 44.0801 30.7652 38.9262 31.6466C37.7653 31.8454 37.4645 33.3869 38.4612 34.0137C39.544 34.6951 40.3092 35.878 40.3279 37.2762C36.6106 37.2762 33.8479 40.2642 33.8479 43.731L33.8479 50.6699L4.74336 50.6699C3.54312 50.6699 2.56667 49.6876 2.56667 48.4803L2.56667 15.8141C2.56667 15.1012 1.99205 14.5232 1.28333 14.5232C0.574612 14.5232 0 15.1012 0 15.8141L0 48.4803C0 51.1112 2.12793 53.2518 4.74336 53.2518L33.8479 53.2518L33.8479 53.5745C33.8479 57.1337 36.7264 60.0293 40.2646 60.0293L70.5833 60.0293C74.1215 60.0293 77 57.1337 77 53.5745L77 43.731C77 40.1719 74.1215 37.2762 70.5833 37.2762L70.5833 37.2762ZM67.2146 50.1859C67.9233 50.1859 68.4979 49.6079 68.4979 48.895C68.4979 48.182 67.9233 47.604 67.2146 47.604L66.7868 47.604C66.078 47.604 65.5034 48.182 65.5034 48.895C65.5034 49.6079 66.078 50.1859 66.7868 50.1859L67.2146 50.1859ZM43.3125 48.895C43.3125 49.6079 43.8871 50.1859 44.5958 50.1859L59.675 50.1859C60.3837 50.1859 60.9583 49.6079 60.9583 48.895C60.9583 48.182 60.3837 47.604 59.675 47.604L44.5958 47.604C43.8871 47.604 43.3125 48.182 43.3125 48.895Z" id="Shape" fill="#000000" stroke="none" />
  </g>
</svg>