<?xml version="1.0" encoding="utf-8"?>
<svg width="95px" height="105px" viewBox="0 0 95 105" version="1.1" xmlns:xlink="http://www.w3.org/1999/xlink" xmlns="http://www.w3.org/2000/svg">
  <g id="verified">
    <path d="M18.3547 10.8008C39.2122 10.8008 53.5354 0 63.5857 0C73.6361 0 94.7439 5.77572 94.7439 51.9966C94.7439 98.2174 66.3479 105 55.2934 105C3.5279 105.003 -18.5841 10.8008 18.3547 10.8008Z" id="Path" fill="#F8F7FF" stroke="none" />
    <g id="Group" transform="translate(63.82749 13)">
      <path d="M4.4215e-20 -4.26785e-20L3.11133 0.0755814L3.26249 6.29824L0.151163 6.22266L4.4215e-20 -4.26785e-20Z" transform="matrix(0.70710677 -0.70710677 0.70710677 0.70710677 0.18833649 2.3462272)" id="Path" fill="#6F55FF" stroke="none" />
      <path d="M0 0L3.11133 0.0755814L3.26249 6.29824L0.151163 6.22266L0 0Z" transform="matrix(0.70710677 -0.70710677 0.70710677 0.70710677 13.1461115 14.691436)" id="Path" fill="#6F55FF" stroke="none" />
      <path d="M-2.73142e-18 -2.82976e-18L6.22266 0.151163L6.29824 3.26249L0.0755814 3.11133L-2.73142e-18 -2.82976e-18Z" transform="matrix(0.70710677 -0.70710677 0.70710677 0.70710677 12.582578 4.494272)" id="Path" fill="#6F55FF" stroke="none" />
    </g>
    <path d="M43.8814 19L0 19L0 8.76923C0 3.92569 4.06433 0 9.07891 0L34.8025 0C39.8171 0 43.8814 3.92569 43.8814 8.76923L43.8814 19Z" transform="translate(13.962264 55)" id="Path" fill="#F3F3F1" stroke="none" />
    <path d="M16.9542 35C26.3177 35 33.9084 27.165 33.9084 17.5C33.9084 7.83502 26.3177 0 16.9542 0C7.59064 0 0 7.83502 0 17.5C0 27.165 7.59064 35 16.9542 35Z" transform="translate(46.873314 51)" id="Oval" fill="#FF4CF7" stroke="none" />
    <path d="M14.9596 0L8.54833 0C3.8268 0 0 3.92569 0 8.76923L0 19L6.41124 19L6.41124 8.76923C6.41124 3.92569 10.238 0 14.9596 0Z" transform="translate(13.962264 55)" id="Path" fill="#D5DBE1" stroke="none" />
    <path d="M6.44412 11.5C6.44412 6.36027 9.61463 2.05773 13.9623 0.585733C12.9398 0.2392 11.8715 0 10.7402 0C4.80875 0 0 5.14893 0 11.5C0 17.8511 4.80875 23 10.7402 23C11.8715 23 12.9398 22.7608 13.9623 22.4143C9.61463 20.9423 6.44412 16.6397 6.44412 11.5Z" transform="translate(23.93531 21)" id="Path" fill="#D5DBE1" stroke="none" />
    <path d="M13.4636 26C6.04067 26 0 20.1673 0 13C0 5.83267 6.04067 0 13.4636 0C20.8865 0 26.9272 5.83267 26.9272 13C26.9272 20.1673 20.8865 26 13.4636 26ZM13.4636 4.33333C8.51499 4.33333 4.48787 8.22178 4.48787 13C4.48787 17.7782 8.51499 21.6667 13.4636 21.6667C18.4122 21.6667 22.4394 17.7782 22.4394 13C22.4394 8.22178 18.4122 4.33333 13.4636 4.33333Z" transform="translate(21.9407 20)" id="Shape" fill="#6F55FF" stroke="none" />
    <path d="M19.4474 39C8.72442 39 0 30.252 0 19.5C0 8.748 8.72442 0 19.4474 0C30.1705 0 38.8949 8.748 38.8949 19.5C38.8949 30.252 30.1705 39 19.4474 39ZM19.4474 4.5C11.1987 4.5 4.48787 11.229 4.48787 19.5C4.48787 27.771 11.1987 34.5 19.4474 34.5C27.6961 34.5 34.407 27.771 34.407 19.5C34.407 11.229 27.6961 4.5 19.4474 4.5Z" transform="translate(43.8814 49)" id="Shape" fill="none" stroke="none" />
    <path d="M7.6518 15C7.04994 15 6.47227 14.774 6.04885 14.3707L0 8.64989L3.20892 5.61499L7.54292 9.71396L16.5315 0L19.9461 2.82323L9.3606 14.2649C8.94625 14.7111 8.35649 14.9771 7.72741 14.9971C7.70321 15 7.67599 15 7.6518 15L7.6518 15Z" transform="translate(52.857143 62)" id="Path" fill="#FFFFFF" stroke="none" />
    <path d="M27.7693 25L2.31411 25C1.03672 25 0 23.95 0 22.6563L0 11.7188C0 5.25625 5.18977 0 11.5705 0L30.9164 0L30.9164 4.6875L11.5705 4.6875C7.74145 4.6875 4.62821 7.84063 4.62821 11.7188L4.62821 20.3125L27.7693 20.3125L27.7693 25Z" transform="translate(11.967655 52)" id="Path" fill="#6F55FF" stroke="none" />
  </g>
</svg>