<?xml version="1.0" encoding="utf-8"?>
<svg width="97px" height="102px" viewBox="0 0 97 102" version="1.1" xmlns:xlink="http://www.w3.org/1999/xlink" xmlns="http://www.w3.org/2000/svg">
  <g id="Icon">
    <path d="M17.8231 10.4598C38.0766 10.4598 51.9849 0 61.7442 0C71.5035 0 92 5.59333 92 50.3546C92 95.1158 64.4263 101.684 53.692 101.684C3.42573 101.687 -18.0458 10.4598 17.8231 10.4598Z" transform="translate(5 0)" id="Path" fill="#F8F7FF" stroke="none" />
    <g id="effect" transform="translate(0 21.415161)">
      <g id="Group">
        <path d="M0.0291774 0.0583548L6.78524 2.38447e-17L6.75606 3.37803L1.17705e-17 3.43639L0.0291774 0.0583548Z" transform="matrix(0.70710677 -0.70710677 0.70710677 0.70710677 13.760652 5.7323637)" id="Path" fill="#6F55FF" stroke="none" />
        <path d="M0.0291774 0.0583548L6.78524 2.38447e-17L6.75606 3.37803L-2.3541e-17 3.43639L0.0291774 0.0583548Z" transform="matrix(0.70710677 -0.70710677 0.70710677 0.70710677 0.13979048 19.58345)" id="Path" fill="#6F55FF" stroke="none" />
        <path d="M0.0583548 0.0291774L3.43639 0L3.37803 6.75606L2.98059e-18 6.78524L0.0583548 0.0291774Z" transform="matrix(0.70710677 -0.70710677 0.70710677 0.70710677 0.14282489 2.7595747)" id="Path" fill="#6F55FF" stroke="none" />
      </g>
    </g>
    <g id="shadow" transform="translate(13.980469 19.621338)">
      <path d="M7.49359 34.7603L7.49359 16.5525L41.6311 2.97945L41.6311 0L0 16.5525L0 34.7603L41.6311 51.3128L41.6311 48.3333L7.49359 34.7603Z" transform="translate(16.808544 0.15517977)" id="Path" fill="#D5DBE1" stroke="none" />
      <path d="M7.49359 14.0696L7.49359 4.96575C7.49359 2.22466 9.73168 0 12.4893 0L4.99573 0C2.23809 0 0 2.22466 0 4.96575L0 14.0696C0 16.8107 2.23809 18.2078 4.99573 18.2078L12.4893 18.2078C9.73168 18.2078 7.49359 16.8107 7.49359 14.0696Z" transform="translate(0.1561165 16.70769)" id="Path" fill="#FF5CF0" stroke="none" />
    </g>
    <g id="_x31_.5" transform="translate(11.359375 17)">
      <path d="M43.8444 56.9092C43.5334 56.9092 43.2223 56.849 42.9245 56.7285L1.56185 39.9907C0.618786 39.6091 0 38.6885 0 37.6608L0 19.2493C0 18.2217 0.618786 17.3011 1.56185 16.9195L42.9245 0.181738C43.6856 -0.132932 44.5559 -0.0325053 45.2375 0.432803C45.9192 0.898112 46.3262 1.67809 46.3262 2.51163L46.3262 54.3986C46.3262 55.2321 45.9192 56.0087 45.2375 56.4774C44.8206 56.7619 44.3309 56.9092 43.8444 56.9092L43.8444 56.9092ZM4.96352 35.9603L41.3627 50.6895L41.3627 6.21736L4.96352 20.9466L4.96352 35.9603Z" transform="translate(16.545069 -0.00097013667)" id="Shape" fill="#6F55FF" stroke="none" />
      <path d="M19.0268 23.4328L7.44528 23.4328C3.06084 23.4328 0 20.6811 0 16.7377L0 7.53197C0 3.38102 3.3421 0 7.44528 0L19.0268 0C20.3968 0 21.5086 1.12477 21.5086 2.51066L21.5086 20.9222C21.5086 22.308 20.3968 23.4328 19.0268 23.4328ZM7.44528 5.02132C6.07866 5.02132 4.96352 6.14944 4.96352 7.53197L4.96352 16.7377C4.96352 18.1203 6.3136 18.4115 7.44528 18.4115L16.5451 18.4115L16.5451 5.02132L7.44528 5.02132Z" transform="translate(0 16.73772)" id="Shape" fill="#FF5CF0" stroke="none" />
      <path d="M5.7643 26.3017C4.53004 26.3017 3.48439 25.3844 3.30901 24.1458L0 0.713027L4.91058 0L7.91516 21.2803L12.9151 21.2803L10.8072 2.27968L15.7377 1.71729L18.1532 23.5098C18.2327 24.2228 18.0077 24.9325 17.5378 25.4648C17.0712 25.997 16.3995 26.3017 15.6913 26.3017L5.7643 26.3017Z" transform="translate(9.953513 37.301685)" id="Path" fill="#6F55FF" stroke="none" />
      <path d="M0.0282221 0.0602047L10.675 7.02737e-17L10.6467 5.00355L7.40725e-17 5.06376L0.0282221 0.0602047Z" transform="matrix(0.7807577 -0.6248339 0.6248339 0.7807577 67.07569 17.239477)" id="Path" fill="#FF5CF0" stroke="none" />
      <path d="M0.0602047 0.0282221L5.06376 0L5.00355 10.6467L0 10.675L0.0602047 0.0282221Z" transform="matrix(0.6248339 -0.7807577 0.7807577 0.6248339 67.08727 43.006275)" id="Path" fill="#FF5CF0" stroke="none" />
      <path d="M0 0L8.27253 0L8.27253 5.02132L0 5.02132L0 0Z" transform="translate(68.66203 27.617239)" id="Path" fill="#FF5CF0" stroke="none" />
    </g>
  </g>
</svg>