<?xml version="1.0" encoding="utf-8"?>
<svg width="52px" height="52px" viewBox="0 0 52 52" version="1.1" xmlns:xlink="http://www.w3.org/1999/xlink" xmlns="http://www.w3.org/2000/svg">
  <g id="Icon" transform="translate(0.5 0.5)">
    <path d="M25.5 51C39.5833 51 51 39.5833 51 25.5C51 11.4167 39.5833 0 25.5 0C11.4167 0 0 11.4167 0 25.5C0 39.5833 11.4167 51 25.5 51Z" id="Oval" fill="#6F55FF" fill-rule="evenodd" stroke="none" />
    <g id="“" fill="#FFFFFF" transform="translate(10 41)">
      <path d="M26.175 -11.9125Q26.175 -10.0375 24.7875 -8.725Q23.4 -7.4125 21.3 -7.4125Q18.975 -7.4125 17.4 -9.0625Q15.825 -10.7125 15.825 -13.7875Q15.825 -19.8625 18.9375 -23.2Q22.05 -26.5375 25.8 -26.9125L25.8 -23.3875Q23.4 -22.8625 21.825 -20.6875Q20.25 -18.5125 20.175 -16.1125Q20.7 -16.4875 21.675 -16.4875Q23.625 -16.4875 24.9 -15.25Q26.175 -14.0125 26.175 -11.9125ZM13.35 -11.9125Q13.35 -10.0375 11.9625 -8.725Q10.575 -7.4125 8.475 -7.4125Q6.15 -7.4125 4.575 -9.0625Q3 -10.7125 3 -13.7875Q3 -19.8625 6.1125 -23.2Q9.225 -26.5375 12.975 -26.9125L12.975 -23.3875Q10.575 -22.8625 9 -20.6875Q7.425 -18.5125 7.35 -16.1125Q7.95 -16.4875 8.85 -16.4875Q10.8 -16.4875 12.075 -15.25Q13.35 -14.0125 13.35 -11.9125Z" />
    </g>
  </g>
</svg>