<?xml version="1.0" encoding="utf-8"?>
<svg width="67px" height="81px" viewBox="0 0 67 81" version="1.1" xmlns:xlink="http://www.w3.org/1999/xlink" xmlns="http://www.w3.org/2000/svg">
  <g id="Icon">
    <path d="M0 2.72409C0 1.21949 1.19376 0 2.66663 0L42.6667 0L56 13.6206L56 76.2759C56 77.7805 54.8062 79 53.3334 79L2.66679 79C1.19392 79 0.000155925 77.7805 0.000155925 76.2759L0.000155925 2.72409L0 2.72409Z" transform="translate(9 1)" id="Path" fill="#FFFFFF" stroke="none" />
    <g id="Group" transform="translate(9 1)">
      <path d="M30.5942 27.3933L0 27.3933L0 0L30.594 0C34.2672 0 37.245 3.0662 37.245 6.84836L37.245 20.5451C37.245 24.3271 34.2673 27.3933 30.5942 27.3933Z" transform="translate(0.012288889 46.57131)" id="Path" fill="#FFC850" stroke="none" />
      <path d="M0 0L0 10.9573C0 12.4701 1.19124 13.6966 2.66031 13.6966L13.3017 13.6966L0 0Z" transform="translate(42.578045 0.0027229437)" id="Path" fill="#FFC850" stroke="none" />
    </g>
    <path d="M0 0L0 3.33335C0 3.70148 0.607697 4 1.35712 4L17.6429 4C18.3923 4 19 3.70148 19 3.33335L19 0L0 0Z" transform="translate(24 31)" id="Path" fill="#ABFFDB" stroke="none" />
    <path d="M0 0L0 3.33335C0 3.70148 0.607697 4 1.35712 4L17.6429 4C18.3923 4 19 3.70148 19 3.33335L19 0L0 0Z" transform="translate(24 23)" id="Path" fill="#ABFFDB" stroke="none" />
    <path d="M39.2904 19L2.70964 19C1.21301 19 0 17.7849 0 16.2858L0 2.71424C0 1.21508 1.21301 0 2.70964 0L39.2904 0C40.787 0 42 1.21508 42 2.71424L42 16.2858C42 17.7849 40.787 19 39.2904 19Z" transform="translate(2 51)" id="Path" fill="#ABFFDB" stroke="none" />
    <g id="Group">
      <path d="M1.255 2.53663C1.94811 2.53663 2.51 1.96879 2.51 1.26831C2.51 0.567844 1.94811 0 1.255 0C0.561882 0 0 0.567844 0 1.26831C0 1.96879 0.561882 2.53663 1.255 2.53663Z" transform="translate(50.98559 41.937275)" id="Oval" fill="#474D54" stroke="none" />
      <path d="M66.3958 13.8996L53.0095 0.371303C52.7744 0.133523 52.4551 0 52.1222 0L11.9639 0C9.79562 0 8.0317 1.78263 8.0317 3.9739L8.0317 50.0542L3.93218 50.0542C1.76392 50.0542 0 51.8368 0 54.0281L0 67.5564C0 69.7476 1.76392 71.5303 3.93218 71.5303L8.0317 71.5303L8.0317 77.0261C8.0317 79.2174 9.79562 81 11.9639 81L62.8313 81C64.9995 81 66.7635 79.2174 66.7635 77.0261L66.7635 14.7964C66.7633 14.4599 66.6312 14.1375 66.3958 13.8996ZM53.3772 4.33002L62.4788 13.5281L54.7994 13.5281C54.0151 13.5281 53.3771 12.8833 53.3771 12.0907L53.3771 4.33002L53.3772 4.33002ZM2.50984 67.5564L2.50984 54.0281C2.50984 53.2355 3.1479 52.5907 3.93218 52.5907L40.0748 52.5907C40.859 52.5907 41.4971 53.2355 41.4971 54.0281L41.4971 67.5564C41.4971 68.349 40.859 68.9938 40.0748 68.9938L3.93218 68.9938C3.1479 68.9938 2.50984 68.349 2.50984 67.5564ZM62.8311 78.4635L11.9639 78.4635C11.1796 78.4635 10.5415 77.8187 10.5415 77.0261L10.5415 71.5303L40.0748 71.5303C42.243 71.5303 44.0069 69.7476 44.0069 67.5564L44.0069 54.0281C44.0069 51.8368 42.243 50.0542 40.0748 50.0542L10.5415 50.0542L10.5415 3.9739C10.5415 3.18131 11.1796 2.53647 11.9639 2.53647L50.8674 2.53647L50.8674 12.0907C50.8674 14.2819 52.6313 16.0646 54.7996 16.0646L64.2535 16.0646L64.2535 77.0259C64.2535 77.8187 63.6154 78.4635 62.8311 78.4635Z" transform="translate(0.1183458 0)" id="Shape" fill="#000000" stroke="none" />
    </g>
    <g id="Group" transform="translate(6 55)">
      <path d="M5.14403 10.8932C7.9805 10.8932 10.2881 8.44978 10.2881 5.44662C10.2881 2.44329 7.98035 0 5.14403 0L1.22482 0C0.548472 0 0 0.580573 0 1.29687L0 9.59653C0 10.3127 0.548319 10.8934 1.22482 10.8934L5.14403 10.8934L5.14403 10.8932ZM2.44964 2.59357L5.14418 2.59357C6.62994 2.59357 7.83872 3.87346 7.83872 5.44662C7.83872 7.01978 6.62994 8.29966 5.14418 8.29966L2.44964 8.29966L2.44964 2.59357Z" transform="translate(0.14666666 0.09657353)" id="Shape" fill="#48C397" stroke="none" />
      <path d="M5.14403 10.8932C7.9805 10.8932 10.2881 8.44978 10.2881 5.44662C10.2881 2.44329 7.98035 0 5.14403 0C2.30771 0 0 2.44346 0 5.44662C0 8.44994 2.30756 10.8932 5.14403 10.8932ZM5.14403 2.59357C6.62979 2.59357 7.83857 3.87346 7.83857 5.44662C7.83857 7.01978 6.62979 8.29966 5.14403 8.29966C3.65826 8.29966 2.44949 7.01978 2.44949 5.44662C2.44949 3.87346 3.65826 2.59357 5.14403 2.59357Z" transform="translate(11.904597 0.09657353)" id="Shape" fill="#48C397" stroke="none" />
      <path d="M5.14403 10.8937C6.6055 10.8937 8.00281 10.2319 8.97783 9.07856C9.42899 8.54474 9.38606 7.72507 8.88219 7.24738C8.37803 6.76969 7.60375 6.81515 7.15275 7.34865C6.64171 7.95332 5.90944 8.29999 5.14418 8.29999C3.65842 8.29999 2.44964 7.0201 2.44964 5.44694C2.44964 3.87378 3.65842 2.5939 5.14418 2.5939C5.91113 2.5939 6.64415 2.94169 7.15504 3.54799C7.60543 4.08229 8.37986 4.12872 8.88433 3.65184C9.38896 3.17496 9.43281 2.35497 8.98242 1.82082C8.00708 0.663721 6.60794 0 5.14403 0C2.30756 0 0 2.44346 0 5.44662C4.34221e-15 8.45043 2.30771 10.8937 5.14403 10.8937Z" transform="translate(23.662374 0.09608824)" id="Path" fill="#48C397" stroke="none" />
    </g>
    <g id="Group" transform="translate(51 28)">
      <path d="M1.41476 2.42023C2.19612 2.42023 2.82953 1.87844 2.82953 1.21011C2.82953 0.541786 2.19612 0 1.41476 0C0.633412 0 0 0.541786 0 1.21011C0 1.87844 0.633412 2.42023 1.41476 2.42023Z" transform="translate(0.123352945 13.446793)" id="Oval" fill="#FFC850" stroke="none" />
      <path d="M0 0L0 10.6488C0 11.317 0.633353 11.8589 1.41476 11.8589C2.196 11.8589 2.82953 11.3171 2.82953 10.6488L2.82953 0L0 0Z" transform="translate(0.123352945 0.136)" id="Path" fill="#FFC850" stroke="none" />
    </g>
  </g>
</svg>