<?xml version="1.0" encoding="utf-8"?>
<svg width="81px" height="80px" viewBox="0 0 81 80" version="1.1" xmlns:xlink="http://www.w3.org/1999/xlink" xmlns="http://www.w3.org/2000/svg">
  <g id="Icon" transform="translate(0.5 0.5)">
    <path d="M76.3944 20.7792L1.52789 20.7792C0.684107 20.7792 0 20.1147 0 19.295L0 1.48423C0 0.664558 0.684107 0 1.52789 0L76.3942 0C77.238 0 77.9221 0.664558 77.9221 1.48423L77.9221 19.295C77.9221 20.1148 77.238 20.7792 76.3944 20.7792Z" transform="translate(2.078125 1.0389404)" id="Path" fill="#FFFFFF" stroke="none" />
    <path d="M19.7403 20.7792L1.51848 20.7792C0.679893 20.7792 0 20.1147 0 19.295L0 1.48423C0 0.664558 0.679893 0 1.51848 0L19.7403 0L19.7403 20.7792Z" transform="translate(2.078125 1.0389404)" id="Path" fill="#FF8031" stroke="none" />
    <path d="M76.3944 20.7792L1.52789 20.7792C0.684107 20.7792 0 20.1147 0 19.295L0 1.48423C0 0.664558 0.684107 0 1.52789 0L76.3942 0C77.238 0 77.9221 0.664558 77.9221 1.48423L77.9221 19.295C77.9221 20.1147 77.238 20.7792 76.3944 20.7792Z" transform="translate(2.078125 29.090942)" id="Path" fill="#FFFFFF" stroke="none" />
    <path d="M19.7403 20.7792L1.51848 20.7792C0.679893 20.7792 0 20.1147 0 19.295L0 1.48423C0 0.664558 0.679893 0 1.51848 0L19.7403 0L19.7403 20.7792Z" transform="translate(2.078125 29.090942)" id="Path" fill="#FFC850" stroke="none" />
    <path d="M76.3944 20.7792L1.52789 20.7792C0.684107 20.7792 0 20.1147 0 19.295L0 1.48424C0 0.664563 0.684107 0 1.52789 0L76.3942 0C77.238 0 77.9221 0.664563 77.9221 1.48424L77.9221 19.2951C77.9221 20.1147 77.238 20.7792 76.3944 20.7792Z" transform="translate(2.078125 57.142822)" id="Path" fill="#FFFFFF" stroke="none" />
    <path d="M19.7403 20.7792L1.51848 20.7792C0.679893 20.7792 0 20.1147 0 19.295L0 1.48424C0 0.664563 0.679893 0 1.51848 0L19.7403 0L19.7403 20.7792Z" transform="translate(2.078125 57.142822)" id="Path" fill="#ABFFDB" stroke="none" />
    <g id="Group" transform="translate(67.53223 38.44153)">
      <path d="M9.56682 0L0 0L0 8.25722C0 9.89281 0.963687 11.397 2.50986 12.1745C3.22101 12.5323 4.00313 12.7095 4.78323 12.7095C5.6988 12.7095 6.6118 12.4652 7.40535 11.981L7.66839 11.8206L11.012 19.3341C11.0409 19.3987 11.0806 19.4555 11.1123 19.5185C11.1252 19.4421 11.1611 19.373 11.1611 19.2932L11.1611 1.48409C11.1611 0.664497 10.4472 0 9.56682 0Z" transform="translate(0.13050692 17.869177)" id="Path" fill="#E4EAF8" stroke="none" />
      <path d="M11.1613 4.09215L8.1659 1.30412C7.25088 0.452434 6.02728 0 4.78249 0C4.16627 0 3.5447 0.110664 2.95281 0.338854C1.16535 1.02806 0 2.65147 0 4.45211L0 11.8726L9.56682 11.8726C10.4474 11.8726 11.1613 11.2081 11.1613 10.3885L11.1613 4.09215L11.1613 4.09215Z" transform="translate(0.13032258 0.06005004)" id="Path" fill="#E4EAF8" stroke="none" />
    </g>
    <path d="M77.0688 0L2.93139 0C1.31501 0 0 1.36517 0 3.0432L0 21.8919C0 23.5699 1.31501 24.9351 2.93139 24.9351L77.0686 24.9351C78.685 24.9351 80 23.5699 80 21.8919L80 3.0432C80.0002 1.36517 78.685 0 77.0688 0ZM77.1632 21.8919C77.1632 21.946 77.1209 21.9901 77.0686 21.9901L22.5059 21.9901L19.6691 21.9901L2.93157 21.9901C2.87944 21.9901 2.83694 21.9462 2.83694 21.8919L2.83694 3.0432C2.83694 2.98909 2.87927 2.94497 2.93157 2.94497L19.6691 2.94497L22.5061 2.94497L77.0688 2.94497C77.1209 2.94497 77.1634 2.98891 77.1634 3.0432L77.1634 21.8919L77.1632 21.8919Z" id="Shape" fill="#0E0E0E" stroke="none" />
    <g id="Group" transform="translate(25.974121 7.272705)">
      <path d="M1.41463 2.91632L27.0677 2.91632C27.8491 2.91632 28.4823 2.2634 28.4823 1.45816C28.4823 0.652747 27.8489 0 27.0677 0L1.41463 0C0.633262 0 3.60253e-08 0.652927 3.60253e-08 1.45816C-0.000174416 2.2634 0.633262 2.91632 1.41463 2.91632Z" transform="translate(0.008722585 0.1603996)" id="Path" fill="#ABB0B7" stroke="none" />
      <path d="M0 1.45816C0 2.26358 0.633437 2.91632 1.41463 2.91632L31.5949 2.91632C32.3763 2.91632 33.0095 2.2634 33.0095 1.45816C33.0095 0.652747 32.3761 3.71338e-08 31.5949 3.71338e-08L1.41463 3.71338e-08C0.633262 -0.000179783 0 0.652747 0 1.45816Z" transform="translate(13.589494 6.382178)" id="Path" fill="#ABB0B7" stroke="none" />
      <path d="M8.96005 0L1.41463 0C0.633262 0 0 0.652927 0 1.45816C0 2.26358 0.633437 2.91632 1.41463 2.91632L8.96005 2.91632C9.74142 2.91632 10.3747 2.2634 10.3747 1.45816C10.3747 0.652927 9.74125 0 8.96005 0Z" transform="translate(0.008722621 6.381998)" id="Path" fill="#ABB0B7" stroke="none" />
    </g>
    <g id="Group" transform="translate(5.307129 4.261963)">
      <path d="M1.51925 6.77886C2.35841 6.77886 3.0385 6.12844 3.0385 5.32629C3.0385 3.99122 4.17443 2.90515 5.57077 2.90515C6.96712 2.90515 8.10304 3.9914 8.10304 5.32629C8.10304 6.66117 6.96712 7.74743 5.57077 7.74743C4.73162 7.74743 4.05152 8.39785 4.05152 9.2C4.05152 10.0023 4.7318 10.6526 5.57077 10.6526C8.64262 10.6526 11.1415 8.26332 11.1415 5.32629C11.1415 2.38925 8.64262 0 5.57077 0C2.49892 0 0 2.38943 0 5.32629C0 6.12844 0.680281 6.77886 1.51925 6.77886Z" id="Path" fill="#FFFFFF" stroke="none" />
      <path d="M1.52731 0L1.51119 0C0.672037 0 0 0.650425 0 1.45257C0 2.2549 0.688337 2.90515 1.52749 2.90515C2.36665 2.90515 3.04674 2.25472 3.04674 1.45257C3.04674 0.650425 2.36628 0 1.52731 0Z" transform="translate(4.0600586 12.39563)" id="Path" fill="#FFFFFF" stroke="none" />
    </g>
    <g id="Group" transform="translate(25.974121 35.324707)">
      <path d="M1.43019 2.91632L27.3653 2.91632C28.1552 2.91632 28.7955 2.2634 28.7955 1.45816C28.7955 0.652927 28.1551 0 27.3653 0L1.43019 0C0.640225 0 0 0.652927 0 1.45816C0 2.2634 0.640225 2.91632 1.43019 2.91632Z" transform="translate(0.008818521 0.106453545)" id="Path" fill="#ABB0B7" stroke="none" />
      <path d="M27.3655 0L1.43019 0C0.640225 0 0 0.652927 0 1.45816C0 2.2634 0.640401 2.91632 1.43019 2.91632L27.3655 2.91632C28.1554 2.91632 28.7956 2.2634 28.7956 1.45816C28.7956 0.652927 28.1552 0 27.3655 0Z" transform="translate(12.355212 6.328052)" id="Path" fill="#ABB0B7" stroke="none" />
      <path d="M9.05856 0L1.43019 0C0.640225 0 0 0.652927 0 1.45816C0 2.2634 0.640401 2.91632 1.43019 2.91632L9.05856 2.91632C9.84853 2.91632 10.4887 2.2634 10.4887 1.45816C10.4887 0.652927 9.84835 0 9.05856 0Z" transform="translate(0.008818521 6.328052)" id="Path" fill="#ABB0B7" stroke="none" />
    </g>
    <g id="Group" transform="translate(5.194824 32.207764)">
      <path d="M5.57077 0C2.49892 0 0 2.2559 0 5.02901C0 5.78655 0.680281 6.40051 1.51925 6.40051C2.35822 6.40051 3.0385 5.78639 3.0385 5.02901C3.0385 3.76846 4.17443 2.743 5.57077 2.743C6.96712 2.743 8.10304 3.76846 8.10304 5.02901C8.10304 6.28956 6.96712 7.31501 5.57077 7.31501C4.73162 7.31501 4.05152 7.92913 4.05152 8.68651C4.05152 9.44389 4.7318 10.058 5.57077 10.058C8.64262 10.058 11.1415 7.80211 11.1415 5.02901C11.1415 2.2559 8.64262 0 5.57077 0Z" transform="translate(0.11241218 0.04921776)" id="Path" fill="#FFFFFF" stroke="none" />
      <path d="M1.52731 0L1.51119 0C0.672037 0 0 0.614123 0 1.3715C0 2.12888 0.688337 2.743 1.52749 2.743C2.36665 2.743 3.04674 2.12888 3.04674 1.3715C3.04674 0.614123 2.36628 0 1.52731 0Z" transform="translate(4.172178 11.753235)" id="Path" fill="#FFFFFF" stroke="none" />
    </g>
    <g id="Group" transform="translate(24.935059 62.337646)">
      <path d="M1.45441 2.91632L27.8287 2.91632C28.6321 2.91632 29.2832 2.2634 29.2832 1.45816C29.2832 0.652927 28.6319 0 27.8287 0L1.45441 0C0.651068 0 0 0.652927 0 1.45816C0 2.2634 0.651068 2.91632 1.45441 2.91632Z" transform="translate(0.008967875 0.052327674)" id="Path" fill="#ABB0B7" stroke="none" />
      <path d="M26.7027 0L1.32186 0C0.591732 0 0 0.652927 0 1.45816C0 2.2634 0.591895 2.91632 1.32186 2.91632L26.7027 2.91632C27.4329 2.91632 28.0246 2.2634 28.0246 1.45816C28.0246 0.652927 27.4327 0 26.7027 0Z" transform="translate(13.971768 6.2739263)" id="Path" fill="#ABB0B7" stroke="none" />
      <path d="M9.21198 0L1.45441 0C0.651068 0 0 0.652927 0 1.45816C0 2.2634 0.651247 2.91632 1.45441 2.91632L9.21198 2.91632C10.0153 2.91632 10.6664 2.2634 10.6664 1.45816C10.6664 0.652927 10.0151 0 9.21198 0Z" transform="translate(0.008967875 6.2739263)" id="Path" fill="#ABB0B7" stroke="none" />
    </g>
    <g id="Group" transform="translate(5.194824 59.220825)">
      <path d="M5.57077 0C2.49892 0 0 2.38925 0 5.32629C0 6.12862 0.680281 6.77886 1.51925 6.77886C2.35822 6.77886 3.0385 6.12844 3.0385 5.32629C3.0385 3.99122 4.17443 2.90515 5.57077 2.90515C6.96712 2.90515 8.10304 3.99122 8.10304 5.32629C8.10304 6.66135 6.96712 7.74743 5.57077 7.74743C4.73162 7.74743 4.05152 8.39785 4.05152 9.2C4.05152 10.0021 4.7318 10.6526 5.57077 10.6526C8.64262 10.6526 11.1415 8.26332 11.1415 5.32629C11.1415 2.38943 8.64262 0 5.57077 0Z" transform="translate(0.11241218 0.1773399)" id="Path" fill="#48C397" stroke="none" />
      <path d="M1.52731 0L1.51119 0C0.672037 0 0 0.650425 0 1.45257C0 2.25472 0.688337 2.90515 1.52749 2.90515C2.36665 2.90515 3.04674 2.25472 3.04674 1.45257C3.04674 0.650425 2.36628 0 1.52731 0Z" transform="translate(4.172178 12.57322)" id="Path" fill="#48C397" stroke="none" />
    </g>
    <path d="M79.8419 2.91172C79.8419 1.30618 78.5295 0 76.9163 0L2.9256 0C1.31241 0 0 1.30618 0 2.91172L0 20.946C0 22.5515 1.31241 23.8577 2.9256 23.8577C2.9256 23.8577 54.9705 23.7945 76.6897 23.7945C76.6897 24.3478 76.6897 27.1146 76.6897 27.1146L2.9256 27.0512C1.31241 27.0512 0 28.3574 0 29.9631L0 47.9974C0 49.6029 1.31241 50.9091 2.9256 50.9091L76.9163 50.9091C78.5295 50.9091 79.8419 49.6029 79.8419 47.9974L79.8419 43.6799L80 34.3083L79.8419 2.91172ZM2.9256 21.04C2.87358 21.04 2.83116 20.9979 2.83116 20.946L2.83116 2.91172C2.83116 2.85994 2.8734 2.81772 2.9256 2.81772L76.9163 2.81772C76.9683 2.81772 77.0107 2.85977 77.0107 2.91172L77.0107 17.5447L73.3872 13.9383C72.9824 13.5353 72.3733 13.4149 71.8445 13.6329C71.3154 13.8509 70.9706 14.3649 70.9706 14.9346L70.9706 21.04L2.9256 21.04L2.9256 21.04ZM77.0107 47.9972C77.0107 48.049 76.9685 48.0912 76.9163 48.0912L22.4614 48.0912L19.6303 48.0912L2.92577 48.0912C2.87375 48.0912 2.83133 48.0491 2.83133 47.9972L2.83133 29.9631C2.83133 29.9113 2.87358 29.8691 2.92577 29.8691L19.6303 29.8691L22.4616 29.8691L70.9708 29.8691L70.9708 36.8219C70.9708 37.3394 71.2561 37.8155 71.7136 38.0615C72.1711 38.3075 72.7275 38.2841 73.1625 38.0003L76.557 35.786L77.0109 36.8768L77.0109 47.9972L77.0107 47.9972Z" transform="translate(0 28.052002)" id="Shape" fill="#2E2E2E" stroke="none" />
    <path d="M10.5 11.5974L6.51485e-13 11.5974L0.0324675 0L10.5 0.0974026L10.5 11.5974Z" transform="translate(66.5 37.402588)" id="Path-29" fill="#FFFFFF" fill-rule="evenodd" stroke="none" />
    <path d="M10.5 11.5974L6.51485e-13 11.5974L0.0324675 0L10.5 0.0974026L10.5 11.5974Z" transform="translate(66.5 58)" id="Path-29" fill="#FFFFFF" fill-rule="evenodd" stroke="none" />
  </g>
</svg>