<?xml version="1.0" encoding="utf-8"?>
<svg width="78px" height="69px" viewBox="0 0 78 69" version="1.1" xmlns:xlink="http://www.w3.org/1999/xlink" xmlns="http://www.w3.org/2000/svg">
  <g id="Icon">
    <path d="M50.4234 8.64006C50.4176 8.46391 50.4119 8.28792 50.4061 8.11112C50.3362 6.01974 50.0973 4.12986 48.7321 2.45636C47.4796 0.920249 45.367 0.419443 43.5109 0.246729C43.4024 0.236425 43.2982 0.248528 43.1939 0.25965C43.1355 0.257033 43.0837 0.245093 43.0229 0.246729C35.1979 0.458533 27.3777 0.257033 19.5544 0.0195504C19.488 0.0146438 19.4288 8.73297e-05 19.3597 8.73297e-05L9.11296 8.73297e-05C9.0735 8.73297e-05 9.04066 0.00973709 9.002 0.0112091C8.95639 0.00957354 8.91612 -0.000730447 8.86889 8.73297e-05C4.93307 0.0640374 1.60721 2.22591 0.896332 6.31741C0.86188 6.51711 0.854439 6.71616 0.8601 6.91242C0.84619 6.99338 0.824839 7.06813 0.818208 7.15416C0.428072 12.3358 0.176392 17.5286 0.0686679 22.7254C0.0141588 25.3777 -0.00266293 28.0312 0.0182025 30.6839C0.040362 33.4375 -0.295588 36.3133 1.17923 38.7933C2.48437 40.9892 4.66959 41.7134 7.03127 42.1501C7.14061 42.17 7.25707 42.1784 7.37838 42.1808C7.38711 42.1808 7.3952 42.1825 7.42723 42.1808C7.50114 42.1808 7.56924 42.19 7.64866 42.1825C12.6638 41.7199 17.6856 41.4915 22.7197 41.4533C23.0687 41.6625 23.4212 41.8645 23.7767 42.0605C23.8071 42.0812 23.8285 42.1061 23.8606 42.1252C29.0532 45.3361 34.4775 48.0992 39.9615 50.7595C41.0894 51.3061 42.1529 50.8542 42.7666 50.075C43.2091 49.6682 43.4433 49.0734 43.2774 48.3425C43.2511 48.1514 43.1952 47.9671 43.1049 47.7911L40.5965 41.1951L42.5333 41.1951C42.6457 41.1951 42.746 41.1768 42.8495 41.1635C44.6391 41.3662 46.484 41.2698 47.9976 40.146C50.9382 37.966 50.9046 33.8161 50.9711 30.5239C51.0671 25.8157 50.9086 21.1 50.7221 16.3967C50.6212 13.8117 50.5128 11.2262 50.4234 8.64006ZM46.5662 34.097C46.456 34.9952 46.1827 35.8349 45.5585 36.4801C44.4175 37.3164 42.6048 36.7883 41.3047 36.7567C40.1842 36.7284 38.982 36.7567 37.8992 36.7567C37.6011 36.7567 37.3417 36.8139 37.1059 36.9029C35.842 37.0174 34.7141 38.0424 35.294 39.5664C35.9093 41.1858 36.5252 42.8046 37.1413 44.4232C33.6891 42.6708 30.283 40.832 26.9648 38.8239C26.8457 38.7143 26.715 38.6155 26.5656 38.5391C26.0661 38.284 25.5815 38.0041 25.1009 37.7177C24.7477 37.2923 24.2246 36.9992 23.5059 37.0027C18.2082 37.0208 12.9257 37.256 7.64979 37.7419C7.61696 37.7452 7.58914 37.756 7.55662 37.7601C7.50535 37.756 7.45974 37.7428 7.40588 37.7419C6.70276 37.7285 6.16527 37.6023 5.62762 37.281C5.2239 37.0401 4.8425 36.4829 4.64371 35.919C4.58985 35.766 4.52175 35.6216 4.4446 35.4846C4.46724 35.341 4.48228 35.1906 4.47824 35.0295C4.2602 25.7293 4.50865 16.4456 5.20934 7.17068C5.65075 5.22061 6.78185 4.47545 8.86921 4.44143C8.90981 4.44061 8.94345 4.43031 8.98211 4.42851C9.02724 4.43096 9.06703 4.44143 9.11312 4.44143L18.8712 4.44143C23.5323 4.44732 28.1746 4.83347 32.8317 4.86668C35.1972 4.88369 37.5495 4.71179 39.9102 4.6184C41.4684 4.55608 43.6186 4.31271 44.9814 5.28243C46.5945 6.43141 46.205 9.00937 46.2601 10.739C46.3446 13.348 46.4326 15.9567 46.5033 18.5657C46.5739 21.1758 46.6215 23.7861 46.6215 26.3969C46.6215 27.7253 46.61 29.0545 46.582 30.3831C46.5579 31.49 46.7198 32.849 46.5662 34.097Z" transform="translate(27 0)" id="Shape" fill="#000000" stroke="none" />
    <path d="M45.8362 27.3581C45.8362 27.3581 45.8362 32.5764 45.8388 32.6004C45.7313 32.8515 45.66 33.1258 45.628 33.4117C45.6683 33.0496 45.542 33.7316 45.542 33.7291C45.523 33.8045 45.5106 33.8574 45.5041 33.8923C45.4891 33.9206 45.4719 33.9511 45.4463 34.0049C45.4371 34.0216 45.2702 34.2758 45.2455 34.3331C45.1654 34.4243 45.0801 34.5097 44.9917 34.5908C45.0114 34.5528 44.6932 34.7922 44.6669 34.807C44.6164 34.8371 44.5876 34.8552 44.5594 34.8725C44.5256 34.8808 44.4767 34.895 44.3884 34.9247C43.8661 35.1011 43.8154 35.0712 43.3371 35.0804C43.2692 35.0822 43.2114 35.097 43.147 35.1037C43.0708 35.0962 43.0006 35.0804 42.9204 35.0804L27.7223 35.0804C27.0495 35.0804 26.5461 35.3431 26.2102 35.7361C26.0101 35.8255 25.813 35.9407 25.625 36.1098C23.7303 37.82 21.8842 39.577 20.0808 41.3776C20.3383 40.2358 20.5767 39.0888 20.7774 37.932C21.3767 34.4772 17.0771 35.4028 15.2047 35.4518C13.0887 35.5057 10.1311 36.2681 8.09122 35.7328C7.44276 35.5621 5.8939 34.7076 5.85418 33.9005C5.41944 25.2458 4.82763 16.5996 4.40444 7.94325C4.40362 7.92465 4.39776 7.90849 4.39695 7.88972C4.39239 7.72947 4.37302 7.56285 4.33006 7.38791C4.10967 6.49623 4.11683 5.72058 4.37384 5.25483C5.51563 3.18932 9.46804 3.83441 11.3359 3.99434C14.7805 4.28988 18.2295 4.2654 21.6852 4.39416C24.3713 4.49436 24.3621 0.318614 21.6835 0.21923C18.2311 0.0912879 14.7755 0.039393 11.3206 0.0207892C7.62571 0.000390212 3.39155 -0.358794 0.898815 2.96101C-0.200497 4.42582 -0.126927 6.51059 0.254919 8.22312C0.679734 16.8298 1.26699 25.4287 1.69669 34.0363C1.7045 34.1871 1.72891 34.3279 1.76033 34.462C1.74682 34.7953 1.80541 35.1465 1.98136 35.507C4.57371 40.8278 11.3053 39.7821 16.2218 39.5915C15.6031 42.4705 14.8093 45.3029 13.8472 48.0931C13.5712 48.8927 13.7779 49.5481 14.2167 49.994C14.8891 50.9951 16.2929 51.4849 17.3273 50.3337C20.8144 46.4488 24.4932 42.7579 28.3605 39.255L42.9207 39.255C42.9868 39.255 43.0431 39.2418 43.1059 39.2369C43.1828 39.2426 43.2547 39.2568 43.3374 39.255C45.0515 39.221 46.5277 38.7122 47.8543 37.6258C49.0791 36.624 49.5849 35.0495 49.7734 33.5389C49.9131 33.2678 50 32.9506 50 32.5751L50 27.3568C50.0002 24.6666 45.8362 24.6666 45.8362 27.3581Z" transform="translate(0 18)" id="Path" fill="#000000" stroke="none" />
  </g>
</svg>