<?xml version="1.0" encoding="utf-8"?>
<svg width="61px" height="76px" viewBox="0 0 61 76" version="1.1" xmlns:xlink="http://www.w3.org/1999/xlink" xmlns="http://www.w3.org/2000/svg">
  <g id="Icon">
    <path d="M48.7005 16.74C48.5604 12.5179 48.482 6.81323 48.5244 2.58859C48.526 2.39999 48.495 2.23365 48.4526 2.07749C48.536 1.15738 47.9904 0.18463 46.7992 0.216117C31.7734 0.606521 16.7509 0.02338 1.72525 3.47942e-06C0.475475 -0.00158676 -0.0725042 1.08614 0.0821117 2.04108C0.0320181 2.20741 -0.00218045 2.38504 0.000227901 2.58859C0.227255 20.3471 0.843631 45.8639 0.862898 63.6263C0.862898 64.0253 0.977374 64.3481 1.15928 64.6049C1.26943 65.3574 1.81564 66.0229 2.80419 65.9987C9.29853 65.8388 15.7964 65.7356 22.2858 65.4205C28.0695 65.1402 35.2777 65.5158 40.8063 63.6457C42.7638 62.9843 44.5151 62.0049 46.016 60.5883C48.7604 57.9978 49.6971 54.519 49.9334 50.8544C50.1601 47.3344 49.7419 43.6424 49.6578 40.3996C49.4425 32.0211 48.9786 25.1162 48.7005 16.74ZM39.1932 48.4156C38.1357 48.4222 37.1135 49.2394 37.5863 50.4958C38.537 53.0227 38.9722 56.1598 37.5096 58.5774C35.742 61.499 32.5892 61.4208 29.5914 61.7946C27.7577 62.0238 25.8084 61.902 23.9601 61.9529C22.5212 61.9933 4.30651 62.4325 4.30651 62.5036C4.26332 45.4075 3.69303 20.5545 3.46231 3.46052C17.3347 3.52032 31.2042 3.9915 45.0764 3.69795C45.0236 17.7339 46.2808 38.0237 46.355 49.1165C44.2025 48.4438 41.9783 48.1594 39.6817 48.3121C39.5022 48.3245 39.3425 48.3641 39.1932 48.4156ZM40.5484 60.1006C41.9417 57.7491 42.289 54.8645 41.5643 51.737C43.2429 51.8016 44.8963 52.1223 46.4635 52.7796C46.4699 52.799 46.4747 52.82 46.4813 52.8394C45.9733 56.5457 43.6065 58.8182 40.5484 60.1006Z" transform="translate(11 0)" id="Shape" fill="#000000" stroke="none" />
    <path d="M42.9542 53.4575C41.8396 53.4575 40.9087 54.4069 40.9087 55.5456L40.9087 57.0238C29.0243 58.2423 17.083 57.7285 5.1549 57.6453C4.86035 39.8207 4.17496 22.0043 4.10306 4.17648L7.49995 4.17648C10.1386 4.17648 10.1386 0 7.49995 0L2.59098 0C2.39808 0 2.22343 0.0285928 2.05853 0.0693939C1.0306 0.0628079 -0.00172861 0.734097 2.1733e-06 2.08824C0.0236037 21.12 0.801826 40.1371 1.0915 59.1649C1.09386 59.3533 1.12108 59.5245 1.16025 59.6861C1.1472 60.74 1.80505 61.806 3.13696 61.8094C16.4198 61.8412 29.7249 62.5623 42.9545 60.9741C43.7743 60.8755 44.336 60.3878 44.6395 59.7775C44.8658 59.4423 45 59.0384 45 58.6079L45 55.545C44.9997 54.4069 44.0688 53.4575 42.9542 53.4575Z" transform="translate(0 14)" id="Path" fill="#000000" stroke="none" />
    <path d="M27.9548 4.73969C30.6688 4.45207 30.6946 -0.277515 27.9548 0.0128339C19.3444 0.924971 10.7114 1.25314 2.06426 1.27314C-0.687677 1.2795 -0.688498 6.00654 2.06426 5.99999C10.7114 5.97999 19.3443 5.65292 27.9548 4.73969Z" transform="translate(20 18)" id="Path" fill="#000000" stroke="none" />
    <path d="M24.0259 0.0172828C16.698 0.97087 9.36298 1.27584 1.99568 0.998029C-0.669434 0.89788 -0.661014 5.80161 1.99568 5.90157C9.36219 6.17939 16.698 5.87422 24.0259 4.92083C26.6439 4.58039 26.6721 -0.326921 24.0259 0.0172828Z" transform="translate(22 27)" id="Path" fill="#000000" stroke="none" />
    <path d="M27.3243 0.0341752C18.955 1.48378 10.5218 2.08866 2.05703 2.40276C-0.680924 2.50457 -0.690424 7.0998 2.05703 6.99834C10.906 6.66904 19.7085 5.9795 28.4563 4.46537C31.1617 3.99607 30.0098 -0.430881 27.3243 0.0341752Z" transform="translate(21 34)" id="Path" fill="#000000" stroke="none" />
  </g>
</svg>