<svg width="52" height="52" viewBox="0 0 52 52" fill="none" xmlns="http://www.w3.org/2000/svg">
<circle cx="26" cy="26" r="26" fill="black"/>
<path fill-rule="evenodd" clip-rule="evenodd" d="M37.9043 29.7827C38.7702 33.6335 33.5685 36.4 30.1139 34.9349C20.969 31.0568 29.1409 17.5994 34.6784 14.1413C35.6276 13.5485 36.5102 14.9779 35.569 15.5653C33.0507 17.1385 31.1561 19.7936 29.8352 22.2917C29.0469 23.7824 28.2407 25.591 27.9683 27.3953C29.2855 26.1328 31.0855 25.3316 33.0417 25.6682C35.3021 26.0569 37.4181 27.6211 37.9043 29.7827ZM33.4743 27.4578C31.252 26.857 29.4086 27.911 28.2956 29.7011C28.2874 29.7142 28.2781 29.7248 28.2688 29.7355C28.2629 29.7423 28.2569 29.7492 28.2512 29.7567C28.2533 30.1247 28.26 30.4921 28.2843 30.8589C29.4859 33.8017 34.2486 34.991 35.9049 31.6699C36.7777 29.9199 35.3732 27.9712 33.4743 27.4578Z" fill="white"/>
<path fill-rule="evenodd" clip-rule="evenodd" d="M25.9043 29.7827C26.77 33.6335 21.5686 36.4 18.114 34.9349C8.96892 31.0568 17.1409 17.5994 22.6785 14.1413C23.6275 13.5485 24.5104 14.9779 23.5692 15.5653C21.0504 17.1385 19.1562 19.7936 17.8353 22.2917C17.0467 23.7824 16.241 25.591 15.9685 27.3953C17.2855 26.1328 19.0855 25.3316 21.0417 25.6682C23.3021 26.0569 25.4184 27.6211 25.9043 29.7827ZM21.4741 27.4578C19.2519 26.857 17.4084 27.911 16.2954 29.7011C16.2918 29.7073 16.2874 29.7122 16.283 29.7171C16.2798 29.7206 16.2766 29.7242 16.2736 29.7282C16.2802 30.2465 16.3269 30.7455 16.4658 31.2377C17.903 33.8966 22.3216 34.8442 23.9046 31.6699C24.7775 29.9199 23.3729 27.9712 21.4741 27.4578Z" fill="white"/>
</svg>
