<svg width="30" height="28" viewBox="0 0 30 28" fill="none" xmlns="http://www.w3.org/2000/svg">
<path d="M27.3835 5.02063L19.2964 23.9173C18.9231 24.7142 18.1766 25.1695 17.3057 25.1695C16.4348 25.1695 15.6883 24.7142 15.315 23.9173L11.9557 16.6319C11.9557 16.518 11.8313 16.518 11.8313 16.518L3.86859 13.4445C2.99767 13.103 2.5 12.4199 2.5 11.6231C2.5 10.8262 2.99767 10.1432 3.86859 9.80173L24.5219 2.40241C24.7708 2.28857 25.0196 2.28857 25.2684 2.28857C25.8905 2.28857 26.3882 2.51625 26.7614 2.85775C27.508 3.42693 27.6324 4.22378 27.3835 5.02063Z" fill="white"/>
</svg>
