<svg width="79" height="78" viewBox="0 0 79 78" fill="none" xmlns="http://www.w3.org/2000/svg">
<ellipse cx="39.7897" cy="39.4973" rx="38.9213" ry="38.5027" fill="url(#paint0_linear)"/>
<path d="M27.7355 55.2965C33.5437 55.6009 38.5091 51.2686 38.8041 45.6391C38.9452 42.9472 38.0067 40.3509 36.1616 38.3285C34.3206 36.3107 31.7842 35.0902 29.0193 34.8915L28.939 34.8854C27.9702 34.8062 27.126 35.5096 27.0515 36.4477C26.977 37.3858 27.7014 38.2073 28.6694 38.2826L28.7664 38.2901C32.558 38.5601 35.4858 41.7745 35.2929 45.4551C35.0962 49.2081 31.786 52.0963 27.9138 51.8933C24.0417 51.6904 21.0514 48.472 21.2481 44.719C21.4938 40.0314 22.8707 35.7661 25.341 32.0416C27.1872 29.2578 28.9911 27.8308 29.0248 27.8044C29.7805 27.2202 29.9047 26.1511 29.3013 25.4142C28.9742 25.0149 28.5005 24.7948 28.0143 24.7693C27.6016 24.7478 27.1799 24.8663 26.8312 25.1342C26.7425 25.2024 24.634 26.8404 22.4746 30.0532C20.5059 32.982 18.0861 37.872 17.7369 44.535C17.4419 50.1646 21.9272 54.9921 27.7355 55.2965Z" fill="white"/>
<path d="M52.7633 55.313C58.5715 55.6174 63.5369 51.2852 63.8319 45.6556C63.973 42.9637 63.0345 40.3674 61.1894 38.3449C59.3484 36.3271 56.8121 35.1066 54.0472 34.9078L53.9669 34.9017C53.0002 34.8226 52.1538 35.5259 52.0793 36.464C52.0048 37.4022 52.7292 38.2236 53.6972 38.2989L53.7943 38.3064C57.5859 38.5766 60.5136 41.791 60.3207 45.4716C60.124 49.2246 56.8138 52.1128 52.9416 51.9099C49.0695 51.7069 46.0793 48.4885 46.276 44.7356C46.5216 40.0479 47.8986 35.7826 50.3689 32.0582C52.215 29.2744 54.0189 27.8474 54.0526 27.821C54.8084 27.2366 54.9325 26.1676 54.3291 25.4307C54.0021 25.0314 53.5283 24.8113 53.0421 24.7859C52.6295 24.7642 52.2077 24.8827 51.8589 25.1507C51.7703 25.2189 49.6618 26.8569 47.5024 30.0697C45.5338 32.9985 43.114 37.8885 42.7648 44.5515C42.4697 50.1811 46.9551 55.0086 52.7633 55.313Z" fill="white"/>
<defs>
<linearGradient id="paint0_linear" x1="39.7897" y1="0.994507" x2="39.7897" y2="78" gradientUnits="userSpaceOnUse">
<stop stop-color="#FF5BA0"/>
<stop offset="1" stop-color="#FF783F"/>
</linearGradient>
</defs>
</svg>
