<svg width="27" height="25" viewBox="0 0 27 25" fill="none" xmlns="http://www.w3.org/2000/svg">
<path fill-rule="evenodd" clip-rule="evenodd" d="M26.6457 7.86295L22.3927 1.09457C21.9636 0.411944 21.2105 -0.00209447 20.4009 -0.000483598H6.59909C5.78948 -0.00209447 5.0364 0.411944 4.60731 1.09457L0.354287 7.86295C-0.186868 8.72682 -0.10148 9.83997 0.565181 10.6122L12.6096 24.5917C12.8322 24.8505 13.1575 24.9995 13.5 24.9995C13.8425 24.9995 14.1678 24.8505 14.3904 24.5917L26.4348 10.6122C27.1015 9.83997 27.1869 8.72682 26.6457 7.86295ZM14.5326 22.7246C14.2785 22.9285 13.9516 23.0253 13.6242 22.9936C13.2968 22.9619 12.9958 22.8043 12.7877 22.5556L7.28085 15.9758C6.84686 15.4591 6.92443 14.6969 7.4541 14.2735C7.98378 13.8501 8.76498 13.9258 9.19898 14.4425L14.7058 21.0223C14.9227 21.2715 15.0268 21.5959 14.9941 21.9213C14.9615 22.2467 14.7949 22.5453 14.5326 22.7487V22.7246Z" fill="#FFD232"/>
</svg>
