<svg width="18" height="18" viewBox="0 0 18 18" fill="none" xmlns="http://www.w3.org/2000/svg">
<g clip-path="url(#clip0)">
<path d="M16.518 1.7085C16.0501 1.31859 15.5016 1.03714 14.9119 0.884387C14.3223 0.731629 13.7062 0.711347 13.1078 0.824996L10.6455 1.341C10.0337 1.45043 9.46415 1.72716 9 2.1405C8.54557 1.73021 7.98596 1.45442 7.38375 1.344L4.863 0.818996C4.26875 0.710935 3.65801 0.734694 3.07395 0.888594C2.48988 1.04249 1.94674 1.32278 1.4829 1.70965C1.01906 2.09652 0.64583 2.58053 0.389594 3.12749C0.133358 3.67444 0.000362053 4.27099 3.97115e-06 4.875V12.219C-0.00133327 13.1824 0.335092 14.1159 0.950762 14.8569C1.56643 15.598 2.42239 16.0997 3.36975 16.275L7.725 17.1352C8.14418 17.2117 8.56941 17.2501 8.9955 17.25C9.43016 17.2497 9.86391 17.2103 10.2915 17.1322L14.613 16.275C15.5629 16.1023 16.4221 15.6018 17.041 14.8608C17.6599 14.1198 17.9993 13.1852 18 12.2197V4.875C18.0006 4.27076 17.8681 3.67381 17.612 3.12654C17.3559 2.57928 16.9823 2.09513 16.518 1.7085ZM7.875 14.8717L3.78975 14.0647C3.35766 13.9862 2.96684 13.7585 2.68545 13.4213C2.40406 13.0842 2.24995 12.6589 2.25 12.2197V4.875C2.25138 4.37892 2.44875 3.90348 2.79911 3.55228C3.14947 3.20108 3.62443 3.00257 4.1205 3C4.22463 2.99979 4.32856 3.00908 4.431 3.02775L6.95175 3.55275C7.21077 3.59996 7.44502 3.73653 7.61372 3.93867C7.78242 4.14081 7.87488 4.39571 7.875 4.659V14.8717ZM15.75 12.2197C15.7492 12.6616 15.5927 13.089 15.3081 13.4269C15.0235 13.7649 14.629 13.9918 14.1938 14.0677L10.125 14.8717V4.659C10.1266 4.39078 10.2232 4.13181 10.3978 3.92815C10.5723 3.72449 10.8134 3.58934 11.0783 3.54675L13.5398 3.0315C13.8098 2.98241 14.0874 2.99323 14.3529 3.0632C14.6183 3.13316 14.8652 3.26056 15.076 3.43639C15.2868 3.61222 15.4564 3.83219 15.5729 4.08078C15.6894 4.32936 15.7498 4.60048 15.75 4.875V12.2197Z" fill="black"/>
</g>
<defs>
<clipPath id="clip0">
<rect width="18" height="18" fill="white"/>
</clipPath>
</defs>
</svg>
