<svg width="26" height="26" viewBox="0 0 26 26" fill="none" xmlns="http://www.w3.org/2000/svg">
<g clip-path="url(#clip0)">
<path d="M20.0417 26H5.95833C4.37861 25.9983 2.86409 25.37 1.74706 24.2529C0.630024 23.1359 0.00172052 21.6214 0 20.0417L0 5.95833C0.00172052 4.37861 0.630024 2.86409 1.74706 1.74706C2.86409 0.630024 4.37861 0.00172052 5.95833 0L20.0417 0C21.6214 0.00172052 23.1359 0.630024 24.2529 1.74706C25.37 2.86409 25.9983 4.37861 26 5.95833V20.0417C25.9983 21.6214 25.37 23.1359 24.2529 24.2529C23.1359 25.37 21.6214 25.9983 20.0417 26ZM5.95833 3.25C5.24004 3.25 4.55116 3.53534 4.04325 4.04325C3.53534 4.55116 3.25 5.24004 3.25 5.95833V20.0417C3.25 20.76 3.53534 21.4488 4.04325 21.9567C4.55116 22.4647 5.24004 22.75 5.95833 22.75H20.0417C20.76 22.75 21.4488 22.4647 21.9567 21.9567C22.4647 21.4488 22.75 20.76 22.75 20.0417V5.95833C22.75 5.24004 22.4647 4.55116 21.9567 4.04325C21.4488 3.53534 20.76 3.25 20.0417 3.25H5.95833Z" fill="black"/>
<path d="M10.4727 19.2693C10.1342 19.2695 9.7991 19.2026 9.48669 19.0724C9.17429 18.9422 8.89081 18.7514 8.65267 18.5109L5.41675 15.2804C5.26574 15.1295 5.14595 14.9503 5.06422 14.7531C4.9825 14.5559 4.94043 14.3445 4.94043 14.131C4.94043 13.9175 4.9825 13.7061 5.06422 13.5089C5.14595 13.3117 5.26574 13.1325 5.41675 12.9816C5.72148 12.6769 6.13473 12.5058 6.56562 12.5058C6.99652 12.5058 7.40977 12.6769 7.7145 12.9816L10.4727 15.7387L18.2857 7.92567C18.5904 7.62103 19.0036 7.44989 19.4345 7.44989C19.8654 7.44989 20.2787 7.62103 20.5834 7.92567C20.7344 8.07658 20.8542 8.25576 20.9359 8.45298C21.0177 8.65021 21.0597 8.8616 21.0597 9.07508C21.0597 9.28857 21.0177 9.49996 20.9359 9.69719C20.8542 9.89441 20.7344 10.0736 20.5834 10.2245L12.2916 18.5163C12.0532 18.7558 11.7697 18.9456 11.4575 19.0749C11.1453 19.2041 10.8106 19.2702 10.4727 19.2693Z" fill="black"/>
</g>
<defs>
<clipPath id="clip0">
<rect width="26" height="26" fill="white"/>
</clipPath>
</defs>
</svg>
