<svg width="28" height="27" viewBox="0 0 28 27" fill="none" xmlns="http://www.w3.org/2000/svg">
<path d="M25.8774 1.12121C25.42 0.658843 24.8503 0.322292 24.2239 0.144253C23.5974 -0.033785 22.9354 -0.047257 22.3021 0.105147L5.10313 3.70845C4.00728 3.87011 2.97805 4.33211 2.13026 5.04292C1.28247 5.75372 0.649471 6.68537 0.301892 7.73391C-0.0456861 8.78245 -0.0941741 9.90665 0.161838 10.9811C0.417851 12.0555 0.968295 13.0378 1.75175 13.8186L3.59563 15.6578C3.63835 15.6998 3.6722 15.75 3.69519 15.8052C3.71819 15.8605 3.72985 15.9198 3.7295 15.9797V19.371C3.73069 20.3843 4.13502 21.3557 4.85377 22.0723C5.57253 22.7888 6.54703 23.1918 7.5635 23.193H10.9655C11.087 23.193 11.2035 23.241 11.2895 23.3265L13.1334 25.1646C13.6854 25.7185 14.3418 26.1582 15.0648 26.4584C15.7878 26.7587 16.5633 26.9135 17.3465 26.9141C17.9995 26.9135 18.6481 26.8071 19.2669 26.5989C20.3138 26.2523 21.2433 25.622 21.9512 24.7787C22.6592 23.9353 23.1176 22.9121 23.2753 21.8237L26.8899 4.73236C27.0495 4.09458 27.0401 3.4264 26.8626 2.79334C26.6851 2.16027 26.3456 1.58406 25.8774 1.12121ZM3.51125 8.77641C3.66101 8.31516 3.93966 7.90607 4.31449 7.59717C4.68932 7.28827 5.14477 7.09239 5.62738 7.03251C5.66713 7.02728 5.7065 7.02055 5.7455 7.01233L20.7328 3.87219L7.1045 17.4499V15.9797C7.10572 15.4775 7.0069 14.9801 6.81378 14.5164C6.62066 14.0526 6.33709 13.6317 5.9795 13.278L4.13788 11.4399C3.79041 11.1011 3.54694 10.6707 3.43597 10.199C3.32499 9.72731 3.35111 9.23385 3.51125 8.77641ZM19.961 21.1889C19.952 21.2282 19.9464 21.2674 19.9408 21.3067C19.8749 21.7855 19.6763 22.2365 19.3672 22.6089C19.0581 22.9814 18.6509 23.2604 18.1914 23.4146C17.7319 23.5688 17.2384 23.592 16.7663 23.4818C16.2943 23.3715 15.8624 23.132 15.5195 22.7904L13.6768 20.9534C13.3218 20.5969 12.8994 20.3141 12.434 20.1216C11.9685 19.9291 11.4694 19.8306 10.9655 19.8319H9.49063L23.1155 6.24636L19.961 21.1889Z" fill="black"/>
</svg>
