<?xml version="1.0" encoding="utf-8"?>
<svg width="40px" height="40px" viewBox="0 0 40 40" version="1.1" xmlns:xlink="http://www.w3.org/1999/xlink" xmlns="http://www.w3.org/2000/svg">
  <g id="happy">
    <path d="M36.3636 17.7276C36.3636 27.5177 28.223 35.4545 18.1818 35.4545C8.14002 35.4545 0 27.5177 0 17.7276C0 7.93686 8.14002 0 18.1818 0C28.223 -5.31144e-15 36.3636 7.93686 36.3636 17.7276Z" transform="translate(3.6367188 3.6363525)" id="path-1_46_" fill="#EDC951" stroke="none" />
    <path d="M10.7272 8.18182L7.45461 8.18182C3.27443 8.18182 5.4186e-07 4.98469 5.4186e-07 0.902805C5.4186e-07 0.403855 0.407409 0 0.909395 0C1.41199 0 1.81879 0.902805 1.81879 0.902805C1.81879 0.902805 4.29416 6.37681 7.45461 6.37681L10.7272 6.37681C13.8877 6.37681 16.363 4.02531 16.363 1.02378C16.363 0.52483 16.7698 0.120976 17.2724 0.120976C17.775 0.120976 18.1818 0.52483 18.1818 1.02378C18.1818 5.03825 14.9074 8.18182 10.7272 8.18182Z" transform="translate(10.910156 20.909058)" id="path-2_46_" fill="#000000" stroke="none" />
    <path d="M5.4327 2.72727C5.19508 2.72727 4.95684 2.63921 4.77505 2.46248C3.89282 1.60535 2.43359 1.57459 1.5892 2.39613C1.22564 2.74959 0.63624 2.74959 0.272674 2.39613C-0.0908914 2.04326 -0.0908914 1.47024 0.272674 1.11738C1.83179 -0.398419 4.49587 -0.367657 6.09096 1.18313C6.45453 1.53599 6.45453 2.10901 6.09096 2.46248C5.90918 2.63921 5.67094 2.72727 5.4327 2.72727Z" transform="translate(10 10.909058)" id="path-3_46_" fill="#000000" stroke="none" />
    <path d="M5.43323 2.72727C5.19496 2.72727 4.9567 2.63921 4.7749 2.46248C3.89382 1.60535 2.43383 1.57459 1.58874 2.39613C1.22514 2.74959 0.636302 2.74959 0.272701 2.39613C-0.0909002 2.04326 -0.0909002 1.47024 0.272701 1.11738C1.83134 -0.398419 4.49568 -0.367657 6.09094 1.18313C6.45454 1.53599 6.45454 2.10901 6.09094 2.46248C5.90914 2.63921 5.67087 2.72727 5.43323 2.72727Z" transform="translate(22.726562 10.909058)" id="path-4_46_" fill="#000000" stroke="none" />
    <path d="M19.0909 37.2727C8.56446 37.2727 0 28.9123 0 18.6364C0 8.36042 8.56446 0 19.0909 0C29.618 0 38.1818 8.36042 38.1818 18.6364C38.1818 28.9123 29.618 37.2727 19.0909 37.2727ZM19.0909 1.79524C9.57825 1.79524 1.83879 9.3496 1.83879 18.6364C1.83879 27.9231 9.57825 35.4781 19.0909 35.4781C28.6042 35.4781 36.343 27.9231 36.343 18.6364C36.343 9.3496 28.6042 1.79524 19.0909 1.79524Z" id="path-5_46_" fill="#000000" stroke="none" />
  </g>
</svg>