<svg width="23" height="29" viewBox="0 0 23 29" fill="none" xmlns="http://www.w3.org/2000/svg">
<path d="M17.6144 10.1598C14.7427 8.33334 10.1334 5.40042 2.98412 0.848367C2.50211 0.486384 1.94754 0.438946 1.46838 0.623369L13.7346 14.5718L17.6144 10.1598Z" fill="#32BBFF"/>
<path d="M1.4684 0.623291C1.37859 0.657881 1.2912 0.699608 1.20762 0.75001C0.678493 1.07548 0.289673 1.70177 0.289673 2.49388V26.6495C0.289673 27.4416 0.678444 28.0679 1.20762 28.3933C1.29105 28.4437 1.3784 28.4856 1.46811 28.5204L13.7346 14.5717L1.4684 0.623291Z" fill="#32BBFF"/>
<path d="M13.7346 14.5718L1.46814 28.5205C1.94744 28.7063 2.50201 28.6624 2.98416 28.2952C9.91745 23.8803 14.4747 20.9822 17.3797 19.1401C17.4606 19.0885 17.5398 19.038 17.6181 18.9879L13.7346 14.5718Z" fill="#32BBFF"/>
<path d="M0.263184 15.135V26.8185C0.263184 27.5847 0.654101 28.1906 1.1862 28.5054C1.27009 28.5541 1.35792 28.5946 1.44812 28.6283L13.7823 15.135H0.263184Z" fill="#2C9FD9"/>
<path d="M3.0064 0.85645C2.43369 0.416065 1.75831 0.428611 1.22888 0.755805L13.5767 15.135L17.645 10.3975C14.7716 8.52594 10.1598 5.52071 3.0064 0.85645Z" fill="#29CC5E"/>
<path d="M13.574 14.0105L1.22888 28.3876C1.75824 28.7146 2.43341 28.7335 3.006 28.2869C9.94165 23.7639 14.5005 20.7947 17.4065 18.9076C17.4874 18.8546 17.5666 18.8029 17.645 18.7516L13.574 14.0105Z" fill="#D93F21"/>
<path d="M22.4732 15.1327C22.4732 14.4735 22.1672 13.8081 21.5609 13.4392C21.5609 13.4392 20.4269 12.7512 16.951 10.6372L12.8167 15.1327L16.9551 19.6327C20.3928 17.5339 21.5608 16.8262 21.5608 16.8262C22.1672 16.4573 22.4732 15.792 22.4732 15.1327Z" fill="#FFD500"/>
<path d="M21.5609 16.8277C22.1672 16.459 22.4732 15.794 22.4732 15.135H12.8167L16.9551 19.6328C20.3928 17.5351 21.5609 16.8277 21.5609 16.8277Z" fill="#FFAA00"/>
</svg>
