<?xml version="1.0" encoding="utf-8"?>
<svg width="40px" height="40px" viewBox="0 0 40 40" version="1.1" xmlns:xlink="http://www.w3.org/1999/xlink" xmlns="http://www.w3.org/2000/svg">
  <g id="surprised">
    <path d="M37 18.5003C37 28.7172 28.7169 37 18.4994 37C8.28247 37 0 28.7172 0 18.5003C0 8.28283 8.28247 0 18.4994 0C28.7169 -6.65156e-15 37 8.28283 37 18.5003Z" transform="translate(3 3)" id="path-1_49_" fill="#EDC951" stroke="none" />
    <path d="M19.0323 2L0.967742 2C0.433548 2 0 1.552 0 1C0 0.447333 0.433548 0 0.967742 0L19.0323 0C19.5665 0 20 0.447333 20 1C20 1.552 19.5665 2 19.0323 2Z" transform="translate(10 26)" id="path-2_49_" fill="#000000" stroke="none" />
    <path d="M5 2.49965C5 3.88091 3.87983 5 2.49965 5C1.11948 5 0 3.88091 0 2.49965C0 1.11909 1.11948 0 2.49965 0C3.87983 0 5 1.11909 5 2.49965Z" transform="translate(24 12)" id="path-3_49_" fill="#000000" stroke="none" />
    <path d="M5 2.49965C5 3.88091 3.88037 5 2.5 5C1.11893 5 0 3.88091 0 2.49965C0 1.11909 1.11893 0 2.5 0C3.88037 0 5 1.11909 5 2.49965Z" transform="translate(11 12)" id="path-4_49_" fill="#000000" stroke="none" />
    <path d="M19.5 39C8.74798 39 0 30.2521 0 19.5C0 8.74786 8.74798 0 19.5 0C30.252 0 39 8.74786 39 19.5C39 30.2521 30.252 39 19.5 39ZM19.5 1.87843C9.78349 1.87843 1.87819 9.78287 1.87819 19.5C1.87819 29.2171 9.78349 37.1222 19.5 37.1222C29.2171 37.1222 37.1218 29.2171 37.1218 19.5C37.1218 9.78287 29.2171 1.87843 19.5 1.87843Z" id="path-5_49_" fill="#000000" stroke="none" />
  </g>
</svg>