<svg version="1.2" xmlns="http://www.w3.org/2000/svg" viewBox="0 0 24 24" width="24" height="24">
	<title>desktop-app-svg</title>
	<style>
		.s0 { fill: #102a43 } 
	</style>
	<path id="Layer" fill-rule="evenodd" class="s0" d="m24 18c0 1.1-0.9 2-2 2h-20c-1.1 0-2-0.9-2-2h4c-1.1 0-2-0.9-2-2v-11c0-1.1 0.9-2 2-2h16c1.1 0 2 0.9 2 2v11c0 1.1-0.9 2-2 2zm-20-12v9c0 0.6 0.5 1 1 1h14c0.6 0 1-0.4 1-1v-9c0-0.5-0.4-1-1-1h-14c-0.5 0-1 0.5-1 1zm9 12c0-0.6-0.4-1-1-1-0.6 0-1 0.4-1 1 0 0.6 0.4 1 1 1 0.6 0 1-0.4 1-1z"/>
</svg>