<svg version="1.2" xmlns="http://www.w3.org/2000/svg" viewBox="0 0 15 24" width="15" height="24">
	<title>mobile-alt-svg</title>
	<style>
		.s0 { fill: #102a43 } 
	</style>
	<path id="Layer" fill-rule="evenodd" class="s0" d="m13.6 0.2q0.4 0.1 0.7 0.5 0.4 0.3 0.5 0.7 0.2 0.4 0.2 0.9v19.4q0 0.5-0.2 0.9-0.1 0.4-0.5 0.7-0.3 0.4-0.7 0.5-0.4 0.2-0.8 0.2h-10.5q-0.5 0-0.9-0.2-0.4-0.1-0.7-0.5-0.4-0.3-0.5-0.7-0.2-0.4-0.2-0.8v-19.5q0-0.5 0.2-0.9 0.1-0.4 0.5-0.7 0.3-0.4 0.7-0.5 0.4-0.2 0.9-0.2h10.5q0.4 0 0.8 0.2zm-6.1 22.3c0.4 0 0.8-0.2 1.1-0.4 0.2-0.3 0.4-0.7 0.4-1.1 0-0.4-0.2-0.8-0.4-1.1-0.3-0.2-0.7-0.4-1.1-0.4-0.4 0-0.8 0.2-1.1 0.4-0.2 0.3-0.4 0.7-0.4 1.1 0 0.4 0.2 0.8 0.4 1.1 0.3 0.2 0.7 0.4 1.1 0.4zm5.2-19.7q0-0.1 0-0.2 0-0.1-0.1-0.2-0.1-0.1-0.2-0.1-0.1 0-0.2 0h-9.4q-0.1 0-0.2 0-0.1 0-0.2 0.1-0.1 0.1-0.1 0.2 0 0.1 0 0.2v14.6q0 0.2 0 0.3 0 0.1 0.1 0.1 0.1 0.1 0.2 0.2 0.1 0 0.2 0h9.4q0.1 0 0.2 0 0.1-0.1 0.2-0.2 0.1 0 0.1-0.1 0-0.1 0-0.3z"/>
</svg>