<svg version="1.2" xmlns="http://www.w3.org/2000/svg" viewBox="0 0 24 24" width="24" height="24">
	<title>web-development-svg</title>
	<style>
		.s0 { fill: #102a43 } 
	</style>
	<path id="Layer" fill-rule="evenodd" class="s0" d="m15.8 2.8c1.2 0.5 2.3 1.2 3.3 2.1 0.9 1 1.6 2.1 2.1 3.3 0.5 1.2 0.8 2.5 0.8 3.8 0 1.3-0.3 2.6-0.8 3.8-0.5 1.2-1.2 2.3-2.1 3.3-1 0.9-2.1 1.6-3.3 2.1-1.2 0.5-2.5 0.8-3.8 0.8-1.3 0-2.6-0.3-3.8-0.8-1.2-0.5-2.3-1.2-3.3-2.1-0.9-1-1.6-2.1-2.1-3.3-0.5-1.2-0.8-2.5-0.8-3.8 0-5.5 4.5-10 10-10 1.3 0 2.6 0.3 3.8 0.8zm0.1 16.2q0.6-0.4 1.2-0.8 0.5-0.5 1-1 0.5-0.6 0.8-1.2h-2.9q-0.5 1.9-1.4 3.6 0.7-0.3 1.3-0.6zm-1.4-7q0-1-0.2-2h-4.6q-0.2 1-0.2 2 0 1 0.2 2h4.6q0.2-1 0.2-2zm-0.6 4h-3.8c0.4 1.4 1.1 2.8 1.9 4 0.8-1.2 1.5-2.6 1.9-4zm-4.5-11.6q-0.7 0.3-1.3 0.6-0.6 0.4-1.2 0.8-0.5 0.5-1 1-0.5 0.6-0.8 1.2h2.9c0.3-1.2 0.8-2.4 1.4-3.6zm-3.5 12.8q0.5 0.5 1 1 0.6 0.4 1.2 0.8 0.6 0.3 1.3 0.6c-0.6-1.2-1.1-2.4-1.4-3.6h-2.9q0.3 0.6 0.8 1.2zm1.7-3.2q-0.1-1-0.1-2 0-1 0.1-2h-3.3q-0.3 1-0.3 2 0 1 0.3 2zm2.4-6h3.8c-0.4-1.4-1.1-2.8-1.9-4-0.8 1.2-1.5 2.6-1.9 4zm4.5-3.6q0.2 0.5 0.4 0.9 0.2 0.4 0.4 0.9 0.2 0.4 0.3 0.9 0.2 0.4 0.3 0.9h2.9c-0.9-1.7-2.4-2.9-4.3-3.6zm5.2 9.6q0.2-1 0.2-2 0-1-0.2-2h-3.4q0.1 1 0.1 2 0 1-0.1 2z"/>
</svg>