<svg xmlns="http://www.w3.org/2000/svg" width="24" height="31.68" viewBox="0 0 24 31.68">
  <path id="Reporting" d="M20,31.68H4a3.984,3.984,0,0,1-4-3.96V3.96A3.984,3.984,0,0,1,4,0H14.893A3.994,3.994,0,0,1,17.72,1.162l5.107,5.055A3.965,3.965,0,0,1,24,9.015v18.7A3.985,3.985,0,0,1,20,31.68ZM8.047,15.731a1.3,1.3,0,0,0-.939.4,1.405,1.405,0,0,0-.069,1.857l2.653,2.735a1.3,1.3,0,0,0,.936.4H10.7a1.319,1.319,0,0,0,.969-.507l5.306-6.838h-.014a1.4,1.4,0,0,0,.232-1.371,1.335,1.335,0,0,0-1.054-.871,1.292,1.292,0,0,0-.187-.014,1.321,1.321,0,0,0-1.061.546l-4.378,5.648L8.91,16.06A1.3,1.3,0,0,0,8.047,15.731Z" fill="#02e7e8"/>
</svg>
