<svg xmlns="http://www.w3.org/2000/svg" width="28" height="28" viewBox="0 0 28 28">
  <path id="Comment" d="M.609,28a.583.583,0,0,1-.3-.084A.648.648,0,0,1,0,27.339l.259-7.846a1.205,1.205,0,0,1,.581-1,1.075,1.075,0,0,1,1.111.011l5.2,3.119a1.226,1.226,0,0,1,.045,2.048L.936,27.9A.585.585,0,0,1,.609,28Zm26.2-.966H8.917a.987.987,0,1,1,0-1.931h17.89a.987.987,0,1,1,0,1.931ZM9.027,19.31A3.418,3.418,0,0,1,7.3,18.839L4.659,17.281a3.654,3.654,0,0,1-1.3-4.9L9.176,1.813A3.489,3.489,0,0,1,12.214,0a3.416,3.416,0,0,1,1.725.472l2.643,1.558a3.655,3.655,0,0,1,1.3,4.9L12.064,17.5A3.488,3.488,0,0,1,9.027,19.31Z" transform="translate(0 0)" fill="#936dff"/>
</svg>
