<?xml version="1.0" encoding="utf-8"?>
<svg width="71px" height="70px" viewBox="0 0 71 70" version="1.1" xmlns:xlink="http://www.w3.org/1999/xlink" xmlns="http://www.w3.org/2000/svg">
  <g id="Icon">
    <g id="effect">
      <g id="Group">
        <path d="M-3.54422e-17 -7.27207e-17L5.06365 0.0882138L5.10776 2.62004L0.0441069 2.53182L-3.54422e-17 -7.27207e-17Z" transform="matrix(0.70710677 -0.70710677 0.70710677 0.70710677 10.614082 4.0518875)" id="Path" fill="#6F55FF" stroke="none" />
        <path d="M0 0L5.06365 0.0882138L5.10776 2.62004L0.0441069 2.53182L0 0Z" transform="matrix(0.70710677 -0.70710677 0.70710677 0.70710677 0.13694051 14.165034)" id="Path" fill="#6F55FF" stroke="none" />
        <path d="M0 0L2.53182 0.0441069L2.62004 5.10776L0.0882138 5.06365L0 0Z" transform="matrix(0.70710677 -0.70710677 0.70710677 0.70710677 0.1392746 1.8512262)" id="Path" fill="#6F55FF" stroke="none" />
      </g>
    </g>
    <g id="shadow" transform="translate(11 11)">
      <path d="M5.74046 54.297L5.74046 2.52544C5.74046 1.1314 6.88345 0 8.29177 0L2.55131 0C1.14299 0 0 1.1314 0 2.52544L0 54.297C0 55.691 1.14299 56.8224 2.55131 56.8224L8.29177 56.8224C6.88345 56.8224 5.74046 55.691 5.74046 54.297Z" transform="translate(0.119592875 0.11838006)" id="Path" fill="#D5DBE1" stroke="none" />
    </g>
    <g id="regular" transform="translate(10 11)">
      <path d="M56.4418 58.885L4.43925 58.885C1.99132 58.885 0 56.959 0 54.5913L0 4.2937C0 1.92603 1.99132 0 4.43925 0L56.4418 0C58.8898 0 60.8811 1.92603 60.8811 4.2937L60.8811 54.5913C60.8811 56.959 58.8898 58.885 56.4418 58.885ZM4.43925 3.68031C4.08918 3.68031 3.80507 3.95511 3.80507 4.2937L3.80507 54.5913C3.80507 54.9299 4.08918 55.2047 4.43925 55.2047L56.4418 55.2047C56.7919 55.2047 57.076 54.9299 57.076 54.5913L57.076 4.2937C57.076 3.95511 56.7919 3.68031 56.4418 3.68031L4.43925 3.68031Z" id="Shape" fill="#6F55FF" stroke="none" />
      <path d="M31.0747 31.896L4.43925 31.896C1.99132 31.896 0 29.97 0 27.6023L0 4.2937C0 1.92603 1.99132 0 4.43925 0L26.7623 0L26.7623 3.68031L4.43925 3.68031C4.08157 3.68031 3.80507 3.94775 3.80507 4.2937L3.80507 27.6023C3.80507 27.9483 4.08157 28.2157 4.43925 28.2157L31.0747 28.2157C31.4324 28.2157 31.7089 27.9483 31.7089 27.6023L31.7089 8.46472L35.514 8.46472L35.514 27.6023C35.514 29.97 33.5227 31.896 31.0747 31.896Z" transform="translate(12.68356 14.721248)" id="Path" fill="#FFC352" stroke="none" />
      <path d="M0 0L16.4886 0L16.4886 3.68031L0 3.68031L0 0Z" transform="translate(22.196232 28.82911)" id="Path" fill="#FFC352" stroke="none" />
      <path d="M0 0L9.51267 0L9.51267 3.68031L0 3.68031L0 0Z" transform="translate(22.196232 22.081871)" id="Path" fill="#FFC352" stroke="none" />
      <path d="M0 0L16.4886 0L16.4886 3.68031L0 3.68031L0 0Z" transform="translate(22.196232 35.576347)" id="Path" fill="#FFC352" stroke="none" />
      <path d="M7.61014 14.7212C3.41441 14.7212 0 11.4188 0 7.36062C0 3.30247 3.41441 0 7.61014 0C11.8059 0 15.2203 3.30247 15.2203 7.36062C15.2203 11.4188 11.8059 14.7212 7.61014 14.7212ZM7.61014 3.68031C5.51228 3.68031 3.80507 5.33155 3.80507 7.36062C3.80507 9.3897 5.51228 11.0409 7.61014 11.0409C9.708 11.0409 11.4152 9.3897 11.4152 7.36062C11.4152 5.33155 9.708 3.68031 7.61014 3.68031Z" transform="translate(38.050682 9.814165)" id="Shape" fill="#FFC352" stroke="none" />
    </g>
  </g>
</svg>