<?xml version="1.0" encoding="utf-8"?>
<svg width="68px" height="75px" viewBox="0 0 68 75" version="1.1" xmlns:xlink="http://www.w3.org/1999/xlink" xmlns="http://www.w3.org/2000/svg">
  <g id="service">
    <path d="M10 12L0 12L0 8L8 8L8 0L12 0L12 10C12 11.104 11.104 12 10 12Z" transform="translate(50 13)" id="Path" fill="#6F55FF" stroke="none" />
    <path d="M34.0014 68C15.2521 68 0 52.7486 0 34C0 15.2514 15.2521 0 34.0014 0C44.768 0 54.9934 5.18465 61.3552 13.8692L57.9939 16.3311C52.4176 8.71233 43.4468 4.16327 34.0014 4.16327C17.5475 4.16327 4.16344 17.5468 4.16344 34C4.16344 50.4532 17.5475 63.8367 34.0014 63.8367C50.4553 63.8367 63.8393 50.4532 63.8393 34C63.8393 32.6122 63.7561 31.3466 63.584 30.1282L67.703 29.5453C67.9029 30.958 68 32.4152 68 34C68.0028 52.7486 52.7507 68 34.0014 68Z" transform="translate(0 7)" id="Path" fill="#6F55FF" stroke="none" />
    <path d="M29.8958 34C29.7897 34 29.6864 33.9973 29.5803 33.9891C13.8571 32.7706 1.14477 20.0627 0.0106145 4.43088C-0.0709796 3.29664 0.320672 2.16784 1.08766 1.34096C1.85192 0.51408 2.89361 0.0544 4.02233 0.04624L10.2724 0C12.1491 0 13.7647 1.25664 14.2161 3.05728L15.5217 8.2416C15.9187 9.82192 15.3313 11.4757 14.0203 12.4549L12.2443 13.7768C14.1618 16.9782 16.8816 19.7118 20.1045 21.6702L21.4889 19.837C22.468 18.5395 24.1407 17.9574 25.7019 18.3491L30.9293 19.6466C32.738 20.0981 34 21.7083 34 23.5634L34 29.9662C34 31.095 33.5431 32.1395 32.7135 32.9066C31.9493 33.6083 30.9375 34 29.8958 34L29.8958 34ZM10.2561 4.05008L4.04952 4.12352C5.06945 17.7698 16.1662 28.8565 29.8904 29.9173L29.9176 23.596L24.72 22.304L22.2885 25.5435C21.6902 26.3378 20.6104 26.5771 19.7319 26.131C14.5806 23.4981 10.3377 19.2277 7.77837 14.1059C7.33777 13.2219 7.59343 12.1475 8.38489 11.5573L11.5807 9.17728L10.2561 4.05008Z" transform="translate(16 24)" id="Shape" fill="#10CFB7" stroke="none" />
    <g id="Group" transform="translate(1 0)">
      <path d="M0.00140462 0.00280925L5.4366 0L5.4352 2.71758L0 2.72039L0.00140462 0.00280925Z" transform="matrix(0.70710677 -0.70710677 0.70710677 0.70710677 11.220052 4.9408855)" id="Path" fill="#6F55FF" stroke="none" />
      <path d="M0.00140463 0.00280925L5.4366 0L5.4352 2.7176L0 2.72041L0.00140463 0.00280925Z" transform="matrix(0.70710677 -0.70710677 0.70710677 0.70710677 0.17897579 15.996981)" id="Path" fill="#6F55FF" stroke="none" />
      <path d="M0.00280925 0.00140463L2.72041 0L2.7176 5.4352L0 5.4366L0.00280925 0.00140463Z" transform="matrix(0.70710677 -0.70710677 0.70710677 0.70710677 0.17872036 2.5348935)" id="Path" fill="#6F55FF" stroke="none" />
    </g>
  </g>
</svg>