<svg width="72" height="72" viewBox="0 0 72 72" fill="none" xmlns="http://www.w3.org/2000/svg">
<circle cx="36" cy="36" r="36" fill="#131313"/>
<mask id="path-2-outside-1" maskUnits="userSpaceOnUse" x="18" y="20" width="38" height="35" fill="black">
<rect fill="white" x="18" y="20" width="38" height="35"/>
<path fill-rule="evenodd" clip-rule="evenodd" d="M37 25.2001C38.8539 22.5717 41.875 21.005 45.1 21C50.374 21 55 25.8876 55 31.4586C55 36.8881 51.9221 42.4801 46.0955 47.6306C43.3981 50.0121 40.4392 52.0828 37.2754 53.803C37.1025 53.8917 36.8975 53.8917 36.7246 53.803C33.5597 52.0828 30.5998 50.0124 27.9016 47.6306C22.0779 42.4801 19 36.8881 19 31.4586C19 25.8876 23.626 21 28.9 21C32.125 21.005 35.1461 22.5717 37 25.2001ZM20.2018 31.4586C20.2018 42.9187 34.7981 51.3813 37.0018 52.5926C39.2055 51.3813 53.8018 42.9187 53.8018 31.4586C53.8018 26.5241 49.7369 22.1953 45.1018 22.1953C41.9618 22.2009 39.0673 23.8881 37.5245 26.6125C37.4091 26.7882 37.2125 26.8938 37.0018 26.8938C36.7912 26.8938 36.5946 26.7882 36.4792 26.6125C34.9364 23.8881 32.0419 22.2009 28.9018 22.1953C24.2668 22.1953 20.2018 26.5241 20.2018 31.4586Z"/>
</mask>
<path fill-rule="evenodd" clip-rule="evenodd" d="M37 25.2001C38.8539 22.5717 41.875 21.005 45.1 21C50.374 21 55 25.8876 55 31.4586C55 36.8881 51.9221 42.4801 46.0955 47.6306C43.3981 50.0121 40.4392 52.0828 37.2754 53.803C37.1025 53.8917 36.8975 53.8917 36.7246 53.803C33.5597 52.0828 30.5998 50.0124 27.9016 47.6306C22.0779 42.4801 19 36.8881 19 31.4586C19 25.8876 23.626 21 28.9 21C32.125 21.005 35.1461 22.5717 37 25.2001ZM20.2018 31.4586C20.2018 42.9187 34.7981 51.3813 37.0018 52.5926C39.2055 51.3813 53.8018 42.9187 53.8018 31.4586C53.8018 26.5241 49.7369 22.1953 45.1018 22.1953C41.9618 22.2009 39.0673 23.8881 37.5245 26.6125C37.4091 26.7882 37.2125 26.8938 37.0018 26.8938C36.7912 26.8938 36.5946 26.7882 36.4792 26.6125C34.9364 23.8881 32.0419 22.2009 28.9018 22.1953C24.2668 22.1953 20.2018 26.5241 20.2018 31.4586Z" fill="white"/>
<path d="M45.1 21V20L45.0985 20L45.1 21ZM37 25.2001L36.1828 25.7765L37 26.935L37.8172 25.7765L37 25.2001ZM46.0955 47.6306L46.7574 48.3802L46.7578 48.3798L46.0955 47.6306ZM37.2754 53.803L37.732 54.6927L37.7426 54.6873L37.7531 54.6816L37.2754 53.803ZM36.7246 53.803L36.2471 54.6816L36.2575 54.6873L36.268 54.6927L36.7246 53.803ZM27.9016 47.6306L27.2391 48.3797L27.2398 48.3803L27.9016 47.6306ZM28.9 21L28.9015 20H28.9V21ZM37.0018 52.5926L36.5201 53.469L37.0018 53.7337L37.4835 53.469L37.0018 52.5926ZM45.1018 22.1953V21.1953L45.1001 21.1953L45.1018 22.1953ZM37.5245 26.6125L38.3602 27.1616L38.3784 27.134L38.3947 27.1053L37.5245 26.6125ZM36.4792 26.6125L35.609 27.1053L35.6253 27.134L35.6434 27.1616L36.4792 26.6125ZM28.9018 22.1953L28.9036 21.1953H28.9018V22.1953ZM45.0985 20C41.5499 20.0055 38.2243 21.7294 36.1828 24.6237L37.8172 25.7765C39.4835 23.4141 42.2001 22.0045 45.1015 22L45.0985 20ZM56 31.4586C56 25.3878 50.9774 20 45.1 20V22C49.7707 22 54 26.3874 54 31.4586H56ZM46.7578 48.3798C52.704 43.1236 56 37.2809 56 31.4586H54C54 36.4952 51.1401 41.8366 45.4332 46.8814L46.7578 48.3798ZM37.7531 54.6816C40.9828 52.9254 44.0036 50.8115 46.7574 48.3802L45.4337 46.881C42.7927 49.2126 39.8955 51.2401 36.7977 52.9245L37.7531 54.6816ZM36.268 54.6927C36.7275 54.9285 37.2725 54.9285 37.732 54.6927L36.8188 52.9134C36.9326 52.855 37.0674 52.855 37.1812 52.9134L36.268 54.6927ZM27.2398 48.3803C29.9945 50.8119 33.0162 52.9255 36.2471 54.6816L37.2022 52.9244C34.1032 51.24 31.2051 49.2128 28.5633 46.8809L27.2398 48.3803ZM18 31.4586C18 37.2809 21.2959 43.1235 27.2391 48.3797L28.5641 46.8815C22.8599 41.8367 20 36.4953 20 31.4586H18ZM28.9 20C23.0226 20 18 25.3878 18 31.4586H20C20 26.3874 24.2293 22 28.9 22V20ZM37.8172 24.6237C35.7757 21.7294 32.4501 20.0055 28.9015 20L28.8985 22C31.7999 22.0045 34.5165 23.4141 36.1828 25.7765L37.8172 24.6237ZM37.4835 51.7163C36.4142 51.1285 32.2975 48.7574 28.4614 45.1413C24.5969 41.4983 21.2018 36.7665 21.2018 31.4586H19.2018C19.2018 37.6109 23.1049 42.8404 27.0895 46.5966C31.1025 50.3796 35.3858 52.8454 36.5201 53.469L37.4835 51.7163ZM52.8018 31.4586C52.8018 36.7665 49.4067 41.4983 45.5423 45.1413C41.7062 48.7574 37.5895 51.1285 36.5201 51.7163L37.4835 53.469C38.6179 52.8454 42.9012 50.3796 46.9142 46.5966C50.8988 42.8404 54.8018 37.6109 54.8018 31.4586H52.8018ZM45.1018 23.1953C49.1264 23.1953 52.8018 27.0163 52.8018 31.4586H54.8018C54.8018 26.0319 50.3474 21.1953 45.1018 21.1953V23.1953ZM38.3947 27.1053C39.7596 24.695 42.3218 23.2002 45.1036 23.1953L45.1001 21.1953C41.6018 21.2015 38.375 23.0813 36.6543 26.1197L38.3947 27.1053ZM37.0018 27.8938C37.5474 27.8938 38.0589 27.6202 38.3602 27.1616L36.6888 26.0634C36.7592 25.9562 36.8775 25.8938 37.0018 25.8938V27.8938ZM35.6434 27.1616C35.9447 27.6202 36.4562 27.8938 37.0018 27.8938V25.8938C37.1262 25.8938 37.2445 25.9562 37.3149 26.0634L35.6434 27.1616ZM28.9001 23.1953C31.6818 23.2002 34.2441 24.695 35.609 27.1053L37.3493 26.1197C35.6287 23.0813 32.4019 21.2015 28.9036 21.1953L28.9001 23.1953ZM21.2018 31.4586C21.2018 27.0163 24.8773 23.1953 28.9018 23.1953V21.1953C23.6563 21.1953 19.2018 26.0319 19.2018 31.4586H21.2018Z" fill="white" mask="url(#path-2-outside-1)"/>
</svg>
