<svg width="55" height="55" viewBox="0 0 55 55" fill="none" xmlns="http://www.w3.org/2000/svg">
<path d="M48.125 36.6665V18.3332C48.1242 17.5294 47.912 16.74 47.5098 16.0442C47.1075 15.3483 46.5294 14.7705 45.8333 14.3686L29.7917 5.20194C29.0949 4.79967 28.3045 4.58789 27.5 4.58789C26.6955 4.58789 25.9051 4.79967 25.2083 5.20194L9.16667 14.3686C8.4706 14.7705 7.89245 15.3483 7.49022 16.0442C7.08799 16.74 6.87582 17.5294 6.875 18.3332V36.6665C6.87582 37.4703 7.08799 38.2597 7.49022 38.9555C7.89245 39.6514 8.4706 40.2292 9.16667 40.6311L25.2083 49.7978C25.9051 50.2 26.6955 50.4118 27.5 50.4118C28.3045 50.4118 29.0949 50.2 29.7917 49.7978L45.8333 40.6311C46.5294 40.2292 47.1075 39.6514 47.5098 38.9555C47.912 38.2597 48.1242 37.4703 48.125 36.6665Z" stroke="#6B6DF6" stroke-width="2" stroke-linecap="round" stroke-linejoin="round"/>
<path d="M7.4939 15.95L27.5001 27.5229L47.5064 15.95" stroke="#6B6DF6" stroke-width="2" stroke-linecap="round" stroke-linejoin="round"/>
<path d="M27.5 50.6V27.5" stroke="#6B6DF6" stroke-width="2" stroke-linecap="round" stroke-linejoin="round"/>
</svg>
