<svg width="54" height="54" viewBox="0 0 54 54" fill="none" xmlns="http://www.w3.org/2000/svg">
<path d="M13.5 9H31.5C33.8869 9 36.1761 9.94821 37.864 11.636C39.5518 13.3239 40.5 15.6131 40.5 18C40.5 20.3869 39.5518 22.6761 37.864 24.364C36.1761 26.0518 33.8869 27 31.5 27H13.5V9Z" stroke="black" stroke-width="2" stroke-linecap="round" stroke-linejoin="round"/>
<path d="M13.5 27H33.75C36.1369 27 38.4261 27.9482 40.114 29.636C41.8018 31.3239 42.75 33.6131 42.75 36C42.75 38.3869 41.8018 40.6761 40.114 42.364C38.4261 44.0518 36.1369 45 33.75 45H13.5V27Z" stroke="black" stroke-width="2" stroke-linecap="round" stroke-linejoin="round"/>
</svg>
