<?xml version="1.0" encoding="utf-8"?>
<svg width="82px" height="58px" viewBox="0 0 82 58" version="1.1" xmlns:xlink="http://www.w3.org/1999/xlink" xmlns="http://www.w3.org/2000/svg">
  <g id="loud-speaker">
    <g id="effect" transform="translate(0 4)">
      <g id="Group" transform="translate(0 0.041152265)">
        <path d="M0 0L6.06247 0.00577365L6.06536 3.03701L0.00288682 3.03124L0 0Z" transform="matrix(0.70710677 -0.70710677 0.70710677 0.70710677 12.523483 5.113301)" id="Path" fill="#6F55FF" stroke="none" />
        <path d="M0 0L6.06247 0.00577365L6.06536 3.03701L0.00288682 3.03124L0 0Z" transform="matrix(0.70710677 -0.70710677 0.70710677 0.70710677 0.1827304 17.42424)" id="Path" fill="#6F55FF" stroke="none" />
        <path d="M0 8.41738e-17L3.03124 0.00288682L3.03701 6.06536L0.00577365 6.06247L0 8.41738e-17Z" transform="matrix(0.70710677 -0.70710677 0.70710677 0.70710677 0.18547988 2.434391)" id="Path" fill="#6F55FF" stroke="none" />
      </g>
    </g>
    <g id="shadow" transform="translate(13 2)">
      <path d="M6.784 31.6901L6.784 15.0905L37.6889 2.71629L37.6889 0L0 15.0905L0 31.6901L37.6889 46.7806L37.6889 44.0643L6.784 31.6901Z" transform="translate(15.216888 0.14147368)" id="Path" fill="#D5DBE1" stroke="none" />
      <path d="M6.784 12.8269L6.784 4.52716C6.784 2.02817 8.81015 0 11.3067 0L4.52267 0C2.02615 0 0 2.02817 0 4.52716L0 12.8269C0 15.3259 2.02615 16.5996 4.52267 16.5996L11.3067 16.5996C8.81015 16.5996 6.784 15.3259 6.784 12.8269Z" transform="translate(0.14133333 15.232)" id="Path" fill="#FF5CF0" stroke="none" />
    </g>
    <g id="_x31_.5" transform="translate(10 0)">
      <path d="M40.142 51.7467C39.8572 51.7467 39.5724 51.6919 39.2998 51.5823L1.42996 36.363C0.566533 36.016 0 35.1789 0 34.2444L0 17.5031C0 16.5687 0.566533 15.7316 1.42996 15.3846L39.2998 0.165251C39.9966 -0.120873 40.7934 -0.0295566 41.4175 0.393541C42.0416 0.816639 42.4142 1.52586 42.4142 2.28379L42.4142 49.4638C42.4142 50.2217 42.0416 50.9279 41.4175 51.354C41.0357 51.6128 40.5874 51.7467 40.142 51.7467L40.142 51.7467ZM4.54438 32.6981L37.8698 46.0912L37.8698 5.65335L4.54438 19.0464L4.54438 32.6981Z" transform="translate(15.147929 -0.00088213035)" id="Shape" fill="#6F55FF" stroke="none" />
      <path d="M17.4201 21.3071L6.81657 21.3071C2.80237 21.3071 0 18.805 0 15.2194L0 6.84871C0 3.07431 3.05988 0 6.81657 0L17.4201 0C18.6744 0 19.6923 1.02274 19.6923 2.2829L19.6923 19.0242C19.6923 20.2844 18.6744 21.3071 17.4201 21.3071ZM6.81657 4.56581C5.56535 4.56581 4.54438 5.59159 4.54438 6.84871L4.54438 15.2194C4.54438 16.4765 5.78045 16.7413 6.81657 16.7413L15.1479 16.7413L15.1479 4.56581L6.81657 4.56581Z" transform="translate(0 15.219352)" id="Shape" fill="#FF5CF0" stroke="none" />
      <path d="M5.27754 23.9157C4.1475 23.9157 3.19015 23.0817 3.02959 21.9554L0 0.648344L4.4959 0L7.24677 19.3499L11.8245 19.3499L9.89463 2.07288L14.4087 1.56151L16.6203 21.3771C16.693 22.0254 16.487 22.6707 16.0568 23.1547C15.6296 23.6387 15.0146 23.9157 14.3663 23.9157L5.27754 23.9157Z" transform="translate(9.112994 33.917847)" id="Path" fill="#6F55FF" stroke="none" />
      <path d="M0.0104629 0.02232L9.7319 2.03576e-15L9.72144 4.56181L1.08046e-15 4.58414L0.0104629 0.02232Z" transform="matrix(0.78077126 -0.62481695 0.62481695 0.78077126 61.443996 15.691297)" id="Path" fill="#FF5CF0" stroke="none" />
      <path d="M0.02232 0.0104629L4.58414 0L4.56181 9.72144L0 9.7319L0.02232 0.0104629Z" transform="matrix(0.62481695 -0.78077126 0.78077126 0.62481695 61.454605 39.08924)" id="Path" fill="#FF5CF0" stroke="none" />
      <path d="M0 0L7.57396 0L7.57396 4.56581L0 4.56581L0 0Z" transform="translate(62.863907 25.11193)" id="Path" fill="#FF5CF0" stroke="none" />
    </g>
  </g>
</svg>