<svg width="56" height="42" viewBox="0 0 56 42" fill="none" xmlns="http://www.w3.org/2000/svg">
<path d="M42.0978 16.1667H39.0528C38.1486 12.665 36.2804 9.48705 33.6603 6.99404C31.0403 4.50102 27.7735 2.79289 24.2312 2.06375C20.6888 1.3346 17.013 1.61368 13.6213 2.86926C10.2297 4.12485 7.25822 6.30659 5.04459 9.16659C2.83095 12.0266 1.4639 15.4502 1.09879 19.0483C0.733669 22.6464 1.38512 26.2748 2.97912 29.5212C4.57312 32.7675 7.04574 35.5017 10.116 37.413C13.1863 39.3243 16.7312 40.3361 20.3478 40.3334H42.0978C45.3025 40.3334 48.3759 39.0604 50.642 36.7943C52.908 34.5282 54.1811 31.4548 54.1811 28.2501C54.1811 25.0454 52.908 21.9719 50.642 19.7059C48.3759 17.4398 45.3025 16.1667 42.0978 16.1667Z" stroke="black" stroke-width="2" stroke-linecap="round" stroke-linejoin="round"/>
</svg>
