<svg width="50" height="50" viewBox="0 0 50 50" fill="none" xmlns="http://www.w3.org/2000/svg">
<path d="M1.93204 13.7603C0.864912 13.7603 0 14.6252 0 15.6923V34.3078C0 35.3749 0.864912 36.2398 1.93204 36.2398C2.99918 36.2398 3.86409 35.3749 3.86409 34.3078V15.6923C3.86409 14.6252 2.99918 13.7603 1.93204 13.7603Z" fill="#8F6BF6"/>
<path d="M11.1593 8.17725C10.0922 8.17725 9.22729 9.04216 9.22729 10.1093V39.8907C9.22729 40.9578 10.0922 41.8227 11.1593 41.8227C12.2265 41.8227 13.0914 40.9578 13.0914 39.8907V10.1093C13.0914 9.04216 12.2265 8.17725 11.1593 8.17725Z" fill="#D3C4FF"/>
<path d="M20.3866 0.406982C19.3195 0.406982 18.4546 1.27189 18.4546 2.33903V47.6607C18.4546 48.7278 19.3195 49.5927 20.3866 49.5927C21.4538 49.5927 22.3187 48.7278 22.3187 47.6607V2.33903C22.3187 1.27211 21.4538 0.406982 20.3866 0.406982Z" fill="#8F6BF6"/>
<path d="M29.6134 11.6697C28.5463 11.6697 27.6814 12.5346 27.6814 13.6017V36.3983C27.6814 37.4655 28.5463 38.3304 29.6134 38.3304C30.6806 38.3304 31.5455 37.4655 31.5455 36.3983V13.6017C31.5455 12.5346 30.6806 11.6697 29.6134 11.6697Z" fill="#D3C4FF"/>
<path d="M38.8407 13.7603C37.7736 13.7603 36.9087 14.6252 36.9087 15.6923V34.3078C36.9087 35.3749 37.7736 36.2398 38.8407 36.2398C39.9079 36.2398 40.7728 35.3749 40.7728 34.3078V15.6923C40.7728 14.6252 39.9076 13.7603 38.8407 13.7603Z" fill="#8F6BF6"/>
<path d="M48.068 19.947C47.0009 19.947 46.136 20.8119 46.136 21.8791V28.1211C46.136 29.1882 47.0009 30.0531 48.068 30.0531C49.1352 30.0531 50.0001 29.1882 50.0001 28.1211V21.8791C50.0001 20.8119 49.1352 19.947 48.068 19.947Z" fill="#D3C4FF"/>
</svg>
