<svg width="55" height="55" viewBox="0 0 55 55" fill="none" xmlns="http://www.w3.org/2000/svg">
<rect x="3" y="3" width="49" height="49" fill="#FFE8BB"/>
<path d="M20.91 44.559H10.8076C10.7103 44.559 10.6171 44.5204 10.5483 44.4516C10.4795 44.3828 10.4409 44.2896 10.4409 44.1923V34.0925C10.4409 33.9953 10.4795 33.902 10.5483 33.8332C10.6171 33.7645 10.7103 33.7258 10.8076 33.7258C10.9048 33.7258 10.9981 33.7645 11.0669 33.8332C11.1356 33.902 11.1743 33.9953 11.1743 34.0925V43.8257H20.91C21.0072 43.8257 21.1005 43.8643 21.1693 43.9331C21.238 44.0018 21.2767 44.0951 21.2767 44.1923C21.2767 44.2896 21.238 44.3828 21.1693 44.4516C21.1005 44.5204 21.0072 44.559 20.91 44.559Z" fill="black" stroke="black"/>
<path d="M11.2904 44C11.2329 44 11.1768 43.9829 11.129 43.951C11.0813 43.9191 11.0441 43.8738 11.0221 43.8207C11.0001 43.7677 10.9944 43.7093 11.0056 43.6529C11.0168 43.5966 11.0444 43.5449 11.085 43.5043L23.5078 31.0815C23.5626 31.0286 23.6359 30.9993 23.7121 31C23.7882 31.0007 23.8611 31.0312 23.9149 31.0851C23.9688 31.1389 23.9993 31.2117 24 31.2879C24.0007 31.364 23.9714 31.4374 23.9185 31.4922L11.4957 43.9149C11.4412 43.9694 11.3674 44 11.2904 44Z" fill="black" stroke="black"/>
<path d="M44.1922 21.2741C44.095 21.2741 44.0017 21.2355 43.9329 21.1667C43.8642 21.0979 43.8256 21.0047 43.8256 20.9074V11.1743H34.0898C33.9926 11.1743 33.8993 11.1356 33.8305 11.0669C33.7618 10.9981 33.7231 10.9048 33.7231 10.8076C33.7231 10.7103 33.7618 10.6171 33.8305 10.5483C33.8993 10.4795 33.9926 10.4409 34.0898 10.4409H44.1926C44.2898 10.4409 44.3831 10.4795 44.4519 10.5483C44.5206 10.6171 44.5593 10.7103 44.5593 10.8076V20.9074C44.5593 20.9556 44.5498 21.0033 44.5313 21.0478C44.5129 21.0923 44.4858 21.1328 44.4517 21.1668C44.4176 21.2009 44.3772 21.2279 44.3326 21.2463C44.2881 21.2647 44.2404 21.2741 44.1922 21.2741Z" fill="black" stroke="black"/>
<path d="M31.2902 24C31.2328 24 31.1767 23.983 31.129 23.9511C31.0812 23.9192 31.0441 23.8738 31.0221 23.8208C31.0001 23.7678 30.9944 23.7094 31.0056 23.6531C31.0168 23.5968 31.0444 23.5451 31.085 23.5045L43.501 11.0886C43.5277 11.0609 43.5598 11.0388 43.5952 11.0236C43.6306 11.0084 43.6687 11.0003 43.7072 11C43.7458 10.9997 43.784 11.007 43.8196 11.0216C43.8553 11.0362 43.8877 11.0578 43.915 11.085C43.9422 11.1123 43.9638 11.1447 43.9784 11.1803C43.993 11.216 44.0003 11.2542 44 11.2928C43.9997 11.3313 43.9916 11.3694 43.9764 11.4048C43.9612 11.4402 43.9391 11.4723 43.9114 11.499L31.4954 23.915C31.441 23.9694 31.3672 24 31.2902 24Z" fill="black" stroke="black"/>
</svg>
