<svg width="55" height="55" viewBox="0 0 55 55" fill="none" xmlns="http://www.w3.org/2000/svg">
<path d="M49.2326 48.5488H54.4568V0.0625H0.0625V54.2617H49.2326V48.5488Z" fill="#C9F3FF"/>
<path d="M16.4264 10.6449C16.2021 10.0921 15.6654 9.73047 15.0686 9.73047C14.4723 9.73047 13.9356 10.0921 13.7113 10.6449L4.09827 34.3398H2.45776C1.64867 34.3398 0.99292 34.9956 0.99292 35.8047C0.99292 36.6138 1.64867 37.2695 2.45776 37.2695H5.09734H5.10993H7.71117C8.52027 37.2695 9.17602 36.6138 9.17602 35.8047C9.17602 34.9956 8.52027 34.3398 7.71117 34.3398H7.25971L8.81896 30.4969H21.3188L22.878 34.3398H22.4266C21.6175 34.3398 20.9617 34.9956 20.9617 35.8047C20.9617 36.6138 21.6175 37.2695 22.4266 37.2695H25.049C25.0507 37.2695 25.0524 37.2701 25.0536 37.2701C25.0564 37.2701 25.0587 37.2695 25.061 37.2695H27.68C28.4891 37.2695 29.1448 36.6138 29.1448 35.8047C29.1448 34.9956 28.4891 34.3398 27.68 34.3398H26.04L16.4264 10.6449ZM10.0074 27.5672L15.0686 15.092L20.1303 27.5672H10.0074Z" fill="black"/>
<path d="M37.2472 23.096C33.3396 23.096 30.1604 26.2752 30.1604 30.1828C30.1604 34.0904 33.3396 37.2695 37.2472 37.2695H40.2386C41.0952 37.2695 41.8906 37.0046 42.5486 36.5531C43.0911 37.0006 43.7857 37.2695 44.5422 37.2695C45.3513 37.2695 46.007 36.6138 46.007 35.8047C46.007 34.9956 45.3513 34.3399 44.5422 34.3399C44.4272 34.3399 44.3339 34.2466 44.3339 34.1316V21.6335C44.3339 19.3304 42.4599 17.4558 40.1562 17.4558H35.1718C34.3627 17.4558 33.7069 18.1121 33.7069 18.9207C33.7069 19.7298 34.3627 20.3855 35.1718 20.3855H40.1562C40.844 20.3855 41.4042 20.9457 41.4042 21.6335V23.096H37.2472ZM40.2386 34.3399H37.2472C34.9549 34.3399 33.0901 32.475 33.0901 30.1828C33.0901 27.8905 34.9549 26.0257 37.2472 26.0257H41.4042V33.1743C41.4042 33.8169 40.8812 34.3399 40.2386 34.3399Z" fill="black"/>
</svg>
