<svg width="20" height="21" viewBox="0 0 20 21" fill="none" xmlns="http://www.w3.org/2000/svg">
<g clip-path="url(#clip0)">
<path d="M15.8346 8.07987V6.86654C15.8346 5.31944 15.2201 3.83571 14.1261 2.74175C13.0321 1.64778 11.5484 1.0332 10.0013 1.0332C8.45421 1.0332 6.97047 1.64778 5.87651 2.74175C4.78255 3.83571 4.16797 5.31944 4.16797 6.86654V8.07987C3.41625 8.46348 2.78505 9.04719 2.34392 9.76666C1.9028 10.4861 1.66889 11.3134 1.66797 12.1574V16.324C1.66929 17.5392 2.1526 18.7042 3.01186 19.5635C3.87111 20.4227 5.03613 20.906 6.2513 20.9074H13.7513C14.9665 20.906 16.1315 20.4227 16.9907 19.5635C17.85 18.7042 18.3333 17.5392 18.3346 16.324V12.1574C18.3337 11.3134 18.0998 10.4861 17.6587 9.76666C17.2176 9.04719 16.5864 8.46348 15.8346 8.07987ZM10.0013 3.5332C10.8854 3.5332 11.7332 3.88439 12.3583 4.50951C12.9834 5.13464 13.3346 5.98248 13.3346 6.86654V7.57404H6.66797V6.86654C6.66797 5.98248 7.01916 5.13464 7.64428 4.50951C8.2694 3.88439 9.11725 3.5332 10.0013 3.5332ZM15.8346 16.324C15.8346 16.8766 15.6151 17.4065 15.2244 17.7972C14.8337 18.1879 14.3038 18.4074 13.7513 18.4074H6.2513C5.69877 18.4074 5.16886 18.1879 4.77816 17.7972C4.38746 17.4065 4.16797 16.8766 4.16797 16.324V12.1574C4.16797 11.6048 4.38746 11.0749 4.77816 10.6842C5.16886 10.2935 5.69877 10.074 6.2513 10.074H13.7513C14.3038 10.074 14.8337 10.2935 15.2244 10.6842C15.6151 11.0749 15.8346 11.6048 15.8346 12.1574V16.324Z" fill="white"/>
<path d="M10.4173 12.5737H9.58398C8.89363 12.5737 8.33398 13.1334 8.33398 13.8237C8.33398 14.5141 8.89363 15.0737 9.58398 15.0737H10.4173C11.1077 15.0737 11.6673 14.5141 11.6673 13.8237C11.6673 13.1334 11.1077 12.5737 10.4173 12.5737Z" fill="white"/>
</g>
<defs>
<clipPath id="clip0">
<rect width="20" height="20" fill="white" transform="translate(0.000976562 0.907227)"/>
</clipPath>
</defs>
</svg>
