<svg width="32" height="32" viewBox="0 0 32 32" fill="none" xmlns="http://www.w3.org/2000/svg">
<g clip-path="url(#clip0)">
<path d="M32.4953 4.01955C32.409 3.6333 32.0894 3.34287 31.6967 3.29374C27.8273 2.81012 24.2529 2.92399 21.0727 3.63218C17.023 4.53387 13.5513 6.40912 10.7536 9.20637C6.39066 13.5737 6.39066 20.6799 10.754 25.0476C11.1749 25.4683 11.6238 25.8508 12.096 26.1946V34.0625C12.096 34.5802 12.5158 35 13.0335 35C13.5513 35 13.971 34.5802 13.971 34.0625V27.2974C15.4265 27.9708 17.0238 28.3262 18.6763 28.3262C21.6705 28.3262 24.4828 27.1617 26.5949 25.0475C29.8971 21.7456 29.2132 17.196 28.9882 14.6428C28.6446 10.7449 28.3478 7.37849 32.0817 5.0163C32.416 4.80468 32.5816 4.40587 32.4953 4.01955ZM12.0797 10.5319C15.3816 7.23062 19.6723 5.36693 24.8848 4.9588C22.6492 6.04799 20.4888 7.63643 18.6025 9.62749C14.9042 13.5314 12.6715 18.5111 12.1938 23.833C8.45741 20.2195 8.39984 14.2154 12.0797 10.5319ZM27.1203 14.8075C27.4147 18.1455 27.6925 21.2984 25.2687 23.722C23.5104 25.482 21.1692 26.4512 18.6762 26.4512C17.0015 26.4512 15.3949 26.0132 13.9869 25.1926C14.1792 19.8446 16.2833 14.8019 19.9637 10.9169C21.6547 9.13199 23.6354 7.65793 25.6918 6.65412C26.6945 6.16468 27.706 5.79105 28.6989 5.53993C27.962 6.48362 27.4627 7.56299 27.1903 8.79468C26.7613 10.7349 26.9438 12.8053 27.1203 14.8075Z" fill="white" stroke="white"/>
</g>
<defs>
<clipPath id="clip0">
<rect width="32" height="32" fill="white"/>
</clipPath>
</defs>
</svg>
