<svg width="28" height="28" viewBox="0 0 28 28" fill="none" xmlns="http://www.w3.org/2000/svg">
<path d="M14.756 15.1516C14.5522 14.6584 14.0534 14.6442 13.9972 14.6442C13.8952 14.6442 13.7976 14.6649 13.69 14.7093C13.4799 14.7961 13.3354 14.9403 13.2482 15.1502C13.161 15.3603 13.1607 15.5647 13.2476 15.7748C13.4514 16.2682 13.9503 16.2824 14.0065 16.2824C14.1086 16.2824 14.2061 16.2618 14.3135 16.2175C14.7292 16.0457 14.9278 15.5675 14.756 15.1516Z" fill="white"/>
<path d="M14 0C6.28037 0 0 6.28037 0 14C0 21.7196 6.28037 28 14 28C21.7196 28 28 21.7196 28 14C28 6.28037 21.7196 0 14 0ZM3.60407 10.2152C4.31566 8.13498 5.67213 6.34528 7.52686 5.03956C9.415 3.71038 11.6534 3.00776 14 3.00776C16.3466 3.00776 18.585 3.71038 20.4731 5.03956C22.3279 6.34528 23.6843 8.13498 24.3959 10.2152L24.6436 10.939H3.35645L3.60407 10.2152ZM11.2883 24.7659C9.0411 24.2904 6.97971 23.0566 5.48395 21.2919C3.97059 19.5064 3.09362 17.2381 3.01459 14.9048L2.99157 14.2255L3.66002 14.3484C8.42149 15.2241 11.9073 19.3783 11.9483 24.2263L11.9541 24.9068L11.2883 24.7659ZM14.9393 17.7339C14.6309 17.8612 14.3257 17.9231 14.0061 17.9231C13.2465 17.9231 12.1949 17.5245 11.7308 16.4012C11.4098 15.6242 11.5545 14.9499 11.7325 14.5211C11.9106 14.0923 12.2859 13.5139 13.0633 13.1929C13.3718 13.0655 13.6771 13.0035 13.9967 13.0035C14.7562 13.0035 15.8078 13.402 16.2719 14.5252C16.7892 15.7773 16.1913 17.2167 14.9393 17.7339ZM22.516 21.2919C21.0203 23.0566 18.959 24.2904 16.7118 24.7659L16.046 24.9069L16.0517 24.2263C16.0928 19.3785 19.5785 15.2243 24.3399 14.3486L25.0084 14.2256L24.9854 14.905C24.9063 17.2382 24.0294 19.5065 22.516 21.2919Z" fill="white"/>
</svg>
