<?xml version="1.0" encoding="utf-8"?>
<svg width="82px" height="61px" viewBox="0 0 82 61" version="1.1" xmlns:xlink="http://www.w3.org/1999/xlink" xmlns="http://www.w3.org/2000/svg">
  <g id="graduation" transform="translate(2 2)">
    <path d="M0 0L3 0L3 6L0 6L0 0Z" transform="translate(67 0)" id="Path" fill="#6F55FF" stroke="none" />
    <path d="M0 0L6 0L6 3L0 3L0 0Z" transform="translate(72 8)" id="Path" fill="#6F55FF" stroke="none" />
    <path d="M24 29C17.1328 29 10.2656 26.9515 3.44531 22.8545C1.31719 21.5801 0 19.1988 0 16.6405L0 2.41667C0 1.08089 1.07344 0 2.4 0C3.72656 0 4.8 1.08089 4.8 2.41667L4.8 16.6405C4.8 17.4925 5.23125 18.302 5.90156 18.7056C18.0844 26.0193 29.925 26.0193 42.0984 18.7056C42.7688 18.302 43.2 17.4925 43.2 16.6405L43.2 2.41667C43.2 1.08089 44.2734 0 45.6 0C46.9266 0 48 1.08089 48 2.41667L48 16.6405C48 19.1988 46.6828 21.5801 44.5547 22.8545C37.7344 26.9515 30.8672 29 24 29L24 29Z" transform="translate(9 28)" id="Path" fill="#07E0AA" stroke="none" />
    <path d="M33 34C32.6639 34 32.3278 33.9265 32.0102 33.7771L1.36733 19.2062C0.53404 18.8077 0 17.9468 0 17.0006C0 16.0543 0.53404 15.1935 1.36733 14.795L32.0102 0.224113C32.6455 -0.0747044 33.3545 -0.0747044 33.9898 0.224113L64.6327 14.795C65.466 15.1935 66 16.0543 66 17.0006C66 17.9468 65.466 18.8077 64.6327 19.2062L33.9898 33.7771C33.6722 33.9265 33.3361 34 33 34Z" transform="translate(0 6)" id="Path" fill="none" stroke="#6F55FF" stroke-width="4" />
  </g>
</svg>