<svg width="28" height="27" viewBox="0 0 28 27" fill="none" xmlns="http://www.w3.org/2000/svg">
<path d="M28 8.58527C28 12.4142 25.2735 15.6239 23.2227 17.7053C23.0087 17.9225 22.7261 18.0312 22.4435 18.0312C22.1662 18.0312 21.8891 17.9266 21.6759 17.7166C21.2457 17.2925 21.2405 16.6 21.6646 16.17C24.4944 13.298 25.8125 10.8879 25.8125 8.58527C25.8125 5.1955 23.6086 2.82812 20.4531 2.82812C18.4013 2.82812 16.8863 3.59995 15.95 5.12244C15.207 6.3309 15.0912 7.58871 15.0901 7.60132C15.0463 8.17105 14.5712 8.60855 13.9998 8.60855C13.4283 8.60855 12.9532 8.16614 12.9095 7.59641C12.9088 7.58871 12.793 6.3309 12.0498 5.12244C11.1137 3.59995 9.59872 2.82812 7.54688 2.82812C4.39145 2.82812 2.1875 5.1955 2.1875 8.58527C2.1875 10.114 2.76749 11.6858 3.95844 13.3828H6.5546L8.36911 9.67538C8.55582 9.29407 8.94781 9.05374 9.371 9.06271C9.79568 9.07019 10.1774 9.32291 10.3505 9.71063L12.5852 14.7197L14.0083 11.905C14.1931 11.5397 14.5663 11.3081 14.9756 11.3047H14.9846C15.3905 11.3047 15.763 11.5294 15.9523 11.8892L16.7384 13.3828H19.1953C19.7994 13.3828 20.2891 13.8724 20.2891 14.4766C20.2891 15.0807 19.7994 15.5703 19.1953 15.5703H16.0781C15.672 15.5703 15.2995 15.3454 15.1102 14.9861L15.0038 14.7838L13.4995 17.7591C13.3132 18.1278 12.9353 18.3594 12.5237 18.3594C12.5147 18.3594 12.5059 18.3592 12.4969 18.3589C12.075 18.3489 11.6967 18.0966 11.5245 17.7112L9.30563 12.7379L8.21936 14.9574C8.03586 15.3326 7.65454 15.5703 7.23691 15.5703H1.09375C0.489624 15.5703 0 15.0807 0 14.4766C0 13.8724 0.489624 13.3828 1.09375 13.3828H1.37103C0.450745 11.755 0 10.1733 0 8.58527C0 6.26233 0.762634 4.26218 2.20566 2.80099C3.58118 1.40775 5.47815 0.640625 7.54688 0.640625C11.1637 0.640625 13.0338 2.50171 13.9656 4.06287C13.9771 4.08209 13.9887 4.10153 14 4.12097C14.0113 4.10153 14.0229 4.08209 14.0344 4.06287C14.9662 2.50171 16.8363 0.640625 20.4531 0.640625C22.5219 0.640625 24.4188 1.40775 25.7943 2.80099C27.2374 4.26218 28 6.26233 28 8.58527ZM17.8177 19.7118L17.7927 19.7338C16.4024 20.9534 15.0735 22.1204 14 23.2635C12.9265 22.1202 11.5974 20.9534 10.2071 19.7336C9.46671 19.0842 8.70108 18.4126 7.95895 17.7303C7.51419 17.3214 6.82227 17.3504 6.4136 17.7952C6.00473 18.2397 6.03378 18.9317 6.47855 19.3405C7.23947 20.0402 8.01471 20.7203 8.76453 21.3781C10.4778 22.8811 12.0962 24.3009 13.1481 25.6076C13.1491 25.6091 13.1504 25.6104 13.1515 25.6119C13.1564 25.6179 13.1615 25.6236 13.1667 25.6294C13.1863 25.6527 13.2066 25.6751 13.228 25.6965C13.2292 25.6978 13.2303 25.699 13.2314 25.7001C13.2572 25.7257 13.2841 25.7495 13.3119 25.7719C13.3128 25.7725 13.3134 25.7732 13.3143 25.7738C13.3147 25.7744 13.3153 25.7747 13.3158 25.7751C13.3399 25.7945 13.3647 25.8127 13.3903 25.8298C13.3918 25.8308 13.3935 25.8319 13.395 25.833C13.4192 25.849 13.4439 25.8642 13.4691 25.8781C13.4709 25.8791 13.4726 25.8802 13.4745 25.881C13.4988 25.8945 13.5236 25.9067 13.549 25.9182C13.5552 25.921 13.5616 25.9236 13.5678 25.9263C13.5883 25.9351 13.6091 25.9434 13.63 25.9509C13.6356 25.9528 13.6411 25.9552 13.6465 25.9571C13.67 25.965 13.6937 25.9718 13.7176 25.9782C13.727 25.9808 13.7362 25.9829 13.7456 25.9853C13.765 25.99 13.7847 25.994 13.8045 25.9977C13.8122 25.999 13.8199 26.0005 13.8276 26.0017C13.8507 26.0054 13.874 26.0081 13.897 26.0105C13.9054 26.0111 13.9135 26.0118 13.9218 26.0124C13.9468 26.0143 13.9718 26.0154 13.9968 26.0154C13.9977 26.0154 13.9987 26.0156 13.9996 26.0156H14.0002H14.0009C14.0017 26.0156 14.0026 26.0154 14.0034 26.0154C14.0286 26.0154 14.0534 26.0141 14.0784 26.0124C14.0867 26.0118 14.0951 26.0111 14.1032 26.0105C14.1265 26.0081 14.1493 26.0056 14.1724 26.0017C14.1803 26.0007 14.1882 25.999 14.1963 25.9977C14.2158 25.994 14.2352 25.99 14.2546 25.9853C14.264 25.9832 14.2734 25.9808 14.2828 25.9782C14.3065 25.9718 14.3303 25.965 14.3535 25.9571C14.3593 25.9552 14.3651 25.9528 14.3708 25.9507C14.3914 25.9434 14.4119 25.9353 14.4319 25.9265C14.4386 25.9238 14.4452 25.921 14.4516 25.918C14.4766 25.9067 14.5014 25.8945 14.5255 25.8813C14.5276 25.8802 14.5298 25.8789 14.5319 25.8776C14.5567 25.864 14.5808 25.849 14.6048 25.8332C14.6067 25.8321 14.6086 25.8308 14.6103 25.8296C14.6357 25.8127 14.6603 25.7945 14.6844 25.7751C14.6849 25.7747 14.6855 25.7744 14.6862 25.7738C14.687 25.7732 14.6877 25.7725 14.6885 25.7717C14.7161 25.7492 14.743 25.7255 14.7688 25.7001C14.7701 25.699 14.7712 25.6975 14.7725 25.6963C14.7936 25.6751 14.8141 25.6527 14.8338 25.6294C14.8387 25.6236 14.8438 25.6179 14.8487 25.6119C14.8498 25.6104 14.8511 25.6091 14.8524 25.6076C15.904 24.3009 17.5222 22.8811 19.2355 21.3783L19.2607 21.3561C19.7146 20.9579 19.7599 20.2668 19.3615 19.8127C18.9629 19.3587 18.2718 19.3134 17.8177 19.7118Z" fill="white"/>
</svg>
