<svg width="25" height="23" viewBox="0 0 25 23" fill="none" xmlns="http://www.w3.org/2000/svg">
<path fill-rule="evenodd" clip-rule="evenodd" d="M24.672 7.23437L20.734 1.00746C20.3367 0.379438 19.6394 -0.00147769 18.8897 4.30865e-06H6.11027C5.36063 -0.00147769 4.66333 0.379438 4.26603 1.00746L0.328043 7.23437C-0.173025 8.02913 -0.0939626 9.05322 0.523315 9.76371L11.6755 22.6248C11.8816 22.8629 12.1829 23 12.5 23C12.8171 23 13.1184 22.8629 13.3245 22.6248L24.4767 9.76371C25.094 9.05322 25.173 8.02913 24.672 7.23437ZM13.4561 20.9071C13.2208 21.0947 12.9181 21.1837 12.6149 21.1546C12.3118 21.1254 12.0331 20.9804 11.8404 20.7516L6.7415 14.6982C6.33965 14.2228 6.41147 13.5216 6.90191 13.1321C7.39235 12.7426 8.11569 12.8122 8.51753 13.2876L13.6165 19.341C13.8173 19.5703 13.9136 19.8687 13.8834 20.1681C13.8532 20.4674 13.699 20.7421 13.4561 20.9293V20.9071Z" fill="#FF35B7"/>
</svg>
