<svg width="44" height="40" viewBox="0 0 44 40" fill="none" xmlns="http://www.w3.org/2000/svg">
<path fill-rule="evenodd" clip-rule="evenodd" d="M42.7292 12.3187L36.0236 1.7155C35.347 0.646106 34.1597 -0.00251621 32.8832 7.33677e-06H11.1223C9.84586 -0.00251621 8.6585 0.646106 7.98197 1.7155L1.27637 12.3187C0.423146 13.672 0.557774 15.4158 1.60887 16.6257L20.5988 38.5255C20.9498 38.931 21.4628 39.1644 22.0028 39.1644C22.5428 39.1644 23.0557 38.931 23.4067 38.5255L42.3967 16.6257C43.4478 15.4158 43.5824 13.672 42.7292 12.3187ZM23.6308 35.6006C23.2301 35.92 22.7147 36.0717 22.1985 36.022C21.6823 35.9723 21.2077 35.7254 20.8797 35.3358L12.1972 25.0281C11.5129 24.2186 11.6352 23.0246 12.4703 22.3613C13.3055 21.698 14.5372 21.8166 15.2214 22.6261L23.9039 32.9338C24.2459 33.3243 24.4099 33.8325 24.3584 34.3422C24.3069 34.852 24.0444 35.3197 23.6308 35.6384V35.6006Z" fill="#FF35B7"/>
</svg>
