<svg width="86" height="85" viewBox="0 0 86 85" fill="none" xmlns="http://www.w3.org/2000/svg">
<circle cx="42.5156" cy="42.5" r="42.5" fill="url(#paint0_linear)"/>
<path d="M33.0583 57.7952C38.5956 58.0854 43.3294 53.9552 43.6107 48.5883C43.7452 46.0219 42.8505 43.5467 41.0914 41.6187C39.3363 39.695 36.9182 38.5314 34.2823 38.342L34.2057 38.3361C33.2821 38.2606 32.4773 38.9312 32.4062 39.8256C32.3352 40.7199 33.0258 41.5031 33.9486 41.5749L34.0412 41.582C37.6559 41.8395 40.4471 44.904 40.2632 48.4129C40.0757 51.9908 36.9199 54.7443 33.2283 54.5508C29.5368 54.3574 26.686 51.2891 26.8735 47.7111C27.1077 43.2421 28.4205 39.1758 30.7755 35.625C32.5356 32.971 34.2553 31.6106 34.2875 31.5854C35.008 31.0284 35.1263 30.0092 34.5511 29.3066C34.2393 28.926 33.7877 28.7162 33.3241 28.6919C32.9307 28.6713 32.5286 28.7843 32.1962 29.0398C32.1116 29.1048 30.1015 30.6664 28.0428 33.7293C26.166 36.5215 23.859 41.1835 23.5261 47.5357C23.2448 52.9027 27.521 57.505 33.0583 57.7952Z" fill="white"/>
<path d="M56.9186 57.8111C62.456 58.1013 67.1898 53.9711 67.471 48.6041C67.6055 46.0377 66.7108 43.5626 64.9518 41.6344C63.1966 39.7107 60.7786 38.5471 58.1427 38.3576L58.0661 38.3518C57.1445 38.2764 56.3375 38.9469 56.2666 39.8413C56.1955 40.7356 56.8862 41.5188 57.809 41.5906L57.9015 41.5977C61.5163 41.8553 64.3075 44.9198 64.1236 48.4287C63.9361 52.0067 60.7802 54.7602 57.0887 54.5667C53.3971 54.3732 50.5464 51.3049 50.7339 47.727C50.9681 43.258 52.2808 39.1916 54.6359 35.6409C56.396 32.9869 58.1157 31.6265 58.1478 31.6013C58.8684 31.0442 58.9867 30.025 58.4114 29.3225C58.0996 28.9418 57.648 28.732 57.1845 28.7077C56.7911 28.6871 56.389 28.8001 56.0565 29.0555C55.972 29.1206 53.9618 30.6821 51.9031 33.7451C50.0263 36.5373 47.7193 41.1992 47.3864 47.5516C47.1052 52.9186 51.3813 57.5209 56.9186 57.8111Z" fill="white"/>
<defs>
<linearGradient id="paint0_linear" x1="42.5156" y1="0" x2="42.5156" y2="85" gradientUnits="userSpaceOnUse">
<stop stop-color="#64F2D9"/>
<stop offset="1" stop-color="#84DAFF"/>
</linearGradient>
</defs>
</svg>
