<?xml version="1.0" encoding="utf-8"?>
<svg width="82px" height="86px" viewBox="0 0 82 86" version="1.1" xmlns:xlink="http://www.w3.org/1999/xlink" xmlns="http://www.w3.org/2000/svg">
  <g id="location">
    <g id="Group" transform="translate(61.5 0)">
      <path d="M0.163771 0.0818853L3.19353 0L3.02975 6.05951L0 6.14139L0.163771 0.0818853Z" transform="matrix(0.70710677 -0.70710677 0.70710677 0.70710677 1.0166602 2.4503362)" id="Path" fill="#6F55FF" stroke="none" />
      <path d="M0.163771 0.0818853L3.19353 0L3.02975 6.05951L0 6.14139L0.163771 0.0818853Z" transform="matrix(0.70710677 -0.70710677 0.70710677 0.70710677 13.002514 15.101063)" id="Path" fill="#6F55FF" stroke="none" />
      <path d="M0.0818853 0.163771L6.14139 0L6.05951 3.02975L0 3.19353L0.0818853 0.163771Z" transform="matrix(0.70710677 -0.70710677 0.70710677 0.70710677 12.493043 4.5487275)" id="Path" fill="#6F55FF" stroke="none" />
    </g>
    <path d="M3.5875 8.2C5.56882 8.2 7.175 6.36437 7.175 4.1C7.175 1.83563 5.56882 0 3.5875 0C1.60618 0 0 1.83563 0 4.1C0 6.36437 1.60618 8.2 3.5875 8.2Z" transform="translate(31.773438 23.575012)" id="Oval" fill="#F3F3F1" stroke="none" />
    <path d="M7.12854 52.8277L12.1743 5.41823C12.4897 2.3479 15.2018 0 18.45 0L11.3544 0C8.10616 0 5.39406 2.3479 5.0787 5.41823L0.0329239 52.8277C-0.345509 56.3797 2.58735 59.45 6.30861 59.45L13.4042 59.45C9.68297 59.45 6.75011 56.3797 7.12854 52.8277Z" transform="translate(2.0507812 23.575012)" id="Path" fill="#D5DBE1" stroke="none" />
    <path d="M14.8625 39.975C14.3453 39.975 13.8281 39.7905 13.4149 39.4215C12.865 38.9356 0 27.4136 0 15.5687C0 6.98332 6.66732 0 14.8625 0C23.0577 0 29.725 6.98332 29.725 15.5687C29.725 27.4167 16.86 38.9387 16.3101 39.4215C15.8969 39.7905 15.3797 39.975 14.8625 39.975L14.8625 39.975ZM14.8608 4.61249C9.12386 4.61249 4.45703 9.52634 4.45703 15.5687C4.45703 23.2009 11.698 31.3312 14.8608 34.523C18.0235 31.3342 25.2645 23.2009 25.2645 15.5687C25.2645 9.52634 20.5977 4.61249 14.8608 4.61249Z" transform="translate(20.5 11.275024)" id="Shape" fill="#FF4CF7" stroke="none" />
    <path d="M6.15 12.3C2.75828 12.3 0 9.54173 0 6.15C0 2.75828 2.75828 0 6.15 0C9.54173 0 12.3 2.75828 12.3 6.15C12.3 9.54173 9.54173 12.3 6.15 12.3ZM6.15 4.6125C5.30438 4.6125 4.6125 5.3013 4.6125 6.15C4.6125 6.9987 5.30438 7.6875 6.15 7.6875C6.99563 7.6875 7.6875 6.9987 7.6875 6.15C7.6875 5.3013 6.99563 4.6125 6.15 4.6125Z" transform="translate(28.699219 21.525024)" id="Shape" fill="#FF4CF7" fill-opacity="0.26872325" stroke="none" />
    <path d="M62.477 64.575L8.24811 64.575C5.92058 64.575 3.68604 63.5691 2.12336 61.8157C0.563679 60.0654 -0.192167 57.7194 0.0417855 55.3765L4.8438 7.51805C5.25472 3.23635 8.782 0 13.0471 0L13.0471 4.55824C11.1095 4.55824 9.50485 6.02295 9.31889 7.97083L4.51687 55.8445C4.40889 56.9202 4.74482 57.9564 5.46168 58.7617C6.18453 59.5701 7.17433 60.0168 8.24811 60.0168L62.477 60.0168C63.5508 60.0168 64.5406 59.5701 65.2634 58.7617C65.9803 57.9564 66.3192 56.9202 66.2082 55.8414L61.4062 7.97691C61.2173 6.02599 59.6156 4.55824 57.678 4.55824L57.678 0C61.9431 0 65.4704 3.23635 65.8813 7.52717L70.6833 55.3765C70.9173 57.7225 70.1584 60.0684 68.6018 61.8188C67.0391 63.5691 64.8045 64.575 62.477 64.575Z" transform="translate(0 20.5)" id="Path" fill="#6F55FF" stroke="none" />
    <path d="M2.04124e-05 9.11754e-05L20.1687 0L20.1687 4.5358L1.74936e-17 4.53589L2.04124e-05 9.11754e-05Z" transform="matrix(0.9999995 -0.0009999996 0.0009999996 0.9999995 5.2773438 51.914368)" id="Path" fill="#6F55FF" stroke="none" />
    <path d="M3.6648 31.775L0 29.1864L19.2343 1.0082C19.6507 0.39662 20.3349 0.0302763 21.0637 0.0302763L40.9941 0L41 4.54145L22.2327 4.57172L3.6648 31.775Z" transform="translate(24.601562 51.25)" id="Path" fill="#6F55FF" stroke="none" />
  </g>
</svg>