<?xml version="1.0" encoding="utf-8"?>
<svg width="75px" height="83px" viewBox="0 0 75 83" version="1.1" xmlns:xlink="http://www.w3.org/1999/xlink" xmlns="http://www.w3.org/2000/svg">
  <g id="service">
    <path d="M10.8333 13L0 13L0 8.66667L8.66667 8.66667L8.66667 0L13 0L13 10.8333C13 12.0293 12.0293 13 10.8333 13Z" transform="translate(55 15)" id="Path" fill="#6F55FF" stroke="none" />
    <path d="M37.5015 75C16.8221 75 0 58.1786 0 37.5C0 16.8214 16.8221 0 37.5015 0C49.3765 0 60.6545 5.71837 67.6711 15.2969L63.9638 18.0122C57.8136 9.60918 47.9193 4.59184 37.5015 4.59184C19.3538 4.59184 4.59202 19.3531 4.59202 37.5C4.59202 55.6469 19.3538 70.4082 37.5015 70.4082C55.6492 70.4082 70.411 55.6469 70.411 37.5C70.411 35.9694 70.3192 34.5735 70.1294 33.2296L74.6724 32.5867C74.8929 34.1449 75 35.752 75 37.5C75.0031 58.1786 58.1809 75 37.5015 75Z" transform="translate(0 8)" id="Path" fill="#6F55FF" stroke="none" />
    <path d="M33.413 38C33.2944 38 33.1789 37.997 33.0604 37.9878C15.4874 36.6259 1.27945 22.423 0.0118633 4.95216C-0.0793301 3.68448 0.358398 2.42288 1.21562 1.49872C2.06979 0.57456 3.23403 0.0608 4.49554 0.05168L11.481 0C13.5784 0 15.384 1.40448 15.8886 3.41696L17.3477 9.2112C17.7915 10.9774 17.1349 12.8258 15.6698 13.9202L13.6848 15.3976C15.8278 18.9757 18.8676 22.0309 22.4698 24.2197L24.017 22.1707C25.1113 20.7206 26.9808 20.0701 28.7256 20.5078L34.5681 21.9579C36.5895 22.4626 38 24.2622 38 26.3355L38 33.4917C38 34.7533 37.4893 35.9206 36.5622 36.7779C35.708 37.5622 34.5772 38 33.413 38L33.413 38ZM11.4627 4.52656L4.52594 4.60864C5.66586 19.8603 18.0682 32.2514 33.4069 33.437L33.4373 26.372L27.6283 24.928L24.9107 28.5486C24.242 29.4363 23.0352 29.7038 22.0533 29.2053C16.296 26.2626 11.5539 21.4898 8.69348 15.7654C8.20103 14.7774 8.48677 13.5766 9.37135 12.917L12.9431 10.257L11.4627 4.52656Z" transform="translate(17 26)" id="Shape" fill="#FF4CF7" stroke="none" />
    <g id="Group" transform="translate(1 0)">
      <path d="M8.41574e-17 1.68923e-16L6.05686 0.0146315L6.06418 3.04304L0.0073157 3.02841L8.41574e-17 1.68923e-16Z" transform="matrix(0.70710677 -0.70710677 0.70710677 0.70710677 12.543387 5.4909763)" id="Path" fill="#6F55FF" stroke="none" />
      <path d="M0 -1.68924e-16L6.05686 0.0146315L6.06418 3.04306L0.00731576 3.02843L0 -1.68924e-16Z" transform="matrix(0.70710677 -0.70710677 0.70710677 0.70710677 0.20336205 17.775526)" id="Path" fill="#6F55FF" stroke="none" />
      <path d="M0 0L3.02843 0.00731576L3.04306 6.06418L0.0146315 6.05686L0 0Z" transform="matrix(0.70710677 -0.70710677 0.70710677 0.70710677 0.20307684 2.815445)" id="Path" fill="#6F55FF" stroke="none" />
    </g>
  </g>
</svg>