<svg width="32" height="32" viewBox="0 0 32 32" fill="none" xmlns="http://www.w3.org/2000/svg">
<g clip-path="url(#clip0_521:2997)">
<path d="M21.334 28V25.3333C21.334 23.9188 20.7721 22.5623 19.7719 21.5621C18.7717 20.5619 17.4151 20 16.0007 20H6.66732C5.25283 20 3.89628 20.5619 2.89608 21.5621C1.89589 22.5623 1.33398 23.9188 1.33398 25.3333V28" stroke="black" stroke-width="3" stroke-linecap="round" stroke-linejoin="round"/>
<path d="M11.3333 14.6667C14.2789 14.6667 16.6667 12.2789 16.6667 9.33333C16.6667 6.38781 14.2789 4 11.3333 4C8.38781 4 6 6.38781 6 9.33333C6 12.2789 8.38781 14.6667 11.3333 14.6667Z" stroke="black" stroke-width="3" stroke-linecap="round" stroke-linejoin="round"/>
<path d="M26.666 10.6667V18.6667" stroke="#FFCF7D" stroke-width="3" stroke-linecap="round" stroke-linejoin="round"/>
<path d="M30.666 14.6667H22.666" stroke="#FFCF7D" stroke-width="3" stroke-linecap="round" stroke-linejoin="round"/>
</g>
<defs>
<clipPath id="clip0_521:2997">
<rect width="32" height="32" fill="white"/>
</clipPath>
</defs>
</svg>
