<svg width="22" height="22" viewBox="0 0 22 22" fill="none" xmlns="http://www.w3.org/2000/svg">
<path d="M18.7782 3.2227C14.4795 -1.07391 7.52178 -1.07456 3.22245 3.2227C-0.234365 6.67777 -0.887583 11.8152 1.15609 15.9065L0.0230844 20.8878C-0.124183 21.5352 0.456369 22.1158 1.10438 21.9686L6.08812 20.8361C13.3344 24.4522 22 19.217 22 10.9968C22 8.06019 20.8558 5.2993 18.7782 3.2227V3.2227ZM13.2949 13.7345H6.41118C5.9122 13.7345 5.5077 13.3302 5.5077 12.8315C5.5077 12.3328 5.9122 11.9285 6.41118 11.9285H13.2949C13.7938 11.9285 14.1983 12.3328 14.1983 12.8315C14.1983 13.3302 13.7938 13.7345 13.2949 13.7345ZM15.5894 10.0651H6.41118C5.9122 10.0651 5.5077 9.66076 5.5077 9.16203C5.5077 8.66329 5.9122 8.25899 6.41118 8.25899H15.5894C16.0884 8.25899 16.4929 8.66329 16.4929 9.16203C16.4929 9.66076 16.0884 10.0651 15.5894 10.0651Z" fill="#9542FF"/>
</svg>
