<svg width="18" height="24" viewBox="0 0 18 24" fill="none" xmlns="http://www.w3.org/2000/svg">
<path d="M17.7752 20.73L16.4957 6.6825C16.4612 6.2955 16.1372 6 15.7487 6H13.4987V4.5C13.4987 3.294 13.0307 2.163 12.1832 1.3155C11.3492 0.48 10.1882 0 8.99873 0C6.51773 0 4.49872 2.019 4.49872 4.5V6H2.24872C1.86022 6 1.53622 6.2955 1.50172 6.6825L0.225225 20.7285C0.148725 21.567 0.430725 22.4025 0.997725 23.0235C1.56472 23.6445 2.37172 24 3.21322 24H14.7857C15.6257 24 16.4327 23.6445 16.9997 23.025C17.5682 22.404 17.8487 21.567 17.7752 20.73ZM11.9987 6H5.99873V4.5C5.99873 2.8455 7.34423 1.5 8.99873 1.5C9.79373 1.5 10.5677 1.818 11.1227 2.3745C11.6882 2.94 11.9987 3.6945 11.9987 4.5V6Z" fill="#19CAAA"/>
</svg>
