<?xml version="1.0" encoding="utf-8"?>
<svg width="71px" height="77px" viewBox="0 0 71 77" version="1.1" xmlns:xlink="http://www.w3.org/1999/xlink" xmlns="http://www.w3.org/2000/svg">
  <g id="share">
    <g id="Group" transform="translate(4.8630137 0)">
      <path d="M1.18213e-14 5.22434e-15L5.90515 0L5.90515 2.95258L2.04876e-17 2.95258L1.18213e-14 5.22434e-15Z" transform="matrix(0.70710677 -0.70710677 0.70710677 0.70710677 12.186379 4.3648252)" id="Path" fill="#6F55FF" stroke="none" />
      <path d="M2.04876e-17 -2.04876e-17L5.90515 9.81356e-15L5.90515 2.95258L3.93362e-15 2.95258L2.04876e-17 -2.04876e-17Z" transform="matrix(0.70710677 -0.70710677 0.70710677 0.70710677 0.17939606 16.36686)" id="Path" fill="#6F55FF" stroke="none" />
      <path d="M3.37021e-15 0L2.95258 8.52284e-15L2.95258 5.90515L0 5.90515L3.37021e-15 0Z" transform="matrix(0.70710677 -0.70710677 0.70710677 0.70710677 0.7005364 2.2697246)" id="Path" fill="#6F55FF" stroke="none" />
    </g>
    <path d="M6.80822 13.6164C10.5683 13.6164 13.6164 10.5683 13.6164 6.80822C13.6164 3.04814 10.5683 0 6.80822 0C3.04814 0 0 3.04814 0 6.80822C0 10.5683 3.04814 13.6164 6.80822 13.6164Z" transform="translate(55.438354 61.27397)" id="Oval" fill="#F3F3F1" stroke="none" />
    <path d="M8.75342 18.4795C3.92737 18.4795 0 14.3339 0 9.23973C0 4.14556 3.92737 0 8.75342 0C13.5795 0 17.5068 4.14556 17.5068 9.23973C17.5068 14.3339 13.5795 18.4795 8.75342 18.4795ZM8.75342 4.61986C6.3404 4.61986 4.37671 6.69264 4.37671 9.23973C4.37671 11.7868 6.3404 13.8596 8.75342 13.8596C11.1665 13.8596 13.1301 11.7868 13.1301 9.23973C13.1301 6.69264 11.1665 4.61986 8.75342 4.61986Z" transform="translate(53.49315 58.356163)" id="Shape" fill="#6F55FF" stroke="none" />
    <path d="M12.1575 24.3151C5.45265 24.3151 0 18.8624 0 12.1575C0 5.45265 5.45265 0 12.1575 0C18.8624 0 24.3151 5.45265 24.3151 12.1575C24.3151 18.8624 18.8624 24.3151 12.1575 24.3151ZM12.1575 4.55908C7.96622 4.55908 4.55908 7.96926 4.55908 12.1575C4.55908 16.3458 7.96622 19.756 12.1575 19.756C16.3488 19.756 19.756 16.3458 19.756 12.1575C19.756 7.96926 16.3488 4.55908 12.1575 4.55908Z" transform="translate(46.684933 5.8356166)" id="Shape" fill="#6F55FF" stroke="none" />
    <path d="M0.00387649 0.0260552L29.84 0L29.8361 4.44224L0 4.46829L0.00387649 0.0260552Z" transform="matrix(0.8318964 -0.5549309 0.5549309 0.8318964 25.138237 37.630177)" id="Path" fill="#6F55FF" stroke="none" />
    <path d="M0.0215732 0.00308424L4.46418 0L4.4426 31.0347L1.23906e-16 31.0378L0.0215732 0.00308424Z" transform="matrix(0.40102863 -0.9160655 0.9160655 0.40102863 26.700684 54.87991)" id="Path" fill="#6F55FF" stroke="none" />
    <path d="M15.5616 31.1233C6.98051 31.1233 0 24.1428 0 15.5616C0 6.98051 6.98051 0 15.5616 0C24.1428 0 31.1233 6.98051 31.1233 15.5616C31.1233 24.1428 24.1428 31.1233 15.5616 31.1233ZM15.5616 4.44618C9.4348 4.44618 4.44618 9.43184 4.44618 15.5616C4.44618 21.6915 9.4348 26.6771 15.5616 26.6771C21.6885 26.6771 26.6771 21.6915 26.6771 15.5616C26.6771 9.43184 21.6885 4.44618 15.5616 4.44618Z" transform="translate(0 31.123287)" id="Shape" fill="#FF4CF7" stroke="none" />
  </g>
</svg>