<svg width="74" height="82" viewBox="0 0 74 82" fill="none" xmlns="http://www.w3.org/2000/svg">
<path d="M60.2481 49.4006C58.3599 51.2941 55.2954 51.2941 53.4048 49.4006L52.8789 48.8742C44.0295 50.7503 35.2567 54.2932 27.2567 59.5936L40.1118 72.4687C41.276 73.6347 41.276 75.5235 40.1118 76.6871L37.984 78.818C36.969 79.837 35.3719 79.9816 34.1906 79.1658C16.4054 66.9047 17.757 67.8686 17.5347 67.6236C14.4138 70.2763 9.8084 70.0634 6.93947 67.1898L4.1904 64.4364C1.13315 61.3745 1.13315 56.4116 4.1904 53.3496L7.07889 50.4566C14.7237 41.1621 19.9871 30.2093 22.4776 18.4255C21.7764 17.7235 20.4011 16.5837 20.4011 14.3396C20.4011 10.0661 25.6021 7.84697 28.6631 10.9126L60.2481 42.5469C62.1387 44.4399 62.1404 47.5059 60.2481 49.4006Z" fill="#CAF1FC"/>
<path d="M25.7356 20.0501C25.7356 22.2631 27.1376 23.3887 27.8514 24.0808C25.3139 35.7029 19.9527 46.508 12.1611 55.6791L9.21799 58.533C6.47668 61.1911 6.14773 65.3016 8.23361 68.3077C7.40673 67.7749 7.23328 67.5455 4.2338 64.6371C1.11868 61.6164 1.11868 56.7206 4.2338 53.7L7.17696 50.8461C14.9667 41.677 20.3292 30.8724 22.8672 19.2478L22.1968 18.598C20.2707 16.7301 20.2689 13.7061 22.1968 11.8367C24.1207 9.96899 27.2433 9.96899 29.1697 11.8367L34.1539 16.6697C31.037 13.6476 25.7356 15.8307 25.7356 20.0501Z" fill="#E3F7FC"/>
<path d="M60.2643 41.9206C61.1976 42.8755 61.6667 44.1298 61.6667 45.3816C61.6667 49.6985 56.5243 51.9379 53.499 48.8426C52.0108 47.3199 23.6432 18.2954 22.2742 16.8947C20.4054 14.9826 20.4034 11.8867 22.2742 9.97269C24.1408 8.06037 27.1704 8.06037 29.0395 9.97269L60.2643 41.9206Z" fill="#FFCF7E"/>
<path d="M56.2772 45.5701C58.1941 47.5359 55.4267 50.6171 53.409 48.7602C53.2565 48.6198 22.4092 16.9677 22.2645 16.8192C19.4741 13.9565 21.135 9.10795 24.9568 8.56007C26.5587 8.33039 27.8564 9.97281 27.2325 11.5038C26.5107 13.2749 26.86 15.3858 28.2569 16.8192C44.9184 33.9123 52.658 41.8583 56.2772 45.5701Z" fill="#FFB840"/>
<path d="M20.8718 64.0822C17.721 67.233 17.8451 67.1214 17.5207 67.3966C14.4506 70.0126 9.83428 69.8685 6.93262 66.9668L4.18728 64.2214C1.13419 61.1683 1.13419 56.2198 4.18728 53.1666L7.07184 50.282L20.8718 64.0822Z" fill="#FFB840"/>
<path d="M12.3333 56.0265C10.6996 58.0847 7.54534 59.7694 7.42018 64.1023C7.38768 65.23 6.07757 66.0446 5.00741 64.9304C2.12674 61.9303 2.12513 57.0655 5.00603 54.0655L7.72812 51.2308L12.3333 56.0265Z" fill="#FFCF7E"/>
<path d="M29.5293 65.3292C26.4202 67.678 24.883 69.2301 23.6802 70.5396C23.0229 71.2553 21.9876 71.357 21.2197 70.7845C17.7235 68.1784 18.216 68.5747 18.0256 68.3317C19.6261 66.8625 20.704 64.6922 27.6108 59.7692L29.7946 62.1334C30.6452 63.0552 30.5163 64.5835 29.5293 65.3292Z" fill="#A4EBFC"/>
<path fill-rule="evenodd" clip-rule="evenodd" d="M48.3629 8.33047C48.3629 9.41294 47.4799 10.2906 46.3908 10.2906C45.3017 10.2906 44.4187 9.41294 44.4187 8.33047V1.96011C44.4187 0.87764 45.3017 0 46.3908 0C47.4799 0 48.3629 0.87764 48.3629 1.96011V8.33047ZM64.1837 45.9038C64.1837 44.0856 63.471 42.3759 62.1776 41.0901L30.3412 9.44749C29.0473 8.16166 27.3273 7.45357 25.498 7.45357C24.4089 7.45357 23.5259 8.33121 23.5259 9.41368C23.5259 10.4962 24.4089 11.3738 25.498 11.3738C26.274 11.3738 27.0037 11.6742 27.5524 12.2196L59.3886 43.8626C59.9373 44.408 60.2395 45.1333 60.2395 45.9043C60.2395 48.4883 57.0918 49.7479 55.28 47.9463C47.5656 40.2788 41.748 34.4947 37.3588 30.1307C23.9546 16.8038 23.8718 16.7214 23.7732 16.6921L23.7713 16.6915C23.7631 16.6891 23.7541 16.6865 23.7369 16.6761C22.638 16.0033 21.1266 16.5625 20.8002 17.8772C20.7252 18.1757 20.6425 18.5226 20.549 18.9153L20.5488 18.916L20.5488 18.9163C19.7803 22.1431 18.2769 28.4555 14.1952 36.3025C9.26213 45.7856 4.72246 50.1329 3.23074 51.5614L3.23066 51.5615C-1.25609 55.8534 -0.782296 62.1091 2.88603 65.7554L5.6583 68.5108C9.50337 72.332 15.7586 72.3315 19.6032 68.5108C19.9037 68.2121 20.1779 67.9356 20.4378 67.6734C22.1634 65.9329 23.2618 64.825 27.2874 62.0576L39.0926 73.7913C39.4941 74.1902 39.4939 74.8393 39.0926 75.2381L36.9482 77.3698C36.5969 77.7184 36.045 77.7689 35.6362 77.4891L26.8097 71.4495C25.9134 70.8362 24.685 71.0606 24.067 71.9527C23.4495 72.8444 23.676 74.0648 24.5733 74.6788L33.3999 80.7184C35.3777 82.0711 38.0419 81.8261 39.7372 80.1418L41.8818 78.01C43.8209 76.0825 43.8207 72.9463 41.8818 71.019L30.6651 59.8701C33.9913 57.8424 37.4974 56.0472 41.4322 54.4646C42.4419 54.0586 42.9293 52.9161 42.5208 51.9126C42.1128 50.9092 40.9633 50.4248 39.9531 50.8306C33.2535 53.524 26.9891 57.1331 21.2651 61.6024L14.4245 54.8032C13.6541 54.0381 12.4058 54.0381 11.6354 54.8032C10.8653 55.5689 10.8653 56.8097 11.6354 57.5753L18.3314 64.2304L16.8141 65.7382C14.5075 68.0311 10.7544 68.0308 8.44732 65.7382L5.67506 62.983C3.36846 60.6902 3.36846 56.9594 5.67506 54.667C10.0225 50.332 13.5508 46.0768 17.6989 38.1026C20.3237 33.0568 22.3742 27.7277 23.8175 22.2191L52.4907 50.7176C56.7642 54.9659 64.1837 51.9927 64.1837 45.9038ZM72.0279 25.4814H65.3721C64.283 25.4814 63.4 26.3591 63.4 27.4416C63.4 28.524 64.283 29.4017 65.3721 29.4017H72.0279C73.117 29.4017 74 28.524 74 27.4416C74 26.3591 73.117 25.4814 72.0279 25.4814ZM59.075 11.9606L62.6834 8.37433C63.4535 7.60915 64.7021 7.60915 65.4722 8.37458C66.2423 9.14 66.2423 10.381 65.472 11.1464L61.8635 14.7327C61.0934 15.4984 59.8448 15.4979 59.0747 14.7324C58.3046 13.967 58.3046 12.726 59.075 11.9606Z" fill="black"/>
</svg>
