<svg width="60" height="73" viewBox="0 0 60 73" fill="none" xmlns="http://www.w3.org/2000/svg">
<path d="M34.494 0.947998H5.81845C3.12325 0.947998 0.9375 3.14394 0.9375 5.85172V67.1482C0.9375 69.8559 3.12325 72.0519 5.81845 72.0519H34.494C37.1893 72.0519 39.375 69.8559 39.375 67.1482C39.375 63.222 39.375 7.81351 39.375 5.85172C39.375 3.14394 37.1893 0.947998 34.494 0.947998Z" fill="#E8F8FC"/>
<path d="M39.375 34.6549V67.2199C39.375 69.8886 37.1897 72.0519 34.494 72.0519H5.81845C3.12279 72.0519 0.9375 69.8886 0.9375 67.2199V57.092C0.9375 55.8984 1.81668 54.8793 3.00916 54.702C16.0364 52.7648 27.793 45.3282 34.8313 33.4309C36.0883 31.3061 39.375 32.1925 39.375 34.6549Z" fill="#CAF1FC"/>
<path d="M30.9375 0.947998L28.7992 4.33333C28.2706 5.16946 27.2689 5.68826 26.1803 5.68826H14.1322C13.0436 5.68826 12.0419 5.16946 11.5133 4.33333L9.375 0.947998H30.9375Z" fill="#585966"/>
<path d="M53.4375 21.6459V34.2103C53.4375 36.2168 51.847 37.8433 49.8849 37.8433H32.7356C32.2903 37.8433 31.8844 38.1001 31.6813 38.5053C30.6493 40.5644 28.8713 41.9717 26.8157 42.609C25.8978 42.8936 25.0517 41.9888 25.359 41.0598C25.5495 40.4841 25.7065 39.895 25.829 39.2935C25.9814 38.5448 25.4151 37.8435 24.6673 37.8435H20.4276C18.4655 37.8435 16.875 36.2169 16.875 34.2104V21.646C16.875 19.6395 18.4655 18.0129 20.4276 18.0129H49.8849C51.847 18.0128 53.4375 19.6393 53.4375 21.6459Z" fill="#FFB840"/>
<ellipse cx="54.375" cy="18.4871" rx="4.6875" ry="4.26623" fill="white"/>
<path d="M56.2233 17.0975C54.9188 17.5046 53.8679 18.5614 53.4653 19.8847C53.1025 21.0775 51.4719 21.2129 50.979 20.0688C49.4822 16.5941 53.0064 13.0715 56.4094 14.5791C57.541 15.0805 57.4035 16.7293 56.2233 17.0975Z" fill="white"/>
<path fill-rule="evenodd" clip-rule="evenodd" d="M54.0909 12.3188C51.248 12.3188 48.868 14.3445 48.3073 17.0333H40.6061V6.08333C40.6061 2.72898 37.8873 0 34.5455 0H6.06061C2.71879 0 0 2.72898 0 6.08333V66.9167C0 70.271 2.71879 73 6.06061 73H34.5455C37.8873 73 40.6061 70.271 40.6061 66.9167V45.3715C40.6061 44.6996 40.0633 44.1548 39.3939 44.1548C38.7245 44.1548 38.1818 44.6996 38.1818 45.3715V66.9167C38.1818 68.9292 36.5505 70.5667 34.5455 70.5667H6.06061C4.05561 70.5667 2.42424 68.9292 2.42424 66.9167V6.08333C2.42424 4.07082 4.05561 2.43333 6.06061 2.43333H8.68076L10.4988 5.71803C11.2465 7.06898 12.6674 7.90833 14.2073 7.90833H26.3988C27.0682 7.90833 27.6109 7.36357 27.6109 6.69167C27.6109 6.01976 27.0682 5.475 26.3988 5.475H14.2073C13.5474 5.475 12.9383 5.11532 12.6179 4.53634L11.4539 2.43333H34.5455C36.5505 2.43333 38.1818 4.07082 38.1818 6.08333V18.25C38.1818 18.9219 38.7245 19.4667 39.3939 19.4667H48.3073C48.868 22.1555 51.2479 24.1812 54.0909 24.1812C57.3492 24.1812 60 21.5206 60 18.25C60 14.9794 57.3492 12.3188 54.0909 12.3188ZM54.0909 21.7479C52.1694 21.7479 50.6061 20.1789 50.6061 18.25C50.6061 16.3211 52.1694 14.7521 54.0909 14.7521C56.0124 14.7521 57.5758 16.3211 57.5758 18.25C57.5758 20.1789 56.0124 21.7479 54.0909 21.7479ZM55.303 34.5229V29.4027C55.303 28.7308 54.7603 28.1861 54.0909 28.1861C53.4215 28.1861 52.8788 28.7308 52.8788 29.4027V34.5229C52.8788 35.8646 51.7912 36.9562 50.4545 36.9562H32.1264C31.6335 36.9562 31.1897 37.2557 31.0038 37.7138C30.1821 39.7379 28.5439 41.1694 26.4998 41.7914C26.757 41.0287 26.9582 40.2479 27.1017 39.455C27.3039 38.3372 27.3903 37.8374 26.9645 37.3608C26.7345 37.1033 26.4064 36.9562 26.062 36.9562H20.303C18.9664 36.9562 17.8788 35.8646 17.8788 34.5229V21.9C17.8788 20.5583 18.9664 19.4667 20.303 19.4667H31.5656C32.235 19.4667 32.7777 18.9219 32.7777 18.25C32.7777 17.5781 32.235 17.0333 31.5656 17.0333H20.303C17.6295 17.0333 15.4545 19.2165 15.4545 21.9V34.5229C15.4545 37.2064 17.6295 39.3896 20.303 39.3896H24.6445C24.3359 40.8685 23.9398 41.7463 23.6626 42.3605C23.3327 43.0918 23.1713 43.4494 23.5268 44.0029C23.7608 44.3676 24.1683 44.5761 24.5909 44.5595C28.0862 44.4284 31.2894 42.5572 32.9032 39.3896H50.4545C53.128 39.3896 55.303 37.2064 55.303 34.5229Z" fill="black"/>
</svg>
