<svg width="23" height="21" viewBox="0 0 23 21" fill="none" xmlns="http://www.w3.org/2000/svg">
<path fill-rule="evenodd" clip-rule="evenodd" d="M21.7994 6.73674L18.4672 1.46782C18.131 0.936419 17.541 0.614106 16.9067 0.61536H6.09332C5.45902 0.614106 4.86899 0.936419 4.53281 1.46782L1.20067 6.73674C0.77669 7.40923 0.843589 8.27578 1.3659 8.87696L10.8024 19.7594C10.9768 19.9609 11.2317 20.0769 11.5 20.0769C11.7684 20.0769 12.0233 19.9609 12.1977 19.7594L21.6341 8.87696C22.1564 8.27578 22.2233 7.40923 21.7994 6.73674ZM12.309 18.306C12.1099 18.4648 11.8538 18.5401 11.5973 18.5154C11.3407 18.4907 11.1049 18.368 10.9419 18.1744L6.62742 13.0523C6.2874 12.6501 6.34817 12.0568 6.76316 11.7272C7.17814 11.3976 7.7902 11.4565 8.13022 11.8587L12.4447 16.9808C12.6147 17.1749 12.6961 17.4274 12.6706 17.6807C12.645 17.934 12.5145 18.1664 12.309 18.3248V18.306Z" fill="#BC50FF"/>
</svg>
