<svg width="18" height="24" viewBox="0 0 18 24" fill="none" xmlns="http://www.w3.org/2000/svg">
<path d="M17.7755 20.73L16.496 6.6825C16.4615 6.2955 16.1375 6 15.749 6H13.499V4.5C13.499 3.294 13.031 2.163 12.1835 1.3155C11.3495 0.48 10.1885 0 8.99897 0C6.51797 0 4.49897 2.019 4.49897 4.5V6H2.24897C1.86047 6 1.53647 6.2955 1.50197 6.6825L0.225469 20.7285C0.148969 21.567 0.430969 22.4025 0.997969 23.0235C1.56497 23.6445 2.37197 24 3.21347 24H14.786C15.626 24 16.433 23.6445 17 23.025C17.5685 22.404 17.849 21.567 17.7755 20.73ZM11.999 6H5.99897V4.5C5.99897 2.8455 7.34447 1.5 8.99897 1.5C9.79397 1.5 10.568 1.818 11.123 2.3745C11.6885 2.94 11.999 3.6945 11.999 4.5V6Z" fill="#19CAAA"/>
</svg>
