<svg width="17" height="24" viewBox="0 0 17 24" fill="none" xmlns="http://www.w3.org/2000/svg">
<path d="M13.8462 23.359C15.0906 23.359 16.1026 22.347 16.1026 21.1026V3.05133C16.1026 1.80692 15.0906 0.794922 13.8462 0.794922H2.56415C1.31974 0.794922 0.307739 1.80692 0.307739 3.05133V21.1026C0.307739 22.347 1.31974 23.359 2.56415 23.359H13.8462ZM8.20517 17.718C8.50439 17.718 8.79136 17.8369 9.00294 18.0484C9.21452 18.26 9.33338 18.547 9.33338 18.8462C9.33338 19.1454 9.21452 19.4324 9.00294 19.644C8.79136 19.8555 8.50439 19.9744 8.20517 19.9744C7.90596 19.9744 7.61899 19.8555 7.40741 19.644C7.19583 19.4324 7.07697 19.1454 7.07697 18.8462C7.07697 18.547 7.19583 18.26 7.40741 18.0484C7.61899 17.8369 7.90596 17.718 8.20517 17.718Z" fill="#FB41FF"/>
</svg>
