<svg width="26" height="27" viewBox="0 0 26 27" fill="none" xmlns="http://www.w3.org/2000/svg">
<path d="M12.8382 0C16.1037 0 18.7503 2.7 18.7898 6.0345H19.0663C22.7005 6.0345 25.65 9.072 25.65 12.798V20.25C25.65 23.976 22.7005 27 19.0663 27H6.58368C2.94949 27 0 23.976 0 20.25V12.798C0 9.072 2.94949 6.0345 6.58368 6.0345H6.86019C6.88652 4.4145 7.50539 2.9025 8.62461 1.7685C9.75701 0.621 11.2054 0.0405 12.8382 0ZM17.8286 7.641C17.2887 7.641 16.841 8.1 16.841 8.6535V10.2195C16.841 10.773 17.2887 11.232 17.8286 11.232C18.3816 11.232 18.8161 10.773 18.8161 10.2195V8.6535C18.8161 8.1 18.3816 7.641 17.8286 7.641ZM7.7029 7.641C7.16304 7.641 6.71535 8.1 6.71535 8.6535V10.2195C6.71535 10.773 7.16304 11.232 7.7029 11.232C8.25593 11.232 8.69045 10.773 8.69045 10.2195V8.6535C8.69045 8.1 8.25593 7.641 7.7029 7.641ZM12.8382 2.025C11.8243 2.025 10.7709 2.4435 10.0072 3.213C9.26982 3.969 8.86163 4.968 8.83529 6.0345H16.8147C16.7752 3.8205 15.0108 2.025 12.8382 2.025Z" fill="#6E56FF"/>
</svg>
