<svg width="28" height="23" viewBox="0 0 28 23" fill="none" xmlns="http://www.w3.org/2000/svg">
<path fill-rule="evenodd" clip-rule="evenodd" d="M0.104185 5.92721C-0.820469 1.81523 4.734 -1.13879 8.42286 0.425595C18.1878 4.5667 9.46183 18.9367 3.54883 22.6293C2.53522 23.2622 1.59277 21.736 2.59776 21.1087C5.28693 19.4288 7.30993 16.5937 8.72045 13.9262C9.56215 12.3344 10.423 10.4031 10.7139 8.47652C9.30741 9.82463 7.38533 10.6801 5.29645 10.3207C2.88279 9.90563 0.62331 8.23539 0.104185 5.92721ZM4.8338 8.40976C7.20676 9.05137 9.1752 7.92582 10.3636 6.01434C10.3724 6.00038 10.3823 5.98901 10.3922 5.97762C10.3986 5.97032 10.405 5.96301 10.4111 5.95501C10.4088 5.56204 10.4017 5.16974 10.3757 4.77799C9.09261 1.63566 4.00698 0.365778 2.23836 3.91209C1.30632 5.78071 2.80616 7.86161 4.8338 8.40976Z" fill="black"/>
<path fill-rule="evenodd" clip-rule="evenodd" d="M14.6881 5.92721C13.7637 1.81523 19.3179 -1.13879 23.0067 0.425595C32.7719 4.5667 24.0458 18.9367 18.1327 22.6293C17.1193 23.2622 16.1766 21.736 17.1815 21.1087C19.8711 19.4288 21.8938 16.5937 23.3043 13.9262C24.1464 12.3344 25.0067 10.4031 25.2977 8.47652C23.8914 9.82463 21.9693 10.6801 19.8805 10.3207C17.4668 9.90563 15.207 8.23539 14.6881 5.92721ZM19.4176 8.40968C21.7905 9.05129 23.7591 7.92575 24.9475 6.01426C24.9514 6.00766 24.9561 6.00244 24.9608 5.99719C24.9642 5.99341 24.9676 5.98962 24.9707 5.98529C24.9638 5.43192 24.9139 4.89906 24.7656 4.37348C23.2309 1.53422 18.5126 0.522378 16.8223 3.91201C15.8902 5.78063 17.3901 7.86153 19.4176 8.40968Z" fill="black"/>
</svg>
