<?xml version="1.0" encoding="utf-8"?>
<svg width="51px" height="48px" viewBox="0 0 51 48" version="1.1" xmlns:xlink="http://www.w3.org/1999/xlink" xmlns="http://www.w3.org/2000/svg">
  <g id="Icon" transform="translate(1.5 1.5)">
    <g id="Group-32">
      <path d="M9.30612 9.06122L32.4248 9.03434C35.0756 9.03434 37.2245 11.2012 37.2245 13.8742L37.2245 31.4051C37.2245 34.078 35.0756 36.2449 32.4248 36.2449L4.79972 36.2449C2.14891 36.2449 0 34.078 0 31.4051L0 8.92679L9.22613 6.43839e-14" transform="matrix(1 -2.1456883E-07 -2.1456883E-07 -1 5.472827E-06 44.081635)" id="Rectangle" fill="none" fill-rule="evenodd" stroke="#3A3A3A" stroke-width="3" stroke-linecap="round" />
      <path d="M5.72684 9.06122L32.4248 9.11484C35.0756 9.11484 37.2245 11.2753 37.2245 13.9403L37.2245 31.4194C37.2245 34.0844 35.0756 36.2449 32.4248 36.2449L4.79972 36.2449C2.14891 36.2449 0 34.0844 0 31.4194L0 0" transform="matrix(-1 8.742278E-08 -8.742278E-08 -1 48 36.2449)" id="Rectangle" fill="#FFFFFF" fill-rule="evenodd" stroke="#FD6A5E" stroke-width="3" stroke-linecap="round" />
    </g>
    <path d="M1.439 0L19.681 0Q19.7517 0 19.8221 0.00692918Q19.8924 0.0138584 19.9617 0.02765Q20.0311 0.0414416 20.0987 0.0619629Q20.1664 0.0824841 20.2317 0.109537Q20.297 0.136591 20.3593 0.169915Q20.4217 0.20324 20.4805 0.242515Q20.5392 0.28179 20.5939 0.326638Q20.6485 0.371485 20.6985 0.421473Q20.7485 0.471461 20.7934 0.526108Q20.8382 0.580755 20.8775 0.639534Q20.9168 0.698314 20.9501 0.76066Q20.9834 0.823006 21.0105 0.888318Q21.0375 0.953631 21.058 1.02128Q21.0786 1.08893 21.0923 1.15826Q21.1061 1.2276 21.1131 1.29795Q21.12 1.36831 21.12 1.439L21.12 1.441Q21.12 1.51169 21.1131 1.58205Q21.1061 1.6524 21.0923 1.72173Q21.0786 1.79107 21.058 1.85872Q21.0375 1.92637 21.0105 1.99168Q20.9834 2.05699 20.9501 2.11934Q20.9168 2.18169 20.8775 2.24047Q20.8382 2.29925 20.7934 2.35389Q20.7485 2.40854 20.6985 2.45853Q20.6485 2.50851 20.5939 2.55336Q20.5392 2.59821 20.4805 2.63748Q20.4217 2.67676 20.3593 2.71008Q20.297 2.74341 20.2317 2.77046Q20.1664 2.79752 20.0987 2.81804Q20.0311 2.83856 19.9617 2.85235Q19.8924 2.86614 19.822 2.87307Q19.7517 2.88 19.681 2.88L1.439 2.88Q1.36831 2.88 1.29795 2.87307Q1.2276 2.86614 1.15826 2.85235Q1.08893 2.83856 1.02128 2.81804Q0.953631 2.79752 0.888318 2.77046Q0.823006 2.74341 0.76066 2.71008Q0.698314 2.67676 0.639534 2.63748Q0.580755 2.59821 0.526108 2.55336Q0.471461 2.50851 0.421473 2.45853Q0.371485 2.40854 0.326638 2.35389Q0.28179 2.29925 0.242515 2.24047Q0.20324 2.18169 0.169915 2.11934Q0.136591 2.05699 0.109537 1.99168Q0.0824841 1.92637 0.0619629 1.85872Q0.0414416 1.79107 0.02765 1.72173Q0.0138584 1.6524 0.00692918 1.58205Q0 1.51169 0 1.441L0 1.439Q0 1.36831 0.00692918 1.29795Q0.0138584 1.2276 0.02765 1.15826Q0.0414416 1.08893 0.0619629 1.02128Q0.0824841 0.953631 0.109537 0.888318Q0.136591 0.823006 0.169915 0.76066Q0.20324 0.698314 0.242515 0.639534Q0.28179 0.580755 0.326638 0.526108Q0.371485 0.471461 0.421473 0.421473Q0.471461 0.371485 0.526108 0.326638Q0.580755 0.28179 0.639534 0.242515Q0.698314 0.20324 0.76066 0.169915Q0.823006 0.136591 0.888318 0.109537Q0.953631 0.0824841 1.02128 0.0619629Q1.08893 0.0414416 1.15826 0.02765Q1.2276 0.0138584 1.29795 0.00692918Q1.36831 0 1.439 0L1.439 0Z" transform="translate(19.2 7.68)" id="Rectangle" fill="#343434" fill-rule="evenodd" stroke="none" />
    <path d="M1.439 0L10.081 0Q10.1517 0 10.222 0.00692918Q10.2924 0.0138584 10.3617 0.02765Q10.4311 0.0414416 10.4987 0.0619629Q10.5664 0.0824841 10.6317 0.109537Q10.697 0.136591 10.7593 0.169915Q10.8217 0.20324 10.8805 0.242515Q10.9392 0.28179 10.9939 0.326638Q11.0485 0.371485 11.0985 0.421473Q11.1485 0.471461 11.1934 0.526108Q11.2382 0.580755 11.2775 0.639534Q11.3168 0.698314 11.3501 0.76066Q11.3834 0.823006 11.4105 0.888318Q11.4375 0.953631 11.458 1.02128Q11.4786 1.08893 11.4923 1.15826Q11.5061 1.2276 11.5131 1.29795Q11.52 1.36831 11.52 1.439L11.52 1.441Q11.52 1.51169 11.5131 1.58205Q11.5061 1.6524 11.4923 1.72173Q11.4786 1.79107 11.458 1.85872Q11.4375 1.92637 11.4105 1.99168Q11.3834 2.05699 11.3501 2.11934Q11.3168 2.18169 11.2775 2.24047Q11.2382 2.29925 11.1934 2.35389Q11.1485 2.40854 11.0985 2.45853Q11.0485 2.50851 10.9939 2.55336Q10.9392 2.59821 10.8805 2.63748Q10.8217 2.67676 10.7593 2.71008Q10.697 2.74341 10.6317 2.77046Q10.5664 2.79752 10.4987 2.81804Q10.4311 2.83856 10.3617 2.85235Q10.2924 2.86614 10.222 2.87307Q10.1517 2.88 10.081 2.88L1.439 2.88Q1.36831 2.88 1.29795 2.87307Q1.2276 2.86614 1.15826 2.85235Q1.08893 2.83856 1.02128 2.81804Q0.953631 2.79752 0.888318 2.77046Q0.823006 2.74341 0.76066 2.71008Q0.698314 2.67676 0.639534 2.63748Q0.580755 2.59821 0.526108 2.55336Q0.471461 2.50851 0.421473 2.45853Q0.371485 2.40854 0.326638 2.35389Q0.28179 2.29925 0.242515 2.24047Q0.20324 2.18169 0.169915 2.11934Q0.136591 2.05699 0.109537 1.99168Q0.0824841 1.92637 0.0619629 1.85872Q0.0414416 1.79107 0.02765 1.72173Q0.0138584 1.6524 0.00692918 1.58205Q0 1.51169 0 1.441L0 1.439Q0 1.36831 0.00692918 1.29795Q0.0138584 1.2276 0.02765 1.15826Q0.0414416 1.08893 0.0619629 1.02128Q0.0824841 0.953631 0.109537 0.888318Q0.136591 0.823006 0.169915 0.76066Q0.20324 0.698314 0.242515 0.639534Q0.28179 0.580755 0.326638 0.526108Q0.371485 0.471461 0.421473 0.421473Q0.471461 0.371485 0.526108 0.326638Q0.580755 0.28179 0.639534 0.242515Q0.698314 0.20324 0.76066 0.169915Q0.823006 0.136591 0.888318 0.109537Q0.953631 0.0824841 1.02128 0.0619629Q1.08893 0.0414416 1.15826 0.02765Q1.2276 0.0138584 1.29795 0.00692918Q1.36831 0 1.439 0Z" transform="translate(19.2 15.36)" id="Rectangle" fill="#363636" fill-rule="evenodd" stroke="none" />
  </g>
</svg>