<?xml version="1.0" encoding="utf-8"?>
<svg width="40px" height="28px" viewBox="0 0 40 28" version="1.1" xmlns:xlink="http://www.w3.org/1999/xlink" xmlns="http://www.w3.org/2000/svg">
  <g id="right-quote" transform="matrix(-0.9986295 -0.05233605 0.05233605 -0.9986295 37.947754 27.953125)">
    <path d="M8.68085 0C3.89423 0 0 3.75281 0 8.3656C0 10.5714 0.883132 12.6528 2.48663 14.2263C4.08658 15.7963 6.22366 16.6851 8.50456 16.729L8.57082 16.7306C9.37047 16.7539 10.034 16.1429 10.0548 15.3731C10.0756 14.6033 9.44491 13.9631 8.64613 13.943L8.56605 13.9411C5.43826 13.8828 2.89362 11.3815 2.89362 8.3656C2.89362 5.29041 5.48977 2.78853 8.68085 2.78853C11.8719 2.78853 14.4681 5.29041 14.4681 8.3656C14.4681 12.2067 13.5201 15.751 11.6504 18.9003C10.253 21.2542 8.8319 22.4975 8.80535 22.5205C8.20941 23.0304 8.15342 23.9093 8.68107 24.4856C8.96703 24.7979 9.36584 24.9574 9.76654 24.9574C10.1066 24.9574 10.4481 24.8425 10.7232 24.6086C10.7931 24.5491 12.4554 23.1203 14.0918 20.4024C15.5836 17.9248 17.3617 13.8253 17.3617 8.3656C17.3617 3.75274 13.4675 0 8.68085 0Z" transform="translate(20.038645 0.086468354)" id="Path" fill="#FD6A5E" stroke="none" />
    <path d="M8.68085 0C3.89423 0 0 3.75275 0 8.36563C0 10.5714 0.883132 12.6528 2.48663 14.2265C4.08658 15.7965 6.22366 16.6852 8.50456 16.7292L8.57082 16.7308C9.36874 16.754 10.0341 16.1431 10.0548 15.3733C10.0756 14.6035 9.44491 13.9633 8.64613 13.9432L8.56605 13.9412C5.43826 13.8828 2.89362 11.3815 2.89362 8.36563C2.89362 5.29042 5.48977 2.78854 8.68085 2.78854C11.8719 2.78854 14.4681 5.29042 14.4681 8.36563C14.4681 12.2067 13.5201 15.7511 11.6504 18.9003C10.253 21.2542 8.8319 22.4975 8.80535 22.5205C8.20934 23.0304 8.15342 23.9093 8.68107 24.4856C8.96703 24.7979 9.36584 24.9574 9.76654 24.9574C10.1066 24.9574 10.4481 24.8426 10.7232 24.6087C10.7931 24.5491 12.4555 23.1204 14.0918 20.4025C15.5836 17.9249 17.3617 13.8254 17.3617 8.36563C17.3617 3.75275 13.4675 0 8.68085 0Z" transform="translate(0.47670677 0.025070515)" id="Path" fill="#FD6A5E" stroke="none" />
  </g>
</svg>