<svg version="1.2" xmlns="http://www.w3.org/2000/svg" viewBox="0 0 75 53" width="75" height="53">
	<title>30-svg</title>
	<style>
		.s0 { fill: #ad954d } 
	</style>
	<g id="right-quote">
		<path id="Path" class="s0" d="m1.6 33.1c0.6-10.2 4.3-17.7 7.3-22.2 3.4-4.9 6.6-7.5 6.8-7.6 0.5-0.4 1.2-0.6 1.8-0.5 0.7 0 1.5 0.3 2 1 0.9 1.1 0.7 2.7-0.4 3.6-0.1 0.1-2.9 2.3-5.7 6.5-3.9 5.8-6 12.3-6.4 19.5-0.3 5.8 4.4 10.7 10.3 11 6 0.4 11.1-4.1 11.4-9.8 0.3-5.7-4.2-10.6-10-11.1h-0.2c-1.5-0.1-2.6-1.3-2.5-2.8 0.1-1.4 1.4-2.5 2.9-2.4h0.1c4.3 0.3 8.2 2.2 11.1 5.3 2.8 3.1 4.3 7.1 4.1 11.2-0.5 8.7-8.2 15.3-17.1 14.9-9-0.5-15.9-7.9-15.5-16.6z"/>
		<path id="Path" class="s0" d="m40.3 33.2c0.5-10.3 4.3-17.8 7.3-22.3 3.3-4.9 6.6-7.4 6.7-7.5 0.6-0.4 1.2-0.6 1.9-0.6 0.7 0 1.4 0.4 1.9 1 1 1.1 0.8 2.8-0.4 3.7 0 0-2.8 2.2-5.7 6.5-3.8 5.7-5.9 12.3-6.3 19.5-0.3 5.7 4.3 10.7 10.3 11 6 0.3 11.1-4.1 11.4-9.9 0.3-5.7-4.2-10.6-10.1-11h-0.1c-1.5-0.1-2.6-1.4-2.5-2.9 0.1-1.4 1.4-2.5 2.9-2.4l0.1 0.1c4.3 0.3 8.2 2.1 11 5.2 2.9 3.1 4.4 7.1 4.1 11.3-0.4 8.6-8.1 15.3-17.1 14.8-8.9-0.5-15.9-7.9-15.4-16.5z"/>
	</g>
</svg>