<?xml version="1.0" encoding="utf-8"?>
<svg width="71px" height="64px" viewBox="0 0 71 64" version="1.1" xmlns:xlink="http://www.w3.org/1999/xlink" xmlns="http://www.w3.org/2000/svg">
  <g id="browser">
    <path d="M69 4.76923L69 57.2308C69 59.8643 66.869 62 64.2414 62L4.75862 62C2.13097 62 0 59.8643 0 57.2308L0 4.76923C0 2.13572 2.13097 0 4.75862 0L64.2414 0C66.869 0 69 2.13572 69 4.76923Z" transform="translate(1 1)" id="Path" fill="#CAF1FC" stroke="none" />
    <path d="M69 4.65736L69 5.8217L10.7069 5.8217C8.12832 5.8217 6.02858 7.82873 5.95125 10.3335C5.94753 10.4549 5.94783 37.6709 5.94813 50.0848C5.94828 53.8778 0 54.0708 0 50.0666L0 4.65736C0 2.08519 2.13052 0 4.75862 0L64.2414 0C66.8695 0 69 2.08519 69 4.65736Z" transform="translate(1 1)" id="Path" fill="#E8F8FC" stroke="none" />
    <path d="M60.0103 6.19718L10.7449 6.19718C8.1572 6.19718 6.05 8.33366 5.97239 11L0 11L0 4.95775C0 2.21968 2.13809 0 4.77553 0L59.9926 0C64.097 0 63.9011 6.19718 60.0103 6.19718Z" transform="translate(1 1)" id="Path" fill="none" stroke="none" />
    <path d="M49 2.38806L49 17.6119C49 18.9313 47.9304 20 46.6098 20L2.39024 20C1.06963 20 0 18.9313 0 17.6119L0 2.38806C0 1.06866 1.06963 0 2.39024 0L46.6098 0C47.9304 0 49 1.06866 49 2.38806Z" transform="translate(12 33)" id="Path" fill="#FFFFFF" stroke="none" />
    <path d="M0 0L2 0L2 20L0 20L0 0Z" transform="translate(35 33)" id="Path" fill="#EEF7FF" stroke="none" />
    <path d="M36.6831 39.7036L36.6831 52.2962L57.3914 52.2962C58.0439 52.2962 58.5748 51.7645 58.5748 51.111L58.5748 35.9999C58.5748 35.3464 58.0439 34.8147 57.3914 34.8147L13.6081 34.8147C12.9556 34.8147 12.4248 35.3464 12.4248 35.9999L12.4248 51.111C12.4248 51.7645 12.9556 52.2962 13.6081 52.2962L28.1779 52.2962C28.8314 52.2962 29.3612 52.8269 29.3612 53.4814C29.3612 54.1359 28.8314 54.6666 28.1779 54.6666L13.6081 54.6666C11.6507 54.6666 10.0581 53.0714 10.0581 51.111L10.0581 35.9999C10.0581 34.0394 11.6507 32.4443 13.6081 32.4443L57.3914 32.4443C59.3488 32.4443 60.9414 34.0394 60.9414 35.9999L60.9414 51.111C60.9414 53.0714 59.3488 54.6666 57.3914 54.6666L35.4998 54.6666C34.8463 54.6666 34.3164 54.1359 34.3164 53.4814L34.3164 39.7036C34.3164 39.0491 34.8463 38.5184 35.4998 38.5184C36.1533 38.5184 36.6831 39.0491 36.6831 39.7036ZM41.4906 28.9629C42.1241 28.9629 42.2182 28.7252 44.1763 26.764C44.9187 26.0201 44.3929 24.7407 43.3396 24.7407L32.0979 24.7407C31.4444 24.7407 30.9146 25.2714 30.9146 25.9259C30.9146 26.5804 31.4444 27.1111 32.0979 27.1111L40.512 27.1111C39.9773 27.8966 40.5436 28.9629 41.4906 28.9629ZM30.346 18.1991C29.8837 17.7364 29.1347 17.7364 28.6724 18.1991L26.8235 20.0509C26.0811 20.7948 26.6069 22.0742 27.6602 22.0742L38.9019 22.0742C39.5554 22.0742 40.0852 21.5435 40.0852 20.889C40.0852 20.2345 39.5554 19.7038 38.9019 19.7038L30.4878 19.7038C30.8018 19.2425 30.7547 18.6082 30.346 18.1991ZM71 11.7037L71 5.92593C71 2.65837 68.3458 0 65.0833 0L5.91667 0C2.65422 0 0 2.65837 0 5.92593L0 58.0741C0 61.3416 2.65422 64 5.91667 64L65.0833 64C68.3458 64 71 61.3416 71 58.0741L71 20.0493C71 19.3948 70.4702 18.8641 69.8167 18.8641C69.1632 18.8641 68.6333 19.3948 68.6333 20.0493L68.6333 58.0741C68.6333 60.0345 67.0407 61.6296 65.0833 61.6296L5.91667 61.6296C3.95929 61.6296 2.36667 60.0345 2.36667 58.0741L2.36667 5.92593C2.36667 3.96548 3.95929 2.37037 5.91667 2.37037L65.0833 2.37037C67.0407 2.37037 68.6333 3.96548 68.6333 5.92593L68.6333 10.5185L10.0583 10.5185C9.40484 10.5185 8.875 11.0492 8.875 11.7037C8.875 12.3582 9.40484 12.8889 10.0583 12.8889L69.8167 12.8889C70.4702 12.8889 71 12.3582 71 11.7037ZM10.0583 7.70362L10.65 7.70362C11.3035 7.70362 11.8333 7.17296 11.8333 6.51844C11.8333 5.86392 11.3035 5.33325 10.65 5.33325L10.0583 5.33325C9.40484 5.33325 8.875 5.86392 8.875 6.51844C8.875 7.17296 9.40484 7.70362 10.0583 7.70362ZM18.046 7.70362C18.6995 7.70362 19.2293 7.17296 19.2293 6.51844C19.2293 5.86392 18.6995 5.33325 18.046 5.33325L17.4543 5.33325C16.8008 5.33325 16.271 5.86392 16.271 6.51844C16.271 7.17296 16.8008 7.70362 17.4543 7.70362L18.046 7.70362ZM25.4415 7.70362C26.095 7.70362 26.6248 7.17296 26.6248 6.51844C26.6248 5.86392 26.095 5.33325 25.4415 5.33325L24.8498 5.33325C24.1963 5.33325 23.6665 5.86392 23.6665 6.51844C23.6665 7.17296 24.1963 7.70362 24.8498 7.70362L25.4415 7.70362Z" id="Shape" fill="#000000" stroke="none" />
    <path d="M0.999 0L12.001 0Q12.0994 0 12.1959 0.0191955Q12.2924 0.038391 12.3833 0.0760443Q12.4742 0.113698 12.556 0.168362Q12.6378 0.223026 12.7074 0.2926Q12.777 0.362175 12.8316 0.443985Q12.8863 0.525796 12.924 0.616699Q12.9616 0.707602 12.9808 0.804105Q13 0.900607 13 0.999L13 2.001Q13 2.09939 12.9808 2.19589Q12.9616 2.2924 12.924 2.3833Q12.8863 2.4742 12.8316 2.55601Q12.777 2.63783 12.7074 2.7074Q12.6378 2.77697 12.556 2.83164Q12.4742 2.8863 12.3833 2.92396Q12.2924 2.96161 12.1959 2.9808Q12.0994 3 12.001 3L0.999 3Q0.900607 3 0.804105 2.9808Q0.707602 2.96161 0.616699 2.92396Q0.525796 2.8863 0.443985 2.83164Q0.362175 2.77697 0.2926 2.7074Q0.223026 2.63783 0.168362 2.55601Q0.113698 2.4742 0.0760443 2.3833Q0.038391 2.2924 0.0191955 2.19589Q0 2.09939 0 2.001L0 0.999Q0 0.900607 0.0191955 0.804105Q0.038391 0.707602 0.0760443 0.616699Q0.113698 0.525796 0.168362 0.443985Q0.223026 0.362175 0.2926 0.2926Q0.362175 0.223026 0.443985 0.168362Q0.525796 0.113698 0.616699 0.0760443Q0.707602 0.038391 0.804105 0.0191955Q0.900607 0 0.999 0L0.999 0Z" transform="translate(16 39)" id="Rectangle" fill="#FFB840" fill-rule="evenodd" stroke="none" />
    <path d="M0.999 0L33.001 0Q33.0994 0 33.1959 0.0191955Q33.2924 0.038391 33.3833 0.0760443Q33.4742 0.113698 33.556 0.168362Q33.6378 0.223026 33.7074 0.2926Q33.777 0.362175 33.8316 0.443985Q33.8863 0.525796 33.924 0.616699Q33.9616 0.707602 33.9808 0.804105Q34 0.900607 34 0.999L34 2.001Q34 2.09939 33.9808 2.19589Q33.9616 2.2924 33.924 2.3833Q33.8863 2.4742 33.8316 2.55601Q33.777 2.63783 33.7074 2.7074Q33.6378 2.77697 33.556 2.83164Q33.4742 2.8863 33.3833 2.92396Q33.2924 2.96161 33.1959 2.9808Q33.0994 3 33.001 3L0.999 3Q0.900607 3 0.804105 2.9808Q0.707602 2.96161 0.616699 2.92396Q0.525796 2.8863 0.443985 2.83164Q0.362175 2.77697 0.2926 2.7074Q0.223026 2.63783 0.168362 2.55601Q0.113698 2.4742 0.0760443 2.3833Q0.038391 2.2924 0.0191955 2.19589Q0 2.09939 0 2.001L0 0.999Q0 0.900607 0.0191955 0.804105Q0.038391 0.707602 0.0760443 0.616699Q0.113698 0.525796 0.168362 0.443985Q0.223026 0.362175 0.2926 0.2926Q0.362175 0.223026 0.443985 0.168362Q0.525796 0.113698 0.616699 0.0760443Q0.707602 0.038391 0.804105 0.0191955Q0.900607 0 0.999 0L0.999 0Z" transform="translate(16 45)" id="Rectangle" fill="#FFB840" fill-rule="evenodd" stroke="none" />
  </g>
</svg>