<?xml version="1.0" encoding="utf-8"?>
<svg width="94px" height="104px" viewBox="0 0 94 104" version="1.1" xmlns:xlink="http://www.w3.org/1999/xlink" xmlns="http://www.w3.org/2000/svg">
  <g id="bag">
    <g id="Layer_2">
      <path d="M75.0141 9.86923C54.3327 10.2547 39.926 -0.185735 29.9607 0.00251576C19.9953 0.190766 -0.832621 6.30741 0.025739 52.115C0.884099 97.9227 29.1681 104.12 40.1324 103.917C91.4636 102.958 111.645 9.18496 75.0141 9.86923Z" id="Path" fill="#F8F7FF" stroke="none" />
    </g>
    <g id="color" transform="translate(12.837891 8.924255)">
      <path d="M30.4818 13.3994L30.0952 13.3994L40.2062 5.30023C42.4069 3.54341 41.1579 0 38.3624 0L10.7058 0C7.9104 0 6.66139 3.54341 8.86202 5.30023L18.9731 13.3994L18.5865 13.3994C8.297 19.4441 0 36.6549 0 49.1313C0 58.0643 4.46075 66.9972 14.8692 66.9972L34.9425 66.9972C45.351 66.9972 49.0682 58.0643 49.0682 49.1313C49.0682 36.6549 40.7713 19.4441 30.4818 13.3994Z" transform="translate(0.5507483 8.863177)" id="Path" fill="#F3F3F1" stroke="none" />
      <path d="M6.69112 49.1313C6.69112 36.6549 14.9881 19.4441 25.2776 13.3994L25.6642 13.3994L15.5531 5.30023C13.3525 3.54341 14.6015 0 17.3969 0L10.7058 0C7.9104 0 6.66139 3.54341 8.86202 5.30023L18.9731 13.3994L18.5865 13.3994C8.297 19.4441 0 36.6549 0 49.1313C0 58.0643 4.46075 66.9972 14.8692 66.9972L21.5603 66.9972C11.1519 66.9972 6.69112 58.0643 6.69112 49.1313Z" transform="translate(0.5507483 8.863177)" id="Path" fill="#D5DBE1" stroke="none" />
      <g id="Group" transform="translate(57.332375 0.6280992)">
        <path d="M0.0019108 0.0038216L5.9525 -2.06718e-17L5.95059 2.97529L-1.03259e-17 2.97912L0.0019108 0.0038216Z" transform="matrix(0.70710677 -0.70710677 0.70710677 0.70710677 12.26173 4.760762)" id="Path" fill="#6F55FF" stroke="none" />
        <path d="M0.0019108 0.0038216L5.9525 2.06718e-17L5.95059 2.97529L0 2.97912L0.0019108 0.0038216Z" transform="matrix(0.70710677 -0.70710677 0.70710677 0.70710677 0.17012417 16.862919)" id="Path" fill="#6F55FF" stroke="none" />
        <path d="M0.0038216 0.0019108L2.97912 0L2.97529 5.95059L0 5.9525L0.0038216 0.0019108Z" transform="matrix(0.70710677 -0.70710677 0.70710677 0.70710677 0.15584671 2.1059756)" id="Path" fill="#6F55FF" stroke="none" />
        <path d="M0.0038216 0.0019108L2.97912 0L2.97529 5.95059L0 5.9525L0.0038216 0.0019108Z" transform="matrix(0.70710677 -0.70710677 0.70710677 0.70710677 12.260311 14.236943)" id="Path" fill="#6F55FF" stroke="none" />
      </g>
      <path d="M6.69112 24.5657L6.69112 6.69972C6.69112 3.45408 12.615 0.741436 20.4481 0.131017C19.3656 0.0476425 18.2445 0 17.0995 0C7.67249 0 0 3.00743 0 6.69972L0 24.5657C0 28.2579 7.67249 31.2654 17.0995 31.2654C18.2474 31.2654 19.3656 31.2177 20.4481 31.1344C12.615 30.5239 6.69112 27.8113 6.69112 24.5657Z" transform="translate(33.25399 44.595043)" id="Path" fill="#D5DBE1" stroke="none" />
    </g>
    <g id="line" transform="translate(10.837891 15.924255)">
      <path d="M26.1602 17.4739L23.3547 13.9647L33.5348 5.82063C33.8791 5.54517 33.8552 5.21881 33.7743 4.99125C33.6995 4.7637 33.5139 4.49123 33.0827 4.49123L5.23708 4.49123C4.80592 4.49123 4.62029 4.7637 4.54244 4.99125C4.4616 5.21881 4.43764 5.54816 4.78197 5.81764L14.9651 13.9647L12.1596 17.4739L1.97944 9.32978C0.215889 7.92253 -0.442824 5.64098 0.30272 3.50915C1.04826 1.37731 2.98548 0 5.23708 0L33.0827 0C35.3343 0 37.2715 1.37731 38.0171 3.50915C38.7626 5.63799 38.1039 7.92552 36.3403 9.32978L26.1602 17.4739Z" transform="translate(7.7874794 -5.3186825E-15)" id="Path" fill="#6F55FF" stroke="none" />
      <path d="M0 0L31.4386 0L31.4386 4.49123L0 4.49123L0 0Z" transform="translate(11.22807 13.473684)" id="Path" fill="#6F55FF" stroke="none" />
      <path d="M0 0L4.49123 0L4.49123 17.9649L0 17.9649L0 0Z" transform="translate(32.935673 44.91228)" id="Path" fill="#FF4CF7" stroke="none" />
      <path d="M19.462 17.8279C9.79088 17.8279 0 14.744 0 8.84547C0 -2.94849 38.924 -2.94849 38.924 8.84547C38.924 14.744 29.1331 17.8279 19.462 17.8279ZM19.462 4.35425C9.58428 4.35425 4.49123 7.50409 4.49123 8.84547C4.49123 10.1869 9.58428 13.3367 19.462 13.3367C29.3397 13.3367 34.4327 10.1869 34.4327 8.84547C34.4327 7.50409 29.3397 4.35425 19.462 4.35425Z" transform="translate(32.935673 36.066807)" id="Shape" fill="#FF4CF7" stroke="none" />
      <path d="M19.462 8.98246C9.79088 8.98246 0 5.89848 0 0L4.49123 0C4.49123 1.34138 9.58428 4.49123 19.462 4.49123C29.3397 4.49123 34.4327 1.34138 34.4327 0L38.924 0C38.924 5.89848 29.1331 8.98246 19.462 8.98246Z" transform="translate(32.935673 62.877193)" id="Path" fill="#FF4CF7" stroke="none" />
      <path d="M19.462 8.98246C9.79088 8.98246 0 5.89848 0 0L4.49123 0C4.49123 1.34138 9.58428 4.49123 19.462 4.49123C29.3397 4.49123 34.4327 1.34138 34.4327 0L38.924 0C38.924 5.89848 29.1331 8.98246 19.462 8.98246Z" transform="translate(32.935673 53.894737)" id="Path" fill="#FF4CF7" stroke="none" />
      <path d="M0 0L4.49123 0L4.49123 17.9649L0 17.9649L0 0Z" transform="translate(67.36842 44.91228)" id="Path" fill="#FF4CF7" stroke="none" />
      <path d="M12.0335 17.2014C8.53633 11.1053 4.26367 6.37155 0 3.87144L2.27256 0C7.19794 2.88936 12.0485 8.20398 15.9289 14.9678L12.0335 17.2014Z" transform="translate(31.797895 13.785076)" id="Path" fill="#6F55FF" stroke="none" />
      <path d="M27.6959 58.0746L17.2164 58.0746C5.3236 58.0746 0 47.9214 0 37.864C0 23.8873 9.26391 6.1949 19.8243 0L22.0968 3.87144C12.8808 9.27588 4.49123 25.4802 4.49123 37.864C4.49123 45.1159 7.82372 53.5833 17.2164 53.5833L27.6959 53.5833L27.6959 58.0746Z" transform="translate(0 13.785076)" id="Path" fill="#6F55FF" stroke="none" />
    </g>
  </g>
</svg>