<?xml version="1.0" encoding="utf-8"?>
<svg width="60px" height="76px" viewBox="0 0 60 76" version="1.1" xmlns:xlink="http://www.w3.org/1999/xlink" xmlns="http://www.w3.org/2000/svg">
  <g id="pin">
    <path d="M43.8683 42.3843C47.8625 37.5725 50.2746 31.4439 50.3219 24.7629C50.3896 15.2436 45.5965 6.7607 38.24 1.58984C35.2819 0.567256 32.1065 0.00577997 28.8021 4.48459e-05C12.9001 -0.0274841 0 12.6226 0 28.2321C0 35.0593 2.46812 41.3199 6.57502 46.2022L6.55809 46.2022L23.6795 67.7419C23.7899 67.6393 23.8945 67.528 23.9914 67.4059L43.8707 42.3843L43.8683 42.3843Z" transform="translate(8.709678 5.806452)" id="Path" fill="#A3E5FF" stroke="none" />
    <path d="M1.45161 2.90323C1.0683 2.90323 0.695187 2.74786 0.425277 2.47795C0.153667 2.20804 0 1.83323 0 1.45161C0 1.07 0.153667 0.695187 0.425277 0.424143C0.695187 0.153667 1.0683 0 1.45161 0C1.83323 0 2.20804 0.153667 2.47795 0.424143C2.74786 0.695187 2.90323 1.0683 2.90323 1.45161C2.90323 1.83323 2.74786 2.20804 2.47795 2.47795C2.20804 2.74786 1.83323 2.90323 1.45161 2.90323Z" transform="translate(17.419355 60)" id="Path" fill="#000000" stroke="none" />
    <path d="M29.9999 75.4839C28.5957 75.4839 27.2951 74.8533 26.4314 73.7527L20.7322 66.4947C20.2282 65.8526 20.3435 64.926 20.9888 64.4249C21.6347 63.9245 22.5663 64.0379 23.0703 64.6801L28.7695 71.9387C29.0672 72.3176 29.5156 72.5353 29.9993 72.5353C30.4836 72.5353 30.932 72.3176 31.2298 71.9381L50.9053 46.867C50.9244 46.8405 50.9447 46.814 50.9656 46.7887C54.8915 42.0001 56.9898 36.1997 57.0332 30.0151C57.0836 22.8366 54.2931 16.0566 49.1761 10.9242C44.0602 5.79409 37.2673 2.96126 30.0492 2.94859C30.0329 2.94859 30.0161 2.94859 29.9999 2.94859C22.787 2.94859 16.0068 5.7365 10.9014 10.8032C5.78437 15.8809 2.96604 22.6356 2.96604 29.8234C2.96604 36.0569 5.16161 42.132 9.14839 46.9286C9.19937 46.9903 9.24514 47.0553 9.28453 47.1233L16.2825 56.0353C16.7865 56.6774 16.6718 57.6034 16.0259 58.1045C15.3806 58.6055 14.4485 58.4915 13.9445 57.8499L6.81901 48.775C6.78598 48.7329 6.75586 48.6897 6.72805 48.6448C2.3879 43.346 0 36.6708 0 29.8234C0 21.8472 3.12709 14.3513 8.80602 8.71619C14.4711 3.09429 21.9962 0 29.9993 0L30.0544 0C38.0679 0.0143974 45.607 3.15649 51.2824 8.84865C56.9596 14.542 60.0554 22.0666 59.9992 30.0359C59.9517 36.7785 57.5766 43.3667 53.3094 48.5976C53.3019 48.6074 53.2944 48.6172 53.2868 48.6269L33.5684 73.7522C32.7047 74.8527 31.4042 75.4839 29.9999 75.4839Z" id="Path" fill="#000000" stroke="none" />
    <path d="M35.8064 17.4194C35.8064 27.0397 27.7908 34.8387 17.9032 34.8387C8.01566 34.8387 0 27.0397 0 17.4194C0 7.79902 8.01566 0 17.9032 0C27.7908 0 35.8064 7.79902 35.8064 17.4194Z" transform="translate(11.612904 12.580646)" id="Path" fill="#FFFFFF" stroke="none" />
    <path d="M1.47692 2.90323C1.10978 2.90323 0.743196 2.76228 0.46408 2.4815L0.417839 2.4347C-0.13928 1.87759 -0.13928 0.97452 0.417839 0.417413C0.974957 -0.139138 1.87805 -0.139138 2.43517 0.417413L2.48976 0.472566C3.0441 1.0319 3.04075 1.93497 2.48141 2.4893C2.2034 2.76506 1.84016 2.90323 1.47692 2.90323Z" transform="translate(40.64516 16.451612)" id="Path" fill="#000000" stroke="none" />
    <path d="M19.3516 38.7097C14.3938 38.7097 9.4361 36.8233 5.66166 33.0495C-1.88722 25.5018 -1.88722 13.2206 5.66166 5.67293C11.5095 -0.173376 20.4272 -1.66418 27.8534 1.96424C28.5922 2.32545 28.8988 3.21714 28.5375 3.95585C28.1762 4.69457 27.2844 5.0011 26.5456 4.63989C20.2626 1.56987 12.716 2.8315 7.76762 7.77913C1.38051 14.1658 1.38051 24.5572 7.76762 30.9433C10.9609 34.1361 15.1571 35.7327 19.3516 35.7333C23.5478 35.7339 27.7417 34.1372 30.9361 30.9433C36.0439 25.8363 37.2162 18.1153 33.8536 11.7315C33.4702 11.0039 33.7495 10.1029 34.4772 9.71956C35.205 9.33624 36.1056 9.61602 36.489 10.3437C38.3739 13.9221 39.0935 18.1077 38.5146 22.1305C37.916 26.2923 36.0236 30.0679 33.0421 33.0495C29.2676 36.8233 24.3093 38.7097 19.3516 38.7097L19.3516 38.7097Z" transform="translate(10.645162 10.645162)" id="Path" fill="#000000" stroke="none" />
  </g>
</svg>