<?xml version="1.0" encoding="utf-8"?>
<svg width="75px" height="68px" viewBox="0 0 75 68" version="1.1" xmlns:xlink="http://www.w3.org/1999/xlink" xmlns="http://www.w3.org/2000/svg">
  <g id="mail">
    <path d="M71.2025 6.14931L71.2025 47.9646C71.2025 51.3589 68.4528 54.1139 65.0644 54.1139L6.13815 54.1139C2.75004 54.1139 0 51.3592 0 47.9646L0 6.14931C0 2.75335 2.74836 0 6.13815 0L65.0644 0C68.4542 0 71.2025 2.75335 71.2025 6.14931Z" transform="translate(2.8476562 11.392395)" id="Path" fill="#FFEC8F" stroke="none" />
    <path d="M41.9589 2.33504L69.3038 29.0171C68.1649 30.1284 66.5918 30.8161 64.8551 30.8161L4.44868 30.8161C2.712 30.8161 1.13891 30.1284 0 29.0171C0 29.0171 19.5066 8.53087 27.3449 2.33504C35.1832 -3.86079 31.3531 4.23378 31.3531 4.23378C33.4359 5.22075 35.8679 5.22075 37.9507 4.23378L41.9589 2.33504Z" transform="translate(2.8476562 35.63965)" id="Path" fill="#FFE773" stroke="none" />
    <path d="M71.2025 6.35859L71.2025 10.2809C71.2025 12.1498 69.5583 13.5382 67.7868 13.1933C51.0986 9.9434 34.2645 12.5065 19.3757 20.5497C18.5731 20.9832 17.6203 20.9991 16.8061 20.5894L0 12.1338L0 6.35859C0 2.8469 2.7482 0 6.13815 0L65.0644 0C68.4543 0 71.2025 2.84674 71.2025 6.35859L71.2025 6.35859Z" transform="translate(2.8476562 11.392395)" id="Path" fill="#FFF0A6" stroke="none" />
    <path d="M28.481 0L28.481 5.08093L3.46131 17.0886L0 13.6685L28.481 0Z" transform="translate(45.570312 22.78479)" id="Path" fill="#FFE773" stroke="none" />
    <path d="M21.8354 3.37852C17.4794 5.38137 19.2695 4.55839 14.2358 6.87241C12.1408 7.83578 9.69462 7.83578 7.59968 6.87241C2.56693 4.55884 4.35823 5.38242 0 3.37852L3.56804 0L7.59968 1.85332C9.69462 2.81668 12.1408 2.81668 14.2358 1.85332L18.2674 0L21.8354 3.37852Z" transform="translate(26.582031 36.075928)" id="Path" fill="#FADA86" stroke="none" />
    <path d="M28.481 13.6685L25.0197 17.0886L0 5.08093L0 0L28.481 13.6685Z" transform="translate(0.94921875 22.78479)" id="Path" fill="#FFE773" stroke="none" />
    <path d="M74.9689 28.6791L74.9689 59.1273C74.9689 63.6917 71.2705 67.4051 66.7249 67.4051L8.24393 67.4051C3.69818 67.4051 0 63.6917 0 59.1273L0 17.898C0 13.3336 3.69818 9.62028 8.24393 9.62028L41.39 9.62028C42.1635 9.62028 42.7905 10.2498 42.7905 11.0264C42.7905 11.8031 42.1635 12.4326 41.39 12.4326L8.24393 12.4326C5.24253 12.4326 2.80083 14.8843 2.80083 17.898L2.80083 22.0672L34.8349 37.6877C36.5186 38.5088 38.4501 38.5088 40.134 37.6877L53.0508 31.3893C53.7464 31.0499 54.5844 31.3411 54.9223 32.0398C55.2601 32.7384 54.97 33.5797 54.2743 33.9189L41.3575 40.2174C38.8964 41.4176 36.0728 41.4178 33.6114 40.2174L2.80083 25.1936L2.80083 59.1273C2.80083 62.141 5.24253 64.5928 8.24393 64.5928L66.7249 64.5928C69.7263 64.5928 72.1681 62.141 72.1681 59.1273L72.1681 28.6791C72.1681 27.9025 72.795 27.273 73.5685 27.273C74.342 27.273 74.9689 27.9025 74.9689 28.6791ZM21.874 43.453L8.22588 57.157C7.34097 58.0455 7.97988 59.5575 9.21613 59.5575C9.57448 59.5575 9.93283 59.4201 10.2064 59.1456L23.8545 45.4416C24.4015 44.8924 24.4015 44.0021 23.8545 43.453C23.3076 42.9038 22.4208 42.9038 21.874 43.453L21.874 43.453ZM51.1145 43.453C50.5676 44.0021 50.5676 44.8924 51.1145 45.4416L64.7627 59.1456C65.036 59.4201 65.3946 59.5575 65.7529 59.5575C66.9888 59.5575 67.6282 58.0457 66.7432 57.157L53.095 43.453C52.5479 42.9038 51.6613 42.9038 51.1145 43.453L51.1145 43.453ZM46.1938 14.4621C46.1938 6.48768 52.655 0 60.5969 0C68.5388 0 75 6.48768 75 14.4621C75 22.4366 68.5388 28.9243 60.5969 28.9243C52.655 28.9243 46.1938 22.4366 46.1938 14.4621ZM48.9946 14.4621C48.9946 20.8859 54.1993 26.112 60.5969 26.112C66.9945 26.112 72.1992 20.8859 72.1992 14.4621C72.1992 8.03835 66.9945 2.81231 60.5969 2.81231C54.1993 2.81231 48.9946 8.03835 48.9946 14.4621ZM57.7612 19.731C58.308 20.28 59.1946 20.2802 59.7417 19.731L68.0546 11.3841C68.6015 10.8349 68.6015 9.94463 68.0546 9.39545C67.5076 8.84627 66.621 8.84627 66.0741 9.39545L58.7514 16.7481L56.3066 14.2932C55.7597 13.7441 54.8732 13.7442 54.3261 14.2932C53.7792 14.8424 53.7794 15.7327 54.3261 16.2819L57.7612 19.731Z" id="Shape" fill="#000000" stroke="none" />
  </g>
</svg>