<?xml version="1.0" encoding="utf-8"?>
<svg width="65px" height="54px" viewBox="0 0 65 54" version="1.1" xmlns:xlink="http://www.w3.org/1999/xlink" xmlns="http://www.w3.org/2000/svg">
  <g id="book-hand-drawn-open-pages">
    <path d="M63.8973 8.12689C63.9034 7.83297 63.822 7.59583 63.6854 7.41409C63.6039 7.2488 63.4844 7.09437 63.3118 6.96425C54.1731 0.0811367 41.1217 -3.55879 32.0146 4.96561C22.9069 -3.55879 9.85596 0.0811367 0.71725 6.96425C0.544692 7.09437 0.425909 7.2488 0.343643 7.41409C0.20747 7.59583 0.125338 7.83229 0.131358 8.12689C0.364377 19.6139 0.0172557 31.0996 0 42.5874C0 42.7882 0.041066 42.9612 0.111427 43.1095C-0.0805267 43.9372 0.513525 44.9228 1.4971 44.5331C11.1449 40.7148 22.0568 39.8699 30.8543 46.0248C31.0554 46.5084 31.504 46.858 32.0155 46.7379C32.5266 46.8573 32.9753 46.5077 33.1753 46.0248C41.9732 39.8699 52.8847 40.7147 62.5329 44.5331C63.5165 44.9226 64.1101 43.9371 63.9184 43.1095C63.9879 42.9612 64.0299 42.7882 64.0299 42.5874C64.0115 31.0996 63.6644 19.6139 63.8973 8.12689ZM32.0146 43.9393C23.2108 37.7794 12.1722 38.1545 2.36912 41.6687C2.40176 30.6409 2.71182 19.615 2.50262 8.5872C10.8646 2.47814 22.8684 -1.13244 31.0875 7.3796C31.3745 7.67678 31.7049 7.76656 32.0146 7.72472C32.324 7.7671 32.6545 7.67678 32.9419 7.3796C41.1599 -1.13244 53.1644 2.47747 61.5259 8.5872C61.3168 19.615 61.6278 30.6409 61.6598 41.6694C51.8568 38.1545 40.8176 37.7794 32.0146 43.9393Z" transform="translate(0.9701493 0)" id="Shape" fill="#000000" stroke="none" />
    <path d="M64.2061 3.09179C54.089 -0.782623 39.9336 -2.24279 32.5004 6.14102C25.0672 -2.24214 10.9114 -0.782623 0.794276 3.09179C-0.992307 3.77519 0.550208 6.08217 2.32028 5.40469C11.476 1.89832 25.1377 0.336935 31.1582 9.10848C31.4934 9.59692 32.0044 9.77089 32.5004 9.73818C32.9973 9.77089 33.5078 9.59692 33.8426 9.10848C39.8628 0.336291 53.5246 1.89844 62.6801 5.40469C64.4501 6.08282 65.9919 3.77519 64.2061 3.09179Z" transform="translate(0 43.839066)" id="Path" fill="#000000" stroke="none" />
    <path d="M0.719849 10.062C0.969241 10.5889 1.61039 10.9464 2.28278 10.542C4.01568 9.50155 5.8629 8.7433 7.89527 8.37044C8.56036 8.24862 8.78347 7.75112 8.69499 7.27665C8.71616 7.19351 8.73134 7.10457 8.73134 7.00715L8.73134 1.05122C8.73134 0.351988 8.12553 0.0161847 7.5387 0.0388231C7.43824 0.0148372 7.33297 -0.0011984 7.2128 0.000149125C4.87789 0.0370713 2.64431 0.603302 0.754016 1.89558C0.383287 2.14837 0.24618 2.5052 0.267352 2.84841C0.230264 2.9418 0.200623 3.04111 0.189818 3.15336C0.00846881 5.1357 0 7.12142 0 9.10915C1.03749e-15 9.6173 0.319479 9.93438 0.719849 10.062ZM2.4523 3.36546C3.68087 2.64723 5.00959 2.2586 6.45353 2.14164L6.45353 6.52029C4.99207 6.86687 3.59632 7.40952 2.28059 8.09029C2.28775 6.51368 2.31812 4.93856 2.4523 3.36546Z" transform="translate(5.8208957 8.767814)" id="Shape" fill="#000000" stroke="none" />
    <path d="M1.21239 2.87841C3.65435 1.90751 6.01164 2.17155 8.22533 3.72283C9.32461 4.49337 10.3218 2.49986 9.22735 1.73301C6.59011 -0.114964 3.6019 -0.503708 0.684209 0.656761C-0.519707 1.13519 -0.00285197 3.36201 1.21239 2.87841Z" transform="translate(17.462687 7.793612)" id="Path" fill="#000000" stroke="none" />
    <path d="M1.26299 2.38671C3.75323 1.82642 6.0826 2.22194 8.21914 3.71688C9.31127 4.48082 10.3206 2.61179 9.23704 1.85381C6.6467 0.0416433 3.72827 -0.369653 0.726556 0.306433C-0.546499 0.592943 -0.00579941 2.67308 1.26299 2.38671Z" transform="translate(17.462687 13.638821)" id="Path" fill="#000000" stroke="none" />
    <path d="M21.8068 2.14646C14.9136 -1.57249 6.81748 -0.131793 0.469119 3.96324C-0.629737 4.67209 0.402301 6.38976 1.51055 5.67431C7.23969 1.97925 14.4933 0.473504 20.7652 3.85753C21.9275 4.48468 22.9669 2.77196 21.8068 2.14646Z" transform="translate(4.850746 19.48403)" id="Path" fill="#000000" stroke="none" />
    <path d="M21.8068 2.14637C14.9135 -1.57247 6.81742 -0.131766 0.469034 3.96329C-0.629695 4.67227 0.402348 6.38983 1.5106 5.67424C7.23976 1.97916 14.4934 0.473281 20.7653 3.85732C21.9274 4.48461 22.9669 2.77213 21.8068 2.14637Z" transform="translate(4.850746 25.329239)" id="Path" fill="#000000" stroke="none" />
    <path d="M21.8068 2.1464C14.9136 -1.57246 6.81748 -0.131798 0.469119 3.96327C-0.629737 4.67223 0.402301 6.38974 1.51055 5.6743C7.23969 1.97933 14.4933 0.473486 20.7652 3.85743C21.9275 4.48444 22.9669 2.77227 21.8068 2.1464Z" transform="translate(4.850746 30.200245)" id="Path" fill="#000000" stroke="none" />
    <path d="M1.62007 4.47336C7.55357 0.636183 14.8817 1.54761 20.8875 4.74247C22.0487 5.36024 22.9245 3.58332 21.7736 2.97071C15.1193 -0.569661 6.95937 -1.35094 0.438398 2.86649C-0.659852 3.57615 0.520629 5.18415 1.62007 4.47336Z" transform="translate(35.895523 19.48403)" id="Path" fill="#000000" stroke="none" />
    <path d="M1.62004 4.47318C7.55361 0.635715 14.8818 1.5475 20.8877 4.74241C22.0488 5.36042 22.9247 3.58292 21.7732 2.97069C15.1181 -0.569598 6.95875 -1.35099 0.437701 2.86647C-0.659244 3.57587 0.520591 5.18396 1.62004 4.47318Z" transform="translate(35.895523 25.329239)" id="Path" fill="#000000" stroke="none" />
    <path d="M1.62007 4.47336C7.55357 0.636225 14.8817 1.54765 20.8875 4.74246C22.0487 5.36023 22.9245 3.58346 21.7736 2.97073C15.1193 -0.569604 6.95937 -1.351 0.438398 2.86651C-0.659852 3.57603 0.520629 5.18414 1.62007 4.47336Z" transform="translate(35.895523 10.716216)" id="Path" fill="#000000" stroke="none" />
    <path d="M0.438036 2.86644C-0.659445 3.57668 0.5204 5.18436 1.61986 4.47348C7.55348 0.6355 14.8817 1.54741 20.8877 4.74237C22.0488 5.36047 22.9247 3.5831 21.7732 2.97067C15.1192 -0.569597 6.95914 -1.35097 0.438036 2.86644Z" transform="translate(35.895523 14.613022)" id="Path" fill="#000000" stroke="none" />
    <path d="M21.7735 2.97032C15.1192 -0.569449 6.95848 -1.35111 0.437922 2.86673C-0.659555 3.57702 0.520944 5.1844 1.61974 4.4731C7.55334 0.636151 14.8824 1.54759 20.8875 4.74222C22.0485 5.36075 22.9246 3.58331 21.7735 2.97032Z" transform="translate(36.865673 30.200245)" id="Path" fill="#000000" stroke="none" />
  </g>
</svg>