<?xml version="1.0" encoding="utf-8"?>
<svg width="68px" height="67px" viewBox="0 0 68 67" version="1.1" xmlns:xlink="http://www.w3.org/1999/xlink" xmlns="http://www.w3.org/2000/svg">
  <g id="Icon">
    <path d="M67.1785 2.99068C67.0961 2.70347 66.9441 2.5043 66.7689 2.34265C66.4818 1.75993 65.8011 1.32189 65.1007 1.44349C65.129 0.628751 64.4283 -0.19392 63.4344 0.0406134C53.2183 2.44729 42.7303 4.92902 32.7178 8.09919C25.4471 10.4012 18.2017 12.941 11.0012 15.461C7.90147 16.5456 3.53505 17.4877 0.892697 19.6126C0.361859 20.0395 0.330676 20.6796 0.562581 21.2287C0.0514574 21.4781 -0.23708 22.195 0.251104 22.7878C3.61714 26.8745 8.60794 34.5163 14.5396 35.6554C13.8529 44.6796 13.169 54.5033 16.677 62.9786C17.0906 63.9777 18.1619 64.3562 19.0215 63.6017C19.3469 63.316 19.6347 63.001 19.9433 62.7022C22.3007 62.9183 25.1671 60.6823 26.9941 59.536C29.5414 57.9365 31.9834 56.167 34.3831 54.3543C35.4724 53.5312 37.0696 52.6158 38.0983 51.4991C40.8016 53.2765 43.6522 54.7566 46.796 55.4631C52.0836 56.6509 52.8001 54.6198 55.0578 50.22C59.1576 42.2307 61.8662 33.2037 64.733 24.6959C67.0449 17.8334 69.2402 10.1692 67.1785 2.99068ZM17.8834 48.5476C17.7548 50.295 17.3949 52.7291 17.4164 55.0636C16.3622 48.7583 16.7429 42.173 16.4633 35.7843C17.363 35.7417 18.2587 35.5634 19.1483 35.2946C18.6946 39.7093 18.2096 44.1235 17.8834 48.5476ZM2.42822 22.1972C13.5625 18.3137 24.6194 14.1812 35.8645 10.6145C42.9116 8.37918 51.3334 7.77084 58.5819 5.24293C56.3514 7.0041 54.2155 9.00304 51.7914 10.534C46.5361 13.8532 41.0482 16.7849 35.6351 19.8298C30.8909 22.4985 27.0148 26.4711 22.6036 29.6514C13.8686 35.9488 8.4194 27.9822 2.42822 22.1972ZM50.7326 17.4109C50.6885 17.0609 50.6459 16.7105 50.624 16.3577C50.5968 15.9099 50.6054 15.4556 50.6118 15.0028C52.1932 14.1343 53.751 13.2477 55.2277 12.2966C55.4689 12.1415 55.7453 11.9708 56.0363 11.7926C55.0299 12.8786 54.0105 13.9568 52.9678 15.0324C52.2101 15.8146 51.4782 16.6182 50.7326 17.4109ZM49.286 18.9502C48.9207 19.3442 48.5448 19.7288 48.182 20.125C47.9899 18.983 47.696 17.8478 47.4551 16.7058C47.9716 16.4334 48.4756 16.1527 48.9892 15.8785C48.9193 16.9527 48.9849 18.0236 49.286 18.9502ZM43.0855 25.8126C42.4654 26.5231 41.8252 27.2169 41.2127 27.9339C41.0496 27.6016 40.5424 27.4655 40.2535 27.7434C39.7721 25.5918 39.4123 23.4453 39.237 21.2049C39.9904 20.7492 40.775 20.3256 41.5492 19.8912C41.4521 22.0157 41.5313 25.6751 43.0855 25.8126ZM42.9496 22.3343C42.8177 21.2998 42.8052 20.257 42.7335 19.2193C43.8701 18.5987 45.0185 17.9918 46.1669 17.3874C46.2056 18.8213 46.4293 20.2794 46.9583 21.4871C45.9737 22.5753 44.9855 23.661 44.0149 24.7615C43.9249 24.6767 43.8131 24.615 43.6769 24.6075C43.1815 24.5786 42.9927 22.6738 42.9496 22.3343ZM39.2334 30.2702C38.0398 31.7055 36.8545 33.1485 35.6975 34.6152C35.69 34.6145 35.6832 34.6123 35.6753 34.6116C35.6014 34.2107 35.5043 33.8228 35.4527 33.4155C35.3161 32.3312 35.2821 31.2329 35.2448 30.1417C35.1817 28.307 35.1982 26.4697 35.1348 24.6349C35.1261 24.382 34.9688 24.2567 34.7896 24.1968C35.8487 23.3846 36.9721 22.6349 38.118 21.9078C38.1216 24.7218 38.4961 27.5601 39.2334 30.2702ZM33.8379 33.4155C33.8584 34.0058 34.1634 35.282 34.6588 35.9492C33.9559 36.8566 33.2308 37.7446 32.5436 38.6654C32.5494 37.0125 32.2884 35.2975 32.1522 33.7463C31.9594 31.5547 31.7648 29.3007 31.2375 27.1466C32.1809 26.3203 33.0877 25.5272 33.9315 24.8395C33.9888 24.7926 34.0526 24.7518 34.1104 24.7052C33.981 27.6088 33.7372 30.5069 33.8379 33.4155ZM29.0669 44.7828C29.1877 44.8719 29.3084 44.9679 29.4292 45.0581C29.0529 45.4027 28.716 45.7826 28.3962 46.177C27.6808 41.0024 28.0159 35.8867 27.583 30.7104C27.5711 30.57 27.507 30.4737 27.4328 30.3936C28.3941 29.616 29.3185 28.8186 30.2171 28.036C30.559 30.1811 30.6547 32.3803 30.7027 34.5329C30.749 36.6055 30.4063 38.8628 30.8956 40.8942C30.4483 41.5152 29.9698 42.1084 29.531 42.7369C29.5117 42.7647 29.512 42.7936 29.4955 42.8213C28.6604 42.8996 28.2041 44.1456 29.0669 44.7828ZM20.3089 58.1021C20.186 50.3196 21.0527 42.4508 20.7545 34.7C22.7499 33.8358 24.6918 32.5315 26.5439 31.0961C26.5231 31.3144 26.5037 31.5349 26.4833 31.7546C26.4489 32.0032 26.432 32.0158 26.4191 32.4521C26.0084 37.1308 25.789 42.082 26.7718 46.6287C26.8804 47.1306 27.2661 47.2865 27.6356 47.2179C26.9202 48.2705 26.2861 49.3955 25.6116 50.4852C25.3334 50.934 25.0349 51.3692 24.7517 51.8159C25.0051 49.2735 24.6757 46.4573 24.704 44.0882C24.7456 40.6333 24.3338 37.1348 24.309 33.7478C24.3069 33.427 23.8366 33.4321 23.8183 33.7478C23.6208 37.1406 23.0327 40.6247 22.9 44.0882C22.7814 47.192 21.9473 51.1693 22.8384 54.198C22.8746 54.3207 22.956 54.3903 23.0287 54.4712C22.1703 55.7196 21.2738 56.9392 20.3089 58.1021ZM33.7853 51.2213C31.8028 52.806 29.7755 54.3373 27.7242 55.8304C26.3629 56.8212 24.9574 57.7406 23.5298 58.626C24.4886 57.3599 25.403 56.0552 26.2919 54.7158C27.9697 52.1872 30.2042 49.3973 31.325 46.4977C32.7135 47.5719 34.1164 48.6659 35.5477 49.7184C34.9326 50.2106 34.3527 50.7673 33.7853 51.2213ZM56.6317 37.9492C54.284 44.0413 53.6012 53.8386 45.8006 52.1399C40.8041 51.0517 36.1043 46.9112 31.706 43.9734C42.393 30.8861 54.1187 18.747 64.8444 5.77767C66.4567 16.2555 60.2393 28.5877 56.6317 37.9492Z" id="Shape" fill="#000000" stroke="none" />
    <path d="M2.69387 5.24647C2.16091 3.81047 1.81573 2.31705 1.64625 0.793733C1.53054 -0.244622 0.0777484 -0.284347 0.0169717 0.793733C-0.0679597 2.3084 0.175147 3.73613 0.539027 5.20438C0.897064 6.64786 1.30029 8.35918 2.17766 9.56744C2.67361 10.2498 4.12874 10.1539 3.99083 9.07147C3.81824 7.71178 3.16917 6.52789 2.69387 5.24647Z" transform="translate(3 47)" id="Path" fill="#000000" stroke="none" />
    <path d="M3.8983 9.61292C3.26666 8.37227 2.46804 7.38343 2.01177 6.01737C1.46017 4.36473 1.45478 2.59237 1.7009 0.875524C1.82861 -0.0133308 0.754188 -0.371147 0.481687 0.500653C-0.540869 3.76848 -0.00815678 8.80399 2.78281 10.8569C3.4873 11.3752 4.28652 10.3754 3.8983 9.61292Z" transform="translate(0 46)" id="Path" fill="#000000" stroke="none" />
    <path d="M7.93904 0.577668C7.77105 0.073814 7.04313 -0.145734 6.4918 0.102561C5.84493 0.393816 5.7067 0.806692 5.3723 1.31149C5.05317 1.79387 4.63145 2.21274 4.16705 2.60761C3.14193 3.47949 1.79532 4.04873 0.46673 4.56048C-0.503578 4.93356 0.185583 6.24452 1.19818 5.9599C2.77424 5.51638 4.19016 4.89628 5.48194 4.04147C6.58734 3.30922 8.35018 1.8144 7.93904 0.577668Z" transform="translate(28 59)" id="Path" fill="#000000" stroke="none" />
    <path d="M6.03815 0.348227C5.10285 1.23821 4.33687 2.4216 3.41429 3.3601C2.39686 4.39522 1.19558 5.29068 0.250465 6.397C-0.440293 7.20562 0.423427 8.37023 1.31767 7.88592C2.62215 7.17941 3.81363 5.99485 4.93788 5.00041C5.90189 4.14798 7.30121 3.09525 7.86188 1.86375C8.44726 0.579427 7.04467 -0.61022 6.03815 0.348227Z" transform="translate(33 59)" id="Path" fill="#000000" stroke="none" />
  </g>
</svg>