<?xml version="1.0" encoding="utf-8"?>
<svg width="75px" height="54px" viewBox="0 0 75 54" version="1.1" xmlns:xlink="http://www.w3.org/1999/xlink" xmlns="http://www.w3.org/2000/svg">
  <g id="Icon" opacity="0.104622975">
    <g id="right-quote" transform="matrix(-0.9986295 -0.05233605 0.05233605 -0.9986295 72.419975 53.65608)">
      <path d="M16.2956 0C7.31022 0 0 7.04475 0 15.7038C0 19.8446 1.65781 23.7517 4.66788 26.7056C7.67131 29.6528 11.683 31.3212 15.9647 31.4036L16.0891 31.4066C17.5902 31.4502 18.8357 30.3033 18.8748 28.8583C18.9139 27.4133 17.7299 26.2114 16.2305 26.1737L16.0801 26.1701C10.2087 26.0607 5.43188 21.3652 5.43188 15.7038C5.43188 9.93111 10.3054 5.23462 16.2956 5.23462C22.2859 5.23462 27.1594 9.93111 27.1594 15.7038C27.1594 22.9143 25.3799 29.5677 21.87 35.4796C19.2468 39.8982 16.5792 42.2322 16.5293 42.2754C15.4106 43.2324 15.3055 44.8824 16.296 45.9642C16.8328 46.5504 17.5815 46.8499 18.3337 46.8499C18.9721 46.8498 19.6132 46.6341 20.1295 46.1951C20.2608 46.0833 23.3812 43.4012 26.453 38.2993C29.2534 33.6484 32.5913 25.9527 32.5913 15.7038C32.5913 7.04462 25.281 0 16.2956 0Z" transform="translate(38.6164 0.16231778)" id="Path" fill="#000000" stroke="none" />
      <path d="M16.2956 0C7.31022 0 0 7.04463 0 15.7039C0 19.8446 1.65781 23.7517 4.66788 26.7059C7.67131 29.6531 11.683 31.3214 15.9647 31.404L16.0891 31.407C17.5869 31.4506 18.8358 30.3037 18.8748 28.8587C18.9139 27.4136 17.7299 26.2118 16.2305 26.1741L16.0801 26.1704C10.2087 26.0607 5.43188 21.3653 5.43188 15.7039C5.43188 9.93114 10.3054 5.23463 16.2956 5.23463C22.2859 5.23463 27.1594 9.93114 27.1594 15.7039C27.1594 22.9143 25.3799 29.5678 21.87 35.4795C19.2468 39.8982 16.5792 42.2322 16.5293 42.2754C15.4105 43.2326 15.3055 44.8824 16.296 45.9642C16.8328 46.5505 17.5815 46.8499 18.3337 46.8499C18.9721 46.8499 19.6132 46.6343 20.1296 46.1952C20.2608 46.0835 23.3814 43.4014 26.4531 38.2994C29.2534 33.6485 32.5913 25.9529 32.5913 15.7039C32.5913 7.04463 25.281 0 16.2956 0Z" transform="translate(0.0022834388 2.1489933)" id="Path" fill="#000000" stroke="none" />
    </g>
  </g>
</svg>