<?xml version="1.0" encoding="utf-8"?>
<svg width="67px" height="67px" viewBox="0 0 67 67" version="1.1" xmlns:xlink="http://www.w3.org/1999/xlink" xmlns="http://www.w3.org/2000/svg">
  <defs>
    <path d="M17.2334 11.6571L35.3429 29.7666Q35.5407 29.9645 35.7243 30.1757Q35.9079 30.3869 36.0762 30.6105Q36.2446 30.834 36.3969 31.0687Q36.5492 31.3035 36.6848 31.5483Q36.8203 31.7931 36.9384 32.0468Q37.0565 32.3005 37.1566 32.5619Q37.2567 32.8232 37.3383 33.0909Q37.4199 33.3586 37.4825 33.6313Q37.5452 33.904 37.5887 34.1805Q37.6321 34.4569 37.6562 34.7357Q37.6802 35.0146 37.6847 35.2944Q37.6892 35.5742 37.6741 35.8536Q37.659 36.133 37.6245 36.4107Q37.5899 36.6884 37.536 36.963Q37.4821 37.2376 37.4092 37.5078Q37.3362 37.778 37.2446 38.0424Q37.1529 38.3068 37.043 38.5642Q36.9331 38.8215 36.8055 39.0706Q36.6779 39.3196 36.5332 39.5591Q36.3885 39.7987 36.2274 40.0275Q36.0663 40.2563 35.8896 40.4733Q35.7129 40.6903 35.5215 40.8944Q35.3301 41.0986 35.1248 41.2888Q34.9196 41.4791 34.7016 41.6545Q34.4836 41.83 34.2538 41.9897Q34.0241 42.1495 33.7838 42.2929Q33.5434 42.4362 33.2936 42.5624Q33.0438 42.6886 32.7859 42.797Q32.5279 42.9054 32.263 42.9955Q31.998 43.0857 31.7274 43.1571Q31.4569 43.2284 31.1819 43.2808Q30.907 43.3331 30.6291 43.366L10.0819 45.8038Q9.85754 45.8305 9.63206 45.8444Q9.40658 45.8583 9.18068 45.8595Q8.95478 45.8606 8.72917 45.849Q8.50357 45.8374 8.27897 45.8131Q8.05438 45.7888 7.83152 45.7519Q7.60865 45.715 7.38823 45.6655Q7.1678 45.6161 6.95052 45.5542Q6.73324 45.4924 6.5198 45.4184Q6.30635 45.3444 6.09742 45.2585Q5.88849 45.1726 5.68474 45.0751Q5.48099 44.9775 5.28307 44.8686Q5.08515 44.7597 4.8937 44.6398Q4.70224 44.5199 4.51786 44.3893Q4.33348 44.2588 4.15675 44.1181Q3.98003 43.9774 3.81153 43.8269Q3.64303 43.6764 3.4833 43.5167Q3.32356 43.357 3.17309 43.1885Q3.02262 43.02 2.8819 42.8432Q2.74118 42.6665 2.61066 42.4821Q2.48014 42.2978 2.36023 42.1063Q2.24033 41.9148 2.13142 41.7169Q2.02251 41.519 1.92494 41.3153Q1.82737 41.1115 1.74146 40.9026Q1.65555 40.6937 1.58157 40.4802Q1.50759 40.2668 1.44577 40.0495Q1.38395 39.8322 1.33449 39.6118Q1.28503 39.3913 1.2481 39.1685Q1.21116 38.9456 1.18686 38.721Q1.16256 38.4964 1.15097 38.2708Q1.13938 38.0452 1.14055 37.8193Q1.14171 37.5934 1.15563 37.3679Q1.16954 37.1425 1.19615 36.9181L3.63397 16.3709Q3.66694 16.093 3.71925 15.8181Q3.77156 15.5431 3.84295 15.2726Q3.91434 15.002 4.00447 14.7371Q4.0946 14.4721 4.20302 14.2141Q4.31145 13.9561 4.43763 13.7064Q4.56382 13.4566 4.70715 13.2162Q4.85048 12.9759 5.01026 12.7462Q5.17004 12.5164 5.34549 12.2984Q5.52093 12.0804 5.71118 11.8752Q5.90143 11.6699 6.10556 11.4785Q6.30968 11.2871 6.52669 11.1104Q6.74369 10.9337 6.97252 10.7726Q7.20134 10.6115 7.44086 10.4668Q7.68038 10.3221 7.92943 10.1945Q8.17848 10.0669 8.43584 9.95695Q8.6932 9.84705 8.95761 9.75541Q9.22202 9.66376 9.49218 9.59081Q9.76235 9.51787 10.037 9.46398Q10.3116 9.41009 10.5893 9.37553Q10.867 9.34096 11.1464 9.32589Q11.4258 9.31082 11.7056 9.31531Q11.9854 9.3198 12.2643 9.34383Q12.5431 9.36787 12.8195 9.41133Q13.096 9.45479 13.3687 9.51746Q13.6414 9.58013 13.9091 9.66171Q14.1768 9.74329 14.4381 9.84338Q14.6995 9.94346 14.9532 10.0616Q15.2069 10.1797 15.4517 10.3152Q15.6965 10.4508 15.9313 10.6031Q16.166 10.7554 16.3895 10.9238Q16.6131 11.0921 16.8243 11.2757Q17.0355 11.4593 17.2334 11.6571Z" transform="matrix(-0.70710677 -0.70710677 0.70710677 -0.70710677 33.234016 66.46826)" id="path_1" />
    <clipPath id="clip_1">
      <use xlink:href="#path_1" />
    </clipPath>
  </defs>
  <g id="Rectangle">
    <g clip-path="url(#clip_1)">
      <use xlink:href="#path_1" fill="none" stroke="#000000" stroke-width="4" />
    </g>
  </g>
</svg>