<svg width="30" height="30" viewBox="0 0 30 30" fill="none" xmlns="http://www.w3.org/2000/svg">
<path d="M22.5 26.25C24.5711 26.25 26.25 24.5711 26.25 22.5C26.25 20.4289 24.5711 18.75 22.5 18.75C20.4289 18.75 18.75 20.4289 18.75 22.5C18.75 24.5711 20.4289 26.25 22.5 26.25Z" stroke="black" stroke-width="2" stroke-linecap="round" stroke-linejoin="round"/>
<path d="M7.5 11.25C9.57107 11.25 11.25 9.57107 11.25 7.5C11.25 5.42893 9.57107 3.75 7.5 3.75C5.42893 3.75 3.75 5.42893 3.75 7.5C3.75 9.57107 5.42893 11.25 7.5 11.25Z" stroke="black" stroke-width="2" stroke-linecap="round" stroke-linejoin="round"/>
<path d="M16.25 7.5H20C20.663 7.5 21.2989 7.76339 21.7678 8.23223C22.2366 8.70107 22.5 9.33696 22.5 10V18.75" stroke="black" stroke-width="2" stroke-linecap="round" stroke-linejoin="round"/>
<path d="M7.5 11.25V26.25" stroke="black" stroke-width="2" stroke-linecap="round" stroke-linejoin="round"/>
</svg>
