<svg width="25" height="24" viewBox="0 0 25 24" fill="none" xmlns="http://www.w3.org/2000/svg">
<path fill-rule="evenodd" clip-rule="evenodd" d="M19.2273 23.922C18.9601 23.9232 18.6966 23.8592 18.4597 23.7356L12.977 20.8737C12.6577 20.706 12.2765 20.706 11.9572 20.8737L10.7072 21.5316C10.1736 21.7962 9.52635 21.5864 9.24933 21.0592C8.97231 20.532 9.16678 19.88 9.68738 19.5907L10.9374 18.9328C11.8952 18.4297 13.039 18.4297 13.9968 18.9328L18.4487 21.2794L17.5934 16.323C17.4117 15.2583 17.7641 14.1722 18.5364 13.4172L22.1441 9.90826L17.1658 9.18455C16.0941 9.02951 15.1673 8.357 14.6876 7.38622L12.4945 2.87945L10.3014 7.38622C9.8217 8.357 8.89495 9.02951 7.82326 9.18455L2.84497 9.90826L6.45259 13.4172C7.22841 14.1746 7.58117 15.2657 7.39561 16.334L6.3539 22.3869C6.2873 22.7786 6.01676 23.1051 5.64419 23.2433C5.27162 23.3815 4.85362 23.3104 4.54765 23.0569C4.24168 22.8033 4.09422 22.4058 4.16082 22.0141L5.20253 15.9612C5.26473 15.6033 5.14564 15.2378 4.88454 14.9852L0.49838 10.6978C0.0491359 10.2611 -0.112999 9.60707 0.0802289 9.01109C0.273457 8.41511 0.788487 7.98066 1.40851 7.89063L7.48333 7.00243C7.83996 6.94887 8.14746 6.72337 8.30574 6.39934L11.0252 0.916641C11.3023 0.355336 11.874 0 12.5 0C13.126 0 13.6977 0.355336 13.9748 0.916641L16.6943 6.39934C16.8525 6.72337 17.16 6.94887 17.5167 7.00243L23.5915 7.89063C24.2115 7.98066 24.7265 8.41511 24.9198 9.01109C25.113 9.60707 24.9509 10.2611 24.5016 10.6978L20.1155 14.9852C19.8579 15.2354 19.7391 15.5959 19.7975 15.9502L20.8392 22.0031C20.9235 22.4823 20.7913 22.9743 20.4781 23.3468C20.165 23.7192 19.7029 23.9339 19.2163 23.933L19.2273 23.922Z" fill="black"/>
</svg>
