<svg width="16" height="16" viewBox="0 0 16 16" fill="none" xmlns="http://www.w3.org/2000/svg">
<g clip-path="url(#clip0)">
<path d="M15.3328 0.672852C15.0617 0.397999 14.7242 0.197935 14.3529 0.0920997C13.9817 -0.013736 13.5894 -0.0217444 13.2141 0.0688524L3.02212 2.21085C2.37273 2.30695 1.76282 2.58159 1.26042 3.00413C0.758028 3.42667 0.382918 3.98049 0.176946 4.6038C-0.0290264 5.22711 -0.05776 5.89539 0.0939511 6.53408C0.245662 7.17277 0.571851 7.75675 1.03612 8.22085L2.12879 9.31419C2.15411 9.33917 2.17417 9.36898 2.18779 9.40183C2.20142 9.43469 2.20833 9.46995 2.20812 9.50552V11.5215C2.20883 12.1239 2.44843 12.7014 2.87436 13.1273C3.30028 13.5532 3.87777 13.7928 4.48012 13.7935H6.49612C6.5681 13.7935 6.63714 13.822 6.68812 13.8729L7.78079 14.9655C8.10791 15.2948 8.49687 15.5562 8.92533 15.7347C9.3538 15.9132 9.81331 16.0052 10.2775 16.0055C10.6644 16.0052 11.0488 15.9419 11.4155 15.8182C12.0359 15.6121 12.5867 15.2375 13.0062 14.7361C13.4257 14.2348 13.6974 13.6265 13.7908 12.9795L15.9328 2.81952C16.0274 2.44039 16.0218 2.04318 15.9166 1.66686C15.8114 1.29053 15.6102 0.947999 15.3328 0.672852ZM2.07879 5.22352C2.16753 4.94933 2.33266 4.70614 2.55478 4.52252C2.7769 4.33889 3.0468 4.22245 3.33279 4.18685C3.35634 4.18374 3.37968 4.17974 3.40279 4.17485L12.2841 2.30819L4.20812 10.3795V9.50552C4.20884 9.20702 4.15028 8.91135 4.03584 8.63566C3.9214 8.35998 3.75336 8.10975 3.54146 7.89952L2.45012 6.80685C2.24422 6.60547 2.09994 6.3496 2.03418 6.06919C1.96841 5.78879 1.98389 5.49545 2.07879 5.22352ZM11.8268 12.6022C11.8215 12.6255 11.8181 12.6489 11.8148 12.6722C11.7758 12.9568 11.6581 13.2249 11.4749 13.4463C11.2918 13.6677 11.0505 13.8336 10.7782 13.9252C10.5059 14.0169 10.2134 14.0307 9.93364 13.9652C9.6539 13.8996 9.39801 13.7573 9.19479 13.5542L8.10279 12.4622C7.89245 12.2502 7.64212 12.0822 7.36631 11.9677C7.09051 11.8533 6.79473 11.7947 6.49612 11.7955H5.62212L13.6961 3.71952L11.8268 12.6022Z" fill="black"/>
</g>
<defs>
<clipPath id="clip0">
<rect width="16" height="16" fill="white"/>
</clipPath>
</defs>
</svg>
