<svg width="27" height="34" viewBox="0 0 27 34" fill="none" xmlns="http://www.w3.org/2000/svg">
<g clip-path="url(#clip0)">
<g clip-path="url(#clip1)">
<path d="M21.0002 20.75V13.8328C21.0041 12.8361 20.8102 11.8486 20.4297 10.9273C20.0492 10.0061 19.4896 9.16958 18.7835 8.46616L17.5293 7.21666C16.8259 6.51052 15.9894 5.95099 15.0681 5.57049C14.1469 5.18999 13.1594 4.99608 12.1627 5H8.75016C7.04893 5.00185 5.4179 5.67848 4.21494 6.88144C3.01198 8.0844 2.33535 9.71543 2.3335 11.4167V20.75C2.33535 22.4512 3.01198 24.0823 4.21494 25.2852C5.4179 26.4882 7.04893 27.1648 8.75016 27.1667H14.5835C16.2847 27.1648 17.9158 26.4882 19.1187 25.2852C20.3217 24.0823 20.9983 22.4512 21.0002 20.75ZM5.8335 20.75V11.4167C5.8335 10.6431 6.14079 9.90125 6.68777 9.35427C7.23475 8.80729 7.97661 8.5 8.75016 8.5H12.1673C12.3908 8.50351 12.6136 8.52536 12.8335 8.56533V10.8333C12.8335 11.4522 13.0793 12.0457 13.5169 12.4832C13.9545 12.9208 14.548 13.1667 15.1668 13.1667H17.4348C17.4748 13.3866 17.4967 13.6094 17.5002 13.8328V20.75C17.5002 21.5235 17.1929 22.2654 16.6459 22.8124C16.0989 23.3594 15.357 23.6667 14.5835 23.6667H8.75016C7.97661 23.6667 7.23475 23.3594 6.68777 22.8124C6.14079 22.2654 5.8335 21.5235 5.8335 20.75ZM26.8335 14.9167V26.5833C26.8316 28.2846 26.155 29.9156 24.9521 31.1186C23.7491 32.3215 22.1181 32.9981 20.4168 33H11.0835C10.6194 33 10.1742 32.8156 9.84606 32.4874C9.51787 32.1592 9.3335 31.7141 9.3335 31.25C9.3335 30.7859 9.51787 30.3408 9.84606 30.0126C10.1742 29.6844 10.6194 29.5 11.0835 29.5H20.4168C21.1904 29.5 21.9322 29.1927 22.4792 28.6457C23.0262 28.0987 23.3335 27.3569 23.3335 26.5833V14.9167C23.3335 14.4525 23.5179 14.0074 23.8461 13.6792C24.1742 13.351 24.6194 13.1667 25.0835 13.1667C25.5476 13.1667 25.9927 13.351 26.3209 13.6792C26.6491 14.0074 26.8335 14.4525 26.8335 14.9167Z" fill="black"/>
</g>
</g>
<defs>
<clipPath id="clip0">
<rect width="27" height="34" fill="white"/>
</clipPath>
<clipPath id="clip1">
<rect width="28" height="28" fill="white" transform="translate(0 5)"/>
</clipPath>
</defs>
</svg>
