<svg width="28" height="28" viewBox="0 0 28 28" fill="none" xmlns="http://www.w3.org/2000/svg">
<g clip-path="url(#clip0)">
<path d="M5.83333 13.4166C5.83333 12.9525 6.01771 12.5074 6.3459 12.1792C6.67408 11.851 7.1192 11.6666 7.58333 11.6666H20.4167C20.8808 11.6666 21.3259 11.851 21.6541 12.1792C21.9823 12.5074 22.1667 12.9525 22.1667 13.4166C22.1667 13.8808 21.9823 14.3259 21.6541 14.6541C21.3259 14.9823 20.8808 15.1666 20.4167 15.1666H7.58333C7.1192 15.1666 6.67408 14.9823 6.3459 14.6541C6.01771 14.3259 5.83333 13.8808 5.83333 13.4166ZM7.58333 21H15.75C16.2141 21 16.6592 20.8156 16.9874 20.4874C17.3156 20.1592 17.5 19.7141 17.5 19.25C17.5 18.7858 17.3156 18.3407 16.9874 18.0125C16.6592 17.6843 16.2141 17.5 15.75 17.5H7.58333C7.1192 17.5 6.67408 17.6843 6.3459 18.0125C6.01771 18.3407 5.83333 18.7858 5.83333 19.25C5.83333 19.7141 6.01771 20.1592 6.3459 20.4874C6.67408 20.8156 7.1192 21 7.58333 21ZM28 7.58329V20.4166C27.9981 22.1179 27.3215 23.7489 26.1186 24.9518C24.9156 26.1548 23.2846 26.8314 21.5833 26.8333H6.41667C4.71543 26.8314 3.0844 26.1548 1.88144 24.9518C0.678488 23.7489 0.00185286 22.1179 0 20.4166L0 7.58329C0.00185286 5.88205 0.678488 4.25103 1.88144 3.04807C3.0844 1.84511 4.71543 1.16848 6.41667 1.16663H21.5833C23.2846 1.16848 24.9156 1.84511 26.1186 3.04807C27.3215 4.25103 27.9981 5.88205 28 7.58329ZM9.33333 5.24996C9.33333 5.59608 9.43597 5.93442 9.62826 6.22221C9.82055 6.50999 10.0939 6.73429 10.4136 6.86675C10.7334 6.9992 11.0853 7.03386 11.4247 6.96633C11.7642 6.89881 12.076 6.73214 12.3208 6.4874C12.5655 6.24265 12.7322 5.93083 12.7997 5.59137C12.8672 5.2519 12.8326 4.90003 12.7001 4.58026C12.5677 4.26049 12.3434 3.98718 12.0556 3.79489C11.7678 3.60259 11.4295 3.49996 11.0833 3.49996C10.6192 3.49996 10.1741 3.68433 9.8459 4.01252C9.51771 4.34071 9.33333 4.78583 9.33333 5.24996ZM3.5 5.24996C3.5 5.59608 3.60264 5.93442 3.79493 6.22221C3.98722 6.50999 4.26053 6.73429 4.5803 6.86675C4.90007 6.9992 5.25194 7.03386 5.59141 6.96633C5.93087 6.89881 6.24269 6.73214 6.48744 6.4874C6.73218 6.24265 6.89885 5.93083 6.96637 5.59137C7.0339 5.2519 6.99924 4.90003 6.86679 4.58026C6.73434 4.26049 6.51003 3.98718 6.22225 3.79489C5.93446 3.60259 5.59612 3.49996 5.25 3.49996C4.78587 3.49996 4.34075 3.68433 4.01256 4.01252C3.68437 4.34071 3.5 4.78583 3.5 5.24996ZM24.5 9.33329H3.5V20.4166C3.5 21.1902 3.80729 21.932 4.35427 22.479C4.90125 23.026 5.64312 23.3333 6.41667 23.3333H21.5833C22.3569 23.3333 23.0987 23.026 23.6457 22.479C24.1927 21.932 24.5 21.1902 24.5 20.4166V9.33329Z" fill="black"/>
</g>
<defs>
<clipPath id="clip0">
<rect width="28" height="28" fill="white"/>
</clipPath>
</defs>
</svg>
