<svg width="28" height="28" viewBox="0 0 28 28" fill="none" xmlns="http://www.w3.org/2000/svg">
<g clip-path="url(#clip0)">
<path d="M25.6947 2.65773C24.9668 2.0512 24.1136 1.6134 23.1963 1.37578C22.2791 1.13816 21.3207 1.10661 20.3898 1.28339L16.5597 2.08606C15.608 2.2563 14.722 2.68676 14 3.32973C13.2931 2.6915 12.4226 2.26251 11.4858 2.09073L7.56467 1.27406C6.64028 1.10597 5.69024 1.14292 4.78169 1.38233C3.87315 1.62173 3.02826 2.05773 2.30673 2.65952C1.5852 3.26132 1.00463 4.01423 0.606035 4.86505C0.207445 5.71587 0.000563194 6.64384 6.17734e-06 7.58339V19.0074C-0.00207397 20.5061 0.521254 21.9581 1.47896 23.1108C2.43667 24.2636 3.76816 25.0441 5.24184 25.3167L12.0167 26.6549C12.6687 26.7738 13.3302 26.8335 13.993 26.8334C14.6691 26.833 15.3439 26.7716 16.009 26.6502L22.7313 25.3167C24.2089 25.048 25.5455 24.2696 26.5082 23.1169C27.4709 21.9642 27.9988 20.5104 28 19.0086V7.58339C28.0009 6.64347 27.7949 5.71488 27.3964 4.86358C26.998 4.01228 26.417 3.25916 25.6947 2.65773ZM12.25 23.1339L5.89517 21.8786C5.22303 21.7564 4.61509 21.4022 4.17737 20.8777C3.73965 20.3532 3.49993 19.6917 3.50001 19.0086V7.58339C3.50215 6.81172 3.80917 6.07215 4.35418 5.52584C4.89918 4.97952 5.638 4.67073 6.40967 4.66673C6.57165 4.66641 6.73332 4.68086 6.89267 4.70989L10.8138 5.52656C11.2168 5.60001 11.5812 5.81245 11.8436 6.12688C12.106 6.44132 12.2498 6.83784 12.25 7.24739V23.1339ZM24.5 19.0086C24.4987 19.6958 24.2554 20.3607 23.8127 20.8864C23.37 21.4121 22.7562 21.765 22.0792 21.8832L15.75 23.1339V7.24739C15.7524 6.83017 15.9028 6.42733 16.1743 6.11053C16.4458 5.79372 16.8209 5.58349 17.2328 5.51723L21.0618 4.71573C21.482 4.63938 21.9138 4.65621 22.3267 4.76504C22.7396 4.87387 23.1236 5.07204 23.4515 5.34556C23.7794 5.61907 24.0433 5.96126 24.2245 6.34794C24.4057 6.73462 24.4997 7.15637 24.5 7.58339V19.0086Z" fill="black"/>
</g>
<defs>
<clipPath id="clip0">
<rect width="28" height="28" fill="white"/>
</clipPath>
</defs>
</svg>
