<svg width="24" height="32" viewBox="0 0 24 32" fill="none" xmlns="http://www.w3.org/2000/svg">
<path d="M7.90341 31.2499C3.58489 31.2235 0.0126953 21.8649 0.0126953 17.0988C0.0126953 9.31346 5.5142 7.60903 7.63444 7.60903C8.58994 7.60903 9.61022 8.00737 10.5101 8.35987C11.1394 8.60575 11.7903 8.85958 12.1522 8.85958C12.3689 8.85958 12.8794 8.64366 13.3302 8.4542C14.2916 8.04792 15.4878 7.54297 16.8808 7.54297C16.8833 7.54297 16.8867 7.54297 16.8891 7.54297C17.9293 7.54297 21.0831 7.78531 22.9792 10.8082L23.4234 11.5167L22.7841 12.0288C21.871 12.7602 20.2048 14.0945 20.2048 16.7376C20.2048 19.8679 22.0918 21.0718 22.9983 21.6508C23.3985 21.9064 23.8127 22.1699 23.8127 22.7463C23.8127 23.1226 20.9835 31.2032 16.875 31.2032C15.8697 31.2032 15.1591 30.8824 14.5323 30.5995C13.898 30.3131 13.3509 30.0663 12.4469 30.0663C11.9886 30.0663 11.4091 30.2963 10.7956 30.5405C9.95729 30.8726 9.00836 31.2499 7.93163 31.2499H7.90341Z" fill="#0E0E0E"/>
<path d="M16.8687 0C16.966 3.91332 14.4577 6.62821 11.9524 6.45794C11.5396 3.33497 14.4574 0 16.8687 0Z" fill="#0E0E0E"/>
</svg>
