<svg width="10" height="8" viewBox="0 0 10 8" fill="none" xmlns="http://www.w3.org/2000/svg">
<path d="M9 0H1C0.45 0 0.005 0.45 0.005 1L0 7C0 7.55 0.45 8 1 8H9C9.55 8 10 7.55 10 7V1C10 0.45 9.55 0 9 0ZM8.8 2.125L5.265 4.335C5.105 4.435 4.895 4.435 4.735 4.335L1.2 2.125C1.14986 2.09686 1.10596 2.05883 1.07094 2.01323C1.03593 1.96762 1.01053 1.91539 0.996288 1.85969C0.982044 1.80398 0.979251 1.74597 0.988078 1.68915C0.996905 1.63234 1.01717 1.57791 1.04764 1.52915C1.07811 1.48039 1.11816 1.43833 1.16536 1.4055C1.21256 1.37267 1.26594 1.34976 1.32225 1.33815C1.37856 1.32654 1.43664 1.32648 1.49298 1.33797C1.54931 1.34946 1.60273 1.37227 1.65 1.405V1.405C3.69945 2.68667 6.30055 2.68667 8.35 1.405V1.405C8.39727 1.37227 8.45069 1.34946 8.50702 1.33797C8.56336 1.32648 8.62144 1.32654 8.67775 1.33815C8.73406 1.34976 8.78744 1.37267 8.83464 1.4055C8.88184 1.43833 8.92189 1.48039 8.95236 1.52915C8.98283 1.57791 9.0031 1.63234 9.01192 1.68915C9.02075 1.74597 9.01796 1.80398 9.00371 1.85969C8.98947 1.91539 8.96407 1.96762 8.92906 2.01323C8.89404 2.05883 8.85014 2.09686 8.8 2.125Z" fill="white"/>
</svg>
