<svg width="12" height="12" viewBox="0 0 12 12" fill="none" xmlns="http://www.w3.org/2000/svg">
<path d="M12 6.14966C12 7.49006 11.6184 8.69546 10.8552 9.76586C10.0926 10.8363 9.1068 11.5767 7.8984 11.9877C7.758 12.0147 7.6548 11.9961 7.59 11.9319C7.55803 11.9008 7.53284 11.8634 7.51601 11.8221C7.49918 11.7808 7.49107 11.7364 7.4922 11.6919V10.0017C7.4922 9.48386 7.3566 9.10466 7.086 8.86466C7.35633 8.83753 7.62414 8.78938 7.887 8.72066C8.1234 8.65646 8.3682 8.55266 8.6208 8.40866C8.86365 8.27277 9.07847 8.09196 9.2538 7.87586C9.423 7.66466 9.561 7.38446 9.6678 7.03466C9.7746 6.68486 9.828 6.28346 9.828 5.82986C9.828 5.18366 9.6222 4.63346 9.2112 4.17986C9.4032 3.69386 9.3828 3.14966 9.1482 2.54606C9.0024 2.49806 8.7918 2.52806 8.5158 2.63426C8.26545 2.72831 8.02473 2.84625 7.797 2.98646L7.5 3.17846C7.01218 3.03938 6.50725 2.9695 6 2.97086C5.49272 2.9697 4.98779 3.03978 4.5 3.17906C4.39149 3.10391 4.28084 3.03188 4.1682 2.96306C4.0302 2.87726 3.8124 2.77466 3.5154 2.65466C3.219 2.53466 2.9946 2.49866 2.8434 2.54666C2.6148 3.14966 2.5962 3.69386 2.7894 4.17986C2.3778 4.63346 2.1714 5.18366 2.1714 5.82986C2.1714 6.28346 2.2254 6.68366 2.3322 7.03106C2.439 7.37786 2.5758 7.65806 2.742 7.87166C2.91434 8.09002 3.12801 8.27229 3.3708 8.40806C3.6234 8.55206 3.8688 8.65646 4.1052 8.72006C4.3422 8.78486 4.6092 8.83286 4.9062 8.86466C4.698 9.05666 4.5702 9.33206 4.5234 9.68966C4.41153 9.74386 4.29346 9.78416 4.1718 9.80966C4.02519 9.83843 3.87599 9.85191 3.7266 9.84986C3.5544 9.84986 3.3846 9.79226 3.2148 9.67766C3.0456 9.56246 2.901 9.39566 2.781 9.17726C2.68726 9.01209 2.55793 8.86985 2.4024 8.76086C2.2488 8.65406 2.1198 8.58986 2.0154 8.56886L1.8594 8.54486C1.7502 8.54486 1.6746 8.55686 1.6326 8.58086C1.5906 8.60486 1.5786 8.63486 1.5936 8.67266C1.61125 8.71337 1.63491 8.75119 1.6638 8.78486C1.69377 8.82089 1.72803 8.85312 1.7658 8.88086L1.8198 8.92046C1.935 8.97446 2.0478 9.07586 2.16 9.22526C2.2722 9.37466 2.3544 9.51086 2.406 9.63326L2.484 9.81746C2.5518 10.0203 2.6664 10.1847 2.8284 10.3101C2.9898 10.4361 3.1644 10.5159 3.3516 10.5501C3.5388 10.5849 3.72 10.6041 3.8946 10.6065C4.0686 10.6089 4.2138 10.5999 4.3284 10.5783L4.5078 10.5465C4.5078 10.7493 4.509 10.9869 4.512 11.2593L4.5156 11.6913C4.5156 11.7873 4.482 11.8677 4.4136 11.9313C4.3464 11.9961 4.242 12.0147 4.1016 11.9877C2.8932 11.5767 1.9074 10.8357 1.1448 9.76586C0.3816 8.69546 0 7.49006 0 6.14966C0 5.03366 0.2682 4.00526 0.8046 3.06266C1.32389 2.13815 2.07705 1.36637 2.9886 0.82466C3.8973 0.277648 4.93939 -0.00784244 6 -0.000339903C7.06082 -0.0079531 8.10313 0.277541 9.012 0.82466C9.92333 1.36645 10.6763 2.13823 11.1954 3.06266C11.7318 4.00466 12 5.03426 12 6.14966Z" fill="white"/>
</svg>
