<svg width="12" height="12" viewBox="0 0 12 12" fill="none" xmlns="http://www.w3.org/2000/svg">
<g clip-path="url(#clip0_708_4)">
<path d="M6 4C5.46957 4 4.96086 4.21071 4.58579 4.58579C4.21071 4.96086 4 5.46957 4 6C4 6.53043 4.21071 7.03914 4.58579 7.41421C4.96086 7.78929 5.46957 8 6 8C6.53043 8 7.03914 7.78929 7.41421 7.41421C7.78929 7.03914 8 6.53043 8 6C8 5.46957 7.78929 4.96086 7.41421 4.58579C7.03914 4.21071 6.53043 4 6 4Z" fill="white"/>
<path fill-rule="evenodd" clip-rule="evenodd" d="M3.6 0C2.64522 0 1.72955 0.379285 1.05442 1.05442C0.379285 1.72955 0 2.64522 0 3.6L0 8.4C0 9.35478 0.379285 10.2705 1.05442 10.9456C1.72955 11.6207 2.64522 12 3.6 12H8.4C9.35478 12 10.2705 11.6207 10.9456 10.9456C11.6207 10.2705 12 9.35478 12 8.4V3.6C12 2.64522 11.6207 1.72955 10.9456 1.05442C10.2705 0.379285 9.35478 0 8.4 0L3.6 0ZM3.2 6C3.2 5.25739 3.495 4.5452 4.0201 4.0201C4.5452 3.495 5.25739 3.2 6 3.2C6.74261 3.2 7.4548 3.495 7.9799 4.0201C8.505 4.5452 8.8 5.25739 8.8 6C8.8 6.74261 8.505 7.4548 7.9799 7.9799C7.4548 8.505 6.74261 8.8 6 8.8C5.25739 8.8 4.5452 8.505 4.0201 7.9799C3.495 7.4548 3.2 6.74261 3.2 6ZM8.8 3.2H9.6V2.4H8.8V3.2Z" fill="white"/>
</g>
<defs>
<clipPath id="clip0_708_4">
<rect width="12" height="12" fill="white"/>
</clipPath>
</defs>
</svg>
