<svg width="12" height="12" viewBox="0 0 12 12" fill="none" xmlns="http://www.w3.org/2000/svg">
<g clip-path="url(#clip0_709_11)">
<path d="M1.85156 10.0469H3.65625V4.625H1.85156V10.0469ZM3.77344 2.95312C3.76823 2.68229 3.67448 2.45833 3.49219 2.28125C3.3099 2.10417 3.06771 2.01562 2.76562 2.01562C2.46354 2.01562 2.21745 2.10417 2.02734 2.28125C1.83724 2.45833 1.74219 2.68229 1.74219 2.95312C1.74219 3.21875 1.83464 3.44141 2.01953 3.62109C2.20443 3.80078 2.44531 3.89062 2.74219 3.89062H2.75C3.05729 3.89062 3.30469 3.80078 3.49219 3.62109C3.67969 3.44141 3.77344 3.21875 3.77344 2.95312ZM8.34375 10.0469H10.1484V6.9375C10.1484 6.13542 9.95833 5.52865 9.57812 5.11719C9.19792 4.70573 8.69531 4.5 8.07031 4.5C7.36198 4.5 6.81771 4.80469 6.4375 5.41406H6.45312V4.625H4.64844C4.66406 4.96875 4.66406 6.77604 4.64844 10.0469H6.45312V7.01562C6.45312 6.81771 6.47135 6.67188 6.50781 6.57812C6.58594 6.39583 6.70312 6.24089 6.85938 6.11328C7.01562 5.98568 7.20833 5.92188 7.4375 5.92188C8.04167 5.92188 8.34375 6.33073 8.34375 7.14844V10.0469ZM12 2.25V9.75C12 10.3698 11.7799 10.8997 11.3398 11.3398C10.8997 11.7799 10.3698 12 9.75 12H2.25C1.63021 12 1.10026 11.7799 0.660156 11.3398C0.220052 10.8997 0 10.3698 0 9.75V2.25C0 1.63021 0.220052 1.10026 0.660156 0.660156C1.10026 0.220052 1.63021 0 2.25 0H9.75C10.3698 0 10.8997 0.220052 11.3398 0.660156C11.7799 1.10026 12 1.63021 12 2.25Z" fill="white"/>
</g>
<defs>
<clipPath id="clip0_709_11">
<rect width="12" height="12" rx="4" fill="white"/>
</clipPath>
</defs>
</svg>
