<?xml version="1.0" encoding="utf-8"?>
<svg width="40px" height="40px" viewBox="0 0 40 40" version="1.1" xmlns:xlink="http://www.w3.org/1999/xlink" xmlns="http://www.w3.org/2000/svg">
  <g id="sad">
    <path d="M37 18.5C37 28.7172 28.717 37 18.5003 37C8.28302 37 0 28.7172 0 18.5C0 8.28276 8.28302 0 18.5003 0C28.717 0 37 8.28276 37 18.5Z" transform="translate(3 3)" id="path-1_21_" fill="#EDC951" stroke="none" />
    <path d="M5 2C5 3.1047 3.88049 4 2.5 4C1.11951 4 0 3.1047 0 2C0 0.895301 1.11951 0 2.5 0C3.88049 0 5 0.895301 5 2Z" transform="translate(24 13)" id="path-2_21_" fill="#000000" stroke="none" />
    <path d="M5 2C5 3.1047 3.88103 4 2.50034 4C1.11897 4 0 3.1047 0 2C0 0.895301 1.11897 0 2.50034 0C3.88103 0 5 0.895301 5 2Z" transform="translate(11 13)" id="path-3_21_" fill="#000000" stroke="none" />
    <path d="M0.95484 8C0.427132 8 0 7.59393 0 7.09359C0 3.18211 3.31584 0 7.3911 0L10.6089 0C14.6848 0 18 3.16459 18 7.05431C18 7.55525 17.5729 7.96072 17.0452 7.96072C16.5175 7.96072 16.0903 7.55525 16.0903 7.05431C16.0903 4.16406 13.6313 1.81283 10.6089 1.81283L7.3911 1.81283C4.36871 1.81283 1.90968 4.18158 1.90968 7.09359C1.90968 7.59393 1.48255 8 0.95484 8Z" transform="translate(11 23)" id="path-4_21_" fill="#000000" stroke="none" />
    <path d="M19.4997 39C8.74767 39 0 30.2525 0 19.4997C0 8.74754 8.74767 0 19.4997 0C30.2523 0 39 8.74754 39 19.4997C39 30.2525 30.2523 39 19.4997 39ZM19.4997 1.85212C9.76867 1.85212 1.85188 9.76867 1.85188 19.4997C1.85188 29.2313 9.76867 37.1485 19.4997 37.1485C29.2313 37.1485 37.1481 29.2313 37.1481 19.4997C37.1481 9.76867 29.2313 1.85212 19.4997 1.85212Z" id="path-5_21_" fill="#000000" stroke="none" />
  </g>
</svg>