<svg version="1.2" xmlns="http://www.w3.org/2000/svg" viewBox="0 0 24 24" width="24" height="24"><style>.a{fill:#102a43}</style><path fill-rule="evenodd" class="a" d="m18.7 14.8q0.6-1.3 0.6-2.8 0-1.1-0.3-2.1-1 0.3-2.1 0.3-1.1 0-2.1-0.3-1.1-0.2-2.1-0.7-0.9-0.5-1.7-1.3-0.9-0.7-1.5-1.6-0.3 0.8-0.8 1.6-0.5 0.7-1.1 1.3-0.6 0.7-1.3 1.2-0.7 0.5-1.5 0.8-0.1 0.4-0.1 0.8 0 1.4 0.6 2.8 0.5 1.3 1.6 2.3 1 1.1 2.3 1.6 1.4 0.6 2.8 0.6c1.1 0 2.1-0.3 3-0.7q0.8 1.7 0.8 1.7-2.5 0.8-3.8 0.8c-2.4 0-4.7-1-6.4-2.7q-0.4-0.4-0.8-0.8-0.3-0.4-0.6-0.9-0.3-0.5-0.5-1-0.2-0.4-0.4-1h-1.3v-4.5h1.1c0.3-1.6 1.1-3.1 2.2-4.3 1.1-1.2 2.5-2.1 4.1-2.6 1.6-0.5 3.2-0.5 4.8-0.1 1.6 0.4 3.1 1.2 4.2 2.4q0.5 0.4 0.9 1 0.4 0.5 0.7 1.1 0.3 0.6 0.5 1.2 0.3 0.6 0.4 1.3h1.1v4.5h-0.1l-3.5 3.3-5.3-0.6v-1.7h4.8zm-9.4-3c0.3 0 0.5 0.2 0.8 0.4q0.1 0.1 0.2 0.3 0.1 0.3 0.1 0.5 0 0.2-0.1 0.4-0.1 0.2-0.2 0.4c-0.3 0.2-0.5 0.3-0.8 0.3-0.7 0-1.2-0.5-1.2-1.1 0-0.7 0.5-1.2 1.2-1.2zm5.4 0c0.6 0 1.1 0.5 1.1 1.2 0 0.6-0.5 1.1-1.1 1.1-0.6 0-1.1-0.5-1.1-1.1q0-0.2 0.1-0.5 0-0.2 0.2-0.3 0.2-0.2 0.4-0.3 0.2-0.1 0.4-0.1z"/></svg>