<svg width="12" height="12" viewBox="0 0 12 12" fill="none" xmlns="http://www.w3.org/2000/svg">
<path d="M5.99999 0.240234C2.81879 0.240234 0.23999 2.81903 0.23999 6.00023C0.23999 9.18143 2.81879 11.7602 5.99999 11.7602C9.18119 11.7602 11.76 9.18143 11.76 6.00023C11.76 2.81903 9.18119 0.240234 5.99999 0.240234ZM8.34299 4.95863C8.34539 5.00783 8.34599 5.05704 8.34599 5.10504C8.34599 6.60504 7.20539 8.33363 5.11859 8.33363C4.50197 8.33466 3.89817 8.15756 3.37979 7.82363C3.46799 7.83443 3.55859 7.83863 3.65039 7.83863C4.18199 7.83863 4.67099 7.65803 5.05919 7.35323C4.82262 7.34859 4.59339 7.27025 4.40346 7.12915C4.21352 6.98804 4.07234 6.79119 3.99959 6.56603C4.16948 6.59834 4.3445 6.59157 4.51139 6.54623C4.25462 6.49431 4.02371 6.35518 3.85782 6.15243C3.69192 5.94969 3.60125 5.6958 3.60119 5.43383V5.42003C3.75419 5.50463 3.92939 5.55624 4.11539 5.56224C3.87467 5.40199 3.70426 5.15584 3.63902 4.87411C3.57377 4.59239 3.61862 4.29639 3.76439 4.04663C4.04936 4.39703 4.40475 4.68368 4.80753 4.88802C5.21032 5.09236 5.65152 5.20983 6.10259 5.23283C6.04524 4.98942 6.06993 4.73388 6.1728 4.50594C6.27567 4.278 6.45096 4.09043 6.67143 3.97239C6.8919 3.85436 7.14519 3.81247 7.39193 3.85324C7.63866 3.89401 7.86501 4.01515 8.03579 4.19783C8.28969 4.1476 8.53318 4.05447 8.75579 3.92243C8.67117 4.18532 8.494 4.40854 8.25719 4.55063C8.4821 4.52355 8.70171 4.46308 8.90879 4.37123C8.75668 4.59917 8.56507 4.7981 8.34299 4.95863Z" fill="white"/>
</svg>
