<svg width="10" height="10" viewBox="0 0 10 10" fill="none" xmlns="http://www.w3.org/2000/svg">
<path d="M5.0005 0C7.762 0 10.0005 2.2385 10.0005 5C10.0005 7.7615 7.762 10 5.0005 10C4.11688 10.0014 3.24882 9.76758 2.4855 9.3225L0.00249531 10L0.678495 7.516C0.233042 6.75244 -0.000980907 5.884 0.000495221 5C0.000495221 2.2385 2.239 0 5.0005 0ZM3.2965 2.65L3.1965 2.654C3.13176 2.65794 3.06849 2.67495 3.0105 2.704C2.95626 2.73471 2.90674 2.77311 2.8635 2.818C2.8035 2.8745 2.7695 2.9235 2.733 2.971C2.54806 3.21145 2.44848 3.50666 2.45 3.81C2.451 4.055 2.515 4.2935 2.615 4.5165C2.8195 4.9675 3.156 5.445 3.6 5.8875C3.707 5.994 3.812 6.101 3.925 6.2005C4.47669 6.68623 5.13412 7.03652 5.845 7.2235L6.129 7.267C6.2215 7.272 6.314 7.265 6.407 7.2605C6.55261 7.25298 6.6948 7.21355 6.8235 7.145C6.88897 7.11127 6.95287 7.07457 7.015 7.035C7.015 7.035 7.0365 7.021 7.0775 6.99C7.145 6.94 7.1865 6.9045 7.2425 6.846C7.284 6.803 7.32 6.7525 7.3475 6.695C7.3865 6.6135 7.42549 6.458 7.44149 6.3285C7.45349 6.2295 7.44999 6.1755 7.44849 6.142C7.44649 6.0885 7.402 6.033 7.3535 6.0095L7.0625 5.879C7.0625 5.879 6.6275 5.6895 6.3615 5.5685C6.33366 5.55635 6.30383 5.5494 6.2735 5.548C6.23929 5.54449 6.20472 5.54834 6.17212 5.55929C6.13952 5.57024 6.10964 5.58804 6.0845 5.6115C6.082 5.6105 6.0485 5.639 5.687 6.077C5.66625 6.10488 5.63767 6.12595 5.6049 6.13753C5.57213 6.1491 5.53665 6.15066 5.503 6.142C5.47042 6.13327 5.43851 6.12224 5.4075 6.109C5.3455 6.083 5.324 6.073 5.2815 6.055C4.99453 5.92977 4.72884 5.76057 4.494 5.5535C4.431 5.4985 4.3725 5.4385 4.3125 5.3805C4.11579 5.19212 3.94436 4.979 3.8025 4.7465L3.77299 4.699C3.75181 4.66708 3.73468 4.63265 3.722 4.5965C3.703 4.523 3.7525 4.464 3.7525 4.464C3.7525 4.464 3.874 4.331 3.9305 4.259C3.9855 4.189 4.032 4.121 4.062 4.0725C4.121 3.9775 4.1395 3.88 4.1085 3.8045C3.9685 3.4625 3.8235 3.122 3.6745 2.784C3.645 2.717 3.5575 2.669 3.478 2.6595C3.451 2.6565 3.424 2.6535 3.397 2.6515C3.32985 2.64816 3.26256 2.64883 3.1955 2.6535L3.296 2.6495L3.2965 2.65Z" fill="white"/>
</svg>
