<svg width="111" height="115" viewBox="0 0 111 115" fill="none" xmlns="http://www.w3.org/2000/svg">
<path d="M105 106.168C105 106.168 67.5 97.9305 58 65.8972" stroke="white" stroke-width="2.5" stroke-linecap="round"/>
<path d="M37.204 32.9344C37.2204 33.2465 37.0054 33.5885 36.5589 33.9605L35.5914 33.7975L34.499 33.2642L34.0304 32.8108L33.7697 32.384L33.5743 32.1834C33.1542 31.7568 32.8582 31.3352 32.6861 30.9187C32.6464 30.8226 32.6208 30.6925 32.6093 30.5285L32.6375 30.4606L32.4969 29.9841L31.9902 29.5746L31.9672 29.2465L31.7603 28.8819L31.6453 28.5356C31.5178 28.3632 31.4243 28.2049 31.3648 28.0607L31.3151 27.9406C31.196 27.6522 31.0368 27.3804 30.8376 27.1251L30.5596 26.4523L30.2127 26.0892L30.0257 25.7726L29.835 25.9921L29.4631 27.2709L29.098 28.2938L29.0323 28.8836L28.6248 30.0084L28.0361 30.8986L28.1286 31.3949L27.7175 31.7617L27.7306 32.0657L27.2631 32.5683L27.2594 33.1043L26.8865 33.4271L26.7235 34.3947L26.5047 34.682C26.5217 34.7687 26.5526 34.9341 26.5972 35.1783C26.4098 35.4057 26.1799 35.5757 25.9076 35.6882L25.7634 35.7477L25.3345 35.3904L24.7755 35.0587L24.7144 34.7746L24.3351 34.5374L24.3857 34.3196L24.3518 34.3055L24.0728 33.9706L23.821 33.9058C23.3909 33.7272 23.0348 33.5461 22.7526 33.3626L22.4198 32.9656L22.0703 32.8005L21.2663 32.1481L20.5673 31.818L20.28 31.5991L19.6249 31.3071L18.8323 30.8187C18.7474 30.7038 18.6143 30.6087 18.4332 30.5335C18.6234 31.1301 18.6946 31.5976 18.6469 31.9361L18.5122 32.8357L18.8508 33.3148L18.8529 33.9328L18.9878 35.6212L18.9941 36.1812L19.0751 36.5135L19.0182 37.4653L18.9002 38.1329L19.1468 38.5937C19.1565 38.8897 19.1362 39.2263 19.0857 39.6035L19.4681 40.1207C19.1955 40.7772 18.939 41.1551 18.6987 41.2543C18.4424 41.3602 18.2005 41.3195 17.9731 41.1321C17.808 41.0503 17.6763 40.9359 17.5781 40.7889L17.5384 40.6928C17.337 39.3882 17.2844 38.716 17.3805 38.6763C17.3965 38.6697 17.4078 38.6744 17.4145 38.6904L17.2457 38.2819C17.0736 37.8654 17.1048 37.4868 17.3391 37.1462L17.2796 37.002L17.2252 36.4619L17.1317 36.3036C17.0986 36.2235 17.078 35.9694 17.07 35.5414L17.1264 35.4056L16.8824 34.7468L16.954 34.239L16.818 32.8886L16.3902 32.1933L16.5934 31.7999L16.5636 31.7278L16.2245 30.7708L16.1278 30.3325C16.1229 30.1845 16.1006 30.0624 16.0609 29.9663L16.0212 29.8702L15.295 29.27L15.2266 28.7638L15.3989 28.6363L15.4679 28.3265L15.3644 28.1442L15.5577 27.7268L15.8137 27.7335L16.0028 27.3741L16.359 27.2832L17.1286 27.4435L17.1981 27.6117L17.4739 27.6666L17.7983 28.1796L18.0261 28.2542L18.3589 28.6513L18.3506 28.7672L18.6363 28.8461C18.7126 28.7583 18.7908 28.6979 18.8709 28.6648C18.9868 28.6732 19.158 28.7243 19.3844 28.8184L19.5714 29.1349L19.887 29.2859L20.2637 29.721L21.8059 30.3217L22.2463 30.8431L22.706 30.9345L23.4876 31.7368L24.7686 32.7267C24.7912 32.7361 24.8624 32.7723 24.9822 32.8354L25.0601 32.8876L25.3004 32.7883L25.3239 32.3004L25.7517 31.7017C25.9547 31.149 26.0496 30.8566 26.0364 30.8246C26.0297 30.8085 26.0104 30.8071 25.9784 30.8204L25.9543 30.8303C26.008 30.7331 26.0889 30.634 26.1972 30.533C26.2094 30.4717 26.2918 30.3533 26.4443 30.1778C26.4572 29.8912 26.5733 29.6275 26.7927 29.3868L26.8293 29.203L26.7399 28.9867C26.9259 28.3472 27.1224 27.9378 27.3297 27.7585C27.2238 27.5021 27.3761 27.1673 27.7867 26.7538L27.9711 25.9744L27.9465 25.5063L28.2108 25.3971C28.2707 24.9973 28.3076 24.7007 28.3215 24.5075L28.5984 24.2243L28.7765 24.1788L28.5299 23.7181L28.1151 23.3268L28.2431 22.6832L28.1871 22.003C28.3313 21.9435 28.4642 21.8792 28.5857 21.8102C28.7072 21.7413 28.76 21.7101 28.744 21.7167C28.8401 21.677 29.0975 21.6645 29.5161 21.6791L29.6436 21.8515L29.9973 21.9585L30.1007 22.1408L30.4204 22.2338L30.3499 22.4036C30.6299 22.4004 30.8063 22.487 30.8791 22.6632C30.9056 22.7273 30.9227 22.814 30.9303 22.9234L31.0892 23.3078C31.1411 23.3427 31.2968 23.4471 31.5562 23.6213L31.4617 23.801L31.4873 23.9311L31.5453 23.9352L31.7762 24.2899L32.2218 24.4153L32.0965 24.8609L32.1947 25.4392L32.5218 25.7542L32.702 26.3267L33.2161 26.9583C33.4446 27.239 33.5985 27.4755 33.678 27.6677C33.7243 27.7799 33.7151 27.9618 33.6503 28.2136C33.7889 28.2314 33.8847 28.3043 33.9376 28.4325C33.984 28.5446 33.9955 28.7087 33.9722 28.9246L34.108 28.981L34.5918 30.3565L35.1639 30.9922L35.4915 31.7852C35.6472 31.8897 35.7935 32.0168 35.9303 32.1666C35.9822 32.2014 36.2379 32.3208 36.6972 32.5249C36.9529 32.6443 37.1218 32.7809 37.204 32.9344ZM45.3524 23.0418L45.3869 23.5339C45.5589 23.9504 45.6706 24.2888 45.7218 24.5489L45.6769 24.8488L45.7861 25.1131L45.7354 25.331L45.8023 25.6972L45.6472 26.0707L45.7271 26.741L45.5647 26.8925L45.5778 27.1965L45.3589 27.4838L45.3354 27.9718L45.1066 28.2351L45.2017 28.5334L44.8146 28.8902C44.7255 29.2646 44.5453 29.5547 44.274 29.7606L44.1878 29.8243C44.1025 30.2534 43.8756 30.544 43.5071 30.6962C43.3866 30.8585 43.2223 30.9827 43.014 31.0688L42.8432 31.3362L42.6327 31.5076L42.4195 31.877L42.0972 31.982L41.8005 32.2171L41.3225 32.2176L40.2594 32.5724L39.6707 32.1686L38.9137 31.8343L38.875 31.4002L38.177 30.7321L38.2162 30.3502L37.8578 29.8231L37.829 29.413C37.7043 29.202 37.6221 29.0484 37.5824 28.9523C37.4567 28.6479 37.4441 28.3905 37.5447 28.1801C37.4946 28.0133 37.4895 27.706 37.5295 27.2581L37.6497 27.2085L37.5321 27.0601L37.4652 26.6939L37.3163 26.3334C37.3849 26.1363 37.4173 26.0104 37.4135 25.9557L37.2024 25.6491L37.1627 25.553C37.1822 25.2824 37.1423 25.0269 37.043 24.7866L37.2598 23.8813C37.2598 23.8813 37.2692 23.8586 37.288 23.8134C37.3228 23.7615 37.3496 23.7129 37.3684 23.6676L37.3047 23.5814L37.4008 23.5417L37.5925 22.9843L37.3882 22.4216L37.8996 21.9572C38.0643 21.7204 38.1092 21.4205 38.0343 21.0576L38.3467 20.9285C38.4833 20.7596 38.6236 20.6454 38.7678 20.5858C38.912 20.5263 39.0614 20.502 39.216 20.5132L39.4903 20.428L40.0158 19.9296L40.4813 20.103L40.8151 20.162L41.0073 20.0826L41.4472 20.1259L41.6394 20.0465C41.9271 20.1527 42.2766 20.3178 42.6879 20.5417L42.7856 20.642L42.9935 20.6686L43.7662 21.109L44.6894 22.0498L44.7886 22.2901L45.3524 23.0418ZM44.0046 24.2737L43.931 24.1635C43.7725 24.0977 43.6588 24.004 43.5898 23.8825L43.6123 23.7325L43.2074 23.3653L43.0668 22.8889L42.9211 22.8084C42.6466 22.7343 42.4815 22.6524 42.4258 22.5629C42.2551 22.5584 42.1169 22.428 42.011 22.1717L41.8569 22.2072L41.37 21.8457L41.0842 21.7669L40.5002 21.7831L40.2881 21.8144C40.1919 21.8541 40.1146 21.8486 40.0561 21.7977L39.7939 22.5249L39.7595 23.3268L39.364 23.7996L39.4011 24.0938L39.2105 24.3132L39.3725 24.9777L39.1437 25.241C39.1722 25.4917 39.2262 25.7132 39.3056 25.9055L39.0701 26.4248L39.22 26.4472C39.2994 26.6395 39.2968 26.8375 39.2122 27.0412C39.2237 27.2052 39.2258 27.3919 39.2185 27.6012L39.2979 27.7935L39.2655 27.9194L39.4087 28.1978L39.4124 28.9558L39.5101 29.0561L39.7881 29.729L39.8309 30.1051L39.9939 30.4316L40.3392 30.6546L40.7253 30.6358L40.8653 30.6342L41.0178 30.4587L41.6625 30.2486L41.6593 29.9686L41.7555 29.9289C41.8516 29.8892 41.9176 29.8901 41.9534 29.9315L42.1399 29.7701L42.362 29.7628L42.585 29.4174L42.6033 29.3255L42.7997 29.1881C42.839 28.9655 43.0306 28.6801 43.3743 28.3318L43.3727 28.1918L43.7144 27.6569L43.8199 27.1632L44.1249 26.8121L44.0993 26.682L44.1103 26.3681L43.9812 26.0557L44.1703 25.6962L44.1969 25.4883L44.2575 25.2945C44.114 25.1287 44.0257 25.0058 43.9926 24.9257C43.9331 24.7815 43.9183 24.6095 43.9482 24.4096L44.0046 24.2737ZM57.645 22.2395L57.4957 22.6951L57.4894 23.429L57.3568 23.6526L57.3275 24.0586L56.8668 24.3052L56.6834 24.7466L56.2028 24.9451L56.0137 25.3046L55.7196 25.3417L55.437 25.5428L55.5164 25.7351L54.5975 26.0303L54.223 26.2131L53.9942 26.4765L53.6943 26.4315C53.8479 26.3493 53.9727 26.2884 54.0689 26.2487C53.9473 26.3176 53.5761 26.5085 52.9551 26.8213L52.8731 26.8271L52.6709 26.8824L52.428 27.1797C52.3054 27.1553 52.0994 27.156 51.81 27.1818C51.4443 27.2954 51.2054 27.3753 51.0933 27.4217L50.901 27.5011C50.7823 27.5314 50.6588 27.573 50.5307 27.626C50.4025 27.6789 50.2876 27.7639 50.1859 27.8809L49.7601 27.8036L49.548 27.835C49.5 27.8548 49.4019 27.8672 49.2539 27.8721C48.6347 28.0529 48.1332 27.6787 47.7493 26.7495L47.66 26.5332L47.9776 26.0082L48.4649 25.5537L48.9868 25.5913L49.3233 25.4523L49.353 25.5244C49.5397 25.5223 49.7208 25.5975 49.8964 25.75L50.0985 25.6946L50.2276 26.007L50.5698 25.9501L50.6617 25.9683L53.6581 24.5054L54.3534 24.0775L54.4255 24.0478L54.424 23.9077L54.7405 23.7207L54.7588 23.6288C55.0754 23.4417 55.3481 23.2165 55.5769 22.9532L55.5513 22.8232C55.5286 22.8138 55.4734 22.7709 55.3856 22.6947L55.2754 22.7683L54.8638 22.6571L54.6475 22.7464L54.4578 22.6278L54.4902 22.5019L54.2458 22.6592L53.9642 22.5223C53.9227 22.5582 53.8459 22.5993 53.7338 22.6456C53.5255 22.7317 53.3007 22.7777 53.0594 22.7836L52.8431 22.8729L52.6451 22.8703L52.3583 23.1295L52.0767 22.9926L52.0046 23.0224L51.559 22.8971L50.695 22.9164L50.3752 22.8235L49.3926 23.0325L49.227 22.904L48.3754 22.7494L47.6874 22.1053L47.2303 21.8159L46.6179 20.6061L46.6545 20.4222C46.5343 20.0405 46.5301 19.6671 46.6419 19.3021C46.8293 19.0747 46.8733 18.8408 46.774 18.6005L47.1047 18.3795C47.1158 18.2249 47.1944 18.0518 47.3403 17.8602L47.5816 17.423L48.8573 16.2208L49.0918 16.0395L49.5526 15.7929L50.2562 15.2491L51.8098 14.7198L51.9075 14.8201C52.0716 14.8086 52.2847 14.8705 52.547 15.006L52.5966 15.1262L53.0803 15.2076L53.1504 15.8538L53.1917 16.09C53.261 16.5302 53.1194 16.8231 52.767 16.9687C52.4786 17.0878 52.2061 17.041 51.9494 16.8282L51.9196 16.7561L51.6214 16.8512L51.3246 17.0863L50.9229 16.9991L50.8043 17.1887C50.5961 17.2748 50.4303 17.4183 50.307 17.6192C50.0667 17.7185 49.8741 17.9106 49.7293 18.1955L49.4169 18.3245L49.2701 18.5821L48.9635 18.7932L48.9352 18.8611L48.8208 18.9927L48.6939 19.2983L48.6318 19.3522L48.5545 19.7779L48.3497 20.0313C48.3716 20.266 48.4044 20.4588 48.4479 20.6096C48.5566 20.8273 48.6435 20.9695 48.7086 21.0364C48.7832 21.0806 48.9251 21.1064 49.1344 21.1137L49.184 21.2338L49.5659 21.273C49.862 21.2632 50.0972 21.2879 50.2717 21.3471L50.7523 21.1486L51.1739 21.2839L51.7564 21.1276L52.0322 21.1825L53.0786 21.0597L53.3079 21.2743L53.3346 21.0664C53.5428 20.9804 53.8629 20.9607 54.2948 21.0073L54.7571 20.9007L54.8746 21.0491L55.2591 20.8903L56.0908 20.9968C56.2569 21.172 56.5126 21.2914 56.8577 21.3551L57.1915 21.4141L57.2386 21.7323C57.4169 21.8461 57.5425 21.9912 57.6153 22.1674L57.645 22.2395ZM64.2454 11.7205C64.305 11.8646 64.217 12.0604 63.9816 12.3077C63.9506 12.4142 63.8603 12.536 63.7105 12.6728C63.5259 12.8616 63.3988 13.0079 63.3292 13.1117L62.7551 13.1519C62.5782 13.4501 62.2895 13.6819 61.8889 13.8473L61.5708 13.8944L61.434 14.1759L60.7851 14.444L60.4858 14.8771C60.2831 14.8858 60.1017 14.9232 59.9415 14.9894C59.9067 15.0413 59.8077 15.1197 59.6448 15.2245C59.5647 15.2576 59.4666 15.27 59.3506 15.2616L59.6558 16.2046L59.9578 16.8675L60.2331 17.7383L60.6584 18.6316L60.9092 19.0344L61.0482 19.3708L61.6824 19.9527C61.6542 20.0206 61.6534 20.0866 61.6798 20.1507C61.7262 20.2629 61.9388 20.2782 62.3177 20.1967L62.4849 20.4652L62.6829 20.4678L63.0507 20.5409L63.3025 20.6056C63.4494 20.5074 63.5549 20.4451 63.619 20.4186C63.7632 20.359 63.9173 20.3235 64.0814 20.312C64.1322 20.2535 64.222 20.0851 64.3509 19.8068C64.4421 19.6191 64.5518 19.4988 64.68 19.4458C64.696 19.4392 64.72 19.4293 64.7521 19.416C64.7907 19.4188 64.8181 19.4169 64.8341 19.4103C64.8525 19.0463 65.0261 18.7402 65.3549 18.4919C65.6913 18.3529 66.0147 18.3412 66.325 18.4568L66.3945 18.625C66.6195 19.1697 66.5695 19.5935 66.2446 19.8966C66.2394 20.2926 66.0244 20.6346 65.5995 20.9226L65.4203 21.3061L65.108 21.4351L64.6148 21.8076C64.4999 21.8926 64.3223 21.9847 64.082 22.084C63.9538 22.137 63.8044 22.1612 63.6338 22.1567L63.3214 22.2857L62.2917 22.1766L62.0456 22.1938L61.263 21.7295L60.8456 21.5362L59.8206 20.5531L59.1618 19.5031L59.0907 19.1949L58.7893 19.0099L58.7704 18.6239L58.4319 18.1449L58.5306 17.9072L58.4496 17.5749L58.2584 17.3163L58.1278 16.8639L57.8728 16.5192L57.9433 16.3494L57.7845 15.9649L57.5865 15.9623L57.1696 16.247L56.6081 16.1133L56.536 16.1431C56.0554 16.3416 55.7092 16.1846 55.4974 15.6719L55.4676 15.5999L54.9906 15.2624L55.2685 14.6412L55.909 14.4892L56.2015 14.3121L56.7077 14.2436L57.2124 14.0351L57.0138 13.5545L56.4235 13.0107L56.6664 12.7135L56.3973 12.4027L56.1136 11.6478L55.7923 11.4148C55.6074 11.2849 55.4851 11.1479 55.4255 11.0037C55.3527 10.8275 55.3332 10.6668 55.367 10.5215L55.3001 10.1553L55.4129 9.88367C55.8124 9.62488 56.0842 9.4657 56.2284 9.40614C56.741 9.19436 57.1174 9.31083 57.3573 9.75556L57.3349 9.90549C57.4906 10.01 57.5949 10.1263 57.6478 10.2544C57.6544 10.2705 57.663 10.3138 57.6734 10.3845L57.6849 10.5486L57.7304 10.7267L57.9556 10.9994L57.9812 11.1295L58.1682 11.446L58.0711 11.8237L58.3898 12.2547L58.5319 12.8711L58.8135 13.008L58.7999 13.52L59.5052 13.1161L60.8765 12.6902L61.8643 12.0852L62.2347 11.9604L62.3449 11.8867L63.2821 11.4995C63.7787 11.2944 64.0998 11.368 64.2454 11.7205ZM22.5055 56.2943L22.573 57.1385L22.2993 57.7017L22.4283 58.0141C22.3134 58.099 22.1764 58.2213 22.0172 58.3808L21.955 58.4346C21.961 58.676 21.8791 58.8411 21.7095 58.9299C21.6033 59.2176 21.3251 59.52 20.8748 59.8373C20.747 60.209 20.5502 60.459 20.2845 60.5876L20.0176 60.8948L19.537 61.0933L19.3421 61.3707L19.2319 61.4444C19.1943 61.5349 19.1213 61.6307 19.013 61.7317L18.8281 62.0331L18.2754 62.2615L18.0863 62.6209L17.1424 63.264C17.0302 63.3104 16.8446 63.4058 16.5855 63.5504L16.2397 64.1433C16.069 64.1388 15.9116 64.1663 15.7674 64.2259L15.6233 64.2854L15.4948 64.4511L15.2121 64.6522L15.0554 64.8857L14.9071 65.0033L15.3161 65.3125L15.4201 65.9728L15.964 66.6765L16.1683 67.2391L16.3538 67.4157C16.7101 67.3248 16.9676 67.4715 17.1264 67.856C17.2787 68.2245 17.0981 68.6273 16.5848 69.0644L16.0013 69.5586L14.889 68.9772L14.1696 68.121L13.7924 67.2079L13.2078 66.7461L13.3389 66.3825L13.1477 66.1239L13.0923 65.9218C12.6465 66.0684 12.3096 66.1607 12.0814 66.1987L10.7879 65.3828L12.5405 64.5181L12.4413 64.2778L12.4423 63.9398L12.1215 62.8908L12.1821 62.697L11.7808 61.7938L11.6941 61.3795L11.2061 60.062L11.2421 59.4001L11.2703 59.3322L11.2165 59.2701C11.1945 59.0353 11.2565 58.8222 11.4024 58.6306L11.9211 58.3882L12.0893 58.3187C12.7782 58.0341 13.2285 58.1481 13.4403 58.6608C13.5263 58.8691 13.5333 59.2037 13.4613 59.6649L13.5109 59.785C13.6102 60.0253 13.8249 60.2273 14.1551 60.391L13.8343 60.636L14.0585 61.2467L13.8694 61.6061L14.1045 61.9028L14.0611 62.3427L14.3459 62.7596L14.3391 63.0155L14.4525 63.2219L14.581 63.0563L15.0616 62.8577C15.2131 62.5889 15.4377 62.3835 15.7355 62.2418L15.9528 61.8144C16.1112 61.8802 16.2451 61.9093 16.3545 61.9016C16.4976 61.7487 16.7491 61.4948 17.1088 61.1399L17.4013 60.9628L17.6866 60.5637L17.8788 60.4843L17.883 60.4263L18.0512 60.3568C18.3716 60.2244 18.6136 59.9932 18.7773 59.663L19.3258 59.4926L19.3002 59.3626L19.5771 59.0794L19.6559 58.7936C19.7266 58.7832 19.81 58.7581 19.9062 58.7184L19.9537 58.2205C20.0073 58.1234 20.0582 58.0649 20.1062 58.045C20.1543 58.0252 20.1995 58.044 20.242 58.1014C20.257 58.0015 20.3394 57.883 20.4891 57.7462L20.4635 57.6161L20.5821 57.4264L20.5267 57.2243L20.2775 56.9615L19.9959 56.8247L19.7838 56.856L19.1684 56.6602L18.1403 56.691C17.6405 56.6162 17.196 56.5842 16.8066 56.595L16.5115 56.9701L15.6698 56.8395L15.137 57.1159L14.6872 57.0486L14.3027 57.2074L13.8869 57.1541C13.8709 57.1608 13.8388 57.174 13.7908 57.1938C13.7493 57.2297 13.7126 57.2543 13.6805 57.2675C13.4883 57.3469 13.2616 57.3656 13.0004 57.3235L12.3939 57.4896L11.9812 57.7164L11.465 57.7608L11.01 58.0894L10.9181 58.0711L10.6371 58.4123L10.2792 58.3632L10.3288 58.4834L9.75211 58.7216L9.41884 59.1406L8.94399 59.4212L8.42422 60.0016L7.7435 59.5795C7.43875 59.3866 7.21027 59.1059 7.05805 58.7374L7.20326 58.3399C7.15483 58.0411 7.26156 57.8 7.52345 57.6168C7.77872 57.4176 8.04201 57.2151 8.3133 57.0092C8.37738 56.9828 8.44146 56.9563 8.50554 56.9298C8.57624 56.9194 8.61159 56.9141 8.61159 56.9141L8.78973 56.8687L8.74742 56.9706L9.19249 56.6179L9.28443 56.6362C9.32588 56.6003 9.39466 56.5625 9.49078 56.5228C9.63496 56.4632 9.8037 56.4404 9.99699 56.4543L10.9582 56.0573L11.699 55.8075L13.1 55.4537L13.5697 55.5692L13.8664 55.3341L14.5607 55.2442L15.2915 54.9704L15.4373 55.0508L15.9419 54.8424L16.6336 54.9505L17.1821 54.7801L17.3717 54.8987C17.6601 54.7796 17.9915 54.7646 18.3659 54.8537L18.8068 54.559L19.1976 54.9602L19.5413 55.0433L19.9498 54.8745L20.4508 55.202L21.5824 55.3535L21.7313 55.7139L22.5055 56.2943ZM33.0265 55.1831L33.061 55.6752C33.233 56.0917 33.3447 56.43 33.3959 56.6902L33.351 56.99L33.4602 57.2544L33.4095 57.4722L33.4764 57.8384L33.3213 58.212L33.4012 58.8822L33.2388 59.0337L33.2519 59.3378L33.033 59.6251L33.0095 60.113L32.7807 60.3763L32.8758 60.6746L32.4887 61.0315C32.3996 61.4059 32.2194 61.696 31.9481 61.9018L31.8619 61.9656C31.7766 62.3946 31.5497 62.6853 31.1812 62.8375C31.0607 62.9998 30.8964 63.124 30.6881 63.21L30.5173 63.4775L30.3068 63.6488L30.0936 64.0182L29.7713 64.1232L29.4746 64.3583L28.9966 64.3589L27.9335 64.7137L27.3447 64.3099L26.5878 63.9756L26.5491 63.5414L25.8511 62.8733L25.8903 62.4914L25.5318 61.9644L25.5031 61.5543C25.3784 61.3432 25.2962 61.1896 25.2565 61.0935C25.1307 60.7891 25.1182 60.5318 25.2188 60.3214C25.1687 60.1546 25.1636 59.8472 25.2036 59.3993L25.3238 59.3497L25.2062 59.2014L25.1393 58.8352L24.9904 58.4747C25.059 58.2776 25.0914 58.1517 25.0876 58.097L24.8765 57.7903L24.8368 57.6942C24.8563 57.4236 24.8164 57.1682 24.7171 56.9279L24.9339 56.0225C24.9339 56.0225 24.9433 55.9999 24.9621 55.9546C24.9969 55.9027 25.0237 55.8541 25.0425 55.8088L24.9788 55.7227L25.0749 55.6829L25.2666 55.1255L25.0623 54.5629L25.5737 54.0984C25.7384 53.8616 25.7833 53.5617 25.7084 53.1989L26.0208 53.0698C26.1573 52.9009 26.2977 52.7866 26.4419 52.7271C26.5861 52.6675 26.7355 52.6433 26.8901 52.6544L27.1644 52.5693L27.6899 52.0709L28.1553 52.2443L28.4892 52.3033L28.6814 52.2239L29.1213 52.2672L29.3135 52.1878C29.6012 52.294 29.9507 52.459 30.362 52.683L30.4597 52.7833L30.6676 52.8099L31.4403 53.2502L32.3635 54.191L32.4627 54.4313L33.0265 55.1831ZM31.6787 56.415L31.605 56.3048C31.4466 56.2389 31.3329 56.1453 31.2639 56.0237L31.2863 55.8738L30.8815 55.5066L30.7409 55.0301L30.5951 54.9497C30.3207 54.8755 30.1556 54.7937 30.0999 54.7042C29.9292 54.6997 29.791 54.5692 29.6851 54.3129L29.531 54.3485L29.0441 53.987L28.7583 53.9081L28.1742 53.9243L27.9622 53.9557C27.866 53.9954 27.7887 53.9898 27.7302 53.939L27.468 54.6662L27.4336 55.4681L27.0381 55.9409L27.0752 56.235L26.8846 56.4544L27.0466 57.1189L26.8178 57.3822C26.8463 57.633 26.9003 57.8545 26.9797 58.0467L26.7442 58.566L26.8941 58.5885C26.9735 58.7807 26.9709 58.9787 26.8863 59.1825C26.8978 59.3465 26.8999 59.5332 26.8926 59.7425L26.972 59.9347L26.9396 60.0606L27.0828 60.3391L27.0865 61.0971L27.1842 61.1974L27.4621 61.8702L27.505 62.2463L27.668 62.5728L28.0133 62.7959L28.3994 62.7771L28.5394 62.7755L28.6919 62.5999L29.3366 62.3899L29.3334 62.1099L29.4295 62.0702C29.5257 62.0305 29.5917 62.0313 29.6275 62.0728L29.814 61.9113L30.0361 61.904L30.2591 61.5587L30.2774 61.4667L30.4738 61.3293C30.5131 61.1068 30.7047 60.8214 31.0484 60.4731L31.0468 60.3331L31.3884 59.7981L31.4939 59.3044L31.799 58.9534L31.7734 58.8233L31.7844 58.5093L31.6553 58.1969L31.8444 57.8375L31.871 57.6296L31.9316 57.4357C31.7881 57.27 31.6998 57.147 31.6667 57.0669C31.6072 56.9228 31.5924 56.7507 31.6223 56.5508L31.6787 56.415ZM44.9763 52.6657L44.9858 53.5057L45.3766 53.9069L45.34 54.0908L45.4027 54.515L45.3495 54.9309L45.2732 55.0186L45.4138 55.4951L45.0011 55.7218C44.8628 56.0227 44.7 56.2869 44.5127 56.5143L44.3585 56.5499L44.0477 56.8189L43.8414 56.9323L43.4543 57.2891L42.8264 57.2672L42.7344 57.2489L42.3358 57.4417L42.4518 57.4501L41.7393 57.6319L41.1981 58.0243L40.8684 57.9073L40.3836 58.1638L40.1318 58.099C40.1158 58.1057 40.055 58.1401 39.9495 58.2025L40.0091 58.3467C40.0686 58.4909 40.1042 58.645 40.1157 58.809L40.3764 59.2358L40.2834 59.5555C40.4611 59.8947 40.5863 60.1524 40.6591 60.3287L40.8352 60.9592L41.3085 61.8326L41.2155 62.1523L41.4606 62.4731L41.4877 62.7432L41.6617 62.7557L41.8106 63.1162C41.8824 63.199 41.9282 63.2645 41.948 63.3126C42.0076 63.4568 41.9691 63.6133 41.8326 63.7822L42.0677 64.0789L42.027 64.3208L42.376 65.3019C42.7912 66.4431 42.7745 67.1064 42.326 67.2917C42.2298 67.3314 41.923 67.3832 41.4055 67.447L41.1798 66.6963L40.5988 65.6985L40.6604 65.1667L40.466 64.6281L40.0721 63.9469L40.1353 63.5551L39.6907 63.0917L39.7398 62.7339L39.397 62.3128L39.4106 61.8009C39.3388 61.718 39.2384 61.6563 39.1092 61.616C38.996 61.5689 38.9328 61.5294 38.9195 61.4974C38.8997 61.4493 38.9359 61.3781 39.0282 61.2837C38.9923 61.2423 38.9512 61.1655 38.9049 61.0533C38.8188 60.8451 38.7544 60.5529 38.7115 60.1767L38.4681 59.996L38.4111 59.6538L38.1535 59.507L38.2606 59.1534L37.8766 58.4962L37.6138 57.4514L37.3165 57.2085L37.3922 56.6427L36.9947 56.4975L36.9743 55.9715L36.7564 55.9208L36.6117 55.5024L36.5474 54.9382L36.5077 54.842L36.492 54.736L36.3828 54.4717L36.3671 54.3656L36.0881 54.0308L36.0395 53.5726L35.7903 53.3099L35.7375 52.9097L35.6017 52.8533L35.4753 52.3429L35.294 52.1083L35.2428 51.8482L35.1012 51.7098L34.3949 52.4516L34.3354 52.3074L34.1771 52.401L34.012 52.7505L33.7958 52.8398L33.6662 53.3434L33.3862 53.3466L33.3653 53.6365C32.3884 53.4962 31.8437 53.2899 31.7312 53.0175C31.6518 52.8253 31.6577 52.6353 31.7489 52.4476L31.576 52.0971C31.9187 51.6554 32.2869 51.3439 32.6808 51.1624L32.7796 50.9247L33.4195 50.2946L33.5182 50.0569L34.2109 49.827L34.3112 49.7293L34.18 48.7989L34.8064 48.6808L35.449 49.1468L35.5759 48.8412L36.1375 48.9749C36.3457 48.8888 36.5625 48.8462 36.7879 48.8469L36.9974 49.0135L37.1358 48.8719L37.3876 48.9367C37.4997 48.8903 37.5912 48.862 37.6619 48.8515L37.6974 49.0056L38.1566 48.619L38.54 48.7982L39.0562 48.7537L39.5274 49.0092L40.253 49.1314L40.2969 49.1695L40.8131 49.1251L40.8726 49.2692C41.0405 49.3124 41.1895 49.4009 41.3198 49.5346L41.5617 49.5753L41.8151 49.7801L42.1034 49.661L42.302 50.1416L42.5397 50.2403L42.6572 50.3887L42.9174 50.3375C43.1016 50.6927 43.3348 50.9621 43.6169 51.1456L43.6864 51.3138L44.026 51.4548L44.1368 51.8592L44.5077 52.2123L44.7883 52.6871L44.9763 52.6657ZM43.323 53.7707L43.2493 53.6605L43.2336 53.5544L42.9108 53.1814L42.9175 52.9255L42.742 52.7729L42.6187 52.5426L42.2676 52.2375L42.0623 52.0129L41.4437 51.537L41.0561 51.4158L40.7191 51.0768L40.4631 51.07L39.8702 50.7242L39.5056 50.9311L39.0584 50.6658L38.8379 50.8131L38.5407 50.5702L38.4346 50.5859L38.0982 50.7248L37.9075 50.9443L37.6359 50.8314L37.4154 50.9788L37.2498 50.8503L36.7875 50.9569L36.9306 51.2353L37.0712 51.7117L37.2765 51.9364L37.742 52.1098L37.7159 52.7957L37.8888 53.1462L38.0665 53.9168C38.2403 54.2013 38.4423 54.4179 38.6725 54.5666L38.6856 54.8706C38.7083 54.88 38.7229 54.8928 38.7295 54.9088C38.7494 54.9568 38.7151 55.0554 38.6266 55.2045L38.8842 55.3512L38.8831 55.6892L38.9641 56.0215L39.1752 56.3281L39.2802 56.6505L39.7849 56.442C39.8357 56.3835 39.9172 56.3311 40.0293 56.2847C40.1735 56.2252 40.3215 56.2203 40.4734 56.2701C40.4894 56.2635 40.5181 56.2422 40.5596 56.2063C40.5916 56.1931 40.6156 56.1832 40.6317 56.1766C40.6797 56.1567 40.7745 56.1363 40.9158 56.1154C40.9921 56.0276 41.0703 55.9672 41.1504 55.9341C41.2786 55.8812 41.4119 55.8636 41.5506 55.8813L41.7668 55.792L41.9789 55.7606L42.4 55.4179L42.8837 55.4994C43.0478 55.4879 43.1138 55.4887 43.0817 55.502L43.3497 54.8568L43.2588 54.5005L43.3591 54.4028L43.2075 54.2404L43.2963 53.9786L43.323 53.7707ZM61.2196 48.4872C61.2991 48.6795 61.2508 48.9713 61.075 49.3628L60.9125 49.5143L60.8337 49.8001L60.4508 50.0989C60.417 50.2441 60.36 50.3333 60.2799 50.3664C60.2639 50.373 60.2446 50.3716 60.222 50.3622C60.1899 50.3754 60.1659 50.3854 60.1499 50.392C59.8702 50.7138 59.4821 50.9773 58.9855 51.1825L58.7932 51.2619L58.1428 51.3899L57.6549 51.3664L56.4241 50.9747L55.9638 50.4053L55.4503 50.2517C55.4719 50.1678 55.4529 50.0537 55.3933 49.9096C55.3536 49.8134 55.2233 49.6797 55.0025 49.5084L54.8364 48.9019L54.7966 48.8057C54.7172 48.6135 54.5586 48.3884 54.3207 48.1303L54.1671 47.3498L54.1128 48.1037L53.7722 48.3006L53.9326 48.8251C53.8309 48.9421 53.6919 49.0371 53.5157 49.1099L53.4896 49.7958L53.3262 50.2853C53.2576 50.4824 53.1785 50.6088 53.089 50.6646L53.0368 50.7424L52.539 51.9889L52.4429 52.0286L52.2047 52.7459L51.8615 53.1409L51.7502 53.5525L51.267 53.9491L50.6031 54.5891L50.0232 54.5473C49.7028 54.6797 49.419 54.6281 49.1717 54.3927L48.9058 54.3619C48.8859 54.3138 48.8675 54.2465 48.8504 54.1597C48.8173 54.0796 48.7941 54.0236 48.7809 53.9915L48.2574 53.8139L48.294 53.63L47.7277 53.0763L47.7841 52.9405L47.7162 52.9123C47.7029 52.8802 47.6831 52.8322 47.6566 52.7681C47.6207 52.7267 47.5962 52.6899 47.5829 52.6579C47.5101 52.4817 47.4647 52.3035 47.4465 52.1235L47.2125 51.4888L46.9079 51.0238C46.935 50.8626 46.9288 50.7339 46.8891 50.6378C46.8427 50.5256 46.7516 50.4414 46.6158 50.3849L46.8007 50.0835L46.6816 49.7951L46.2579 49.0418L45.8869 47.3947C45.781 47.1384 45.5534 46.7917 45.204 46.3546C45.0403 45.8221 45.2609 45.4028 45.8659 45.0966L46.0879 45.0893L46.4442 44.9984L47.0752 45.3003L47.1892 45.9847L47.568 47.0378L47.9677 47.801L47.9426 48.149L48.0941 48.3114L48.1328 48.7455L48.2321 48.9858L48.2138 49.0778C48.2497 49.1192 48.2875 49.188 48.3272 49.2841C48.4132 49.4924 48.4705 49.7219 48.4991 49.9726L48.6887 50.0912L48.7415 50.4914L48.9087 50.7599L49.0477 51.0963C49.1675 51.1593 49.2572 51.263 49.3167 51.4071C49.3697 51.5353 49.3906 51.6767 49.3794 51.8313L49.4192 51.9274C49.6118 52.1667 49.7246 52.3264 49.7577 52.4065L50.0633 52.5334C50.133 52.4296 50.212 52.3032 50.3005 52.1541C50.2823 51.9741 50.3515 51.8236 50.5078 51.7027L50.4086 51.4624C50.5047 51.4227 50.647 51.3358 50.8354 51.2017L50.7941 50.9656L51.1331 50.6286L51.1754 50.5268C51.2412 50.3683 51.3824 50.1881 51.5991 49.9861L51.5593 49.8899L51.8769 49.3649C51.8633 49.0142 51.9809 48.7312 52.2295 48.516C52.3329 48.2669 52.4101 48.1132 52.4609 48.0547L52.6045 47.5171L52.5748 47.445L52.651 47.3572L52.8276 47.1718L52.8088 46.7857L53.2241 46.361L53.3102 46.2972C53.3102 46.2972 53.3432 46.218 53.409 46.0595L53.3196 45.8433L53.444 45.7356C53.3861 45.4595 53.4349 45.2143 53.5902 45.0001L53.6131 44.0341L53.5546 43.552L53.5629 43.436L53.659 43.3963L53.7776 43.2066L53.6136 43.2181C53.6707 42.857 53.6811 42.4963 53.6449 42.1362L54.3318 41.8243L55.0731 42.0526L55.4723 42.3378L55.6348 43.4803L55.4729 44.1098L55.5717 45.1661L55.391 45.4095L55.5399 45.77L55.5049 46.0939L55.7557 46.4966L55.6329 46.7443L56.0467 47.4735L56.5415 48.535L56.6616 48.4854L56.9197 49.1102L57.4249 49.3797L57.8068 49.4189L57.8805 49.5291C57.9992 49.4988 58.1519 49.4826 58.3386 49.4805L58.9592 49.2804L59.28 49.0353L59.7997 48.4549C59.9014 48.3379 60.0484 48.2397 60.2406 48.1603C60.7212 47.9617 61.0476 48.0707 61.2196 48.4872ZM68.8395 43.9047C68.9123 44.0809 68.9078 44.2515 68.826 44.4166C68.7772 44.6618 68.6517 44.9481 68.4494 45.2755L68.2785 45.543L68.1814 45.9207L68.0048 46.1062L67.7578 46.4614L67.5274 46.5847L67.471 46.7205C67.1903 46.949 67.0081 47.2118 66.9246 47.5089C66.8455 47.6353 66.7579 47.7184 66.6618 47.7581C66.5977 47.7846 66.5384 47.7997 66.4837 47.8035C66.2775 48.0763 65.9582 48.302 65.5256 48.4806C65.1572 48.6329 64.9036 48.7001 64.765 48.6823L64.2332 48.6207L63.9897 48.44L63.96 48.3679C63.8739 48.1596 63.7163 48.0278 63.4872 47.9725L63.1925 47.5316L62.9109 47.3947L62.4234 46.5552L62.181 46.0365L62.0462 45.6421L62.0347 45.478C61.9469 45.4018 61.8799 45.3076 61.8336 45.1954C61.6357 44.4895 61.5004 44.0484 61.4276 43.8722L61.0326 43.529L61.1 43.0792L60.9239 42.4487L60.7071 42.06L60.7023 41.64L60.3596 41.2189L60.4369 40.7932L60.3716 40.567L60.0241 39.7259L60.0267 39.5279L59.5858 38.5286L59.231 37.4655L59.0555 37.313L58.7336 36.602L58.5377 35.9234L58.3663 35.7129L57.9149 34.2115C58.5215 33.7733 58.7848 33.5708 58.7047 33.6039C58.961 33.498 59.2255 33.5481 59.4983 33.7543L59.6257 33.9267L60.1351 34.1382L60.1513 34.7223L60.2391 34.7985C60.3328 35.1162 60.3755 35.333 60.3671 35.4489L60.6237 35.9337L60.9324 36.3407L60.9727 36.9148C61.0852 37.1871 61.1477 37.452 61.1603 37.7094C61.1934 37.7895 61.2303 37.9242 61.271 38.1137L61.3066 38.2678L61.632 38.4428L61.6451 38.7468C61.7301 38.8618 61.7825 38.9432 61.8024 38.9913C61.8421 39.0874 61.863 39.2288 61.8651 39.4155L62.0025 39.6119L62.176 40.4404L62.3845 40.9451L62.4247 41.5192L62.7095 41.9361L63.0501 43.0331L63.1719 43.1235L63.28 43.7258L63.5099 44.4185C63.5176 44.5279 63.5247 44.5906 63.5314 44.6066C63.6439 44.8789 63.7285 45.1065 63.7853 45.2894L64.0444 45.5761L64.1453 45.9564L64.4185 46.2093L64.4441 46.3394C64.5733 46.3797 64.7144 46.4715 64.8673 46.6146L65.0835 46.5253L65.4356 46.4924L65.5004 46.2406L65.7068 46.1272C65.7896 46.0554 65.8551 46.0096 65.9032 45.9898L65.9753 45.96C66.1222 45.8618 66.2173 45.7287 66.2605 45.5609L66.3749 45.4292C66.4142 45.2067 66.5488 45.0104 66.7787 44.8404C66.8323 44.7433 66.9315 44.5522 67.0764 44.2673C66.9838 44.043 67.0504 43.8186 67.2765 43.5939C67.5168 43.4947 67.6604 43.3884 67.7074 43.2752C68.0477 43.1909 68.2843 43.1963 68.4174 43.2914C68.5598 43.3638 68.7005 43.5682 68.8395 43.9047ZM76.6462 32.3528L76.5349 32.7645L76.9654 33.2618L76.8019 33.7513L76.8902 34.3056L76.8678 34.4555L76.9655 34.5558C77.0581 34.7801 77.0715 34.9714 77.0057 35.1299L76.9875 35.2219L77.0272 35.318C77.1215 35.4103 77.1886 35.5045 77.2283 35.6006C77.2614 35.6807 77.2765 35.7401 77.2738 35.7787L77.3375 35.8649L77.3506 36.169L77.5418 36.4275L77.429 36.6992L77.64 37.0058L77.8537 37.1145L77.7169 37.3961L77.8757 37.7806L77.8663 38.2345L78.1453 38.5694L78.0805 38.8212L78.3903 38.8901L78.2822 39.5818L78.288 39.6638L78.5481 39.6126L78.6083 40.2348L78.648 40.3309C78.6943 40.4431 78.7227 40.5345 78.7331 40.6052L78.7869 40.6673L79.1913 40.5566L79.7022 40.9081L79.6829 41.3381L79.9373 41.2048C80.1129 41.3574 80.2384 41.5024 80.314 41.64L80.1025 42.1493C80.0366 42.3078 79.9228 42.4861 79.7608 42.6843L79.4417 43.0693L79.2719 42.9988L79.0911 43.2423L77.9888 42.6849L77.8201 42.2764C77.5916 41.9957 77.4211 41.7192 77.3086 41.4469L77.249 41.3027L76.5191 39.9445L76.2944 38.8558L75.912 38.3386L75.7814 39.1802L75.8233 39.8944L75.6707 40.0699L75.5527 40.7375L75.1803 41.5384L75.1312 41.8963L74.7911 42.5712L74.8001 42.9333L74.2296 43.7315L73.7898 44.9822L73.373 45.2669L73.1598 45.6363C72.7527 45.7857 72.3855 45.7593 72.0581 45.557C71.1916 45.5023 70.6066 45.1532 70.3032 44.5096L70.3936 44.3879L70.31 44.2537L70.1669 43.9752L69.8936 43.7224L69.8988 43.3264L69.7384 42.8019L69.579 41.9394C69.5724 41.9234 69.5592 41.8914 69.5393 41.8433C69.5101 41.8179 69.4888 41.7891 69.4756 41.7571C69.4491 41.693 69.4321 41.6063 69.4244 41.497C69.3951 41.4715 69.3606 41.4108 69.3209 41.3146C69.2746 41.2025 69.2466 40.9984 69.2368 40.7024L69.3752 40.5608C69.246 40.5204 69.1615 40.4521 69.1218 40.356C69.0954 40.2919 69.0835 40.2406 69.0863 40.2019C69.0504 40.1605 69.0193 40.1077 68.9928 40.0436C68.9134 39.8514 68.9499 39.6675 69.1025 39.492C69.0843 39.3119 69.1063 39.1153 69.1683 38.9022L68.9687 38.7596L69.1081 38.28L69.0684 38.1839C68.9427 37.8795 68.931 37.5561 69.0334 37.2137L68.8307 36.7911L68.8871 36.6553C68.8804 36.6393 68.8705 36.6152 68.8573 36.5832C68.828 36.5578 68.8101 36.5371 68.8035 36.521C68.7638 36.4249 68.7627 36.3316 68.8003 36.241L68.7408 36.0969C68.7387 35.9102 68.8076 35.6004 68.9476 35.1675C69.0876 34.7346 69.172 34.3715 69.2009 34.0782L69.3707 34.1488L69.5854 33.9194L69.6857 33.8217L70.3298 33.1337L72.2198 32.4654L72.2893 32.6336L72.9156 32.5155C73.2841 32.3633 73.574 32.3842 73.7855 32.5781C73.7656 32.5301 73.7504 32.4707 73.74 32.4C73.7201 32.3519 73.7069 32.3199 73.7003 32.3039L74.3935 32.552L74.8898 32.4595L75.6656 31.8858L76.2261 32.3575L76.6462 32.3528ZM74.8795 34.5455L74.7139 34.417L74.5018 34.4483L73.5087 34.1553L72.9983 34.2818L72.6138 34.4406L72.5459 34.4124L72.3834 34.5639L72.1175 34.5331L71.4927 34.7912L71.6045 34.8575L71.1313 35.2781L71.0848 35.438L71.0226 35.4918C70.8335 35.8512 70.716 36.1342 70.67 36.3407L70.7401 36.9869L70.7333 37.2429L71.1126 37.4801L70.8331 37.9612L70.9209 38.0375C70.8704 38.4147 70.9047 38.7474 71.0239 39.0358L70.9309 39.3555L71.1096 39.7881L71.0067 40.0837L71.048 40.3199L70.9957 40.3977L71.1347 40.7341L71.1122 40.8841C71.1917 41.0763 71.2385 41.2351 71.2528 41.3605L71.3505 41.4608L71.3228 42.0067L71.4785 42.1112L71.4096 42.421L71.7664 42.8081L71.6411 43.2537L71.8777 43.6904L71.9075 43.7625L72.0235 43.7708L72.1337 43.6972C72.1807 43.584 72.2311 43.4788 72.2847 43.3816L72.1572 43.2092L72.4738 43.0222L72.4764 42.8242L73.4177 41.0851L73.542 40.9774L73.5414 40.4994C73.6243 40.4277 73.734 40.3074 73.8705 40.1384L73.8559 39.6944L74.0481 39.615L73.8073 39.2362L74.1238 39.0492C74.1294 38.9719 74.1444 38.8719 74.1687 38.7493C74.2091 38.6201 74.2528 38.4989 74.2998 38.3857L74.8503 36.2454L74.8937 35.8055L74.8299 35.7193L74.8889 35.3855L74.8278 35.1013L74.9647 34.8197L74.8795 34.5455ZM88.9083 28.2155L89.0437 29.0879L88.2042 29.5754L87.8526 30.0863L87.4807 30.0712L87.2237 30.4024L86.9228 30.6955L86.752 30.963L86.7917 31.0591L86.3863 31.5079L86.2286 32.0794L86.0604 32.1489C85.9166 32.5271 85.8018 32.7714 85.7162 32.8818L85.6081 33.5735L85.5078 33.6712C85.5126 33.8192 85.536 34.0346 85.5778 34.3174L85.291 34.5766L85.266 34.9245L85.173 35.2442L85.2738 35.6245L85.1114 35.776L85.2603 36.1365L85.218 36.2383C85.2991 36.2986 85.3916 36.3635 85.4954 36.4332L85.1945 36.7263L85.2755 37.0585L85.2039 37.5663L85.4772 37.8191L85.3435 38.3807C85.4417 38.5277 85.504 38.6332 85.5305 38.6973C85.5371 38.7133 85.5504 38.7454 85.5702 38.7934C85.5741 38.8481 85.5826 38.8915 85.5958 38.9235L85.7332 39.1199L86.3204 39.3837L86.2364 40.0655L86.0373 40.4008L85.5035 41.0152L84.4655 41.0221L84.2371 40.4694L84.0517 40.2928L83.9748 39.9026C83.8369 39.6595 83.7415 39.4739 83.6885 39.3457C83.6687 39.2977 83.6502 39.2303 83.6331 39.1436C83.6001 39.0635 83.5769 39.0074 83.5637 38.9753L83.4404 38.745C83.2819 38.6792 83.1729 38.5742 83.1133 38.43C83.0604 38.3018 83.0569 38.1345 83.1028 37.9279C83.0697 37.8478 82.9545 37.6142 82.757 37.2269L82.7993 37.125L82.5981 36.8424L82.5271 36.5342L82.4095 36.3858L82.2533 35.8034L82.0098 35.6226L81.9967 35.3186L81.7716 35.0459C81.7479 34.9431 81.7029 34.8117 81.6368 34.6515C81.5375 34.4112 81.4393 34.2642 81.3421 34.2106L81.3787 34.0267L81.1038 33.6339L80.7585 33.4108L80.7198 32.9767L80.5642 32.8722L80.2298 32.3352L80.1504 32.143C80.0306 32.0799 79.9409 31.9763 79.8813 31.8321C79.7489 31.5117 79.9889 31.0938 80.6011 30.5783L81.2515 30.4503L81.5603 30.8572L81.9296 31.0703L82.1256 31.7489C82.306 32.0495 82.5077 32.3788 82.7306 32.7368L82.9615 33.0915C82.9908 33.1169 83.0432 33.1984 83.1188 33.336C83.1585 33.4321 83.1614 33.5528 83.1277 33.698L83.3983 34.1488L83.5686 34.6973L83.5718 34.9773L83.6836 35.0437L83.8309 35.2641C83.8807 35.1123 83.8871 34.969 83.8502 34.8342L83.7974 34.434C83.8058 34.3181 83.8481 34.2162 83.9244 34.1284L83.8716 33.7283L84.1286 33.397L84.0575 33.0888L84.2027 32.6912L84.2461 32.2514C84.3617 31.9411 84.5024 31.7142 84.6681 31.5707L84.6864 31.4787L84.7637 31.0529L84.9841 30.9056L85.0265 30.8037L85.063 30.6198L85.2678 30.3665L85.3425 30.1387L85.4966 30.1032L85.6491 29.9276L85.6857 29.7437L85.9145 29.4804L86.2138 29.0473L86.7111 28.6168C86.9221 28.4921 87.0357 28.4265 87.0517 28.4199C87.0583 28.4359 87.0616 28.4439 87.0616 28.4439C87.0456 28.4505 87.0409 28.4618 87.0475 28.4779L87.0715 28.4679C87.1356 28.4415 87.2185 28.3697 87.3202 28.2527C87.3738 28.1555 87.4727 28.0771 87.6169 28.0176C87.681 27.9911 87.7998 27.9608 87.9732 27.9267C88.3963 27.7706 88.708 27.8669 88.9083 28.2155Z" fill="white"/>
<path d="M98.2949 112.018L107.761 107.596L101.676 96.9006" stroke="white" stroke-width="2.5" stroke-linecap="round"/>
</svg>
