<svg width="13" height="12" viewBox="0 0 13 12" fill="none" xmlns="http://www.w3.org/2000/svg">
<path d="M2.47524 8.91143C4.14329 12.1565 8.99787 12.1476 11.2645 9.3028C13.7185 6.22184 11.5709 1.95398 8.46564 0.624614C5.02213 -0.847069 0.81836 1.66061 0.0976035 5.44651C-0.623154 9.23241 2.75906 12.399 6.37537 11.7988C7.34617 11.6398 6.96664 10.1495 6.0073 10.3106C3.28472 10.7603 0.90065 8.04206 1.66909 5.32096C2.43754 2.59986 5.58255 0.933072 8.08204 2.16429C10.0369 3.12521 11.6209 5.76557 10.3569 7.96221C8.96935 10.3656 5.04987 10.5347 3.79963 8.11796C3.34871 7.24409 2.01922 8.03903 2.46887 8.90775L2.47524 8.91143Z" fill="white"/>
</svg>
