<svg width="36" height="30" viewBox="0 0 36 30" fill="none" xmlns="http://www.w3.org/2000/svg">
<path d="M35.7571 28.9763C29.4227 24.3827 19.7198 19.3598 10.6718 19.7772C6.22683 19.9844 -0.0811923 24.4892 4.64982 27.8664C9.06092 31.0216 14.3151 26.4605 14.5183 22.9797C14.7329 19.3746 12.4934 15.5979 10.6831 12.3717C8.23203 8.06205 5.14325 3.99477 1.48076 0.254101C0.889851 -0.358585 -0.450039 0.254099 0.152159 0.863825C3.08096 3.8553 5.6489 7.0549 7.82265 10.4211C10.4573 14.5649 14.571 20.6207 11.6203 24.9924C11.0281 27.4866 9.68068 27.7046 7.57801 25.6465C4.56702 25.1197 4.07648 24.2317 6.10639 22.9827C7.81512 21.1624 10.1562 20.9108 12.9677 21.0973C15.6475 21.2689 18.267 22.0237 20.7436 22.8021C25.8956 24.4535 30.6164 26.8375 34.6694 29.8347C35.3958 30.3616 36.491 29.5091 35.7571 28.9763Z" fill="white"/>
</svg>
