<svg version="1.2" xmlns="http://www.w3.org/2000/svg" viewBox="0 0 1450 24" width="1450" height="24">
	<title>38-svg</title>
	<defs>
		<clipPath clipPathUnits="userSpaceOnUse" id="cp1">
			<path d="m0 0h1450v24h-1450z"/>
		</clipPath>
	</defs>
	<style>
		.s0 { fill: none } 
		.s1 { fill: #f3f8ff } 
	</style>
	<g id="Clip-Path: Slice-2" clip-path="url(#cp1)">
		<g id="Slice-2">
			<path id="slice_1" class="s0" d="m0 0h1450v24h-1450z"/>
			<path id="Rectangle" fill-rule="evenodd" class="s1" d="m0-655.3c0 0 86.1 5.7 127.2 5.6 149.6-0.1 186.6-6.2 347.8-6.2 161.3 0 210.3 0.6 210.3 0.6 0 0 112.7 5.6 208.2 5.6 95.5 0 87.2-4.2 191-5.6 103.8-1.5 132.2 0 211 0 78.9 0 154.5 0 154.5 0v671.6c0 0-33.3 7.7-185 7.7-151.6 0-159-7.7-309.3-7.7-150.3 0-126.6 7.7-318.6 7.7-191.9 0-244.5-11.4-376.7-11.4-132.2 0-260.4 11.4-260.4 11.4z"/>
		</g>
	</g>
</svg>