<svg width="123" height="139" viewBox="0 0 123 139" fill="none" xmlns="http://www.w3.org/2000/svg">
<g clip-path="url(#clip0_0:43499)">
<path d="M3 131C3 131 47 114 57 78.6493" stroke="black" stroke-width="2.5" stroke-linecap="round"/>
<path d="M5.82819 120.814L2.3908 130.87L14.8931 135.029" stroke="black" stroke-width="2.5" stroke-linecap="round"/>
<path d="M72.3894 31.2716C72.1746 31.4985 71.7785 31.5783 71.2013 31.511L70.6528 30.6976L70.2866 29.5384L70.2923 28.8864L70.4219 28.4034L70.4327 28.1235C70.4524 27.5252 70.554 27.0201 70.7373 26.6084C70.7796 26.5134 70.8562 26.4052 70.9672 26.2839L71.0358 26.2575L71.2842 25.8274L71.2319 25.1779L71.4538 24.9352L71.5755 24.534L71.7473 24.2121C71.7844 24.0009 71.8346 23.8241 71.8981 23.6816L71.951 23.5628C72.0779 23.2778 72.1652 22.9751 72.2129 22.6548L72.509 21.9898L72.5331 21.4882L72.6337 21.1345L72.3433 21.1475L71.1602 21.7592L70.1673 22.1994L69.6945 22.5582L68.5986 23.0379L67.5478 23.2246L67.2519 23.6336L66.7028 23.5884L66.4915 23.8074L65.8051 23.8148L65.4142 24.1815L64.9232 24.1337L64.1097 24.6823L63.7507 24.7216C63.6996 24.7937 63.601 24.9301 63.4547 25.1306C63.1608 25.1515 62.8793 25.1021 62.6101 24.9822L62.4676 24.9188L62.431 24.3617L62.2862 23.7281L62.45 23.4879L62.3606 23.0497L62.5533 22.9363L62.5402 22.9019L62.5906 22.469L62.464 22.2419C62.2971 21.8071 62.183 21.4242 62.1216 21.0933L62.18 20.5786L62.0588 20.2116L61.9777 19.1793L61.7353 18.4453L61.6959 18.0862L61.4561 17.4102L61.264 16.4993C61.2887 16.3586 61.266 16.1966 61.1957 16.0136C60.8944 16.5625 60.6046 16.9363 60.3264 17.1349L59.5816 17.6572L59.4677 18.2326L59.0213 18.66L57.8906 19.9211L57.4891 20.3115L57.3041 20.5992L56.5751 21.2138L56.0099 21.5883L55.8459 22.0845C55.6381 22.2955 55.3801 22.5127 55.072 22.736L54.9607 23.3695C54.297 23.6243 53.8464 23.6988 53.6089 23.593C53.3556 23.4802 53.2184 23.2769 53.1975 22.9829C53.1431 22.8069 53.1353 22.6327 53.1741 22.4602L53.2164 22.3652C54.0231 21.3203 54.474 20.8191 54.569 20.8614C54.5848 20.8684 54.5892 20.8798 54.5822 20.8957L54.762 20.4919C54.9453 20.0802 55.2411 19.8419 55.6494 19.7771L55.7129 19.6345L56.0669 19.223L56.1172 19.0461C56.1524 18.9669 56.3224 18.777 56.627 18.4762L56.7644 18.4235L57.0736 17.7928L57.4909 17.4948L58.376 16.4658L58.585 15.6766L59.0101 15.5528L59.0419 15.4815L59.5018 14.5763L59.7528 14.2043C59.8567 14.0987 59.9299 13.9985 59.9722 13.9035L60.0145 13.8085L59.9491 12.8686L60.2688 12.4702L60.4799 12.5073L60.7519 12.3438L60.8128 12.1432L61.2485 11.9957L61.4199 12.1858L61.8107 12.0752L62.1221 12.2708L62.5361 12.9389L62.4621 13.1052L62.6124 13.3429L62.4642 13.9315L62.567 14.148L62.5086 14.6628L62.4188 14.7366L62.5585 14.9981C62.6747 14.9929 62.7724 15.0079 62.8515 15.0432C62.9254 15.133 63.0062 15.2923 63.0941 15.5211L62.9935 15.8748L63.1016 16.2075L63.0458 16.7803L63.673 18.3119L63.5987 18.9903L63.8492 19.3864L63.8062 20.5057L63.9715 22.1162C63.9803 22.1391 64.0031 22.2156 64.04 22.3459L64.0558 22.4383L64.2933 22.5441L64.6631 22.2249L65.3918 22.1224C65.9322 21.8887 66.2095 21.756 66.2236 21.7243C66.2306 21.7085 66.2183 21.6935 66.1867 21.6794L66.1629 21.6688C66.2703 21.6407 66.3979 21.6311 66.5457 21.64C66.5985 21.6066 66.7411 21.5847 66.9734 21.5743C67.19 21.3862 67.4611 21.2887 67.7867 21.2818L67.9452 21.1816L68.0403 20.9678C68.6319 20.662 69.064 20.5224 69.3368 20.549C69.4496 20.2956 69.7973 20.1753 70.3798 20.188L71.0717 19.7845L71.394 19.4442L71.6553 19.5605C71.9863 19.3284 72.2267 19.1508 72.3763 19.0277L72.7723 19.0333L72.928 19.131L73.092 18.6348L73.0897 18.0646L73.6443 17.7139L74.0987 17.2047C74.2413 17.2681 74.3794 17.3201 74.5131 17.3607C74.6468 17.4013 74.7058 17.418 74.6899 17.411C74.7849 17.4533 74.9714 17.6312 75.2492 17.9446L75.2122 18.1558L75.3783 18.4859L75.3174 18.6865L75.4703 18.9822L75.2987 19.0481C75.4939 19.2489 75.5527 19.4363 75.4752 19.6105C75.447 19.6739 75.3959 19.746 75.3219 19.8269L75.1527 20.2069C75.1633 20.2685 75.1948 20.4534 75.2474 20.7614L75.052 20.8167L74.9754 20.9249L75.0123 20.9698L74.9144 21.3815L75.1306 21.7909L74.7213 22.0071L74.3698 22.4767L74.3669 22.9308L74.0762 23.4559L73.9727 24.2637C73.9267 24.6227 73.8614 24.8972 73.7768 25.0872C73.7274 25.1981 73.5892 25.3168 73.3621 25.4433C73.4447 25.556 73.4579 25.6757 73.4015 25.8024C73.3521 25.9132 73.2411 26.0346 73.0686 26.1665L73.1213 26.3038L72.4578 27.6022L72.3913 28.4548L72.0423 29.2386C72.0739 29.4235 72.0825 29.6171 72.0683 29.8194C72.0788 29.881 72.1684 30.1486 72.3371 30.6221C72.4266 30.8897 72.4441 31.1062 72.3894 31.2716ZM85.1734 30.3605L84.8405 30.7246C84.6572 31.1363 84.4889 31.4504 84.3357 31.6667L84.0874 31.8408L83.9711 32.1021L83.7783 32.2155L83.559 32.5163L83.1814 32.6612L82.7508 33.181L82.529 33.1677L82.3177 33.3866L81.9586 33.426L81.5888 33.7452L81.2404 33.7608L81.0897 34.0352L80.5644 34.0006C80.2316 34.194 79.8972 34.2632 79.5611 34.2085L79.4555 34.1899C79.0858 34.4238 78.7188 34.4596 78.3546 34.2974C78.1539 34.3219 77.9507 34.2884 77.7448 34.1967L77.4333 34.2572L77.164 34.2227L76.7495 34.3228L76.4513 34.1616L76.0765 34.1085L75.7467 33.7625L74.7571 33.2365L74.6441 32.5316L74.3647 31.7526L74.6527 31.4254L74.656 30.4592L74.9597 30.2245L75.0948 29.6016L75.3721 29.2982C75.4392 29.0624 75.4938 28.897 75.5361 28.802C75.6701 28.5011 75.848 28.3147 76.0698 28.2426C76.1561 28.0914 76.3754 27.8759 76.7275 27.5963L76.8463 27.6492L76.8728 27.4618L77.0921 27.161L77.2507 26.8047C77.4409 26.7186 77.5544 26.6553 77.5914 26.6148L77.6682 26.2506L77.7105 26.1556C77.9201 25.9832 78.0777 25.7783 78.1835 25.5408L78.9889 25.074C78.9889 25.074 79.0118 25.0653 79.0576 25.0477C79.1192 25.0372 79.1729 25.0231 79.2186 25.0056L79.2372 24.9L79.3322 24.9423L79.8683 24.6971L80.1352 24.1614L80.8242 24.212C81.1094 24.1682 81.3576 23.9941 81.569 23.6898L81.8778 23.8273C82.0943 23.8098 82.2738 23.8328 82.4163 23.8962C82.5588 23.9597 82.6793 24.0513 82.7778 24.171L83.0285 24.3111L83.7518 24.3485L83.9468 24.8054L84.1341 25.088L84.3241 25.1726L84.5958 25.5212L84.7858 25.6058C84.9071 25.8875 85.0283 26.2545 85.1494 26.7069L85.144 26.8468L85.268 27.0158L85.4812 27.8792L85.4355 29.1965L85.3298 29.434L85.1734 30.3605ZM83.3519 30.2326L83.3811 30.1033C83.3196 29.9431 83.3091 29.7961 83.3497 29.6624L83.4738 29.5754L83.461 29.0289L83.7094 28.5988L83.6673 28.4377C83.5319 28.1877 83.4775 28.0117 83.5039 27.9096C83.3896 27.7828 83.3889 27.5927 83.5017 27.3394L83.3697 27.2522L83.2962 26.6502L83.1565 26.3888L82.7423 25.9767L82.5734 25.8446C82.4784 25.8023 82.4292 25.7424 82.4257 25.665L81.718 25.976L81.1131 26.5036L80.498 26.5428L80.3104 26.7724L80.02 26.7854L79.65 27.3606L79.3016 27.3762C79.1395 27.5697 79.0162 27.7615 78.9316 27.9515L78.3929 28.1386L78.48 28.2627C78.3954 28.4527 78.2501 28.5873 78.0441 28.6663C77.9332 28.7877 77.7993 28.9178 77.6426 29.0568L77.558 29.2468L77.4445 29.3101L77.3413 29.6057L76.7945 30.1307L76.7891 30.2706L76.493 30.9356L76.25 31.2259L76.1257 31.569L76.202 31.9729L76.4816 32.2397L76.5792 32.3401L76.8115 32.3297L77.4079 32.6522L77.6087 32.4569L77.7037 32.4992C77.7987 32.5415 77.8436 32.59 77.8383 32.6445L78.0838 32.6684L78.242 32.8243L78.646 32.748L78.7252 32.6979L78.9601 32.7456C79.1485 32.6207 79.4874 32.5629 79.9766 32.572L80.077 32.4744L80.7001 32.3534L81.1306 32.0897L81.5952 32.0688L81.6718 31.9607L81.9069 31.7523L82.0444 31.4435L82.4352 31.3329L82.6042 31.2089L82.7864 31.1193C82.8077 30.901 82.8359 30.7523 82.8712 30.6732C82.9346 30.5307 83.0491 30.4014 83.2146 30.2853L83.3519 30.2326ZM94.2249 38.7165L93.7919 38.9222L93.2556 39.4234L93.0022 39.4813L92.6879 39.7398L92.1917 39.5758L91.7454 39.7471L91.2704 39.5356L90.8796 39.6462L90.65 39.4587L90.3095 39.3924L90.2249 39.5825L89.3778 39.1199L88.9872 38.9745L88.6387 38.9901L88.4647 38.7418C88.6301 38.7965 88.7603 38.845 88.8553 38.8873C88.7216 38.8467 88.3274 38.7092 87.6729 38.4747L87.6122 38.4192L87.4328 38.3108L87.0499 38.3396C86.9831 38.234 86.8407 38.0852 86.6226 37.8932C86.2883 37.7064 86.0658 37.5884 85.9549 37.539L85.7649 37.4544C85.6611 37.3892 85.5459 37.3284 85.4192 37.272C85.2925 37.2156 85.1517 37.1909 84.9969 37.1978L84.7595 36.836L84.5906 36.7039C84.5431 36.6828 84.4666 36.6202 84.3611 36.5163C83.8034 36.1921 83.729 35.5708 84.1379 34.6524L84.2331 34.4386L84.8324 34.307L85.4977 34.3471L85.83 34.7512L86.1626 34.8992L86.1308 34.9705C86.261 35.1043 86.3313 35.2874 86.3417 35.5197L86.5211 35.6281L86.3836 35.9369L86.6607 36.1456L86.7108 36.2248L89.8357 37.3884L90.6249 37.5975L90.6961 37.6292L90.7965 37.5316L91.1502 37.6322L91.2294 37.5821C91.5831 37.6826 91.9342 37.7251 92.2826 37.7095L92.3593 37.6013C92.3505 37.5784 92.3435 37.5089 92.3383 37.3927L92.209 37.3636L92.0059 36.9886L91.7922 36.8934L91.7474 36.6743L91.861 36.611L91.5786 36.5422L91.4837 36.2438C91.4292 36.2385 91.3465 36.2112 91.2356 36.1618C91.0298 36.0702 90.8415 35.9389 90.6709 35.7681L90.4572 35.6729L90.3226 35.5276L89.9372 35.4983L89.8424 35.2L89.7711 35.1682L89.5549 34.7589L88.9455 34.1461L88.7926 33.8503L87.964 33.2822L87.943 33.0736L87.4683 32.35L87.461 31.4075L87.3558 30.8768L87.8107 29.5994L87.9691 29.4992C88.163 29.1491 88.4306 28.8888 88.7722 28.7183C89.0661 28.6974 89.2659 28.5682 89.3717 28.3306L89.7597 28.418C89.8794 28.3195 90.059 28.2572 90.2984 28.2309L90.7815 28.1045L92.5317 28.2007L92.8247 28.2458L93.3209 28.4098L94.1999 28.545L95.654 29.3062L95.6486 29.4461C95.77 29.5571 95.872 29.7543 95.9545 30.0377L95.9016 30.1564L96.1759 30.5632L95.7558 31.0592L95.6131 31.2518C95.3419 31.6054 95.0321 31.7046 94.6837 31.5495C94.3987 31.4226 94.2448 31.1928 94.2222 30.8602L94.2539 30.7889L93.9794 30.6383L93.6046 30.5852L93.391 30.234L93.1719 30.2787C92.966 30.1871 92.7478 30.1658 92.5172 30.2149C92.2797 30.1092 92.0078 30.102 91.7015 30.1933L91.3927 30.0558L91.1049 30.1269L90.7407 30.0501L90.672 30.0765L90.4978 30.0843L90.1888 30.2029L90.107 30.1949L89.7452 30.4322L89.4205 30.4584C89.2655 30.6361 89.1483 30.7926 89.069 30.9281C88.9862 31.1568 88.943 31.3178 88.9394 31.4111C88.9587 31.4956 89.0378 31.6162 89.1767 31.7729L89.1239 31.8917L89.3586 32.1954C89.5697 32.4033 89.7139 32.5908 89.7912 32.758L90.2662 32.9695L90.4587 33.3683L90.9732 33.6828L91.1236 33.9205L91.9336 34.5942L91.936 34.9083L92.105 34.7843C92.3109 34.876 92.5457 35.0944 92.8095 35.4395L93.2053 35.7011L93.1788 35.8885L93.5588 36.0577L94.0547 36.7339C94.0422 36.975 94.1318 37.2425 94.3234 37.5366L94.5106 37.8192L94.3125 38.0725C94.3528 38.2802 94.3342 38.4711 94.2567 38.6453L94.2249 38.7165ZM106.396 36.252C106.333 36.3945 106.13 36.4657 105.789 36.4654C105.69 36.5164 105.54 36.5348 105.338 36.5206C105.074 36.5169 104.88 36.5256 104.757 36.5466L104.332 36.1582C103.994 36.2355 103.627 36.1859 103.231 36.0097L102.978 35.8115L102.68 35.9064L102.038 35.6208L101.518 35.7023C101.372 35.5615 101.22 35.4558 101.062 35.3853C101 35.3958 100.875 35.3781 100.687 35.3322C100.608 35.297 100.531 35.2344 100.457 35.1446L99.9841 36.0155L99.7118 36.6911L99.2704 37.4907L98.916 38.4145L98.7969 38.8737L98.6489 39.2063L98.6642 40.0669C98.5955 40.0932 98.5471 40.1381 98.5189 40.2014C98.4695 40.3123 98.6049 40.4769 98.9251 40.6953L98.8457 41.0015L98.9802 41.1468L99.1807 41.4637L99.3072 41.6908C99.4797 41.7297 99.5976 41.7632 99.6609 41.7914C99.8034 41.8548 99.9354 41.942 100.057 42.053C100.134 42.0495 100.318 41.9986 100.609 41.9002C100.807 41.837 100.97 41.8336 101.097 41.89C101.113 41.897 101.137 41.9076 101.168 41.9217C101.193 41.9517 101.213 41.9701 101.229 41.9772C101.505 41.7398 101.847 41.6547 102.253 41.7218C102.586 41.8699 102.817 42.0962 102.947 42.4007L102.873 42.567C102.633 43.1054 102.292 43.3612 101.848 43.3345C101.558 43.6036 101.162 43.6834 100.66 43.574L100.259 43.7083L99.9501 43.5709L99.3404 43.4701C99.1996 43.4454 99.0104 43.3802 98.7729 43.2744C98.6462 43.218 98.5258 43.1264 98.4114 42.9996L98.1027 42.8622L97.4723 42.0407L97.2902 41.8743L97.0875 40.9872L96.94 40.5515L96.9462 39.1312L97.2532 37.9303L97.4276 37.6664L97.3539 37.3205L97.6207 37.0409L97.7346 36.4654L97.9749 36.3732L98.1599 36.0856L98.2155 35.7688L98.4534 35.3624L98.5276 34.9401L98.6992 34.8742L98.8684 34.4942L98.7339 34.3489L98.2403 34.243L97.9502 33.7438L97.879 33.7121C97.4039 33.5006 97.2792 33.1415 97.5048 32.6348L97.5365 32.5635L97.4524 31.9853L98.0941 31.7587L98.6456 32.1181L98.9755 32.2081L99.3739 32.5278L99.8727 32.7499L100.084 32.2748L100.072 31.4723L100.454 31.4435L100.494 31.0343L100.846 30.3086L100.793 29.9152C100.76 29.6917 100.775 29.5087 100.839 29.3661C100.916 29.192 101.019 29.0671 101.148 28.9915L101.367 28.6907L101.642 28.5853C102.104 28.6964 102.407 28.7837 102.55 28.8472C103.056 29.0728 103.231 29.4258 103.074 29.9061L102.95 29.9932C102.982 30.178 102.969 30.3337 102.913 30.4604C102.906 30.4762 102.88 30.5123 102.836 30.5686L102.725 30.69L102.627 30.8457L102.585 31.1967L102.508 31.3049L102.408 31.6586L102.067 31.8484L101.974 32.3764L101.626 32.9041L101.72 33.2025L101.34 33.5454L102.119 33.7783L103.372 34.4786L104.491 34.7777L104.837 34.9601L104.966 34.9892L105.893 35.4016C106.383 35.6202 106.551 35.9036 106.396 36.252ZM45.3322 36.715L44.7668 37.3456L44.1701 37.5353L44.0326 37.844C43.8918 37.8193 43.7088 37.8042 43.4835 37.7988L43.4017 37.7908C43.2309 37.9614 43.0548 38.0159 42.8736 37.9542C42.5919 38.0754 42.181 38.0822 41.6407 37.9745C41.2834 38.1379 40.9666 38.1676 40.6903 38.0636L40.2838 38.0818L39.8087 37.8703L39.4734 37.9202L39.3441 37.8911C39.2525 37.9263 39.1329 37.9394 38.985 37.9305L38.6392 38.0042L38.0929 37.761L37.7021 37.8716L36.5856 37.6306C36.4747 37.5813 36.2777 37.5125 35.9944 37.4243L35.3264 37.5823C35.212 37.4555 35.0836 37.3604 34.9411 37.2969L34.7986 37.2335L34.59 37.2544L34.2495 37.1882L33.9723 37.2356L33.7849 37.209L33.8426 37.7186L33.4358 38.2489L33.3005 39.1279L33.0336 39.6636L33.0334 39.9197C33.3448 40.1153 33.4159 40.4031 33.2467 40.7831C33.0845 41.1473 32.6682 41.294 31.9977 41.2231L31.2375 41.1408L30.8924 39.9342L31.0172 38.8228L31.4191 37.9203L31.3509 37.1784L31.7048 37.0229L31.7604 36.7061L31.8688 36.5267C31.4553 36.3047 31.1563 36.1241 30.9716 35.9849L30.6716 34.4853L32.5059 35.1596L32.6116 34.9221L32.8573 34.69L33.3965 33.7347L33.5787 33.645L33.9568 32.7319L34.1972 32.3836L34.8158 31.1221L35.3203 30.6921L35.389 30.6658L35.3969 30.5839C35.5519 30.4063 35.7491 30.3043 35.9885 30.2781L36.5216 30.487L36.6879 30.561C37.3688 30.8642 37.5964 31.2691 37.3708 31.7758C37.2792 31.9817 37.0414 32.2174 36.6576 32.4828L36.6047 32.6016C36.4989 32.8391 36.5005 33.1339 36.6094 33.486L36.2108 33.4224L35.9227 34.0056L35.5319 34.1162L35.4789 34.491L35.1302 34.7627L35.0243 35.2563L34.8341 35.4278L34.7627 35.6521L34.9713 35.6311L35.4463 35.8426C35.7455 35.7672 36.0491 35.7885 36.357 35.9066L36.8165 35.7696C36.8779 35.9298 36.9491 36.0469 37.0301 36.1209C37.2395 36.1193 37.5968 36.1265 38.1018 36.1427L38.4318 36.2327L38.9176 36.1644L39.1076 36.249L39.1525 36.212L39.3187 36.286C39.6354 36.4271 39.9698 36.4431 40.3219 36.3342L40.8233 36.6144L40.8999 36.5062L41.2959 36.5117L41.5573 36.372C41.6136 36.416 41.6893 36.4592 41.7843 36.5015L42.1778 36.1929C42.2852 36.1648 42.3626 36.1613 42.4101 36.1825C42.4576 36.2036 42.4752 36.2494 42.4628 36.3198C42.5456 36.2618 42.6882 36.2399 42.8905 36.2541L42.9672 36.1459L43.1863 36.1011L43.2947 35.9217L43.3134 35.5601L43.2185 35.2617L43.0497 35.1296L42.7676 34.5486L42.0368 33.8248C41.7467 33.411 41.4636 33.0668 41.1874 32.792L40.7122 32.8366L40.2269 32.1367L39.6595 31.941L39.3984 31.5686L39.0184 31.3994L38.7704 31.0613C38.7546 31.0543 38.7229 31.0402 38.6754 31.019C38.6209 31.0137 38.5777 31.004 38.5461 30.9899C38.3561 30.9053 38.1863 30.7538 38.0369 30.5355L37.4985 30.2104L37.0499 30.0676L36.662 29.7242L36.1103 29.6208L36.0602 29.5416L35.6194 29.573L35.4084 29.2798L35.3555 29.3986L34.7854 29.1448L34.2521 29.192L33.7216 29.0411L32.9428 29.0644L32.7797 28.2802C32.7095 27.9264 32.7555 27.5674 32.9176 27.2032L33.3058 27.0345C33.489 26.7935 33.7372 26.7048 34.0505 26.7684C34.3707 26.8161 34.6989 26.8674 35.035 26.9222C35.0984 26.9504 35.1617 26.9786 35.2251 27.0068C35.2813 27.0508 35.3095 27.0728 35.3095 27.0728L35.4652 27.1706L35.3622 27.2101L35.9244 27.2897L35.9745 27.3689C36.0291 27.3742 36.1039 27.398 36.1989 27.4403C36.3414 27.5038 36.4742 27.6104 36.5973 27.76L37.5474 28.183L38.2388 28.5478L39.4606 29.3194L39.7005 29.7393L40.0754 29.7924L40.6189 30.2336L41.3209 30.5746L41.363 30.7357L41.8618 30.9578L42.2601 31.5335L42.7615 31.8137L42.8062 32.0328C43.0912 32.1597 43.3304 32.3895 43.5238 32.7223L44.0411 32.8388L44.0197 33.3984L44.1963 33.7048L44.6001 33.8846L44.708 34.4733L45.3779 35.3977L45.2193 35.754L45.3322 36.715ZM53.3868 43.5741L53.0539 43.9382C52.8706 44.3499 52.7023 44.664 52.5491 44.8803L52.3008 45.0544L52.1845 45.3157L51.9917 45.4291L51.7724 45.7299L51.3948 45.8748L50.9641 46.3946L50.7424 46.3812L50.5311 46.6002L50.172 46.6396L49.8022 46.9588L49.4537 46.9744L49.3031 47.2488L48.7778 47.2142C48.445 47.4075 48.1106 47.4768 47.7745 47.4221L47.6689 47.4035C47.2992 47.6373 46.9322 47.6732 46.568 47.511C46.3673 47.5355 46.1641 47.502 45.9582 47.4103L45.6467 47.4708L45.3774 47.4363L44.9629 47.5364L44.6647 47.3752L44.2899 47.3221L43.9601 46.9761L42.9705 46.4501L42.8574 45.7451L42.5781 44.9662L42.8661 44.639L42.8694 43.6728L43.1731 43.4381L43.3081 42.8152L43.5855 42.5117C43.6526 42.276 43.7072 42.1106 43.7495 42.0156C43.8835 41.7147 44.0614 41.5283 44.2832 41.4562C44.3695 41.3049 44.5887 41.0895 44.9409 40.8099L45.0597 40.8628L45.0862 40.6754L45.3055 40.3746L45.4641 40.0183C45.6543 39.9322 45.7678 39.8689 45.8048 39.8284L45.8816 39.4642L45.9239 39.3692C46.1334 39.1968 46.2911 38.9919 46.3968 38.7544L47.2023 38.2876C47.2023 38.2876 47.2252 38.2788 47.271 38.2613C47.3326 38.2508 47.3863 38.2367 47.432 38.2191L47.4506 38.1136L47.5456 38.1559L48.0817 37.9107L48.3486 37.375L49.0376 37.4256C49.3228 37.3818 49.571 37.2077 49.7824 36.9034L50.0912 37.0409C50.3077 37.0234 50.4872 37.0464 50.6297 37.1098C50.7722 37.1733 50.8927 37.2649 50.9912 37.3846L51.2419 37.5247L51.9652 37.5621L52.1602 38.019L52.3475 38.3016L52.5375 38.3862L52.8092 38.7348L52.9992 38.8194C53.1204 39.1011 53.2416 39.4681 53.3628 39.9205L53.3574 40.0604L53.4814 40.2294L53.6946 41.0928L53.6489 42.4101L53.5431 42.6476L53.3868 43.5741ZM51.5653 43.4462L51.5945 43.3169C51.533 43.1567 51.5225 43.0097 51.5631 42.876L51.6872 42.789L51.6744 42.2425L51.9228 41.8124L51.8807 41.6513C51.7453 41.4013 51.6909 41.2253 51.7173 41.1232C51.603 40.9964 51.6023 40.8063 51.7151 40.553L51.5831 40.4658L51.5096 39.8638L51.3699 39.6024L50.9557 39.1903L50.7868 39.0582C50.6918 39.0159 50.6426 38.956 50.6391 38.8786L49.9314 39.1896L49.3265 39.7172L48.7114 39.7564L48.5238 39.986L48.2334 39.999L47.8634 40.5742L47.515 40.5898C47.3529 40.7833 47.2296 40.9751 47.145 41.1651L46.6063 41.3522L46.6934 41.4763C46.6088 41.6663 46.4635 41.8009 46.2575 41.8799C46.1466 42.0013 46.0127 42.1314 45.856 42.2704L45.7714 42.4604L45.6578 42.5237L45.5547 42.8193L45.0079 43.3442L45.0025 43.4842L44.7064 44.1492L44.4634 44.4394L44.3391 44.7826L44.4153 45.1865L44.695 45.4533L44.7926 45.5537L45.0249 45.5433L45.6213 45.8658L45.8221 45.6705L45.9171 45.7128C46.0121 45.7551 46.057 45.8036 46.0516 45.8581L46.2971 45.882L46.4554 46.0379L46.8594 45.9616L46.9386 45.9115L47.1735 45.9592C47.3619 45.8343 47.7008 45.7765 48.19 45.7856L48.2904 45.688L48.9135 45.567L49.344 45.3033L49.8086 45.2824L49.8852 45.1743L50.1203 44.9659L50.2578 44.6571L50.6486 44.5465L50.8176 44.4225L50.9998 44.3329C51.0211 44.1146 51.0493 43.9659 51.0846 43.8868C51.148 43.7443 51.2625 43.615 51.428 43.4989L51.5653 43.4462ZM63.4451 50.5L62.8428 51.0856L62.8213 51.6453L62.6628 51.7455L62.3986 52.0832L62.0606 52.3312L61.9444 52.3364L61.696 52.7665L61.2473 52.6237C60.934 52.7308 60.6303 52.7948 60.3364 52.8158L60.2045 52.7286L59.7953 52.6887L59.571 52.6173L59.0456 52.5826L58.6288 52.1124L58.5787 52.0332L58.1644 51.8772L58.2382 51.967L57.6155 51.5759L56.9582 51.454L56.8159 51.1345L56.2959 50.9599L56.1694 50.7328C56.1535 50.7257 56.0867 50.7055 55.9688 50.6719L55.9053 50.8145C55.8419 50.957 55.7547 51.0889 55.6437 51.2103L55.514 51.6933L55.2183 51.8462C55.0948 52.2087 54.9943 52.477 54.9168 52.6512L54.5812 53.2133L54.2743 54.1581L53.9785 54.3111L53.9149 54.7097L53.7379 54.9154L53.8487 55.0502L53.6901 55.4064C53.6794 55.5155 53.6635 55.5939 53.6424 55.6414C53.5789 55.7839 53.439 55.8639 53.2225 55.8813L53.1695 56.2561L52.9661 56.3933L52.4956 57.3222C51.9546 58.4095 51.4624 58.8545 51.019 58.657C50.924 58.6147 50.6751 58.428 50.2723 58.0969L50.6608 57.4161L50.9836 56.3075L51.4115 55.9857L51.6679 55.4738L51.8901 54.7189L52.2176 54.4947L52.2471 53.8532L52.5402 53.6422L52.6092 53.1037L52.9896 52.7608C53.0002 52.6517 52.9757 52.5364 52.9159 52.4149C52.872 52.3005 52.8571 52.2275 52.8712 52.1958C52.8923 52.1483 52.9689 52.1255 53.1009 52.1273C53.1062 52.0727 53.1335 51.99 53.1829 51.8792C53.2745 51.6733 53.4419 51.4253 53.6849 51.1351L53.6482 50.8341L53.8569 50.5571L53.7858 50.2693L54.1159 50.1032L54.3276 49.372L54.9037 48.4617L54.8749 48.0789L55.3371 47.7439L55.1684 47.3557L55.5356 46.9784L55.4222 46.7857L55.6257 46.3924L55.9903 45.9571L56.0326 45.8621L56.0987 45.7777L56.215 45.5164L56.2811 45.432L56.3315 44.999L56.63 44.6481L56.6488 44.2865L56.9024 43.9725L56.8497 43.8352L57.1324 43.3919L57.1775 43.0989L57.3308 42.8825L57.3335 42.6845L56.3093 42.6838L56.3727 42.5413L56.1959 42.491L55.8288 42.6122L55.6151 42.5171L55.1608 42.7702L54.9656 42.5694L54.7411 42.7541C54.1697 41.9494 53.9439 41.4125 54.0637 41.1433C54.1483 40.9533 54.2901 40.8267 54.489 40.7634L54.6239 40.3966C55.18 40.3406 55.6596 40.3929 56.0625 40.5533L56.3028 40.461L57.2003 40.4907L57.4406 40.3984L58.0845 40.742L58.2245 40.7474L58.8084 40.0112L59.3255 40.3838L59.4306 41.1706L59.7396 41.052L60.0296 41.5511C60.2355 41.6428 60.4158 41.7705 60.5706 41.9343L60.5941 42.2009L60.7921 42.2037L60.9187 42.4308C61.0295 42.4801 61.1131 42.5268 61.1694 42.5709L61.0822 42.7028L61.6788 42.7692L61.8131 43.1705L62.201 43.514L62.3406 44.0315L62.752 44.6416L62.7546 44.6997L63.1424 45.0431L63.079 45.1856C63.1633 45.337 63.202 45.506 63.1948 45.6925L63.3319 45.8959L63.3581 46.2206L63.6431 46.3475L63.4316 46.8226L63.5239 47.0629L63.4974 47.2503L63.7137 47.4035C63.5833 47.7818 63.5487 48.1364 63.6101 48.4674L63.5361 48.6336L63.6678 48.9769L63.4511 49.3358L63.4508 49.8479L63.3 50.3784L63.4451 50.5ZM61.505 50.0631L61.5342 49.9338L61.6002 49.8493L61.6481 49.3584L61.8382 49.1869L61.8278 48.9546L61.9098 48.7065L61.889 48.2418L61.9103 47.9383L61.829 47.1621L61.6497 46.7977L61.6632 46.3198L61.4918 46.1297L61.3338 45.4617L60.9326 45.34L60.8168 44.833L60.5581 44.7748L60.5293 44.392L60.4449 44.3259L60.1124 44.1779L59.822 44.1909L59.7166 43.9163L59.4579 43.858L59.4369 43.6494L59.0411 43.3878L58.9379 43.6834L58.6895 44.1136L58.6682 44.4172L58.8633 44.874L58.3482 45.3277L58.2133 45.6946L57.7773 46.3543C57.6908 46.6763 57.673 46.9719 57.7239 47.2412L57.5126 47.4602C57.5214 47.4831 57.5222 47.5024 57.5152 47.5183C57.494 47.5658 57.399 47.6088 57.23 47.6474L57.3011 47.9352L57.0554 48.1674L56.8704 48.455L56.7936 48.8193L56.6324 49.1175L57.1312 49.3396C57.2086 49.3361 57.3028 49.359 57.4136 49.4084C57.5561 49.4718 57.6617 49.5757 57.7302 49.7201C57.746 49.7271 57.7812 49.7333 57.8358 49.7386C57.8675 49.7527 57.8912 49.7633 57.907 49.7704C57.9545 49.7915 58.0346 49.8461 58.1472 49.9342C58.2633 49.929 58.361 49.944 58.4402 49.9793C58.5668 50.0357 58.6715 50.1202 58.7541 50.2329L58.9679 50.3281L59.1368 50.4602L59.6753 50.5292L59.9496 50.9359C60.0709 51.0469 60.1158 51.0953 60.0841 51.0812L60.7363 50.8308L60.9319 50.5194L61.0718 50.5248L61.0851 50.3031L61.336 50.1871L61.505 50.0631ZM77.6656 59.3928C77.581 59.5828 77.3362 59.749 76.9314 59.8913L76.7096 59.8779L76.4482 60.0177L75.9678 59.9461C75.8392 60.0217 75.7354 60.0418 75.6562 60.0066C75.6404 59.9995 75.6281 59.9846 75.6193 59.9617C75.5876 59.9476 75.5639 59.937 75.548 59.9299C75.1221 59.949 74.6637 59.8493 74.1728 59.6307L73.9828 59.5461L73.4419 59.163L73.1227 58.7932L72.5585 57.6313L72.654 56.9054L72.4115 56.4274C72.4872 56.3852 72.5568 56.2928 72.6202 56.1503C72.6625 56.0553 72.6697 55.8688 72.6417 55.5907L72.9668 55.0524L73.0091 54.9574C73.0937 54.7673 73.1475 54.4972 73.1706 54.147L73.6304 53.4979L73.0467 53.978L72.6692 53.8669L72.3996 54.3445C72.2448 54.3514 72.0802 54.3161 71.906 54.2386L71.391 54.6923L70.9236 54.9111C70.7334 54.9972 70.5873 55.027 70.4853 55.0006L70.3929 55.0164L69.1465 55.5145L69.0515 55.4722L68.3676 55.7938L67.8448 55.8172L67.4698 56.0202L66.8495 55.9433L65.9282 55.9031L65.5589 55.4541C65.2422 55.3131 65.084 55.0718 65.0842 54.7304L64.9233 54.5165C64.9445 54.469 64.9806 54.4092 65.0317 54.337C65.0669 54.2579 65.0916 54.2024 65.1057 54.1708L64.8737 53.669L65.0322 53.5688L65.0433 52.7769L65.1806 52.7242L65.1542 52.6555C65.1683 52.6238 65.1895 52.5763 65.2177 52.513C65.223 52.4584 65.2327 52.4153 65.2468 52.3836C65.3243 52.2095 65.4221 52.0538 65.5401 51.9166L65.8388 51.3096L65.9659 50.7685C66.1015 50.6771 66.1904 50.5839 66.2327 50.4888C66.2821 50.378 66.2804 50.2539 66.2277 50.1166L66.5736 50.0429L66.7005 49.7579L66.9544 48.9318L67.8925 47.528C68.0053 47.2746 68.0997 46.8708 68.1758 46.3164C68.4489 45.8309 68.9048 45.7018 69.5435 45.9293L69.7018 46.0851L70.0132 46.2807L70.2292 46.9461L69.8117 47.5002L69.3095 48.5004L69.0318 49.3159L68.7624 49.5375L68.749 49.7592L68.4611 50.0864L68.3553 50.3239L68.2761 50.374C68.2708 50.4286 68.2469 50.5034 68.2046 50.5984C68.113 50.8042 67.9862 51.0039 67.8241 51.1974L67.8688 51.4165L67.6152 51.7305L67.5358 52.0367L67.3878 52.3692C67.4246 52.4995 67.4113 52.6359 67.3479 52.7784C67.2915 52.905 67.2034 53.0176 67.0837 53.1161L67.0414 53.2111C67.0007 53.5156 66.9627 53.7074 66.9275 53.7865L67.0461 54.0955C67.1693 54.0744 67.3154 54.0446 67.4844 54.006C67.6024 53.8688 67.759 53.8152 67.9544 53.8453L68.0601 53.6078C68.1551 53.6501 68.3161 53.6933 68.5431 53.7374L68.6858 53.5448L69.1636 53.5583L69.2666 53.5188C69.4268 53.4573 69.6547 53.4355 69.9504 53.4532L69.9927 53.3582L70.592 53.2266C70.8368 52.9751 71.1229 52.8653 71.4502 52.8972C71.702 52.8006 71.8665 52.7505 71.944 52.7471L72.4325 52.4807L72.4643 52.4095L72.5804 52.4043L72.8365 52.4045L73.1033 52.1248L73.6973 52.1331L73.8029 52.1517C73.8029 52.1517 73.883 52.1209 74.0432 52.0594L74.1383 51.8456L74.302 51.8616C74.4623 51.6294 74.6736 51.4958 74.9358 51.4607L75.6517 50.8118L75.9608 50.4371L76.0506 50.3633L76.1456 50.4056L76.3647 50.3608L76.2434 50.2499C76.5445 50.0424 76.813 49.8015 77.049 49.5271L77.7484 49.81L78.0938 50.5045L78.1621 50.9903L77.4461 51.8953L76.8783 52.2117L76.1808 53.0112L75.8799 53.0479L75.7212 53.4042L75.4624 53.602L75.3433 54.0613L75.0793 54.143L74.8359 54.9453L74.4075 56.0353L74.5263 56.0882L74.2513 56.7058L74.4041 57.2576L74.6388 57.5614L74.6097 57.6907C74.7135 57.7559 74.8304 57.8554 74.9606 57.9892L75.5333 58.3011L75.9318 58.3647L76.7106 58.3415C76.8655 58.3346 77.0379 58.3734 77.228 58.458C77.703 58.6695 77.8489 58.9811 77.6656 59.3928ZM86.237 61.7576C86.1595 61.9318 86.0327 62.0461 85.8567 62.1005C85.6454 62.2341 85.3514 62.3404 84.9747 62.4194L84.6632 62.4799L84.3225 62.6697L84.0664 62.6696L83.6387 62.7353L83.3906 62.6533L83.2533 62.706C82.8943 62.66 82.5784 62.7091 82.3055 62.8532C82.1594 62.883 82.0389 62.8768 81.9439 62.8345C81.8805 62.8063 81.8286 62.7737 81.7882 62.7367C81.4485 62.7752 81.0649 62.6993 80.6373 62.5089C80.2731 62.3468 80.0497 62.2093 79.9671 62.0967L79.6453 61.6688L79.6085 61.3678L79.6402 61.2965C79.7319 61.0907 79.7188 60.8857 79.601 60.6814L79.7175 60.1641L79.6227 59.8657L79.8952 58.934L80.1041 58.4009L80.2971 58.0314L80.408 57.9101C80.4028 57.7939 80.4249 57.6804 80.4742 57.5696C80.8495 56.9397 81.0759 56.5377 81.1535 56.3636L81.1301 55.8408L81.5025 55.5797L81.8381 55.0177L81.9704 54.5927L82.2715 54.2999L82.3405 53.7614L82.7023 53.524L82.8213 53.3209L83.1914 52.4895L83.3367 52.355L83.7571 51.3468L84.2831 50.3572L84.2727 50.1249L84.5662 49.4017L84.9229 48.7922L84.9574 48.5229L85.7345 47.1612C86.47 47.299 86.7982 47.3502 86.719 47.315C86.9724 47.4278 87.1183 47.654 87.1568 47.9937L87.1197 48.2049L87.3174 48.7198L86.9053 49.134L86.9105 49.2502C86.7449 49.5369 86.6172 49.7172 86.5273 49.7911L86.3528 50.311L86.2706 50.8152L85.8823 51.24C85.7624 51.5092 85.6135 51.737 85.4357 51.9234C85.4004 52.0026 85.3282 52.1222 85.219 52.2823L85.1318 52.4142L85.2292 52.7707L85.0179 52.9897C84.9931 53.1304 84.9702 53.2246 84.949 53.2721C84.9067 53.3671 84.8187 53.4797 84.6848 53.6098L84.6372 53.8447L84.1562 54.5414L83.9342 55.0402L83.5458 55.4649L83.4399 55.9585L82.8796 56.9613L82.898 57.1118L82.536 57.6052L82.1924 58.2491C82.1184 58.33 82.0779 58.3784 82.0708 58.3942C81.951 58.6634 81.8444 58.8816 81.751 59.0487L81.7217 59.4341L81.5156 59.7693L81.5206 60.1415L81.444 60.2497C81.5037 60.3712 81.5344 60.5366 81.536 60.746L81.7498 60.8412L82.0163 61.0737L82.2434 60.9471L82.4677 61.0186C82.5769 61.0292 82.6552 61.0451 82.7027 61.0662L82.7739 61.098C82.9464 61.1368 83.1083 61.114 83.2597 61.0296L83.4339 61.0218C83.6223 60.897 83.8573 60.8593 84.1389 60.9088C84.2463 60.8807 84.4531 60.821 84.7594 60.7297C84.8581 60.508 85.0667 60.4017 85.3852 60.4107C85.6228 60.5164 85.7987 60.5473 85.9132 60.5034C86.2087 60.6919 86.3679 60.8671 86.3906 61.0291C86.4363 61.1822 86.3851 61.425 86.237 61.7576ZM99.988 59.4556L99.613 59.6586L99.5493 60.3133L99.0818 60.5321L98.741 60.978L98.6169 61.065L98.6115 61.2049C98.5128 61.4266 98.3834 61.5682 98.2232 61.6297L98.1439 61.6798L98.1016 61.7748C98.0998 61.9068 98.0777 62.0203 98.0354 62.1153C98.0002 62.1945 97.9676 62.2464 97.9376 62.271L97.9191 62.3766L97.7077 62.5956L97.6521 62.9123L97.3775 63.0177L97.3007 63.382L97.3692 63.6117L97.0708 63.7066L96.9016 64.0866L96.5661 64.3926L96.5157 64.8255L96.2886 64.9521L96.4521 65.2241L95.8763 65.6223L95.8208 65.683L96.0372 65.8363L95.6277 66.3086L95.5854 66.4036C95.5361 66.5144 95.4894 66.598 95.4453 66.6543L95.4374 66.7361L95.7962 66.9528L95.8935 67.5653L95.5686 67.8476L95.8405 67.9402C95.8509 68.1725 95.8323 68.3634 95.7847 68.513L95.2698 68.7106C95.1096 68.7721 94.9019 68.8125 94.6467 68.8317L94.1477 68.8656L94.0818 68.694L93.7808 68.7308L93.4252 67.5479L93.605 67.1441C93.651 66.7851 93.7339 66.471 93.8538 66.2018L93.9172 66.0593L94.3986 64.5945L95.0328 63.6815L95.1441 63.048L94.4442 63.5332L93.9555 64.0556L93.7232 64.066L93.158 64.4405L92.321 64.7224L92.0278 64.9334L91.3043 65.1521L91.0481 65.408L90.0765 65.5446L88.8671 66.0877L88.3735 65.9817L87.959 66.0818C87.5701 65.8897 87.3362 65.6053 87.2573 65.2286C86.6998 64.563 86.5498 63.8985 86.8072 63.2352L86.9577 63.2168L86.9974 63.0637L87.1005 62.7681L87.0955 62.3959L87.386 62.1268L87.6556 61.6492L88.1709 60.9394C88.1779 60.9236 88.192 60.8919 88.2132 60.8444C88.2114 60.8057 88.2176 60.7705 88.2317 60.7388C88.2599 60.6755 88.311 60.6033 88.385 60.5224C88.3832 60.4837 88.4035 60.4168 88.4458 60.3218C88.4952 60.211 88.6238 60.05 88.8316 59.839L89.0296 59.8418C88.9698 59.7203 88.9611 59.612 89.0034 59.517C89.0316 59.4537 89.0606 59.4097 89.0906 59.3851C89.0959 59.3305 89.1126 59.2716 89.1408 59.2083C89.2254 59.0182 89.3839 58.918 89.6162 58.9076C89.7342 58.7704 89.8918 58.6508 90.089 58.5489L90.0548 58.306L90.4985 58.0766L90.5408 57.9816C90.6748 57.6808 90.9011 57.4495 91.2197 57.2878L91.3863 56.8497L91.5236 56.7969C91.5307 56.7811 91.5412 56.7574 91.5553 56.7257C91.5536 56.687 91.5563 56.6597 91.5633 56.6439C91.6056 56.5488 91.6725 56.4838 91.7641 56.4486L91.8275 56.3061C91.9614 56.176 92.2334 56.0125 92.6436 55.8156C93.0538 55.6188 93.3751 55.4298 93.6075 55.2487L93.6734 55.4203L93.9875 55.4179L94.1275 55.4233L95.0699 55.416L96.8565 56.3253L96.7825 56.4915L97.2997 56.8641C97.6639 57.0262 97.8485 57.2507 97.8536 57.5376C97.8748 57.4901 97.9074 57.4382 97.9514 57.3819C97.9725 57.3344 97.9866 57.3028 97.9937 57.2869L98.2916 57.9603L98.7006 58.2562L99.6508 58.4232L99.6952 59.1544L99.988 59.4556ZM97.1817 59.6861L97.1607 59.4775L96.9918 59.3454L96.5199 58.4238L96.0766 58.141L95.6965 57.9718L95.6702 57.9031L95.4484 57.8898L95.2875 57.6759L94.67 57.4009L94.6989 57.5276L94.068 57.4744L93.9202 57.5509L93.8383 57.5429C93.4475 57.6535 93.1615 57.7633 92.9801 57.8723L92.5601 58.3684L92.3699 58.5398L92.4594 58.9781L91.9181 59.1071L91.9233 59.2233C91.6152 59.4466 91.3976 59.7008 91.2707 59.9858L90.975 60.1387L90.7846 60.5662L90.4994 60.6954L90.3567 60.888L90.2643 60.9038L90.1163 61.2363L89.9922 61.3234C89.9075 61.5134 89.8247 61.6568 89.7437 61.7535L89.7383 61.8934L89.3236 62.2495L89.3552 62.4344L89.0832 62.5978L89.0485 63.1232L88.6392 63.3394L88.4858 63.8118L88.4541 63.8831L88.5279 63.9729L88.6572 64.002C88.7717 63.9581 88.8826 63.9221 88.9899 63.894L89.027 63.6828L89.3807 63.7834L89.526 63.6488L91.435 63.1326L91.5987 63.1486L91.9447 62.8188C92.0538 62.8295 92.2166 62.8261 92.4331 62.8086L92.7448 62.492L92.9348 62.5766L93.0433 62.1411L93.397 62.2416C93.4569 62.1924 93.5396 62.1344 93.6453 62.0676C93.7668 62.0078 93.8847 61.956 93.9991 61.9121L95.9296 60.8362L96.2783 60.5646L96.2968 60.459L96.5794 60.2717L96.7432 60.0316L97.0416 59.9368L97.1817 59.6861ZM111.436 65.4915L110.897 66.1908L109.965 65.9182L109.352 66.0155L109.107 65.7355L108.69 65.7775L108.27 65.7614L107.959 65.8219L107.916 65.9169L107.312 65.9323L106.789 66.2118L106.623 66.1378C106.249 66.2942 105.993 66.3794 105.854 66.3934L105.278 66.7916L105.139 66.7863C105.035 66.8918 104.895 67.0571 104.718 67.2823L104.333 67.253L104.064 67.4746L103.768 67.6275L103.562 67.9626L103.34 67.9493L103.181 68.3056L103.078 68.3451C103.091 68.4454 103.107 68.5572 103.128 68.6804L102.709 68.6643L102.524 68.9519L102.106 69.2499L102.111 69.6222L101.612 69.9122C101.573 70.0847 101.54 70.2026 101.512 70.2659C101.505 70.2817 101.491 70.3134 101.469 70.3609C101.432 70.4014 101.407 70.4374 101.393 70.4691L101.345 70.704L101.559 71.3113L101.006 71.7202L100.626 71.807L99.8132 71.8435L99.093 71.0959L99.3362 70.5496L99.3364 70.2935L99.5663 69.969C99.6474 69.7015 99.7162 69.5044 99.7726 69.3778C99.7937 69.3303 99.8298 69.2704 99.8809 69.1983C99.9162 69.1191 99.9408 69.0637 99.9549 69.0321L100.037 68.784C99.9754 68.6238 99.9764 68.4724 100.04 68.3299C100.096 68.2032 100.215 68.0854 100.396 67.9764C100.432 67.8972 100.522 67.6526 100.666 67.2427L100.769 67.2031L100.835 66.8626L101.01 66.5988L101.036 66.4113L101.351 65.8968L101.314 65.5958L101.525 65.3768L101.568 65.0257C101.626 64.9378 101.69 64.8146 101.761 64.6563C101.867 64.4188 101.905 64.2463 101.877 64.1389L102.036 64.0387L102.131 63.5689L102.055 63.1649L102.343 62.8378L102.311 62.653L102.47 62.0406L102.555 61.8506C102.518 61.7203 102.531 61.5839 102.595 61.4414C102.736 61.1247 103.204 61.0106 103.999 61.0992L104.54 61.4823L104.458 61.9865L104.558 62.401L104.201 63.0106C104.108 63.3484 104.008 63.7215 103.902 64.1297L103.804 64.5415C103.806 64.5802 103.783 64.6743 103.735 64.8239C103.693 64.9189 103.608 65.0042 103.479 65.0798L103.339 65.5866L103.059 66.088L102.858 66.2832L102.887 66.4099L102.829 66.6686C102.973 66.6 103.081 66.506 103.154 66.3863L103.407 66.0723C103.497 65.9985 103.6 65.959 103.716 65.9538L103.97 65.6398L104.387 65.5978L104.561 65.3339L104.95 65.1652L105.298 64.8935C105.603 64.7635 105.864 64.7091 106.082 64.7304L106.162 64.6803L106.523 64.4429L106.782 64.5012L106.885 64.4616L107.043 64.3614L107.368 64.3352L107.585 64.2324L107.717 64.3196L107.949 64.3092L108.107 64.209L108.456 64.1934L108.976 64.1119L109.631 64.1757C109.866 64.2427 109.992 64.2798 110.008 64.2868C110.001 64.3026 109.998 64.3106 109.998 64.3106C109.982 64.3035 109.97 64.3079 109.963 64.3237L109.987 64.3343C110.05 64.3625 110.159 64.3731 110.314 64.3662C110.422 64.3381 110.547 64.3558 110.689 64.4193C110.752 64.4475 110.856 64.5126 111.001 64.6148C111.405 64.8139 111.55 65.1062 111.436 65.4915Z" fill="black"/>
</g>
<defs>
<clipPath id="clip0_0:43499">
<rect width="123" height="139" fill="white"/>
</clipPath>
</defs>
</svg>
